<?xml version="1.0" encoding="utf-8" standalone="no"?>
<!DOCTYPE svg PUBLIC "-//W3C//DTD SVG 1.1//EN"
  "http://www.w3.org/Graphics/SVG/1.1/DTD/svg11.dtd">
<svg xmlns:xlink="http://www.w3.org/1999/xlink" width="1008pt" height="576pt" viewBox="0 0 1008 576" xmlns="http://www.w3.org/2000/svg" version="1.1">
 <metadata>
  <rdf:RDF xmlns:dc="http://purl.org/dc/elements/1.1/" xmlns:cc="http://creativecommons.org/ns#" xmlns:rdf="http://www.w3.org/1999/02/22-rdf-syntax-ns#">
   <cc:Work>
    <dc:type rdf:resource="http://purl.org/dc/dcmitype/StillImage"/>
    <dc:date>2026-06-06T14:11:38.010917</dc:date>
    <dc:format>image/svg+xml</dc:format>
    <dc:creator>
     <cc:Agent>
      <dc:title>Matplotlib v3.10.0, https://matplotlib.org/</dc:title>
     </cc:Agent>
    </dc:creator>
   </cc:Work>
  </rdf:RDF>
 </metadata>
 <defs>
  <style type="text/css">*{stroke-linejoin: round; stroke-linecap: butt}</style>
 </defs>
 <g id="figure_1">
  <g id="patch_1">
   <path d="M 0 576 
L 1008 576 
L 1008 0 
L 0 0 
z
" style="fill: #ffffff"/>
  </g>
  <g id="axes_1">
   <g id="patch_2">
    <path d="M 76.34 526.12 
L 695.18 526.12 
L 695.18 32.64 
L 76.34 32.64 
z
" style="fill: #ffffff"/>
   </g>
   <g id="patch_3">
    <path d="M 179.48 2327.463968 
L 179.48 2327.463968 
L 179.48 2327.463968 
L 179.48 2327.463968 
z
" clip-path="url(#p01830a357a)" style="fill: #3274a1; stroke: #3d3d3d; stroke-linejoin: miter"/>
   </g>
   <g id="patch_4">
    <path d="M 179.48 2327.463968 
L 179.48 2327.463968 
L 179.48 2327.463968 
L 179.48 2327.463968 
z
" clip-path="url(#p01830a357a)" style="fill: #e1812c; stroke: #3d3d3d; stroke-linejoin: miter"/>
   </g>
   <g id="patch_5">
    <path d="M 179.48 2327.463968 
L 179.48 2327.463968 
L 179.48 2327.463968 
L 179.48 2327.463968 
z
" clip-path="url(#p01830a357a)" style="fill: #3a923a; stroke: #3d3d3d; stroke-linejoin: miter"/>
   </g>
   <g id="patch_6">
    <path d="M 179.48 2327.463968 
L 179.48 2327.463968 
L 179.48 2327.463968 
L 179.48 2327.463968 
z
" clip-path="url(#p01830a357a)" style="fill: #c03d3e; stroke: #3d3d3d; stroke-linejoin: miter"/>
   </g>
   <g id="patch_7">
    <path d="M 179.48 2327.463968 
L 179.48 2327.463968 
L 179.48 2327.463968 
L 179.48 2327.463968 
z
" clip-path="url(#p01830a357a)" style="fill: #9372b2; stroke: #3d3d3d; stroke-linejoin: miter"/>
   </g>
   <g id="patch_8">
    <path d="M 179.48 2327.463968 
L 179.48 2327.463968 
L 179.48 2327.463968 
L 179.48 2327.463968 
z
" clip-path="url(#p01830a357a)" style="fill: #845b53; stroke: #3d3d3d; stroke-linejoin: miter"/>
   </g>
   <g id="patch_9">
    <path d="M 179.48 2327.463968 
L 179.48 2327.463968 
L 179.48 2327.463968 
L 179.48 2327.463968 
z
" clip-path="url(#p01830a357a)" style="fill: #d684bd; stroke: #3d3d3d; stroke-linejoin: miter"/>
   </g>
   <g id="matplotlib.axis_1">
    <g id="xtick_1">
     <g id="line2d_1">
      <defs>
       <path id="m8168601197" d="M 0 0 
L 0 3.5 
" style="stroke: #000000; stroke-width: 0.8"/>
      </defs>
      <g>
       <use xlink:href="#m8168601197" x="179.48" y="526.12" style="stroke: #000000; stroke-width: 0.8"/>
      </g>
     </g>
     <g id="text_1">
      <!-- MLP -->
      <g transform="translate(165.319219 543.757812) scale(0.14 -0.14)">
       <defs>
        <path id="DejaVuSans-4d" d="M 628 4666 
L 1569 4666 
L 2759 1491 
L 3956 4666 
L 4897 4666 
L 4897 0 
L 4281 0 
L 4281 4097 
L 3078 897 
L 2444 897 
L 1241 4097 
L 1241 0 
L 628 0 
L 628 4666 
z
" transform="scale(0.015625)"/>
        <path id="DejaVuSans-4c" d="M 628 4666 
L 1259 4666 
L 1259 531 
L 3531 531 
L 3531 0 
L 628 0 
L 628 4666 
z
" transform="scale(0.015625)"/>
        <path id="DejaVuSans-50" d="M 1259 4147 
L 1259 2394 
L 2053 2394 
Q 2494 2394 2734 2622 
Q 2975 2850 2975 3272 
Q 2975 3691 2734 3919 
Q 2494 4147 2053 4147 
L 1259 4147 
z
M 628 4666 
L 2053 4666 
Q 2838 4666 3239 4311 
Q 3641 3956 3641 3272 
Q 3641 2581 3239 2228 
Q 2838 1875 2053 1875 
L 1259 1875 
L 1259 0 
L 628 0 
L 628 4666 
z
" transform="scale(0.015625)"/>
       </defs>
       <use xlink:href="#DejaVuSans-4d"/>
       <use xlink:href="#DejaVuSans-4c" transform="translate(86.279297 0)"/>
       <use xlink:href="#DejaVuSans-50" transform="translate(141.992188 0)"/>
      </g>
     </g>
    </g>
    <g id="xtick_2">
     <g id="line2d_2">
      <g>
       <use xlink:href="#m8168601197" x="385.76" y="526.12" style="stroke: #000000; stroke-width: 0.8"/>
      </g>
     </g>
     <g id="text_2">
      <!-- CNN-Hybrid -->
      <g transform="translate(344.755313 543.757812) scale(0.14 -0.14)">
       <defs>
        <path id="DejaVuSans-43" d="M 4122 4306 
L 4122 3641 
Q 3803 3938 3442 4084 
Q 3081 4231 2675 4231 
Q 1875 4231 1450 3742 
Q 1025 3253 1025 2328 
Q 1025 1406 1450 917 
Q 1875 428 2675 428 
Q 3081 428 3442 575 
Q 3803 722 4122 1019 
L 4122 359 
Q 3791 134 3420 21 
Q 3050 -91 2638 -91 
Q 1578 -91 968 557 
Q 359 1206 359 2328 
Q 359 3453 968 4101 
Q 1578 4750 2638 4750 
Q 3056 4750 3426 4639 
Q 3797 4528 4122 4306 
z
" transform="scale(0.015625)"/>
        <path id="DejaVuSans-4e" d="M 628 4666 
L 1478 4666 
L 3547 763 
L 3547 4666 
L 4159 4666 
L 4159 0 
L 3309 0 
L 1241 3903 
L 1241 0 
L 628 0 
L 628 4666 
z
" transform="scale(0.015625)"/>
        <path id="DejaVuSans-2d" d="M 313 2009 
L 1997 2009 
L 1997 1497 
L 313 1497 
L 313 2009 
z
" transform="scale(0.015625)"/>
        <path id="DejaVuSans-48" d="M 628 4666 
L 1259 4666 
L 1259 2753 
L 3553 2753 
L 3553 4666 
L 4184 4666 
L 4184 0 
L 3553 0 
L 3553 2222 
L 1259 2222 
L 1259 0 
L 628 0 
L 628 4666 
z
" transform="scale(0.015625)"/>
        <path id="DejaVuSans-79" d="M 2059 -325 
Q 1816 -950 1584 -1140 
Q 1353 -1331 966 -1331 
L 506 -1331 
L 506 -850 
L 844 -850 
Q 1081 -850 1212 -737 
Q 1344 -625 1503 -206 
L 1606 56 
L 191 3500 
L 800 3500 
L 1894 763 
L 2988 3500 
L 3597 3500 
L 2059 -325 
z
" transform="scale(0.015625)"/>
        <path id="DejaVuSans-62" d="M 3116 1747 
Q 3116 2381 2855 2742 
Q 2594 3103 2138 3103 
Q 1681 3103 1420 2742 
Q 1159 2381 1159 1747 
Q 1159 1113 1420 752 
Q 1681 391 2138 391 
Q 2594 391 2855 752 
Q 3116 1113 3116 1747 
z
M 1159 2969 
Q 1341 3281 1617 3432 
Q 1894 3584 2278 3584 
Q 2916 3584 3314 3078 
Q 3713 2572 3713 1747 
Q 3713 922 3314 415 
Q 2916 -91 2278 -91 
Q 1894 -91 1617 61 
Q 1341 213 1159 525 
L 1159 0 
L 581 0 
L 581 4863 
L 1159 4863 
L 1159 2969 
z
" transform="scale(0.015625)"/>
        <path id="DejaVuSans-72" d="M 2631 2963 
Q 2534 3019 2420 3045 
Q 2306 3072 2169 3072 
Q 1681 3072 1420 2755 
Q 1159 2438 1159 1844 
L 1159 0 
L 581 0 
L 581 3500 
L 1159 3500 
L 1159 2956 
Q 1341 3275 1631 3429 
Q 1922 3584 2338 3584 
Q 2397 3584 2469 3576 
Q 2541 3569 2628 3553 
L 2631 2963 
z
" transform="scale(0.015625)"/>
        <path id="DejaVuSans-69" d="M 603 3500 
L 1178 3500 
L 1178 0 
L 603 0 
L 603 3500 
z
M 603 4863 
L 1178 4863 
L 1178 4134 
L 603 4134 
L 603 4863 
z
" transform="scale(0.015625)"/>
        <path id="DejaVuSans-64" d="M 2906 2969 
L 2906 4863 
L 3481 4863 
L 3481 0 
L 2906 0 
L 2906 525 
Q 2725 213 2448 61 
Q 2172 -91 1784 -91 
Q 1150 -91 751 415 
Q 353 922 353 1747 
Q 353 2572 751 3078 
Q 1150 3584 1784 3584 
Q 2172 3584 2448 3432 
Q 2725 3281 2906 2969 
z
M 947 1747 
Q 947 1113 1208 752 
Q 1469 391 1925 391 
Q 2381 391 2643 752 
Q 2906 1113 2906 1747 
Q 2906 2381 2643 2742 
Q 2381 3103 1925 3103 
Q 1469 3103 1208 2742 
Q 947 2381 947 1747 
z
" transform="scale(0.015625)"/>
       </defs>
       <use xlink:href="#DejaVuSans-43"/>
       <use xlink:href="#DejaVuSans-4e" transform="translate(69.824219 0)"/>
       <use xlink:href="#DejaVuSans-4e" transform="translate(144.628906 0)"/>
       <use xlink:href="#DejaVuSans-2d" transform="translate(219.433594 0)"/>
       <use xlink:href="#DejaVuSans-48" transform="translate(255.517578 0)"/>
       <use xlink:href="#DejaVuSans-79" transform="translate(330.712891 0)"/>
       <use xlink:href="#DejaVuSans-62" transform="translate(389.892578 0)"/>
       <use xlink:href="#DejaVuSans-72" transform="translate(453.369141 0)"/>
       <use xlink:href="#DejaVuSans-69" transform="translate(494.482422 0)"/>
       <use xlink:href="#DejaVuSans-64" transform="translate(522.265625 0)"/>
      </g>
     </g>
    </g>
    <g id="xtick_3">
     <g id="line2d_3">
      <g>
       <use xlink:href="#m8168601197" x="592.04" y="526.12" style="stroke: #000000; stroke-width: 0.8"/>
      </g>
     </g>
     <g id="text_3">
      <!-- ProtBERT-MLP -->
      <g transform="translate(544.289062 543.757812) scale(0.14 -0.14)">
       <defs>
        <path id="DejaVuSans-6f" d="M 1959 3097 
Q 1497 3097 1228 2736 
Q 959 2375 959 1747 
Q 959 1119 1226 758 
Q 1494 397 1959 397 
Q 2419 397 2687 759 
Q 2956 1122 2956 1747 
Q 2956 2369 2687 2733 
Q 2419 3097 1959 3097 
z
M 1959 3584 
Q 2709 3584 3137 3096 
Q 3566 2609 3566 1747 
Q 3566 888 3137 398 
Q 2709 -91 1959 -91 
Q 1206 -91 779 398 
Q 353 888 353 1747 
Q 353 2609 779 3096 
Q 1206 3584 1959 3584 
z
" transform="scale(0.015625)"/>
        <path id="DejaVuSans-74" d="M 1172 4494 
L 1172 3500 
L 2356 3500 
L 2356 3053 
L 1172 3053 
L 1172 1153 
Q 1172 725 1289 603 
Q 1406 481 1766 481 
L 2356 481 
L 2356 0 
L 1766 0 
Q 1100 0 847 248 
Q 594 497 594 1153 
L 594 3053 
L 172 3053 
L 172 3500 
L 594 3500 
L 594 4494 
L 1172 4494 
z
" transform="scale(0.015625)"/>
        <path id="DejaVuSans-42" d="M 1259 2228 
L 1259 519 
L 2272 519 
Q 2781 519 3026 730 
Q 3272 941 3272 1375 
Q 3272 1813 3026 2020 
Q 2781 2228 2272 2228 
L 1259 2228 
z
M 1259 4147 
L 1259 2741 
L 2194 2741 
Q 2656 2741 2882 2914 
Q 3109 3088 3109 3444 
Q 3109 3797 2882 3972 
Q 2656 4147 2194 4147 
L 1259 4147 
z
M 628 4666 
L 2241 4666 
Q 2963 4666 3353 4366 
Q 3744 4066 3744 3513 
Q 3744 3084 3544 2831 
Q 3344 2578 2956 2516 
Q 3422 2416 3680 2098 
Q 3938 1781 3938 1306 
Q 3938 681 3513 340 
Q 3088 0 2303 0 
L 628 0 
L 628 4666 
z
" transform="scale(0.015625)"/>
        <path id="DejaVuSans-45" d="M 628 4666 
L 3578 4666 
L 3578 4134 
L 1259 4134 
L 1259 2753 
L 3481 2753 
L 3481 2222 
L 1259 2222 
L 1259 531 
L 3634 531 
L 3634 0 
L 628 0 
L 628 4666 
z
" transform="scale(0.015625)"/>
        <path id="DejaVuSans-52" d="M 2841 2188 
Q 3044 2119 3236 1894 
Q 3428 1669 3622 1275 
L 4263 0 
L 3584 0 
L 2988 1197 
Q 2756 1666 2539 1819 
Q 2322 1972 1947 1972 
L 1259 1972 
L 1259 0 
L 628 0 
L 628 4666 
L 2053 4666 
Q 2853 4666 3247 4331 
Q 3641 3997 3641 3322 
Q 3641 2881 3436 2590 
Q 3231 2300 2841 2188 
z
M 1259 4147 
L 1259 2491 
L 2053 2491 
Q 2509 2491 2742 2702 
Q 2975 2913 2975 3322 
Q 2975 3731 2742 3939 
Q 2509 4147 2053 4147 
L 1259 4147 
z
" transform="scale(0.015625)"/>
        <path id="DejaVuSans-54" d="M -19 4666 
L 3928 4666 
L 3928 4134 
L 2272 4134 
L 2272 0 
L 1638 0 
L 1638 4134 
L -19 4134 
L -19 4666 
z
" transform="scale(0.015625)"/>
       </defs>
       <use xlink:href="#DejaVuSans-50"/>
       <use xlink:href="#DejaVuSans-72" transform="translate(58.552734 0)"/>
       <use xlink:href="#DejaVuSans-6f" transform="translate(97.416016 0)"/>
       <use xlink:href="#DejaVuSans-74" transform="translate(158.597656 0)"/>
       <use xlink:href="#DejaVuSans-42" transform="translate(197.806641 0)"/>
       <use xlink:href="#DejaVuSans-45" transform="translate(266.410156 0)"/>
       <use xlink:href="#DejaVuSans-52" transform="translate(329.59375 0)"/>
       <use xlink:href="#DejaVuSans-54" transform="translate(391.826172 0)"/>
       <use xlink:href="#DejaVuSans-2d" transform="translate(443.785156 0)"/>
       <use xlink:href="#DejaVuSans-4d" transform="translate(479.869141 0)"/>
       <use xlink:href="#DejaVuSans-4c" transform="translate(566.148438 0)"/>
       <use xlink:href="#DejaVuSans-50" transform="translate(621.861328 0)"/>
      </g>
     </g>
    </g>
    <g id="text_4">
     <!-- Model -->
     <g transform="translate(361.73875 562.826875) scale(0.16 -0.16)">
      <defs>
       <path id="DejaVuSans-65" d="M 3597 1894 
L 3597 1613 
L 953 1613 
Q 991 1019 1311 708 
Q 1631 397 2203 397 
Q 2534 397 2845 478 
Q 3156 559 3463 722 
L 3463 178 
Q 3153 47 2828 -22 
Q 2503 -91 2169 -91 
Q 1331 -91 842 396 
Q 353 884 353 1716 
Q 353 2575 817 3079 
Q 1281 3584 2069 3584 
Q 2775 3584 3186 3129 
Q 3597 2675 3597 1894 
z
M 3022 2063 
Q 3016 2534 2758 2815 
Q 2500 3097 2075 3097 
Q 1594 3097 1305 2825 
Q 1016 2553 972 2059 
L 3022 2063 
z
" transform="scale(0.015625)"/>
       <path id="DejaVuSans-6c" d="M 603 4863 
L 1178 4863 
L 1178 0 
L 603 0 
L 603 4863 
z
" transform="scale(0.015625)"/>
      </defs>
      <use xlink:href="#DejaVuSans-4d"/>
      <use xlink:href="#DejaVuSans-6f" transform="translate(86.279297 0)"/>
      <use xlink:href="#DejaVuSans-64" transform="translate(147.460938 0)"/>
      <use xlink:href="#DejaVuSans-65" transform="translate(210.9375 0)"/>
      <use xlink:href="#DejaVuSans-6c" transform="translate(272.460938 0)"/>
     </g>
    </g>
   </g>
   <g id="matplotlib.axis_2">
    <g id="ytick_1">
     <g id="line2d_4">
      <path d="M 76.34 508.618212 
L 695.18 508.618212 
" clip-path="url(#p01830a357a)" style="fill: none; stroke-dasharray: 2.96,1.28; stroke-dashoffset: 0; stroke: #b0b0b0; stroke-opacity: 0.7; stroke-width: 0.8"/>
     </g>
     <g id="line2d_5">
      <defs>
       <path id="m03c39fe24e" d="M 0 0 
L -3.5 0 
" style="stroke: #000000; stroke-width: 0.8"/>
      </defs>
      <g>
       <use xlink:href="#m03c39fe24e" x="76.34" y="508.618212" style="stroke: #000000; stroke-width: 0.8"/>
      </g>
     </g>
     <g id="text_5">
      <!-- 0.675 -->
      <g transform="translate(29.260625 513.937118) scale(0.14 -0.14)">
       <defs>
        <path id="DejaVuSans-30" d="M 2034 4250 
Q 1547 4250 1301 3770 
Q 1056 3291 1056 2328 
Q 1056 1369 1301 889 
Q 1547 409 2034 409 
Q 2525 409 2770 889 
Q 3016 1369 3016 2328 
Q 3016 3291 2770 3770 
Q 2525 4250 2034 4250 
z
M 2034 4750 
Q 2819 4750 3233 4129 
Q 3647 3509 3647 2328 
Q 3647 1150 3233 529 
Q 2819 -91 2034 -91 
Q 1250 -91 836 529 
Q 422 1150 422 2328 
Q 422 3509 836 4129 
Q 1250 4750 2034 4750 
z
" transform="scale(0.015625)"/>
        <path id="DejaVuSans-2e" d="M 684 794 
L 1344 794 
L 1344 0 
L 684 0 
L 684 794 
z
" transform="scale(0.015625)"/>
        <path id="DejaVuSans-36" d="M 2113 2584 
Q 1688 2584 1439 2293 
Q 1191 2003 1191 1497 
Q 1191 994 1439 701 
Q 1688 409 2113 409 
Q 2538 409 2786 701 
Q 3034 994 3034 1497 
Q 3034 2003 2786 2293 
Q 2538 2584 2113 2584 
z
M 3366 4563 
L 3366 3988 
Q 3128 4100 2886 4159 
Q 2644 4219 2406 4219 
Q 1781 4219 1451 3797 
Q 1122 3375 1075 2522 
Q 1259 2794 1537 2939 
Q 1816 3084 2150 3084 
Q 2853 3084 3261 2657 
Q 3669 2231 3669 1497 
Q 3669 778 3244 343 
Q 2819 -91 2113 -91 
Q 1303 -91 875 529 
Q 447 1150 447 2328 
Q 447 3434 972 4092 
Q 1497 4750 2381 4750 
Q 2619 4750 2861 4703 
Q 3103 4656 3366 4563 
z
" transform="scale(0.015625)"/>
        <path id="DejaVuSans-37" d="M 525 4666 
L 3525 4666 
L 3525 4397 
L 1831 0 
L 1172 0 
L 2766 4134 
L 525 4134 
L 525 4666 
z
" transform="scale(0.015625)"/>
        <path id="DejaVuSans-35" d="M 691 4666 
L 3169 4666 
L 3169 4134 
L 1269 4134 
L 1269 2991 
Q 1406 3038 1543 3061 
Q 1681 3084 1819 3084 
Q 2600 3084 3056 2656 
Q 3513 2228 3513 1497 
Q 3513 744 3044 326 
Q 2575 -91 1722 -91 
Q 1428 -91 1123 -41 
Q 819 9 494 109 
L 494 744 
Q 775 591 1075 516 
Q 1375 441 1709 441 
Q 2250 441 2565 725 
Q 2881 1009 2881 1497 
Q 2881 1984 2565 2268 
Q 2250 2553 1709 2553 
Q 1456 2553 1204 2497 
Q 953 2441 691 2322 
L 691 4666 
z
" transform="scale(0.015625)"/>
       </defs>
       <use xlink:href="#DejaVuSans-30"/>
       <use xlink:href="#DejaVuSans-2e" transform="translate(63.623047 0)"/>
       <use xlink:href="#DejaVuSans-36" transform="translate(95.410156 0)"/>
       <use xlink:href="#DejaVuSans-37" transform="translate(159.033203 0)"/>
       <use xlink:href="#DejaVuSans-35" transform="translate(222.65625 0)"/>
      </g>
     </g>
    </g>
    <g id="ytick_2">
     <g id="line2d_6">
      <path d="M 76.34 441.253555 
L 695.18 441.253555 
" clip-path="url(#p01830a357a)" style="fill: none; stroke-dasharray: 2.96,1.28; stroke-dashoffset: 0; stroke: #b0b0b0; stroke-opacity: 0.7; stroke-width: 0.8"/>
     </g>
     <g id="line2d_7">
      <g>
       <use xlink:href="#m03c39fe24e" x="76.34" y="441.253555" style="stroke: #000000; stroke-width: 0.8"/>
      </g>
     </g>
     <g id="text_6">
      <!-- 0.700 -->
      <g transform="translate(29.260625 446.572461) scale(0.14 -0.14)">
       <use xlink:href="#DejaVuSans-30"/>
       <use xlink:href="#DejaVuSans-2e" transform="translate(63.623047 0)"/>
       <use xlink:href="#DejaVuSans-37" transform="translate(95.410156 0)"/>
       <use xlink:href="#DejaVuSans-30" transform="translate(159.033203 0)"/>
       <use xlink:href="#DejaVuSans-30" transform="translate(222.65625 0)"/>
      </g>
     </g>
    </g>
    <g id="ytick_3">
     <g id="line2d_8">
      <path d="M 76.34 373.888897 
L 695.18 373.888897 
" clip-path="url(#p01830a357a)" style="fill: none; stroke-dasharray: 2.96,1.28; stroke-dashoffset: 0; stroke: #b0b0b0; stroke-opacity: 0.7; stroke-width: 0.8"/>
     </g>
     <g id="line2d_9">
      <g>
       <use xlink:href="#m03c39fe24e" x="76.34" y="373.888897" style="stroke: #000000; stroke-width: 0.8"/>
      </g>
     </g>
     <g id="text_7">
      <!-- 0.725 -->
      <g transform="translate(29.260625 379.207803) scale(0.14 -0.14)">
       <defs>
        <path id="DejaVuSans-32" d="M 1228 531 
L 3431 531 
L 3431 0 
L 469 0 
L 469 531 
Q 828 903 1448 1529 
Q 2069 2156 2228 2338 
Q 2531 2678 2651 2914 
Q 2772 3150 2772 3378 
Q 2772 3750 2511 3984 
Q 2250 4219 1831 4219 
Q 1534 4219 1204 4116 
Q 875 4013 500 3803 
L 500 4441 
Q 881 4594 1212 4672 
Q 1544 4750 1819 4750 
Q 2544 4750 2975 4387 
Q 3406 4025 3406 3419 
Q 3406 3131 3298 2873 
Q 3191 2616 2906 2266 
Q 2828 2175 2409 1742 
Q 1991 1309 1228 531 
z
" transform="scale(0.015625)"/>
       </defs>
       <use xlink:href="#DejaVuSans-30"/>
       <use xlink:href="#DejaVuSans-2e" transform="translate(63.623047 0)"/>
       <use xlink:href="#DejaVuSans-37" transform="translate(95.410156 0)"/>
       <use xlink:href="#DejaVuSans-32" transform="translate(159.033203 0)"/>
       <use xlink:href="#DejaVuSans-35" transform="translate(222.65625 0)"/>
      </g>
     </g>
    </g>
    <g id="ytick_4">
     <g id="line2d_10">
      <path d="M 76.34 306.524239 
L 695.18 306.524239 
" clip-path="url(#p01830a357a)" style="fill: none; stroke-dasharray: 2.96,1.28; stroke-dashoffset: 0; stroke: #b0b0b0; stroke-opacity: 0.7; stroke-width: 0.8"/>
     </g>
     <g id="line2d_11">
      <g>
       <use xlink:href="#m03c39fe24e" x="76.34" y="306.524239" style="stroke: #000000; stroke-width: 0.8"/>
      </g>
     </g>
     <g id="text_8">
      <!-- 0.750 -->
      <g transform="translate(29.260625 311.843146) scale(0.14 -0.14)">
       <use xlink:href="#DejaVuSans-30"/>
       <use xlink:href="#DejaVuSans-2e" transform="translate(63.623047 0)"/>
       <use xlink:href="#DejaVuSans-37" transform="translate(95.410156 0)"/>
       <use xlink:href="#DejaVuSans-35" transform="translate(159.033203 0)"/>
       <use xlink:href="#DejaVuSans-30" transform="translate(222.65625 0)"/>
      </g>
     </g>
    </g>
    <g id="ytick_5">
     <g id="line2d_12">
      <path d="M 76.34 239.159582 
L 695.18 239.159582 
" clip-path="url(#p01830a357a)" style="fill: none; stroke-dasharray: 2.96,1.28; stroke-dashoffset: 0; stroke: #b0b0b0; stroke-opacity: 0.7; stroke-width: 0.8"/>
     </g>
     <g id="line2d_13">
      <g>
       <use xlink:href="#m03c39fe24e" x="76.34" y="239.159582" style="stroke: #000000; stroke-width: 0.8"/>
      </g>
     </g>
     <g id="text_9">
      <!-- 0.775 -->
      <g transform="translate(29.260625 244.478488) scale(0.14 -0.14)">
       <use xlink:href="#DejaVuSans-30"/>
       <use xlink:href="#DejaVuSans-2e" transform="translate(63.623047 0)"/>
       <use xlink:href="#DejaVuSans-37" transform="translate(95.410156 0)"/>
       <use xlink:href="#DejaVuSans-37" transform="translate(159.033203 0)"/>
       <use xlink:href="#DejaVuSans-35" transform="translate(222.65625 0)"/>
      </g>
     </g>
    </g>
    <g id="ytick_6">
     <g id="line2d_14">
      <path d="M 76.34 171.794924 
L 695.18 171.794924 
" clip-path="url(#p01830a357a)" style="fill: none; stroke-dasharray: 2.96,1.28; stroke-dashoffset: 0; stroke: #b0b0b0; stroke-opacity: 0.7; stroke-width: 0.8"/>
     </g>
     <g id="line2d_15">
      <g>
       <use xlink:href="#m03c39fe24e" x="76.34" y="171.794924" style="stroke: #000000; stroke-width: 0.8"/>
      </g>
     </g>
     <g id="text_10">
      <!-- 0.800 -->
      <g transform="translate(29.260625 177.11383) scale(0.14 -0.14)">
       <defs>
        <path id="DejaVuSans-38" d="M 2034 2216 
Q 1584 2216 1326 1975 
Q 1069 1734 1069 1313 
Q 1069 891 1326 650 
Q 1584 409 2034 409 
Q 2484 409 2743 651 
Q 3003 894 3003 1313 
Q 3003 1734 2745 1975 
Q 2488 2216 2034 2216 
z
M 1403 2484 
Q 997 2584 770 2862 
Q 544 3141 544 3541 
Q 544 4100 942 4425 
Q 1341 4750 2034 4750 
Q 2731 4750 3128 4425 
Q 3525 4100 3525 3541 
Q 3525 3141 3298 2862 
Q 3072 2584 2669 2484 
Q 3125 2378 3379 2068 
Q 3634 1759 3634 1313 
Q 3634 634 3220 271 
Q 2806 -91 2034 -91 
Q 1263 -91 848 271 
Q 434 634 434 1313 
Q 434 1759 690 2068 
Q 947 2378 1403 2484 
z
M 1172 3481 
Q 1172 3119 1398 2916 
Q 1625 2713 2034 2713 
Q 2441 2713 2670 2916 
Q 2900 3119 2900 3481 
Q 2900 3844 2670 4047 
Q 2441 4250 2034 4250 
Q 1625 4250 1398 4047 
Q 1172 3844 1172 3481 
z
" transform="scale(0.015625)"/>
       </defs>
       <use xlink:href="#DejaVuSans-30"/>
       <use xlink:href="#DejaVuSans-2e" transform="translate(63.623047 0)"/>
       <use xlink:href="#DejaVuSans-38" transform="translate(95.410156 0)"/>
       <use xlink:href="#DejaVuSans-30" transform="translate(159.033203 0)"/>
       <use xlink:href="#DejaVuSans-30" transform="translate(222.65625 0)"/>
      </g>
     </g>
    </g>
    <g id="ytick_7">
     <g id="line2d_16">
      <path d="M 76.34 104.430267 
L 695.18 104.430267 
" clip-path="url(#p01830a357a)" style="fill: none; stroke-dasharray: 2.96,1.28; stroke-dashoffset: 0; stroke: #b0b0b0; stroke-opacity: 0.7; stroke-width: 0.8"/>
     </g>
     <g id="line2d_17">
      <g>
       <use xlink:href="#m03c39fe24e" x="76.34" y="104.430267" style="stroke: #000000; stroke-width: 0.8"/>
      </g>
     </g>
     <g id="text_11">
      <!-- 0.825 -->
      <g transform="translate(29.260625 109.749173) scale(0.14 -0.14)">
       <use xlink:href="#DejaVuSans-30"/>
       <use xlink:href="#DejaVuSans-2e" transform="translate(63.623047 0)"/>
       <use xlink:href="#DejaVuSans-38" transform="translate(95.410156 0)"/>
       <use xlink:href="#DejaVuSans-32" transform="translate(159.033203 0)"/>
       <use xlink:href="#DejaVuSans-35" transform="translate(222.65625 0)"/>
      </g>
     </g>
    </g>
    <g id="ytick_8">
     <g id="line2d_18">
      <path d="M 76.34 37.065609 
L 695.18 37.065609 
" clip-path="url(#p01830a357a)" style="fill: none; stroke-dasharray: 2.96,1.28; stroke-dashoffset: 0; stroke: #b0b0b0; stroke-opacity: 0.7; stroke-width: 0.8"/>
     </g>
     <g id="line2d_19">
      <g>
       <use xlink:href="#m03c39fe24e" x="76.34" y="37.065609" style="stroke: #000000; stroke-width: 0.8"/>
      </g>
     </g>
     <g id="text_12">
      <!-- 0.850 -->
      <g transform="translate(29.260625 42.384515) scale(0.14 -0.14)">
       <use xlink:href="#DejaVuSans-30"/>
       <use xlink:href="#DejaVuSans-2e" transform="translate(63.623047 0)"/>
       <use xlink:href="#DejaVuSans-38" transform="translate(95.410156 0)"/>
       <use xlink:href="#DejaVuSans-35" transform="translate(159.033203 0)"/>
       <use xlink:href="#DejaVuSans-30" transform="translate(222.65625 0)"/>
      </g>
     </g>
    </g>
    <g id="text_13">
     <!-- F1 -->
     <g transform="translate(21.933125 289.07125) rotate(-90) scale(0.16 -0.16)">
      <defs>
       <path id="DejaVuSans-46" d="M 628 4666 
L 3309 4666 
L 3309 4134 
L 1259 4134 
L 1259 2759 
L 3109 2759 
L 3109 2228 
L 1259 2228 
L 1259 0 
L 628 0 
L 628 4666 
z
" transform="scale(0.015625)"/>
       <path id="DejaVuSans-31" d="M 794 531 
L 1825 531 
L 1825 4091 
L 703 3866 
L 703 4441 
L 1819 4666 
L 2450 4666 
L 2450 531 
L 3481 531 
L 3481 0 
L 794 0 
L 794 531 
z
" transform="scale(0.015625)"/>
      </defs>
      <use xlink:href="#DejaVuSans-46"/>
      <use xlink:href="#DejaVuSans-31" transform="translate(57.519531 0)"/>
     </g>
    </g>
   </g>
   <g id="patch_10">
    <path d="M 96.968 412.316184 
L 120.542857 412.316184 
L 120.542857 371.056761 
L 96.968 371.056761 
L 96.968 412.316184 
z
" clip-path="url(#p01830a357a)" style="fill: #3274a1; stroke: #3d3d3d; stroke-linejoin: miter"/>
   </g>
   <g id="line2d_20">
    <path d="M 108.755429 412.316184 
L 108.755429 426.934497 
" clip-path="url(#p01830a357a)" style="fill: none; stroke: #3d3d3d"/>
   </g>
   <g id="line2d_21">
    <path d="M 108.755429 371.056761 
L 108.755429 358.343207 
" clip-path="url(#p01830a357a)" style="fill: none; stroke: #3d3d3d"/>
   </g>
   <g id="line2d_22">
    <path d="M 102.861714 426.934497 
L 114.649143 426.934497 
" clip-path="url(#p01830a357a)" style="fill: none; stroke: #3d3d3d; stroke-linecap: square"/>
   </g>
   <g id="line2d_23">
    <path d="M 102.861714 358.343207 
L 114.649143 358.343207 
" clip-path="url(#p01830a357a)" style="fill: none; stroke: #3d3d3d; stroke-linecap: square"/>
   </g>
   <g id="line2d_24"/>
   <g id="patch_11">
    <path d="M 303.248 225.080774 
L 326.822857 225.080774 
L 326.822857 162.974268 
L 303.248 162.974268 
L 303.248 225.080774 
z
" clip-path="url(#p01830a357a)" style="fill: #3274a1; stroke: #3d3d3d; stroke-linejoin: miter"/>
   </g>
   <g id="line2d_25">
    <path d="M 315.035429 225.080774 
L 315.035429 246.925481 
" clip-path="url(#p01830a357a)" style="fill: none; stroke: #3d3d3d"/>
   </g>
   <g id="line2d_26">
    <path d="M 315.035429 162.974268 
L 315.035429 114.053789 
" clip-path="url(#p01830a357a)" style="fill: none; stroke: #3d3d3d"/>
   </g>
   <g id="line2d_27">
    <path d="M 309.141714 246.925481 
L 320.929143 246.925481 
" clip-path="url(#p01830a357a)" style="fill: none; stroke: #3d3d3d; stroke-linecap: square"/>
   </g>
   <g id="line2d_28">
    <path d="M 309.141714 114.053789 
L 320.929143 114.053789 
" clip-path="url(#p01830a357a)" style="fill: none; stroke: #3d3d3d; stroke-linecap: square"/>
   </g>
   <g id="line2d_29">
    <defs>
     <path id="m12fb62f5b8" d="M 0 3 
C 0.795609 3 1.55874 2.683901 2.12132 2.12132 
C 2.683901 1.55874 3 0.795609 3 0 
C 3 -0.795609 2.683901 -1.55874 2.12132 -2.12132 
C 1.55874 -2.683901 0.795609 -3 0 -3 
C -0.795609 -3 -1.55874 -2.683901 -2.12132 -2.12132 
C -2.683901 -1.55874 -3 -0.795609 -3 0 
C -3 0.795609 -2.683901 1.55874 -2.12132 2.12132 
C -1.55874 2.683901 -0.795609 3 0 3 
z
" style="stroke: #3d3d3d"/>
    </defs>
    <g clip-path="url(#p01830a357a)">
     <use xlink:href="#m12fb62f5b8" x="315.035429" y="503.689091" style="fill-opacity: 0; stroke: #3d3d3d"/>
     <use xlink:href="#m12fb62f5b8" x="315.035429" y="55.070909" style="fill-opacity: 0; stroke: #3d3d3d"/>
    </g>
   </g>
   <g id="patch_12">
    <path d="M 509.528 199.63707 
L 533.102857 199.63707 
L 533.102857 171.832842 
L 509.528 171.832842 
L 509.528 199.63707 
z
" clip-path="url(#p01830a357a)" style="fill: #3274a1; stroke: #3d3d3d; stroke-linejoin: miter"/>
   </g>
   <g id="line2d_30">
    <path d="M 521.315429 199.63707 
L 521.315429 201.214725 
" clip-path="url(#p01830a357a)" style="fill: none; stroke: #3d3d3d"/>
   </g>
   <g id="line2d_31">
    <path d="M 521.315429 171.832842 
L 521.315429 154.410496 
" clip-path="url(#p01830a357a)" style="fill: none; stroke: #3d3d3d"/>
   </g>
   <g id="line2d_32">
    <path d="M 515.421714 201.214725 
L 527.209143 201.214725 
" clip-path="url(#p01830a357a)" style="fill: none; stroke: #3d3d3d; stroke-linecap: square"/>
   </g>
   <g id="line2d_33">
    <path d="M 515.421714 154.410496 
L 527.209143 154.410496 
" clip-path="url(#p01830a357a)" style="fill: none; stroke: #3d3d3d; stroke-linecap: square"/>
   </g>
   <g id="line2d_34">
    <g clip-path="url(#p01830a357a)">
     <use xlink:href="#m12fb62f5b8" x="521.315429" y="281.835621" style="fill-opacity: 0; stroke: #3d3d3d"/>
    </g>
   </g>
   <g id="patch_13">
    <path d="M 120.542857 454.910086 
L 144.117714 454.910086 
L 144.117714 446.092276 
L 120.542857 446.092276 
L 120.542857 454.910086 
z
" clip-path="url(#p01830a357a)" style="fill: #e1812c; stroke: #3d3d3d; stroke-linejoin: miter"/>
   </g>
   <g id="line2d_35">
    <path d="M 132.330286 454.910086 
L 132.330286 456.223478 
" clip-path="url(#p01830a357a)" style="fill: none; stroke: #3d3d3d"/>
   </g>
   <g id="line2d_36">
    <path d="M 132.330286 446.092276 
L 132.330286 436.52621 
" clip-path="url(#p01830a357a)" style="fill: none; stroke: #3d3d3d"/>
   </g>
   <g id="line2d_37">
    <path d="M 126.436571 456.223478 
L 138.224 456.223478 
" clip-path="url(#p01830a357a)" style="fill: none; stroke: #3d3d3d; stroke-linecap: square"/>
   </g>
   <g id="line2d_38">
    <path d="M 126.436571 436.52621 
L 138.224 436.52621 
" clip-path="url(#p01830a357a)" style="fill: none; stroke: #3d3d3d; stroke-linecap: square"/>
   </g>
   <g id="line2d_39"/>
   <g id="patch_14">
    <path d="M 326.822857 172.492066 
L 350.397714 172.492066 
L 350.397714 136.260863 
L 326.822857 136.260863 
L 326.822857 172.492066 
z
" clip-path="url(#p01830a357a)" style="fill: #e1812c; stroke: #3d3d3d; stroke-linejoin: miter"/>
   </g>
   <g id="line2d_40">
    <path d="M 338.610286 172.492066 
L 338.610286 201.992874 
" clip-path="url(#p01830a357a)" style="fill: none; stroke: #3d3d3d"/>
   </g>
   <g id="line2d_41">
    <path d="M 338.610286 136.260863 
L 338.610286 98.365808 
" clip-path="url(#p01830a357a)" style="fill: none; stroke: #3d3d3d"/>
   </g>
   <g id="line2d_42">
    <path d="M 332.716571 201.992874 
L 344.504 201.992874 
" clip-path="url(#p01830a357a)" style="fill: none; stroke: #3d3d3d; stroke-linecap: square"/>
   </g>
   <g id="line2d_43">
    <path d="M 332.716571 98.365808 
L 344.504 98.365808 
" clip-path="url(#p01830a357a)" style="fill: none; stroke: #3d3d3d; stroke-linecap: square"/>
   </g>
   <g id="line2d_44"/>
   <g id="patch_15">
    <path d="M 533.102857 326.502649 
L 556.677714 326.502649 
L 556.677714 301.205882 
L 533.102857 301.205882 
L 533.102857 326.502649 
z
" clip-path="url(#p01830a357a)" style="fill: #e1812c; stroke: #3d3d3d; stroke-linejoin: miter"/>
   </g>
   <g id="line2d_45">
    <path d="M 544.890286 326.502649 
L 544.890286 361.304291 
" clip-path="url(#p01830a357a)" style="fill: none; stroke: #3d3d3d"/>
   </g>
   <g id="line2d_46">
    <path d="M 544.890286 301.205882 
L 544.890286 288.615435 
" clip-path="url(#p01830a357a)" style="fill: none; stroke: #3d3d3d"/>
   </g>
   <g id="line2d_47">
    <path d="M 538.996571 361.304291 
L 550.784 361.304291 
" clip-path="url(#p01830a357a)" style="fill: none; stroke: #3d3d3d; stroke-linecap: square"/>
   </g>
   <g id="line2d_48">
    <path d="M 538.996571 288.615435 
L 550.784 288.615435 
" clip-path="url(#p01830a357a)" style="fill: none; stroke: #3d3d3d; stroke-linecap: square"/>
   </g>
   <g id="line2d_49"/>
   <g id="patch_16">
    <path d="M 144.117714 415.164638 
L 167.692571 415.164638 
L 167.692571 403.617176 
L 144.117714 403.617176 
L 144.117714 415.164638 
z
" clip-path="url(#p01830a357a)" style="fill: #3a923a; stroke: #3d3d3d; stroke-linejoin: miter"/>
   </g>
   <g id="line2d_50">
    <path d="M 155.905143 415.164638 
L 155.905143 425.403047 
" clip-path="url(#p01830a357a)" style="fill: none; stroke: #3d3d3d"/>
   </g>
   <g id="line2d_51">
    <path d="M 155.905143 403.617176 
L 155.905143 399.316344 
" clip-path="url(#p01830a357a)" style="fill: none; stroke: #3d3d3d"/>
   </g>
   <g id="line2d_52">
    <path d="M 150.011429 425.403047 
L 161.798857 425.403047 
" clip-path="url(#p01830a357a)" style="fill: none; stroke: #3d3d3d; stroke-linecap: square"/>
   </g>
   <g id="line2d_53">
    <path d="M 150.011429 399.316344 
L 161.798857 399.316344 
" clip-path="url(#p01830a357a)" style="fill: none; stroke: #3d3d3d; stroke-linecap: square"/>
   </g>
   <g id="line2d_54"/>
   <g id="patch_17">
    <path d="M 350.397714 236.664405 
L 373.972571 236.664405 
L 373.972571 194.091835 
L 350.397714 194.091835 
L 350.397714 236.664405 
z
" clip-path="url(#p01830a357a)" style="fill: #3a923a; stroke: #3d3d3d; stroke-linejoin: miter"/>
   </g>
   <g id="line2d_55">
    <path d="M 362.185143 236.664405 
L 362.185143 284.025238 
" clip-path="url(#p01830a357a)" style="fill: none; stroke: #3d3d3d"/>
   </g>
   <g id="line2d_56">
    <path d="M 362.185143 194.091835 
L 362.185143 178.689388 
" clip-path="url(#p01830a357a)" style="fill: none; stroke: #3d3d3d"/>
   </g>
   <g id="line2d_57">
    <path d="M 356.291429 284.025238 
L 368.078857 284.025238 
" clip-path="url(#p01830a357a)" style="fill: none; stroke: #3d3d3d; stroke-linecap: square"/>
   </g>
   <g id="line2d_58">
    <path d="M 356.291429 178.689388 
L 368.078857 178.689388 
" clip-path="url(#p01830a357a)" style="fill: none; stroke: #3d3d3d; stroke-linecap: square"/>
   </g>
   <g id="line2d_59"/>
   <g id="patch_18">
    <path d="M 556.677714 305.858581 
L 580.252571 305.858581 
L 580.252571 278.220889 
L 556.677714 278.220889 
L 556.677714 305.858581 
z
" clip-path="url(#p01830a357a)" style="fill: #3a923a; stroke: #3d3d3d; stroke-linejoin: miter"/>
   </g>
   <g id="line2d_60">
    <path d="M 568.465143 305.858581 
L 568.465143 338.602648 
" clip-path="url(#p01830a357a)" style="fill: none; stroke: #3d3d3d"/>
   </g>
   <g id="line2d_61">
    <path d="M 568.465143 278.220889 
L 568.465143 252.059197 
" clip-path="url(#p01830a357a)" style="fill: none; stroke: #3d3d3d"/>
   </g>
   <g id="line2d_62">
    <path d="M 562.571429 338.602648 
L 574.358857 338.602648 
" clip-path="url(#p01830a357a)" style="fill: none; stroke: #3d3d3d; stroke-linecap: square"/>
   </g>
   <g id="line2d_63">
    <path d="M 562.571429 252.059197 
L 574.358857 252.059197 
" clip-path="url(#p01830a357a)" style="fill: none; stroke: #3d3d3d; stroke-linecap: square"/>
   </g>
   <g id="line2d_64"/>
   <g id="patch_19">
    <path d="M 167.692571 419.643741 
L 191.267429 419.643741 
L 191.267429 407.215481 
L 167.692571 407.215481 
L 167.692571 419.643741 
z
" clip-path="url(#p01830a357a)" style="fill: #c03d3e; stroke: #3d3d3d; stroke-linejoin: miter"/>
   </g>
   <g id="line2d_65">
    <path d="M 179.48 419.643741 
L 179.48 428.787497 
" clip-path="url(#p01830a357a)" style="fill: none; stroke: #3d3d3d"/>
   </g>
   <g id="line2d_66">
    <path d="M 179.48 407.215481 
L 179.48 399.316344 
" clip-path="url(#p01830a357a)" style="fill: none; stroke: #3d3d3d"/>
   </g>
   <g id="line2d_67">
    <path d="M 173.586286 428.787497 
L 185.373714 428.787497 
" clip-path="url(#p01830a357a)" style="fill: none; stroke: #3d3d3d; stroke-linecap: square"/>
   </g>
   <g id="line2d_68">
    <path d="M 173.586286 399.316344 
L 185.373714 399.316344 
" clip-path="url(#p01830a357a)" style="fill: none; stroke: #3d3d3d; stroke-linecap: square"/>
   </g>
   <g id="line2d_69"/>
   <g id="patch_20">
    <path d="M 373.972571 356.711536 
L 397.547429 356.711536 
L 397.547429 319.562372 
L 373.972571 319.562372 
L 373.972571 356.711536 
z
" clip-path="url(#p01830a357a)" style="fill: #c03d3e; stroke: #3d3d3d; stroke-linejoin: miter"/>
   </g>
   <g id="line2d_70">
    <path d="M 385.76 356.711536 
L 385.76 405.664679 
" clip-path="url(#p01830a357a)" style="fill: none; stroke: #3d3d3d"/>
   </g>
   <g id="line2d_71">
    <path d="M 385.76 319.562372 
L 385.76 286.794005 
" clip-path="url(#p01830a357a)" style="fill: none; stroke: #3d3d3d"/>
   </g>
   <g id="line2d_72">
    <path d="M 379.866286 405.664679 
L 391.653714 405.664679 
" clip-path="url(#p01830a357a)" style="fill: none; stroke: #3d3d3d; stroke-linecap: square"/>
   </g>
   <g id="line2d_73">
    <path d="M 379.866286 286.794005 
L 391.653714 286.794005 
" clip-path="url(#p01830a357a)" style="fill: none; stroke: #3d3d3d; stroke-linecap: square"/>
   </g>
   <g id="line2d_74"/>
   <g id="patch_21">
    <path d="M 580.252571 318.3426 
L 603.827429 318.3426 
L 603.827429 292.271438 
L 580.252571 292.271438 
L 580.252571 318.3426 
z
" clip-path="url(#p01830a357a)" style="fill: #c03d3e; stroke: #3d3d3d; stroke-linejoin: miter"/>
   </g>
   <g id="line2d_75">
    <path d="M 592.04 318.3426 
L 592.04 340.336616 
" clip-path="url(#p01830a357a)" style="fill: none; stroke: #3d3d3d"/>
   </g>
   <g id="line2d_76">
    <path d="M 592.04 292.271438 
L 592.04 264.674452 
" clip-path="url(#p01830a357a)" style="fill: none; stroke: #3d3d3d"/>
   </g>
   <g id="line2d_77">
    <path d="M 586.146286 340.336616 
L 597.933714 340.336616 
" clip-path="url(#p01830a357a)" style="fill: none; stroke: #3d3d3d; stroke-linecap: square"/>
   </g>
   <g id="line2d_78">
    <path d="M 586.146286 264.674452 
L 597.933714 264.674452 
" clip-path="url(#p01830a357a)" style="fill: none; stroke: #3d3d3d; stroke-linecap: square"/>
   </g>
   <g id="line2d_79"/>
   <g id="patch_22">
    <path d="M 191.267429 354.793796 
L 214.842286 354.793796 
L 214.842286 325.280826 
L 191.267429 325.280826 
L 191.267429 354.793796 
z
" clip-path="url(#p01830a357a)" style="fill: #9372b2; stroke: #3d3d3d; stroke-linejoin: miter"/>
   </g>
   <g id="line2d_80">
    <path d="M 203.054857 354.793796 
L 203.054857 363.513863 
" clip-path="url(#p01830a357a)" style="fill: none; stroke: #3d3d3d"/>
   </g>
   <g id="line2d_81">
    <path d="M 203.054857 325.280826 
L 203.054857 294.705878 
" clip-path="url(#p01830a357a)" style="fill: none; stroke: #3d3d3d"/>
   </g>
   <g id="line2d_82">
    <path d="M 197.161143 363.513863 
L 208.948571 363.513863 
" clip-path="url(#p01830a357a)" style="fill: none; stroke: #3d3d3d; stroke-linecap: square"/>
   </g>
   <g id="line2d_83">
    <path d="M 197.161143 294.705878 
L 208.948571 294.705878 
" clip-path="url(#p01830a357a)" style="fill: none; stroke: #3d3d3d; stroke-linecap: square"/>
   </g>
   <g id="line2d_84"/>
   <g id="patch_23">
    <path d="M 397.547429 207.532842 
L 421.122286 207.532842 
L 421.122286 141.270101 
L 397.547429 141.270101 
L 397.547429 207.532842 
z
" clip-path="url(#p01830a357a)" style="fill: #9372b2; stroke: #3d3d3d; stroke-linejoin: miter"/>
   </g>
   <g id="line2d_85">
    <path d="M 409.334857 207.532842 
L 409.334857 235.522929 
" clip-path="url(#p01830a357a)" style="fill: none; stroke: #3d3d3d"/>
   </g>
   <g id="line2d_86">
    <path d="M 409.334857 141.270101 
L 409.334857 83.062784 
" clip-path="url(#p01830a357a)" style="fill: none; stroke: #3d3d3d"/>
   </g>
   <g id="line2d_87">
    <path d="M 403.441143 235.522929 
L 415.228571 235.522929 
" clip-path="url(#p01830a357a)" style="fill: none; stroke: #3d3d3d; stroke-linecap: square"/>
   </g>
   <g id="line2d_88">
    <path d="M 403.441143 83.062784 
L 415.228571 83.062784 
" clip-path="url(#p01830a357a)" style="fill: none; stroke: #3d3d3d; stroke-linecap: square"/>
   </g>
   <g id="line2d_89"/>
   <g id="patch_24">
    <path d="M 603.827429 205.397404 
L 627.402286 205.397404 
L 627.402286 191.849338 
L 603.827429 191.849338 
L 603.827429 205.397404 
z
" clip-path="url(#p01830a357a)" style="fill: #9372b2; stroke: #3d3d3d; stroke-linejoin: miter"/>
   </g>
   <g id="line2d_90">
    <path d="M 615.614857 205.397404 
L 615.614857 212.564079 
" clip-path="url(#p01830a357a)" style="fill: none; stroke: #3d3d3d"/>
   </g>
   <g id="line2d_91">
    <path d="M 615.614857 191.849338 
L 615.614857 189.300357 
" clip-path="url(#p01830a357a)" style="fill: none; stroke: #3d3d3d"/>
   </g>
   <g id="line2d_92">
    <path d="M 609.721143 212.564079 
L 621.508571 212.564079 
" clip-path="url(#p01830a357a)" style="fill: none; stroke: #3d3d3d; stroke-linecap: square"/>
   </g>
   <g id="line2d_93">
    <path d="M 609.721143 189.300357 
L 621.508571 189.300357 
" clip-path="url(#p01830a357a)" style="fill: none; stroke: #3d3d3d; stroke-linecap: square"/>
   </g>
   <g id="line2d_94">
    <g clip-path="url(#p01830a357a)">
     <use xlink:href="#m12fb62f5b8" x="615.614857" y="166.52434" style="fill-opacity: 0; stroke: #3d3d3d"/>
     <use xlink:href="#m12fb62f5b8" x="615.614857" y="169.328484" style="fill-opacity: 0; stroke: #3d3d3d"/>
    </g>
   </g>
   <g id="patch_25">
    <path d="M 214.842286 284.589557 
L 238.417143 284.589557 
L 238.417143 270.68343 
L 214.842286 270.68343 
L 214.842286 284.589557 
z
" clip-path="url(#p01830a357a)" style="fill: #845b53; stroke: #3d3d3d; stroke-linejoin: miter"/>
   </g>
   <g id="line2d_95">
    <path d="M 226.629714 284.589557 
L 226.629714 291.554315 
" clip-path="url(#p01830a357a)" style="fill: none; stroke: #3d3d3d"/>
   </g>
   <g id="line2d_96">
    <path d="M 226.629714 270.68343 
L 226.629714 254.705272 
" clip-path="url(#p01830a357a)" style="fill: none; stroke: #3d3d3d"/>
   </g>
   <g id="line2d_97">
    <path d="M 220.736 291.554315 
L 232.523429 291.554315 
" clip-path="url(#p01830a357a)" style="fill: none; stroke: #3d3d3d; stroke-linecap: square"/>
   </g>
   <g id="line2d_98">
    <path d="M 220.736 254.705272 
L 232.523429 254.705272 
" clip-path="url(#p01830a357a)" style="fill: none; stroke: #3d3d3d; stroke-linecap: square"/>
   </g>
   <g id="line2d_99"/>
   <g id="patch_26">
    <path d="M 421.122286 204.908091 
L 444.697143 204.908091 
L 444.697143 157.892598 
L 421.122286 157.892598 
L 421.122286 204.908091 
z
" clip-path="url(#p01830a357a)" style="fill: #845b53; stroke: #3d3d3d; stroke-linejoin: miter"/>
   </g>
   <g id="line2d_100">
    <path d="M 432.909714 204.908091 
L 432.909714 237.323648 
" clip-path="url(#p01830a357a)" style="fill: none; stroke: #3d3d3d"/>
   </g>
   <g id="line2d_101">
    <path d="M 432.909714 157.892598 
L 432.909714 128.579861 
" clip-path="url(#p01830a357a)" style="fill: none; stroke: #3d3d3d"/>
   </g>
   <g id="line2d_102">
    <path d="M 427.016 237.323648 
L 438.803429 237.323648 
" clip-path="url(#p01830a357a)" style="fill: none; stroke: #3d3d3d; stroke-linecap: square"/>
   </g>
   <g id="line2d_103">
    <path d="M 427.016 128.579861 
L 438.803429 128.579861 
" clip-path="url(#p01830a357a)" style="fill: none; stroke: #3d3d3d; stroke-linecap: square"/>
   </g>
   <g id="line2d_104"/>
   <g id="patch_27">
    <path d="M 627.402286 234.234762 
L 650.977143 234.234762 
L 650.977143 208.517899 
L 627.402286 208.517899 
L 627.402286 234.234762 
z
" clip-path="url(#p01830a357a)" style="fill: #845b53; stroke: #3d3d3d; stroke-linejoin: miter"/>
   </g>
   <g id="line2d_105">
    <path d="M 639.189714 234.234762 
L 639.189714 239.766471 
" clip-path="url(#p01830a357a)" style="fill: none; stroke: #3d3d3d"/>
   </g>
   <g id="line2d_106">
    <path d="M 639.189714 208.517899 
L 639.189714 171.794924 
" clip-path="url(#p01830a357a)" style="fill: none; stroke: #3d3d3d"/>
   </g>
   <g id="line2d_107">
    <path d="M 633.296 239.766471 
L 645.083429 239.766471 
" clip-path="url(#p01830a357a)" style="fill: none; stroke: #3d3d3d; stroke-linecap: square"/>
   </g>
   <g id="line2d_108">
    <path d="M 633.296 171.794924 
L 645.083429 171.794924 
" clip-path="url(#p01830a357a)" style="fill: none; stroke: #3d3d3d; stroke-linecap: square"/>
   </g>
   <g id="line2d_109">
    <g clip-path="url(#p01830a357a)">
     <use xlink:href="#m12fb62f5b8" x="639.189714" y="161.096815" style="fill-opacity: 0; stroke: #3d3d3d"/>
    </g>
   </g>
   <g id="patch_28">
    <path d="M 238.417143 320.058125 
L 261.992 320.058125 
L 261.992 302.322485 
L 238.417143 302.322485 
L 238.417143 320.058125 
z
" clip-path="url(#p01830a357a)" style="fill: #d684bd; stroke: #3d3d3d; stroke-linejoin: miter"/>
   </g>
   <g id="line2d_110">
    <path d="M 250.204571 320.058125 
L 250.204571 343.166103 
" clip-path="url(#p01830a357a)" style="fill: none; stroke: #3d3d3d"/>
   </g>
   <g id="line2d_111">
    <path d="M 250.204571 302.322485 
L 250.204571 293.813927 
" clip-path="url(#p01830a357a)" style="fill: none; stroke: #3d3d3d"/>
   </g>
   <g id="line2d_112">
    <path d="M 244.310857 343.166103 
L 256.098286 343.166103 
" clip-path="url(#p01830a357a)" style="fill: none; stroke: #3d3d3d; stroke-linecap: square"/>
   </g>
   <g id="line2d_113">
    <path d="M 244.310857 293.813927 
L 256.098286 293.813927 
" clip-path="url(#p01830a357a)" style="fill: none; stroke: #3d3d3d; stroke-linecap: square"/>
   </g>
   <g id="line2d_114"/>
   <g id="patch_29">
    <path d="M 444.697143 236.988953 
L 468.272 236.988953 
L 468.272 216.233417 
L 444.697143 216.233417 
L 444.697143 236.988953 
z
" clip-path="url(#p01830a357a)" style="fill: #d684bd; stroke: #3d3d3d; stroke-linejoin: miter"/>
   </g>
   <g id="line2d_115">
    <path d="M 456.484571 236.988953 
L 456.484571 245.864121 
" clip-path="url(#p01830a357a)" style="fill: none; stroke: #3d3d3d"/>
   </g>
   <g id="line2d_116">
    <path d="M 456.484571 216.233417 
L 456.484571 200.854188 
" clip-path="url(#p01830a357a)" style="fill: none; stroke: #3d3d3d"/>
   </g>
   <g id="line2d_117">
    <path d="M 450.590857 245.864121 
L 462.378286 245.864121 
" clip-path="url(#p01830a357a)" style="fill: none; stroke: #3d3d3d; stroke-linecap: square"/>
   </g>
   <g id="line2d_118">
    <path d="M 450.590857 200.854188 
L 462.378286 200.854188 
" clip-path="url(#p01830a357a)" style="fill: none; stroke: #3d3d3d; stroke-linecap: square"/>
   </g>
   <g id="line2d_119">
    <g clip-path="url(#p01830a357a)">
     <use xlink:href="#m12fb62f5b8" x="456.484571" y="270.726595" style="fill-opacity: 0; stroke: #3d3d3d"/>
    </g>
   </g>
   <g id="patch_30">
    <path d="M 650.977143 224.377477 
L 674.552 224.377477 
L 674.552 207.963395 
L 650.977143 207.963395 
L 650.977143 224.377477 
z
" clip-path="url(#p01830a357a)" style="fill: #d684bd; stroke: #3d3d3d; stroke-linejoin: miter"/>
   </g>
   <g id="line2d_120">
    <path d="M 662.764571 224.377477 
L 662.764571 230.960065 
" clip-path="url(#p01830a357a)" style="fill: none; stroke: #3d3d3d"/>
   </g>
   <g id="line2d_121">
    <path d="M 662.764571 207.963395 
L 662.764571 206.325092 
" clip-path="url(#p01830a357a)" style="fill: none; stroke: #3d3d3d"/>
   </g>
   <g id="line2d_122">
    <path d="M 656.870857 230.960065 
L 668.658286 230.960065 
" clip-path="url(#p01830a357a)" style="fill: none; stroke: #3d3d3d; stroke-linecap: square"/>
   </g>
   <g id="line2d_123">
    <path d="M 656.870857 206.325092 
L 668.658286 206.325092 
" clip-path="url(#p01830a357a)" style="fill: none; stroke: #3d3d3d; stroke-linecap: square"/>
   </g>
   <g id="line2d_124">
    <g clip-path="url(#p01830a357a)">
     <use xlink:href="#m12fb62f5b8" x="662.764571" y="149.13018" style="fill-opacity: 0; stroke: #3d3d3d"/>
     <use xlink:href="#m12fb62f5b8" x="662.764571" y="182.133864" style="fill-opacity: 0; stroke: #3d3d3d"/>
    </g>
   </g>
   <g id="line2d_125">
    <path d="M 96.968 388.965867 
L 120.542857 388.965867 
" clip-path="url(#p01830a357a)" style="fill: none; stroke: #3d3d3d"/>
   </g>
   <g id="line2d_126">
    <path d="M 303.248 182.720093 
L 326.822857 182.720093 
" clip-path="url(#p01830a357a)" style="fill: none; stroke: #3d3d3d"/>
   </g>
   <g id="line2d_127">
    <path d="M 509.528 194.092783 
L 533.102857 194.092783 
" clip-path="url(#p01830a357a)" style="fill: none; stroke: #3d3d3d"/>
   </g>
   <g id="line2d_128">
    <path d="M 120.542857 449.489721 
L 144.117714 449.489721 
" clip-path="url(#p01830a357a)" style="fill: none; stroke: #3d3d3d"/>
   </g>
   <g id="line2d_129">
    <path d="M 326.822857 158.178359 
L 350.397714 158.178359 
" clip-path="url(#p01830a357a)" style="fill: none; stroke: #3d3d3d"/>
   </g>
   <g id="line2d_130">
    <path d="M 533.102857 311.960746 
L 556.677714 311.960746 
" clip-path="url(#p01830a357a)" style="fill: none; stroke: #3d3d3d"/>
   </g>
   <g id="line2d_131">
    <path d="M 144.117714 407.573696 
L 167.692571 407.573696 
" clip-path="url(#p01830a357a)" style="fill: none; stroke: #3d3d3d"/>
   </g>
   <g id="line2d_132">
    <path d="M 350.397714 205.989973 
L 373.972571 205.989973 
" clip-path="url(#p01830a357a)" style="fill: none; stroke: #3d3d3d"/>
   </g>
   <g id="line2d_133">
    <path d="M 556.677714 294.210622 
L 580.252571 294.210622 
" clip-path="url(#p01830a357a)" style="fill: none; stroke: #3d3d3d"/>
   </g>
   <g id="line2d_134">
    <path d="M 167.692571 414.122414 
L 191.267429 414.122414 
" clip-path="url(#p01830a357a)" style="fill: none; stroke: #3d3d3d"/>
   </g>
   <g id="line2d_135">
    <path d="M 373.972571 334.22135 
L 397.547429 334.22135 
" clip-path="url(#p01830a357a)" style="fill: none; stroke: #3d3d3d"/>
   </g>
   <g id="line2d_136">
    <path d="M 580.252571 302.50545 
L 603.827429 302.50545 
" clip-path="url(#p01830a357a)" style="fill: none; stroke: #3d3d3d"/>
   </g>
   <g id="line2d_137">
    <path d="M 191.267429 336.072415 
L 214.842286 336.072415 
" clip-path="url(#p01830a357a)" style="fill: none; stroke: #3d3d3d"/>
   </g>
   <g id="line2d_138">
    <path d="M 397.547429 146.622395 
L 421.122286 146.622395 
" clip-path="url(#p01830a357a)" style="fill: none; stroke: #3d3d3d"/>
   </g>
   <g id="line2d_139">
    <path d="M 603.827429 201.291925 
L 627.402286 201.291925 
" clip-path="url(#p01830a357a)" style="fill: none; stroke: #3d3d3d"/>
   </g>
   <g id="line2d_140">
    <path d="M 214.842286 276.523785 
L 238.417143 276.523785 
" clip-path="url(#p01830a357a)" style="fill: none; stroke: #3d3d3d"/>
   </g>
   <g id="line2d_141">
    <path d="M 421.122286 171.882579 
L 444.697143 171.882579 
" clip-path="url(#p01830a357a)" style="fill: none; stroke: #3d3d3d"/>
   </g>
   <g id="line2d_142">
    <path d="M 627.402286 218.598389 
L 650.977143 218.598389 
" clip-path="url(#p01830a357a)" style="fill: none; stroke: #3d3d3d"/>
   </g>
   <g id="line2d_143">
    <path d="M 238.417143 307.919335 
L 261.992 307.919335 
" clip-path="url(#p01830a357a)" style="fill: none; stroke: #3d3d3d"/>
   </g>
   <g id="line2d_144">
    <path d="M 444.697143 234.020669 
L 468.272 234.020669 
" clip-path="url(#p01830a357a)" style="fill: none; stroke: #3d3d3d"/>
   </g>
   <g id="line2d_145">
    <path d="M 650.977143 218.669526 
L 674.552 218.669526 
" clip-path="url(#p01830a357a)" style="fill: none; stroke: #3d3d3d"/>
   </g>
   <g id="patch_31">
    <path d="M 76.34 526.12 
L 76.34 32.64 
" style="fill: none; stroke: #000000; stroke-width: 0.8; stroke-linejoin: miter; stroke-linecap: square"/>
   </g>
   <g id="patch_32">
    <path d="M 695.18 526.12 
L 695.18 32.64 
" style="fill: none; stroke: #000000; stroke-width: 0.8; stroke-linejoin: miter; stroke-linecap: square"/>
   </g>
   <g id="patch_33">
    <path d="M 76.34 526.12 
L 695.18 526.12 
" style="fill: none; stroke: #000000; stroke-width: 0.8; stroke-linejoin: miter; stroke-linecap: square"/>
   </g>
   <g id="patch_34">
    <path d="M 76.34 32.64 
L 695.18 32.64 
" style="fill: none; stroke: #000000; stroke-width: 0.8; stroke-linejoin: miter; stroke-linecap: square"/>
   </g>
   <g id="text_14">
    <!-- Porównanie modeli: F1 -->
    <g transform="translate(272.300625 26.64) scale(0.2 -0.2)">
     <defs>
      <path id="DejaVuSans-f3" d="M 1959 3097 
Q 1497 3097 1228 2736 
Q 959 2375 959 1747 
Q 959 1119 1226 758 
Q 1494 397 1959 397 
Q 2419 397 2687 759 
Q 2956 1122 2956 1747 
Q 2956 2369 2687 2733 
Q 2419 3097 1959 3097 
z
M 1959 3584 
Q 2709 3584 3137 3096 
Q 3566 2609 3566 1747 
Q 3566 888 3137 398 
Q 2709 -91 1959 -91 
Q 1206 -91 779 398 
Q 353 888 353 1747 
Q 353 2609 779 3096 
Q 1206 3584 1959 3584 
z
M 2394 5119 
L 3016 5119 
L 1998 3944 
L 1519 3944 
L 2394 5119 
z
" transform="scale(0.015625)"/>
      <path id="DejaVuSans-77" d="M 269 3500 
L 844 3500 
L 1563 769 
L 2278 3500 
L 2956 3500 
L 3675 769 
L 4391 3500 
L 4966 3500 
L 4050 0 
L 3372 0 
L 2619 2869 
L 1863 0 
L 1184 0 
L 269 3500 
z
" transform="scale(0.015625)"/>
      <path id="DejaVuSans-6e" d="M 3513 2113 
L 3513 0 
L 2938 0 
L 2938 2094 
Q 2938 2591 2744 2837 
Q 2550 3084 2163 3084 
Q 1697 3084 1428 2787 
Q 1159 2491 1159 1978 
L 1159 0 
L 581 0 
L 581 3500 
L 1159 3500 
L 1159 2956 
Q 1366 3272 1645 3428 
Q 1925 3584 2291 3584 
Q 2894 3584 3203 3211 
Q 3513 2838 3513 2113 
z
" transform="scale(0.015625)"/>
      <path id="DejaVuSans-61" d="M 2194 1759 
Q 1497 1759 1228 1600 
Q 959 1441 959 1056 
Q 959 750 1161 570 
Q 1363 391 1709 391 
Q 2188 391 2477 730 
Q 2766 1069 2766 1631 
L 2766 1759 
L 2194 1759 
z
M 3341 1997 
L 3341 0 
L 2766 0 
L 2766 531 
Q 2569 213 2275 61 
Q 1981 -91 1556 -91 
Q 1019 -91 701 211 
Q 384 513 384 1019 
Q 384 1609 779 1909 
Q 1175 2209 1959 2209 
L 2766 2209 
L 2766 2266 
Q 2766 2663 2505 2880 
Q 2244 3097 1772 3097 
Q 1472 3097 1187 3025 
Q 903 2953 641 2809 
L 641 3341 
Q 956 3463 1253 3523 
Q 1550 3584 1831 3584 
Q 2591 3584 2966 3190 
Q 3341 2797 3341 1997 
z
" transform="scale(0.015625)"/>
      <path id="DejaVuSans-20" transform="scale(0.015625)"/>
      <path id="DejaVuSans-6d" d="M 3328 2828 
Q 3544 3216 3844 3400 
Q 4144 3584 4550 3584 
Q 5097 3584 5394 3201 
Q 5691 2819 5691 2113 
L 5691 0 
L 5113 0 
L 5113 2094 
Q 5113 2597 4934 2840 
Q 4756 3084 4391 3084 
Q 3944 3084 3684 2787 
Q 3425 2491 3425 1978 
L 3425 0 
L 2847 0 
L 2847 2094 
Q 2847 2600 2669 2842 
Q 2491 3084 2119 3084 
Q 1678 3084 1418 2786 
Q 1159 2488 1159 1978 
L 1159 0 
L 581 0 
L 581 3500 
L 1159 3500 
L 1159 2956 
Q 1356 3278 1631 3431 
Q 1906 3584 2284 3584 
Q 2666 3584 2933 3390 
Q 3200 3197 3328 2828 
z
" transform="scale(0.015625)"/>
      <path id="DejaVuSans-3a" d="M 750 794 
L 1409 794 
L 1409 0 
L 750 0 
L 750 794 
z
M 750 3309 
L 1409 3309 
L 1409 2516 
L 750 2516 
L 750 3309 
z
" transform="scale(0.015625)"/>
     </defs>
     <use xlink:href="#DejaVuSans-50"/>
     <use xlink:href="#DejaVuSans-6f" transform="translate(56.677734 0)"/>
     <use xlink:href="#DejaVuSans-72" transform="translate(117.859375 0)"/>
     <use xlink:href="#DejaVuSans-f3" transform="translate(156.722656 0)"/>
     <use xlink:href="#DejaVuSans-77" transform="translate(217.904297 0)"/>
     <use xlink:href="#DejaVuSans-6e" transform="translate(299.691406 0)"/>
     <use xlink:href="#DejaVuSans-61" transform="translate(363.070312 0)"/>
     <use xlink:href="#DejaVuSans-6e" transform="translate(424.349609 0)"/>
     <use xlink:href="#DejaVuSans-69" transform="translate(487.728516 0)"/>
     <use xlink:href="#DejaVuSans-65" transform="translate(515.511719 0)"/>
     <use xlink:href="#DejaVuSans-20" transform="translate(577.035156 0)"/>
     <use xlink:href="#DejaVuSans-6d" transform="translate(608.822266 0)"/>
     <use xlink:href="#DejaVuSans-6f" transform="translate(706.234375 0)"/>
     <use xlink:href="#DejaVuSans-64" transform="translate(767.416016 0)"/>
     <use xlink:href="#DejaVuSans-65" transform="translate(830.892578 0)"/>
     <use xlink:href="#DejaVuSans-6c" transform="translate(892.416016 0)"/>
     <use xlink:href="#DejaVuSans-69" transform="translate(920.199219 0)"/>
     <use xlink:href="#DejaVuSans-3a" transform="translate(947.982422 0)"/>
     <use xlink:href="#DejaVuSans-20" transform="translate(981.673828 0)"/>
     <use xlink:href="#DejaVuSans-46" transform="translate(1013.460938 0)"/>
     <use xlink:href="#DejaVuSans-31" transform="translate(1070.980469 0)"/>
    </g>
   </g>
   <g id="legend_1">
    <g id="patch_35">
     <path d="M 735.922 187.685625 
L 985.666688 187.685625 
Q 988.466688 187.685625 988.466688 184.885625 
L 988.466688 42.44 
Q 988.466688 39.64 985.666688 39.64 
L 735.922 39.64 
Q 733.122 39.64 733.122 42.44 
L 733.122 184.885625 
Q 733.122 187.685625 735.922 187.685625 
z
" style="fill: #ffffff; opacity: 0.8; stroke: #cccccc; stroke-linejoin: miter"/>
    </g>
    <g id="patch_36">
     <path d="M 738.722 55.877812 
L 766.722 55.877812 
L 766.722 46.077812 
L 738.722 46.077812 
z
" style="fill: #3274a1; stroke: #3d3d3d; stroke-linejoin: miter"/>
    </g>
    <g id="text_15">
     <!-- Real Only -->
     <g transform="translate(777.922 55.877812) scale(0.14 -0.14)">
      <defs>
       <path id="DejaVuSans-4f" d="M 2522 4238 
Q 1834 4238 1429 3725 
Q 1025 3213 1025 2328 
Q 1025 1447 1429 934 
Q 1834 422 2522 422 
Q 3209 422 3611 934 
Q 4013 1447 4013 2328 
Q 4013 3213 3611 3725 
Q 3209 4238 2522 4238 
z
M 2522 4750 
Q 3503 4750 4090 4092 
Q 4678 3434 4678 2328 
Q 4678 1225 4090 567 
Q 3503 -91 2522 -91 
Q 1538 -91 948 565 
Q 359 1222 359 2328 
Q 359 3434 948 4092 
Q 1538 4750 2522 4750 
z
" transform="scale(0.015625)"/>
      </defs>
      <use xlink:href="#DejaVuSans-52"/>
      <use xlink:href="#DejaVuSans-65" transform="translate(64.982422 0)"/>
      <use xlink:href="#DejaVuSans-61" transform="translate(126.505859 0)"/>
      <use xlink:href="#DejaVuSans-6c" transform="translate(187.785156 0)"/>
      <use xlink:href="#DejaVuSans-20" transform="translate(215.568359 0)"/>
      <use xlink:href="#DejaVuSans-4f" transform="translate(247.355469 0)"/>
      <use xlink:href="#DejaVuSans-6e" transform="translate(326.066406 0)"/>
      <use xlink:href="#DejaVuSans-6c" transform="translate(389.445312 0)"/>
      <use xlink:href="#DejaVuSans-79" transform="translate(417.228516 0)"/>
     </g>
    </g>
    <g id="patch_37">
     <path d="M 738.722 76.427187 
L 766.722 76.427187 
L 766.722 66.627187 
L 738.722 66.627187 
z
" style="fill: #e1812c; stroke: #3d3d3d; stroke-linejoin: miter"/>
    </g>
    <g id="text_16">
     <!-- Real + ProtGPT2 -->
     <g transform="translate(777.922 76.427187) scale(0.14 -0.14)">
      <defs>
       <path id="DejaVuSans-2b" d="M 2944 4013 
L 2944 2272 
L 4684 2272 
L 4684 1741 
L 2944 1741 
L 2944 0 
L 2419 0 
L 2419 1741 
L 678 1741 
L 678 2272 
L 2419 2272 
L 2419 4013 
L 2944 4013 
z
" transform="scale(0.015625)"/>
       <path id="DejaVuSans-47" d="M 3809 666 
L 3809 1919 
L 2778 1919 
L 2778 2438 
L 4434 2438 
L 4434 434 
Q 4069 175 3628 42 
Q 3188 -91 2688 -91 
Q 1594 -91 976 548 
Q 359 1188 359 2328 
Q 359 3472 976 4111 
Q 1594 4750 2688 4750 
Q 3144 4750 3555 4637 
Q 3966 4525 4313 4306 
L 4313 3634 
Q 3963 3931 3569 4081 
Q 3175 4231 2741 4231 
Q 1884 4231 1454 3753 
Q 1025 3275 1025 2328 
Q 1025 1384 1454 906 
Q 1884 428 2741 428 
Q 3075 428 3337 486 
Q 3600 544 3809 666 
z
" transform="scale(0.015625)"/>
      </defs>
      <use xlink:href="#DejaVuSans-52"/>
      <use xlink:href="#DejaVuSans-65" transform="translate(64.982422 0)"/>
      <use xlink:href="#DejaVuSans-61" transform="translate(126.505859 0)"/>
      <use xlink:href="#DejaVuSans-6c" transform="translate(187.785156 0)"/>
      <use xlink:href="#DejaVuSans-20" transform="translate(215.568359 0)"/>
      <use xlink:href="#DejaVuSans-2b" transform="translate(247.355469 0)"/>
      <use xlink:href="#DejaVuSans-20" transform="translate(331.144531 0)"/>
      <use xlink:href="#DejaVuSans-50" transform="translate(362.931641 0)"/>
      <use xlink:href="#DejaVuSans-72" transform="translate(421.484375 0)"/>
      <use xlink:href="#DejaVuSans-6f" transform="translate(460.347656 0)"/>
      <use xlink:href="#DejaVuSans-74" transform="translate(521.529297 0)"/>
      <use xlink:href="#DejaVuSans-47" transform="translate(560.738281 0)"/>
      <use xlink:href="#DejaVuSans-50" transform="translate(638.228516 0)"/>
      <use xlink:href="#DejaVuSans-54" transform="translate(698.53125 0)"/>
      <use xlink:href="#DejaVuSans-32" transform="translate(759.615234 0)"/>
     </g>
    </g>
    <g id="patch_38">
     <path d="M 738.722 96.976562 
L 766.722 96.976562 
L 766.722 87.176562 
L 738.722 87.176562 
z
" style="fill: #3a923a; stroke: #3d3d3d; stroke-linejoin: miter"/>
    </g>
    <g id="text_17">
     <!-- Real + cVAE -->
     <g transform="translate(777.922 96.976562) scale(0.14 -0.14)">
      <defs>
       <path id="DejaVuSans-63" d="M 3122 3366 
L 3122 2828 
Q 2878 2963 2633 3030 
Q 2388 3097 2138 3097 
Q 1578 3097 1268 2742 
Q 959 2388 959 1747 
Q 959 1106 1268 751 
Q 1578 397 2138 397 
Q 2388 397 2633 464 
Q 2878 531 3122 666 
L 3122 134 
Q 2881 22 2623 -34 
Q 2366 -91 2075 -91 
Q 1284 -91 818 406 
Q 353 903 353 1747 
Q 353 2603 823 3093 
Q 1294 3584 2113 3584 
Q 2378 3584 2631 3529 
Q 2884 3475 3122 3366 
z
" transform="scale(0.015625)"/>
       <path id="DejaVuSans-56" d="M 1831 0 
L 50 4666 
L 709 4666 
L 2188 738 
L 3669 4666 
L 4325 4666 
L 2547 0 
L 1831 0 
z
" transform="scale(0.015625)"/>
       <path id="DejaVuSans-41" d="M 2188 4044 
L 1331 1722 
L 3047 1722 
L 2188 4044 
z
M 1831 4666 
L 2547 4666 
L 4325 0 
L 3669 0 
L 3244 1197 
L 1141 1197 
L 716 0 
L 50 0 
L 1831 4666 
z
" transform="scale(0.015625)"/>
      </defs>
      <use xlink:href="#DejaVuSans-52"/>
      <use xlink:href="#DejaVuSans-65" transform="translate(64.982422 0)"/>
      <use xlink:href="#DejaVuSans-61" transform="translate(126.505859 0)"/>
      <use xlink:href="#DejaVuSans-6c" transform="translate(187.785156 0)"/>
      <use xlink:href="#DejaVuSans-20" transform="translate(215.568359 0)"/>
      <use xlink:href="#DejaVuSans-2b" transform="translate(247.355469 0)"/>
      <use xlink:href="#DejaVuSans-20" transform="translate(331.144531 0)"/>
      <use xlink:href="#DejaVuSans-63" transform="translate(362.931641 0)"/>
      <use xlink:href="#DejaVuSans-56" transform="translate(417.912109 0)"/>
      <use xlink:href="#DejaVuSans-41" transform="translate(479.945312 0)"/>
      <use xlink:href="#DejaVuSans-45" transform="translate(548.353516 0)"/>
     </g>
    </g>
    <g id="patch_39">
     <path d="M 738.722 117.525937 
L 766.722 117.525937 
L 766.722 107.725937 
L 738.722 107.725937 
z
" style="fill: #c03d3e; stroke: #3d3d3d; stroke-linejoin: miter"/>
    </g>
    <g id="text_18">
     <!-- Real + Diffusion -->
     <g transform="translate(777.922 117.525937) scale(0.14 -0.14)">
      <defs>
       <path id="DejaVuSans-44" d="M 1259 4147 
L 1259 519 
L 2022 519 
Q 2988 519 3436 956 
Q 3884 1394 3884 2338 
Q 3884 3275 3436 3711 
Q 2988 4147 2022 4147 
L 1259 4147 
z
M 628 4666 
L 1925 4666 
Q 3281 4666 3915 4102 
Q 4550 3538 4550 2338 
Q 4550 1131 3912 565 
Q 3275 0 1925 0 
L 628 0 
L 628 4666 
z
" transform="scale(0.015625)"/>
       <path id="DejaVuSans-66" d="M 2375 4863 
L 2375 4384 
L 1825 4384 
Q 1516 4384 1395 4259 
Q 1275 4134 1275 3809 
L 1275 3500 
L 2222 3500 
L 2222 3053 
L 1275 3053 
L 1275 0 
L 697 0 
L 697 3053 
L 147 3053 
L 147 3500 
L 697 3500 
L 697 3744 
Q 697 4328 969 4595 
Q 1241 4863 1831 4863 
L 2375 4863 
z
" transform="scale(0.015625)"/>
       <path id="DejaVuSans-75" d="M 544 1381 
L 544 3500 
L 1119 3500 
L 1119 1403 
Q 1119 906 1312 657 
Q 1506 409 1894 409 
Q 2359 409 2629 706 
Q 2900 1003 2900 1516 
L 2900 3500 
L 3475 3500 
L 3475 0 
L 2900 0 
L 2900 538 
Q 2691 219 2414 64 
Q 2138 -91 1772 -91 
Q 1169 -91 856 284 
Q 544 659 544 1381 
z
M 1991 3584 
L 1991 3584 
z
" transform="scale(0.015625)"/>
       <path id="DejaVuSans-73" d="M 2834 3397 
L 2834 2853 
Q 2591 2978 2328 3040 
Q 2066 3103 1784 3103 
Q 1356 3103 1142 2972 
Q 928 2841 928 2578 
Q 928 2378 1081 2264 
Q 1234 2150 1697 2047 
L 1894 2003 
Q 2506 1872 2764 1633 
Q 3022 1394 3022 966 
Q 3022 478 2636 193 
Q 2250 -91 1575 -91 
Q 1294 -91 989 -36 
Q 684 19 347 128 
L 347 722 
Q 666 556 975 473 
Q 1284 391 1588 391 
Q 1994 391 2212 530 
Q 2431 669 2431 922 
Q 2431 1156 2273 1281 
Q 2116 1406 1581 1522 
L 1381 1569 
Q 847 1681 609 1914 
Q 372 2147 372 2553 
Q 372 3047 722 3315 
Q 1072 3584 1716 3584 
Q 2034 3584 2315 3537 
Q 2597 3491 2834 3397 
z
" transform="scale(0.015625)"/>
      </defs>
      <use xlink:href="#DejaVuSans-52"/>
      <use xlink:href="#DejaVuSans-65" transform="translate(64.982422 0)"/>
      <use xlink:href="#DejaVuSans-61" transform="translate(126.505859 0)"/>
      <use xlink:href="#DejaVuSans-6c" transform="translate(187.785156 0)"/>
      <use xlink:href="#DejaVuSans-20" transform="translate(215.568359 0)"/>
      <use xlink:href="#DejaVuSans-2b" transform="translate(247.355469 0)"/>
      <use xlink:href="#DejaVuSans-20" transform="translate(331.144531 0)"/>
      <use xlink:href="#DejaVuSans-44" transform="translate(362.931641 0)"/>
      <use xlink:href="#DejaVuSans-69" transform="translate(439.933594 0)"/>
      <use xlink:href="#DejaVuSans-66" transform="translate(467.716797 0)"/>
      <use xlink:href="#DejaVuSans-66" transform="translate(502.921875 0)"/>
      <use xlink:href="#DejaVuSans-75" transform="translate(538.126953 0)"/>
      <use xlink:href="#DejaVuSans-73" transform="translate(601.505859 0)"/>
      <use xlink:href="#DejaVuSans-69" transform="translate(653.605469 0)"/>
      <use xlink:href="#DejaVuSans-6f" transform="translate(681.388672 0)"/>
      <use xlink:href="#DejaVuSans-6e" transform="translate(742.570312 0)"/>
     </g>
    </g>
    <g id="patch_40">
     <path d="M 738.722 138.075312 
L 766.722 138.075312 
L 766.722 128.275312 
L 738.722 128.275312 
z
" style="fill: #9372b2; stroke: #3d3d3d; stroke-linejoin: miter"/>
    </g>
    <g id="text_19">
     <!-- Real + ProtGPT2 pLDDT &gt; 70 -->
     <g transform="translate(777.922 138.075312) scale(0.14 -0.14)">
      <defs>
       <path id="DejaVuSans-70" d="M 1159 525 
L 1159 -1331 
L 581 -1331 
L 581 3500 
L 1159 3500 
L 1159 2969 
Q 1341 3281 1617 3432 
Q 1894 3584 2278 3584 
Q 2916 3584 3314 3078 
Q 3713 2572 3713 1747 
Q 3713 922 3314 415 
Q 2916 -91 2278 -91 
Q 1894 -91 1617 61 
Q 1341 213 1159 525 
z
M 3116 1747 
Q 3116 2381 2855 2742 
Q 2594 3103 2138 3103 
Q 1681 3103 1420 2742 
Q 1159 2381 1159 1747 
Q 1159 1113 1420 752 
Q 1681 391 2138 391 
Q 2594 391 2855 752 
Q 3116 1113 3116 1747 
z
" transform="scale(0.015625)"/>
       <path id="DejaVuSans-3e" d="M 678 3150 
L 678 3719 
L 4684 2266 
L 4684 1747 
L 678 294 
L 678 863 
L 3897 2003 
L 678 3150 
z
" transform="scale(0.015625)"/>
      </defs>
      <use xlink:href="#DejaVuSans-52"/>
      <use xlink:href="#DejaVuSans-65" transform="translate(64.982422 0)"/>
      <use xlink:href="#DejaVuSans-61" transform="translate(126.505859 0)"/>
      <use xlink:href="#DejaVuSans-6c" transform="translate(187.785156 0)"/>
      <use xlink:href="#DejaVuSans-20" transform="translate(215.568359 0)"/>
      <use xlink:href="#DejaVuSans-2b" transform="translate(247.355469 0)"/>
      <use xlink:href="#DejaVuSans-20" transform="translate(331.144531 0)"/>
      <use xlink:href="#DejaVuSans-50" transform="translate(362.931641 0)"/>
      <use xlink:href="#DejaVuSans-72" transform="translate(421.484375 0)"/>
      <use xlink:href="#DejaVuSans-6f" transform="translate(460.347656 0)"/>
      <use xlink:href="#DejaVuSans-74" transform="translate(521.529297 0)"/>
      <use xlink:href="#DejaVuSans-47" transform="translate(560.738281 0)"/>
      <use xlink:href="#DejaVuSans-50" transform="translate(638.228516 0)"/>
      <use xlink:href="#DejaVuSans-54" transform="translate(698.53125 0)"/>
      <use xlink:href="#DejaVuSans-32" transform="translate(759.615234 0)"/>
      <use xlink:href="#DejaVuSans-20" transform="translate(823.238281 0)"/>
      <use xlink:href="#DejaVuSans-70" transform="translate(855.025391 0)"/>
      <use xlink:href="#DejaVuSans-4c" transform="translate(918.501953 0)"/>
      <use xlink:href="#DejaVuSans-44" transform="translate(974.214844 0)"/>
      <use xlink:href="#DejaVuSans-44" transform="translate(1051.216797 0)"/>
      <use xlink:href="#DejaVuSans-54" transform="translate(1128.21875 0)"/>
      <use xlink:href="#DejaVuSans-20" transform="translate(1189.302734 0)"/>
      <use xlink:href="#DejaVuSans-3e" transform="translate(1221.089844 0)"/>
      <use xlink:href="#DejaVuSans-20" transform="translate(1304.878906 0)"/>
      <use xlink:href="#DejaVuSans-37" transform="translate(1336.666016 0)"/>
      <use xlink:href="#DejaVuSans-30" transform="translate(1400.289062 0)"/>
     </g>
    </g>
    <g id="patch_41">
     <path d="M 738.722 158.624687 
L 766.722 158.624687 
L 766.722 148.824687 
L 738.722 148.824687 
z
" style="fill: #845b53; stroke: #3d3d3d; stroke-linejoin: miter"/>
    </g>
    <g id="text_20">
     <!-- Real + cVAE pLDDT &gt; 70 -->
     <g transform="translate(777.922 158.624687) scale(0.14 -0.14)">
      <use xlink:href="#DejaVuSans-52"/>
      <use xlink:href="#DejaVuSans-65" transform="translate(64.982422 0)"/>
      <use xlink:href="#DejaVuSans-61" transform="translate(126.505859 0)"/>
      <use xlink:href="#DejaVuSans-6c" transform="translate(187.785156 0)"/>
      <use xlink:href="#DejaVuSans-20" transform="translate(215.568359 0)"/>
      <use xlink:href="#DejaVuSans-2b" transform="translate(247.355469 0)"/>
      <use xlink:href="#DejaVuSans-20" transform="translate(331.144531 0)"/>
      <use xlink:href="#DejaVuSans-63" transform="translate(362.931641 0)"/>
      <use xlink:href="#DejaVuSans-56" transform="translate(417.912109 0)"/>
      <use xlink:href="#DejaVuSans-41" transform="translate(479.945312 0)"/>
      <use xlink:href="#DejaVuSans-45" transform="translate(548.353516 0)"/>
      <use xlink:href="#DejaVuSans-20" transform="translate(611.537109 0)"/>
      <use xlink:href="#DejaVuSans-70" transform="translate(643.324219 0)"/>
      <use xlink:href="#DejaVuSans-4c" transform="translate(706.800781 0)"/>
      <use xlink:href="#DejaVuSans-44" transform="translate(762.513672 0)"/>
      <use xlink:href="#DejaVuSans-44" transform="translate(839.515625 0)"/>
      <use xlink:href="#DejaVuSans-54" transform="translate(916.517578 0)"/>
      <use xlink:href="#DejaVuSans-20" transform="translate(977.601562 0)"/>
      <use xlink:href="#DejaVuSans-3e" transform="translate(1009.388672 0)"/>
      <use xlink:href="#DejaVuSans-20" transform="translate(1093.177734 0)"/>
      <use xlink:href="#DejaVuSans-37" transform="translate(1124.964844 0)"/>
      <use xlink:href="#DejaVuSans-30" transform="translate(1188.587891 0)"/>
     </g>
    </g>
    <g id="patch_42">
     <path d="M 738.722 179.174062 
L 766.722 179.174062 
L 766.722 169.374062 
L 738.722 169.374062 
z
" style="fill: #d684bd; stroke: #3d3d3d; stroke-linejoin: miter"/>
    </g>
    <g id="text_21">
     <!-- Real + Diffusion pLDDT &gt; 70 -->
     <g transform="translate(777.922 179.174062) scale(0.14 -0.14)">
      <use xlink:href="#DejaVuSans-52"/>
      <use xlink:href="#DejaVuSans-65" transform="translate(64.982422 0)"/>
      <use xlink:href="#DejaVuSans-61" transform="translate(126.505859 0)"/>
      <use xlink:href="#DejaVuSans-6c" transform="translate(187.785156 0)"/>
      <use xlink:href="#DejaVuSans-20" transform="translate(215.568359 0)"/>
      <use xlink:href="#DejaVuSans-2b" transform="translate(247.355469 0)"/>
      <use xlink:href="#DejaVuSans-20" transform="translate(331.144531 0)"/>
      <use xlink:href="#DejaVuSans-44" transform="translate(362.931641 0)"/>
      <use xlink:href="#DejaVuSans-69" transform="translate(439.933594 0)"/>
      <use xlink:href="#DejaVuSans-66" transform="translate(467.716797 0)"/>
      <use xlink:href="#DejaVuSans-66" transform="translate(502.921875 0)"/>
      <use xlink:href="#DejaVuSans-75" transform="translate(538.126953 0)"/>
      <use xlink:href="#DejaVuSans-73" transform="translate(601.505859 0)"/>
      <use xlink:href="#DejaVuSans-69" transform="translate(653.605469 0)"/>
      <use xlink:href="#DejaVuSans-6f" transform="translate(681.388672 0)"/>
      <use xlink:href="#DejaVuSans-6e" transform="translate(742.570312 0)"/>
      <use xlink:href="#DejaVuSans-20" transform="translate(805.949219 0)"/>
      <use xlink:href="#DejaVuSans-70" transform="translate(837.736328 0)"/>
      <use xlink:href="#DejaVuSans-4c" transform="translate(901.212891 0)"/>
      <use xlink:href="#DejaVuSans-44" transform="translate(956.925781 0)"/>
      <use xlink:href="#DejaVuSans-44" transform="translate(1033.927734 0)"/>
      <use xlink:href="#DejaVuSans-54" transform="translate(1110.929688 0)"/>
      <use xlink:href="#DejaVuSans-20" transform="translate(1172.013672 0)"/>
      <use xlink:href="#DejaVuSans-3e" transform="translate(1203.800781 0)"/>
      <use xlink:href="#DejaVuSans-20" transform="translate(1287.589844 0)"/>
      <use xlink:href="#DejaVuSans-37" transform="translate(1319.376953 0)"/>
      <use xlink:href="#DejaVuSans-30" transform="translate(1383 0)"/>
     </g>
    </g>
   </g>
  </g>
 </g>
 <defs>
  <clipPath id="p01830a357a">
   <rect x="76.34" y="32.64" width="618.84" height="493.48"/>
  </clipPath>
 </defs>
</svg>
