<?xml version="1.0" encoding="utf-8" standalone="no"?>
<!DOCTYPE svg PUBLIC "-//W3C//DTD SVG 1.1//EN"
  "http://www.w3.org/Graphics/SVG/1.1/DTD/svg11.dtd">
<svg xmlns:xlink="http://www.w3.org/1999/xlink" width="1284.735781pt" height="708.583594pt" viewBox="0 0 1284.735781 708.583594" xmlns="http://www.w3.org/2000/svg" version="1.1">
 <metadata>
  <rdf:RDF xmlns:dc="http://purl.org/dc/elements/1.1/" xmlns:cc="http://creativecommons.org/ns#" xmlns:rdf="http://www.w3.org/1999/02/22-rdf-syntax-ns#">
   <cc:Work>
    <dc:type rdf:resource="http://purl.org/dc/dcmitype/StillImage"/>
    <dc:date>2026-05-16T18:49:05.601306</dc:date>
    <dc:format>image/svg+xml</dc:format>
    <dc:creator>
     <cc:Agent>
      <dc:title>Matplotlib v3.10.9, https://matplotlib.org/</dc:title>
     </cc:Agent>
    </dc:creator>
   </cc:Work>
  </rdf:RDF>
 </metadata>
 <defs>
  <style type="text/css">*{stroke-linejoin: round; stroke-linecap: butt}</style>
 </defs>
 <g id="figure_1">
  <g id="patch_1">
   <path d="M 0 708.583594 
L 1284.735781 708.583594 
L 1284.735781 0 
L 0 0 
z
" style="fill: #ffffff"/>
  </g>
  <g id="axes_1">
   <g id="patch_2">
    <path d="M 37.932031 323.119375 
L 651.253906 323.119375 
L 651.253906 21.789375 
L 37.932031 21.789375 
z
" style="fill: #ffffff"/>
   </g>
   <g id="matplotlib.axis_1">
    <g id="xtick_1">
     <g id="line2d_1">
      <path d="M 65.810298 323.119375 
L 65.810298 21.789375 
" clip-path="url(#pa7bfe15623)" style="fill: none; stroke: #cccccc; stroke-linecap: round"/>
     </g>
    </g>
    <g id="xtick_2">
     <g id="line2d_2">
      <path d="M 195.511402 323.119375 
L 195.511402 21.789375 
" clip-path="url(#pa7bfe15623)" style="fill: none; stroke: #cccccc; stroke-linecap: round"/>
     </g>
    </g>
    <g id="xtick_3">
     <g id="line2d_3">
      <path d="M 325.212506 323.119375 
L 325.212506 21.789375 
" clip-path="url(#pa7bfe15623)" style="fill: none; stroke: #cccccc; stroke-linecap: round"/>
     </g>
    </g>
    <g id="xtick_4">
     <g id="line2d_4">
      <path d="M 454.91361 323.119375 
L 454.91361 21.789375 
" clip-path="url(#pa7bfe15623)" style="fill: none; stroke: #cccccc; stroke-linecap: round"/>
     </g>
    </g>
    <g id="xtick_5">
     <g id="line2d_5">
      <path d="M 584.614714 323.119375 
L 584.614714 21.789375 
" clip-path="url(#pa7bfe15623)" style="fill: none; stroke: #cccccc; stroke-linecap: round"/>
     </g>
    </g>
    <g id="text_1">
     <!-- LCC -->
     <g style="fill: #262626" transform="translate(332.590156 335.70875) scale(0.12 -0.12)">
      <defs>
       <path id="ArialMT-4c" d="M 469 0 
L 469 4581 
L 1075 4581 
L 1075 541 
L 3331 541 
L 3331 0 
L 469 0 
z
" transform="scale(0.015625)"/>
       <path id="ArialMT-43" d="M 3763 1606 
L 4369 1453 
Q 4178 706 3683 314 
Q 3188 -78 2472 -78 
Q 1731 -78 1267 223 
Q 803 525 561 1097 
Q 319 1669 319 2325 
Q 319 3041 592 3573 
Q 866 4106 1370 4382 
Q 1875 4659 2481 4659 
Q 3169 4659 3637 4309 
Q 4106 3959 4291 3325 
L 3694 3184 
Q 3534 3684 3231 3912 
Q 2928 4141 2469 4141 
Q 1941 4141 1586 3887 
Q 1231 3634 1087 3207 
Q 944 2781 944 2328 
Q 944 1744 1114 1308 
Q 1284 872 1643 656 
Q 2003 441 2422 441 
Q 2931 441 3284 734 
Q 3638 1028 3763 1606 
z
" transform="scale(0.015625)"/>
      </defs>
      <use xlink:href="#ArialMT-4c"/>
      <use xlink:href="#ArialMT-43" transform="translate(55.615234 0)"/>
      <use xlink:href="#ArialMT-43" transform="translate(127.832031 0)"/>
     </g>
    </g>
   </g>
   <g id="matplotlib.axis_2">
    <g id="ytick_1">
     <g id="line2d_6">
      <path d="M 37.932031 323.119375 
L 651.253906 323.119375 
" clip-path="url(#pa7bfe15623)" style="fill: none; stroke: #cccccc; stroke-linecap: round"/>
     </g>
     <g id="text_2">
      <!-- 0 -->
      <g style="fill: #262626" transform="translate(22.315 327.056172) scale(0.11 -0.11)">
       <defs>
        <path id="ArialMT-30" d="M 266 2259 
Q 266 3072 433 3567 
Q 600 4063 929 4331 
Q 1259 4600 1759 4600 
Q 2128 4600 2406 4451 
Q 2684 4303 2865 4023 
Q 3047 3744 3150 3342 
Q 3253 2941 3253 2259 
Q 3253 1453 3087 958 
Q 2922 463 2592 192 
Q 2263 -78 1759 -78 
Q 1097 -78 719 397 
Q 266 969 266 2259 
z
M 844 2259 
Q 844 1131 1108 757 
Q 1372 384 1759 384 
Q 2147 384 2411 759 
Q 2675 1134 2675 2259 
Q 2675 3391 2411 3762 
Q 2147 4134 1753 4134 
Q 1366 4134 1134 3806 
Q 844 3388 844 2259 
z
" transform="scale(0.015625)"/>
       </defs>
       <use xlink:href="#ArialMT-30"/>
      </g>
     </g>
    </g>
    <g id="ytick_2">
     <g id="line2d_7">
      <path d="M 37.932031 269.796512 
L 651.253906 269.796512 
" clip-path="url(#pa7bfe15623)" style="fill: none; stroke: #cccccc; stroke-linecap: round"/>
     </g>
     <g id="text_3">
      <!-- 1 -->
      <g style="fill: #262626" transform="translate(22.315 273.733309) scale(0.11 -0.11)">
       <defs>
        <path id="ArialMT-31" d="M 2384 0 
L 1822 0 
L 1822 3584 
Q 1619 3391 1289 3197 
Q 959 3003 697 2906 
L 697 3450 
Q 1169 3672 1522 3987 
Q 1875 4303 2022 4600 
L 2384 4600 
L 2384 0 
z
" transform="scale(0.015625)"/>
       </defs>
       <use xlink:href="#ArialMT-31"/>
      </g>
     </g>
    </g>
    <g id="ytick_3">
     <g id="line2d_8">
      <path d="M 37.932031 216.473649 
L 651.253906 216.473649 
" clip-path="url(#pa7bfe15623)" style="fill: none; stroke: #cccccc; stroke-linecap: round"/>
     </g>
     <g id="text_4">
      <!-- 2 -->
      <g style="fill: #262626" transform="translate(22.315 220.410446) scale(0.11 -0.11)">
       <defs>
        <path id="ArialMT-32" d="M 3222 541 
L 3222 0 
L 194 0 
Q 188 203 259 391 
Q 375 700 629 1000 
Q 884 1300 1366 1694 
Q 2113 2306 2375 2664 
Q 2638 3022 2638 3341 
Q 2638 3675 2398 3904 
Q 2159 4134 1775 4134 
Q 1369 4134 1125 3890 
Q 881 3647 878 3216 
L 300 3275 
Q 359 3922 746 4261 
Q 1134 4600 1788 4600 
Q 2447 4600 2831 4234 
Q 3216 3869 3216 3328 
Q 3216 3053 3103 2787 
Q 2991 2522 2730 2228 
Q 2469 1934 1863 1422 
Q 1356 997 1212 845 
Q 1069 694 975 541 
L 3222 541 
z
" transform="scale(0.015625)"/>
       </defs>
       <use xlink:href="#ArialMT-32"/>
      </g>
     </g>
    </g>
    <g id="ytick_4">
     <g id="line2d_9">
      <path d="M 37.932031 163.150786 
L 651.253906 163.150786 
" clip-path="url(#pa7bfe15623)" style="fill: none; stroke: #cccccc; stroke-linecap: round"/>
     </g>
     <g id="text_5">
      <!-- 3 -->
      <g style="fill: #262626" transform="translate(22.315 167.087582) scale(0.11 -0.11)">
       <defs>
        <path id="ArialMT-33" d="M 269 1209 
L 831 1284 
Q 928 806 1161 595 
Q 1394 384 1728 384 
Q 2125 384 2398 659 
Q 2672 934 2672 1341 
Q 2672 1728 2419 1979 
Q 2166 2231 1775 2231 
Q 1616 2231 1378 2169 
L 1441 2663 
Q 1497 2656 1531 2656 
Q 1891 2656 2178 2843 
Q 2466 3031 2466 3422 
Q 2466 3731 2256 3934 
Q 2047 4138 1716 4138 
Q 1388 4138 1169 3931 
Q 950 3725 888 3313 
L 325 3413 
Q 428 3978 793 4289 
Q 1159 4600 1703 4600 
Q 2078 4600 2393 4439 
Q 2709 4278 2876 4000 
Q 3044 3722 3044 3409 
Q 3044 3113 2884 2869 
Q 2725 2625 2413 2481 
Q 2819 2388 3044 2092 
Q 3269 1797 3269 1353 
Q 3269 753 2831 336 
Q 2394 -81 1725 -81 
Q 1122 -81 723 278 
Q 325 638 269 1209 
z
" transform="scale(0.015625)"/>
       </defs>
       <use xlink:href="#ArialMT-33"/>
      </g>
     </g>
    </g>
    <g id="ytick_5">
     <g id="line2d_10">
      <path d="M 37.932031 109.827922 
L 651.253906 109.827922 
" clip-path="url(#pa7bfe15623)" style="fill: none; stroke: #cccccc; stroke-linecap: round"/>
     </g>
     <g id="text_6">
      <!-- 4 -->
      <g style="fill: #262626" transform="translate(22.315 113.764719) scale(0.11 -0.11)">
       <defs>
        <path id="ArialMT-34" d="M 2069 0 
L 2069 1097 
L 81 1097 
L 81 1613 
L 2172 4581 
L 2631 4581 
L 2631 1613 
L 3250 1613 
L 3250 1097 
L 2631 1097 
L 2631 0 
L 2069 0 
z
M 2069 1613 
L 2069 3678 
L 634 1613 
L 2069 1613 
z
" transform="scale(0.015625)"/>
       </defs>
       <use xlink:href="#ArialMT-34"/>
      </g>
     </g>
    </g>
    <g id="ytick_6">
     <g id="line2d_11">
      <path d="M 37.932031 56.505059 
L 651.253906 56.505059 
" clip-path="url(#pa7bfe15623)" style="fill: none; stroke: #cccccc; stroke-linecap: round"/>
     </g>
     <g id="text_7">
      <!-- 5 -->
      <g style="fill: #262626" transform="translate(22.315 60.441856) scale(0.11 -0.11)">
       <defs>
        <path id="ArialMT-35" d="M 266 1200 
L 856 1250 
Q 922 819 1161 601 
Q 1400 384 1738 384 
Q 2144 384 2425 690 
Q 2706 997 2706 1503 
Q 2706 1984 2436 2262 
Q 2166 2541 1728 2541 
Q 1456 2541 1237 2417 
Q 1019 2294 894 2097 
L 366 2166 
L 809 4519 
L 3088 4519 
L 3088 3981 
L 1259 3981 
L 1013 2750 
Q 1425 3038 1878 3038 
Q 2478 3038 2890 2622 
Q 3303 2206 3303 1553 
Q 3303 931 2941 478 
Q 2500 -78 1738 -78 
Q 1113 -78 717 272 
Q 322 622 266 1200 
z
" transform="scale(0.015625)"/>
       </defs>
       <use xlink:href="#ArialMT-35"/>
      </g>
     </g>
    </g>
    <g id="text_8">
     <!-- Density -->
     <g style="fill: #262626" transform="translate(15.789375 192.460625) rotate(-90) scale(0.12 -0.12)">
      <defs>
       <path id="ArialMT-44" d="M 494 0 
L 494 4581 
L 2072 4581 
Q 2606 4581 2888 4516 
Q 3281 4425 3559 4188 
Q 3922 3881 4101 3404 
Q 4281 2928 4281 2316 
Q 4281 1794 4159 1391 
Q 4038 988 3847 723 
Q 3656 459 3429 307 
Q 3203 156 2883 78 
Q 2563 0 2147 0 
L 494 0 
z
M 1100 541 
L 2078 541 
Q 2531 541 2789 625 
Q 3047 709 3200 863 
Q 3416 1078 3536 1442 
Q 3656 1806 3656 2325 
Q 3656 3044 3420 3430 
Q 3184 3816 2847 3947 
Q 2603 4041 2063 4041 
L 1100 4041 
L 1100 541 
z
" transform="scale(0.015625)"/>
       <path id="ArialMT-65" d="M 2694 1069 
L 3275 997 
Q 3138 488 2766 206 
Q 2394 -75 1816 -75 
Q 1088 -75 661 373 
Q 234 822 234 1631 
Q 234 2469 665 2931 
Q 1097 3394 1784 3394 
Q 2450 3394 2872 2941 
Q 3294 2488 3294 1666 
Q 3294 1616 3291 1516 
L 816 1516 
Q 847 969 1125 678 
Q 1403 388 1819 388 
Q 2128 388 2347 550 
Q 2566 713 2694 1069 
z
M 847 1978 
L 2700 1978 
Q 2663 2397 2488 2606 
Q 2219 2931 1791 2931 
Q 1403 2931 1139 2672 
Q 875 2413 847 1978 
z
" transform="scale(0.015625)"/>
       <path id="ArialMT-6e" d="M 422 0 
L 422 3319 
L 928 3319 
L 928 2847 
Q 1294 3394 1984 3394 
Q 2284 3394 2536 3286 
Q 2788 3178 2913 3003 
Q 3038 2828 3088 2588 
Q 3119 2431 3119 2041 
L 3119 0 
L 2556 0 
L 2556 2019 
Q 2556 2363 2490 2533 
Q 2425 2703 2258 2804 
Q 2091 2906 1866 2906 
Q 1506 2906 1245 2678 
Q 984 2450 984 1813 
L 984 0 
L 422 0 
z
" transform="scale(0.015625)"/>
       <path id="ArialMT-73" d="M 197 991 
L 753 1078 
Q 800 744 1014 566 
Q 1228 388 1613 388 
Q 2000 388 2187 545 
Q 2375 703 2375 916 
Q 2375 1106 2209 1216 
Q 2094 1291 1634 1406 
Q 1016 1563 777 1677 
Q 538 1791 414 1992 
Q 291 2194 291 2438 
Q 291 2659 392 2848 
Q 494 3038 669 3163 
Q 800 3259 1026 3326 
Q 1253 3394 1513 3394 
Q 1903 3394 2198 3281 
Q 2494 3169 2634 2976 
Q 2775 2784 2828 2463 
L 2278 2388 
Q 2241 2644 2061 2787 
Q 1881 2931 1553 2931 
Q 1166 2931 1000 2803 
Q 834 2675 834 2503 
Q 834 2394 903 2306 
Q 972 2216 1119 2156 
Q 1203 2125 1616 2013 
Q 2213 1853 2448 1751 
Q 2684 1650 2818 1456 
Q 2953 1263 2953 975 
Q 2953 694 2789 445 
Q 2625 197 2315 61 
Q 2006 -75 1616 -75 
Q 969 -75 630 194 
Q 291 463 197 991 
z
" transform="scale(0.015625)"/>
       <path id="ArialMT-69" d="M 425 3934 
L 425 4581 
L 988 4581 
L 988 3934 
L 425 3934 
z
M 425 0 
L 425 3319 
L 988 3319 
L 988 0 
L 425 0 
z
" transform="scale(0.015625)"/>
       <path id="ArialMT-74" d="M 1650 503 
L 1731 6 
Q 1494 -44 1306 -44 
Q 1000 -44 831 53 
Q 663 150 594 308 
Q 525 466 525 972 
L 525 2881 
L 113 2881 
L 113 3319 
L 525 3319 
L 525 4141 
L 1084 4478 
L 1084 3319 
L 1650 3319 
L 1650 2881 
L 1084 2881 
L 1084 941 
Q 1084 700 1114 631 
Q 1144 563 1211 522 
Q 1278 481 1403 481 
Q 1497 481 1650 503 
z
" transform="scale(0.015625)"/>
       <path id="ArialMT-79" d="M 397 -1278 
L 334 -750 
Q 519 -800 656 -800 
Q 844 -800 956 -737 
Q 1069 -675 1141 -563 
Q 1194 -478 1313 -144 
Q 1328 -97 1363 -6 
L 103 3319 
L 709 3319 
L 1400 1397 
Q 1534 1031 1641 628 
Q 1738 1016 1872 1384 
L 2581 3319 
L 3144 3319 
L 1881 -56 
Q 1678 -603 1566 -809 
Q 1416 -1088 1222 -1217 
Q 1028 -1347 759 -1347 
Q 597 -1347 397 -1278 
z
" transform="scale(0.015625)"/>
      </defs>
      <use xlink:href="#ArialMT-44"/>
      <use xlink:href="#ArialMT-65" transform="translate(72.216797 0)"/>
      <use xlink:href="#ArialMT-6e" transform="translate(127.832031 0)"/>
      <use xlink:href="#ArialMT-73" transform="translate(183.447266 0)"/>
      <use xlink:href="#ArialMT-69" transform="translate(233.447266 0)"/>
      <use xlink:href="#ArialMT-74" transform="translate(255.664062 0)"/>
      <use xlink:href="#ArialMT-79" transform="translate(283.447266 0)"/>
     </g>
    </g>
   </g>
   <g id="patch_3">
    <path d="M 65.810298 323.119375 
L 77.189183 323.119375 
L 77.189183 66.346944 
L 65.810298 66.346944 
z
" clip-path="url(#pa7bfe15623)" style="fill: #4c72b0; opacity: 0.7; stroke: #ffffff; stroke-linejoin: miter"/>
   </g>
   <g id="patch_4">
    <path d="M 77.189183 323.119375 
L 88.568067 323.119375 
L 88.568067 323.119375 
L 77.189183 323.119375 
z
" clip-path="url(#pa7bfe15623)" style="fill: #4c72b0; opacity: 0.7; stroke: #ffffff; stroke-linejoin: miter"/>
   </g>
   <g id="patch_5">
    <path d="M 88.568067 323.119375 
L 99.946952 323.119375 
L 99.946952 323.119375 
L 88.568067 323.119375 
z
" clip-path="url(#pa7bfe15623)" style="fill: #4c72b0; opacity: 0.7; stroke: #ffffff; stroke-linejoin: miter"/>
   </g>
   <g id="patch_6">
    <path d="M 99.946952 323.119375 
L 111.325836 323.119375 
L 111.325836 323.119375 
L 99.946952 323.119375 
z
" clip-path="url(#pa7bfe15623)" style="fill: #4c72b0; opacity: 0.7; stroke: #ffffff; stroke-linejoin: miter"/>
   </g>
   <g id="patch_7">
    <path d="M 111.325836 323.119375 
L 122.704721 323.119375 
L 122.704721 323.119375 
L 111.325836 323.119375 
z
" clip-path="url(#pa7bfe15623)" style="fill: #4c72b0; opacity: 0.7; stroke: #ffffff; stroke-linejoin: miter"/>
   </g>
   <g id="patch_8">
    <path d="M 122.704721 323.119375 
L 134.083605 323.119375 
L 134.083605 317.077671 
L 122.704721 317.077671 
z
" clip-path="url(#pa7bfe15623)" style="fill: #4c72b0; opacity: 0.7; stroke: #ffffff; stroke-linejoin: miter"/>
   </g>
   <g id="patch_9">
    <path d="M 134.083605 323.119375 
L 145.46249 323.119375 
L 145.46249 311.035966 
L 134.083605 311.035966 
z
" clip-path="url(#pa7bfe15623)" style="fill: #4c72b0; opacity: 0.7; stroke: #ffffff; stroke-linejoin: miter"/>
   </g>
   <g id="patch_10">
    <path d="M 145.46249 323.119375 
L 156.841374 323.119375 
L 156.841374 314.056819 
L 145.46249 314.056819 
z
" clip-path="url(#pa7bfe15623)" style="fill: #4c72b0; opacity: 0.7; stroke: #ffffff; stroke-linejoin: miter"/>
   </g>
   <g id="patch_11">
    <path d="M 156.841374 323.119375 
L 168.220259 323.119375 
L 168.220259 286.869149 
L 156.841374 286.869149 
z
" clip-path="url(#pa7bfe15623)" style="fill: #4c72b0; opacity: 0.7; stroke: #ffffff; stroke-linejoin: miter"/>
   </g>
   <g id="patch_12">
    <path d="M 168.220259 323.119375 
L 179.599143 323.119375 
L 179.599143 292.910854 
L 168.220259 292.910854 
z
" clip-path="url(#pa7bfe15623)" style="fill: #4c72b0; opacity: 0.7; stroke: #ffffff; stroke-linejoin: miter"/>
   </g>
   <g id="patch_13">
    <path d="M 179.599143 323.119375 
L 190.978028 323.119375 
L 190.978028 292.910854 
L 179.599143 292.910854 
z
" clip-path="url(#pa7bfe15623)" style="fill: #4c72b0; opacity: 0.7; stroke: #ffffff; stroke-linejoin: miter"/>
   </g>
   <g id="patch_14">
    <path d="M 190.978028 323.119375 
L 202.356912 323.119375 
L 202.356912 247.598072 
L 190.978028 247.598072 
z
" clip-path="url(#pa7bfe15623)" style="fill: #4c72b0; opacity: 0.7; stroke: #ffffff; stroke-linejoin: miter"/>
   </g>
   <g id="patch_15">
    <path d="M 202.356912 323.119375 
L 213.735797 323.119375 
L 213.735797 81.451205 
L 202.356912 81.451205 
z
" clip-path="url(#pa7bfe15623)" style="fill: #4c72b0; opacity: 0.7; stroke: #ffffff; stroke-linejoin: miter"/>
   </g>
   <g id="patch_16">
    <path d="M 213.735797 323.119375 
L 225.114681 323.119375 
L 225.114681 277.806593 
L 213.735797 277.806593 
z
" clip-path="url(#pa7bfe15623)" style="fill: #4c72b0; opacity: 0.7; stroke: #ffffff; stroke-linejoin: miter"/>
   </g>
   <g id="patch_17">
    <path d="M 225.114681 323.119375 
L 236.493566 323.119375 
L 236.493566 244.57722 
L 225.114681 244.57722 
z
" clip-path="url(#pa7bfe15623)" style="fill: #4c72b0; opacity: 0.7; stroke: #ffffff; stroke-linejoin: miter"/>
   </g>
   <g id="patch_18">
    <path d="M 236.493566 323.119375 
L 247.87245 323.119375 
L 247.87245 223.431255 
L 236.493566 223.431255 
z
" clip-path="url(#pa7bfe15623)" style="fill: #4c72b0; opacity: 0.7; stroke: #ffffff; stroke-linejoin: miter"/>
   </g>
   <g id="patch_19">
    <path d="M 247.87245 323.119375 
L 259.251335 323.119375 
L 259.251335 283.848297 
L 247.87245 283.848297 
z
" clip-path="url(#pa7bfe15623)" style="fill: #4c72b0; opacity: 0.7; stroke: #ffffff; stroke-linejoin: miter"/>
   </g>
   <g id="patch_20">
    <path d="M 259.251335 323.119375 
L 270.630219 323.119375 
L 270.630219 244.57722 
L 259.251335 244.57722 
z
" clip-path="url(#pa7bfe15623)" style="fill: #4c72b0; opacity: 0.7; stroke: #ffffff; stroke-linejoin: miter"/>
   </g>
   <g id="patch_21">
    <path d="M 270.630219 323.119375 
L 282.009104 323.119375 
L 282.009104 241.556367 
L 270.630219 241.556367 
z
" clip-path="url(#pa7bfe15623)" style="fill: #4c72b0; opacity: 0.7; stroke: #ffffff; stroke-linejoin: miter"/>
   </g>
   <g id="patch_22">
    <path d="M 282.009104 323.119375 
L 293.387988 323.119375 
L 293.387988 256.660628 
L 282.009104 256.660628 
z
" clip-path="url(#pa7bfe15623)" style="fill: #4c72b0; opacity: 0.7; stroke: #ffffff; stroke-linejoin: miter"/>
   </g>
   <g id="patch_23">
    <path d="M 293.387988 323.119375 
L 304.766873 323.119375 
L 304.766873 175.097621 
L 293.387988 175.097621 
z
" clip-path="url(#pa7bfe15623)" style="fill: #4c72b0; opacity: 0.7; stroke: #ffffff; stroke-linejoin: miter"/>
   </g>
   <g id="patch_24">
    <path d="M 304.766873 323.119375 
L 316.145757 323.119375 
L 316.145757 235.514663 
L 304.766873 235.514663 
z
" clip-path="url(#pa7bfe15623)" style="fill: #4c72b0; opacity: 0.7; stroke: #ffffff; stroke-linejoin: miter"/>
   </g>
   <g id="patch_25">
    <path d="M 316.145757 323.119375 
L 327.524642 323.119375 
L 327.524642 166.035064 
L 316.145757 166.035064 
z
" clip-path="url(#pa7bfe15623)" style="fill: #4c72b0; opacity: 0.7; stroke: #ffffff; stroke-linejoin: miter"/>
   </g>
   <g id="patch_26">
    <path d="M 327.524642 323.119375 
L 338.903526 323.119375 
L 338.903526 175.097621 
L 327.524642 175.097621 
z
" clip-path="url(#pa7bfe15623)" style="fill: #4c72b0; opacity: 0.7; stroke: #ffffff; stroke-linejoin: miter"/>
   </g>
   <g id="patch_27">
    <path d="M 338.903526 323.119375 
L 350.282411 323.119375 
L 350.282411 36.138423 
L 338.903526 36.138423 
z
" clip-path="url(#pa7bfe15623)" style="fill: #4c72b0; opacity: 0.7; stroke: #ffffff; stroke-linejoin: miter"/>
   </g>
   <g id="patch_28">
    <path d="M 350.282411 323.119375 
L 361.661296 323.119375 
L 361.661296 217.38955 
L 350.282411 217.38955 
z
" clip-path="url(#pa7bfe15623)" style="fill: #4c72b0; opacity: 0.7; stroke: #ffffff; stroke-linejoin: miter"/>
   </g>
   <g id="patch_29">
    <path d="M 361.661296 323.119375 
L 373.04018 323.119375 
L 373.04018 175.097621 
L 361.661296 175.097621 
z
" clip-path="url(#pa7bfe15623)" style="fill: #4c72b0; opacity: 0.7; stroke: #ffffff; stroke-linejoin: miter"/>
   </g>
   <g id="patch_30">
    <path d="M 373.04018 323.119375 
L 384.419065 323.119375 
L 384.419065 193.222733 
L 373.04018 193.222733 
z
" clip-path="url(#pa7bfe15623)" style="fill: #4c72b0; opacity: 0.7; stroke: #ffffff; stroke-linejoin: miter"/>
   </g>
   <g id="patch_31">
    <path d="M 384.419065 323.119375 
L 395.797949 323.119375 
L 395.797949 178.118473 
L 384.419065 178.118473 
z
" clip-path="url(#pa7bfe15623)" style="fill: #4c72b0; opacity: 0.7; stroke: #ffffff; stroke-linejoin: miter"/>
   </g>
   <g id="patch_32">
    <path d="M 395.797949 323.119375 
L 407.176834 323.119375 
L 407.176834 169.055916 
L 395.797949 169.055916 
z
" clip-path="url(#pa7bfe15623)" style="fill: #4c72b0; opacity: 0.7; stroke: #ffffff; stroke-linejoin: miter"/>
   </g>
   <g id="patch_33">
    <path d="M 407.176834 323.119375 
L 418.555718 323.119375 
L 418.555718 280.827445 
L 407.176834 280.827445 
z
" clip-path="url(#pa7bfe15623)" style="fill: #4c72b0; opacity: 0.7; stroke: #ffffff; stroke-linejoin: miter"/>
   </g>
   <g id="patch_34">
    <path d="M 418.555718 323.119375 
L 429.934603 323.119375 
L 429.934603 247.598072 
L 418.555718 247.598072 
z
" clip-path="url(#pa7bfe15623)" style="fill: #4c72b0; opacity: 0.7; stroke: #ffffff; stroke-linejoin: miter"/>
   </g>
   <g id="patch_35">
    <path d="M 429.934603 323.119375 
L 441.313487 323.119375 
L 441.313487 259.68148 
L 429.934603 259.68148 
z
" clip-path="url(#pa7bfe15623)" style="fill: #4c72b0; opacity: 0.7; stroke: #ffffff; stroke-linejoin: miter"/>
   </g>
   <g id="patch_36">
    <path d="M 441.313487 323.119375 
L 452.692372 323.119375 
L 452.692372 289.890002 
L 441.313487 289.890002 
z
" clip-path="url(#pa7bfe15623)" style="fill: #4c72b0; opacity: 0.7; stroke: #ffffff; stroke-linejoin: miter"/>
   </g>
   <g id="patch_37">
    <path d="M 452.692372 323.119375 
L 464.071256 323.119375 
L 464.071256 298.952558 
L 452.692372 298.952558 
z
" clip-path="url(#pa7bfe15623)" style="fill: #4c72b0; opacity: 0.7; stroke: #ffffff; stroke-linejoin: miter"/>
   </g>
   <g id="patch_38">
    <path d="M 464.071256 323.119375 
L 475.450141 323.119375 
L 475.450141 308.015114 
L 464.071256 308.015114 
z
" clip-path="url(#pa7bfe15623)" style="fill: #4c72b0; opacity: 0.7; stroke: #ffffff; stroke-linejoin: miter"/>
   </g>
   <g id="patch_39">
    <path d="M 475.450141 323.119375 
L 486.829025 323.119375 
L 486.829025 280.827445 
L 475.450141 280.827445 
z
" clip-path="url(#pa7bfe15623)" style="fill: #4c72b0; opacity: 0.7; stroke: #ffffff; stroke-linejoin: miter"/>
   </g>
   <g id="patch_40">
    <path d="M 486.829025 323.119375 
L 498.20791 323.119375 
L 498.20791 301.97341 
L 486.829025 301.97341 
z
" clip-path="url(#pa7bfe15623)" style="fill: #4c72b0; opacity: 0.7; stroke: #ffffff; stroke-linejoin: miter"/>
   </g>
   <g id="patch_41">
    <path d="M 498.20791 323.119375 
L 509.586794 323.119375 
L 509.586794 323.119375 
L 498.20791 323.119375 
z
" clip-path="url(#pa7bfe15623)" style="fill: #4c72b0; opacity: 0.7; stroke: #ffffff; stroke-linejoin: miter"/>
   </g>
   <g id="patch_42">
    <path d="M 509.586794 323.119375 
L 520.965679 323.119375 
L 520.965679 311.035966 
L 509.586794 311.035966 
z
" clip-path="url(#pa7bfe15623)" style="fill: #4c72b0; opacity: 0.7; stroke: #ffffff; stroke-linejoin: miter"/>
   </g>
   <g id="patch_43">
    <path d="M 520.965679 323.119375 
L 532.344563 323.119375 
L 532.344563 317.077671 
L 520.965679 317.077671 
z
" clip-path="url(#pa7bfe15623)" style="fill: #4c72b0; opacity: 0.7; stroke: #ffffff; stroke-linejoin: miter"/>
   </g>
   <g id="patch_44">
    <path d="M 532.344563 323.119375 
L 543.723448 323.119375 
L 543.723448 317.077671 
L 532.344563 317.077671 
z
" clip-path="url(#pa7bfe15623)" style="fill: #4c72b0; opacity: 0.7; stroke: #ffffff; stroke-linejoin: miter"/>
   </g>
   <g id="patch_45">
    <path d="M 543.723448 323.119375 
L 555.102332 323.119375 
L 555.102332 323.119375 
L 543.723448 323.119375 
z
" clip-path="url(#pa7bfe15623)" style="fill: #4c72b0; opacity: 0.7; stroke: #ffffff; stroke-linejoin: miter"/>
   </g>
   <g id="patch_46">
    <path d="M 555.102332 323.119375 
L 566.481217 323.119375 
L 566.481217 323.119375 
L 555.102332 323.119375 
z
" clip-path="url(#pa7bfe15623)" style="fill: #4c72b0; opacity: 0.7; stroke: #ffffff; stroke-linejoin: miter"/>
   </g>
   <g id="patch_47">
    <path d="M 566.481217 323.119375 
L 577.860101 323.119375 
L 577.860101 323.119375 
L 566.481217 323.119375 
z
" clip-path="url(#pa7bfe15623)" style="fill: #4c72b0; opacity: 0.7; stroke: #ffffff; stroke-linejoin: miter"/>
   </g>
   <g id="patch_48">
    <path d="M 577.860101 323.119375 
L 589.238986 323.119375 
L 589.238986 323.119375 
L 577.860101 323.119375 
z
" clip-path="url(#pa7bfe15623)" style="fill: #4c72b0; opacity: 0.7; stroke: #ffffff; stroke-linejoin: miter"/>
   </g>
   <g id="patch_49">
    <path d="M 589.238986 323.119375 
L 600.61787 323.119375 
L 600.61787 323.119375 
L 589.238986 323.119375 
z
" clip-path="url(#pa7bfe15623)" style="fill: #4c72b0; opacity: 0.7; stroke: #ffffff; stroke-linejoin: miter"/>
   </g>
   <g id="patch_50">
    <path d="M 600.61787 323.119375 
L 611.996755 323.119375 
L 611.996755 323.119375 
L 600.61787 323.119375 
z
" clip-path="url(#pa7bfe15623)" style="fill: #4c72b0; opacity: 0.7; stroke: #ffffff; stroke-linejoin: miter"/>
   </g>
   <g id="patch_51">
    <path d="M 611.996755 323.119375 
L 623.375639 323.119375 
L 623.375639 323.119375 
L 611.996755 323.119375 
z
" clip-path="url(#pa7bfe15623)" style="fill: #4c72b0; opacity: 0.7; stroke: #ffffff; stroke-linejoin: miter"/>
   </g>
   <g id="patch_52">
    <path d="M 37.932031 323.119375 
L 37.932031 21.789375 
" style="fill: none; stroke: #cccccc; stroke-width: 1.25; stroke-linejoin: miter; stroke-linecap: square"/>
   </g>
   <g id="patch_53">
    <path d="M 651.253906 323.119375 
L 651.253906 21.789375 
" style="fill: none; stroke: #cccccc; stroke-width: 1.25; stroke-linejoin: miter; stroke-linecap: square"/>
   </g>
   <g id="patch_54">
    <path d="M 37.932031 323.119375 
L 651.253906 323.119375 
" style="fill: none; stroke: #cccccc; stroke-width: 1.25; stroke-linejoin: miter; stroke-linecap: square"/>
   </g>
   <g id="patch_55">
    <path d="M 37.932031 21.789375 
L 651.253906 21.789375 
" style="fill: none; stroke: #cccccc; stroke-width: 1.25; stroke-linejoin: miter; stroke-linecap: square"/>
   </g>
   <g id="text_9">
    <!-- Reference -->
    <g style="fill: #262626" transform="translate(316.912344 15.789375) scale(0.12 -0.12)">
     <defs>
      <path id="ArialMT-52" d="M 503 0 
L 503 4581 
L 2534 4581 
Q 3147 4581 3465 4457 
Q 3784 4334 3975 4021 
Q 4166 3709 4166 3331 
Q 4166 2844 3850 2509 
Q 3534 2175 2875 2084 
Q 3116 1969 3241 1856 
Q 3506 1613 3744 1247 
L 4541 0 
L 3778 0 
L 3172 953 
Q 2906 1366 2734 1584 
Q 2563 1803 2427 1890 
Q 2291 1978 2150 2013 
Q 2047 2034 1813 2034 
L 1109 2034 
L 1109 0 
L 503 0 
z
M 1109 2559 
L 2413 2559 
Q 2828 2559 3062 2645 
Q 3297 2731 3419 2920 
Q 3541 3109 3541 3331 
Q 3541 3656 3305 3865 
Q 3069 4075 2559 4075 
L 1109 4075 
L 1109 2559 
z
" transform="scale(0.015625)"/>
      <path id="ArialMT-66" d="M 556 0 
L 556 2881 
L 59 2881 
L 59 3319 
L 556 3319 
L 556 3672 
Q 556 4006 616 4169 
Q 697 4388 901 4523 
Q 1106 4659 1475 4659 
Q 1713 4659 2000 4603 
L 1916 4113 
Q 1741 4144 1584 4144 
Q 1328 4144 1222 4034 
Q 1116 3925 1116 3625 
L 1116 3319 
L 1763 3319 
L 1763 2881 
L 1116 2881 
L 1116 0 
L 556 0 
z
" transform="scale(0.015625)"/>
      <path id="ArialMT-72" d="M 416 0 
L 416 3319 
L 922 3319 
L 922 2816 
Q 1116 3169 1280 3281 
Q 1444 3394 1641 3394 
Q 1925 3394 2219 3213 
L 2025 2691 
Q 1819 2813 1613 2813 
Q 1428 2813 1281 2702 
Q 1134 2591 1072 2394 
Q 978 2094 978 1738 
L 978 0 
L 416 0 
z
" transform="scale(0.015625)"/>
      <path id="ArialMT-63" d="M 2588 1216 
L 3141 1144 
Q 3050 572 2676 248 
Q 2303 -75 1759 -75 
Q 1078 -75 664 370 
Q 250 816 250 1647 
Q 250 2184 428 2587 
Q 606 2991 970 3192 
Q 1334 3394 1763 3394 
Q 2303 3394 2647 3120 
Q 2991 2847 3088 2344 
L 2541 2259 
Q 2463 2594 2264 2762 
Q 2066 2931 1784 2931 
Q 1359 2931 1093 2626 
Q 828 2322 828 1663 
Q 828 994 1084 691 
Q 1341 388 1753 388 
Q 2084 388 2306 591 
Q 2528 794 2588 1216 
z
" transform="scale(0.015625)"/>
     </defs>
     <use xlink:href="#ArialMT-52"/>
     <use xlink:href="#ArialMT-65" transform="translate(72.216797 0)"/>
     <use xlink:href="#ArialMT-66" transform="translate(127.832031 0)"/>
     <use xlink:href="#ArialMT-65" transform="translate(155.615234 0)"/>
     <use xlink:href="#ArialMT-72" transform="translate(211.230469 0)"/>
     <use xlink:href="#ArialMT-65" transform="translate(244.53125 0)"/>
     <use xlink:href="#ArialMT-6e" transform="translate(300.146484 0)"/>
     <use xlink:href="#ArialMT-63" transform="translate(355.761719 0)"/>
     <use xlink:href="#ArialMT-65" transform="translate(405.761719 0)"/>
    </g>
   </g>
  </g>
  <g id="axes_2">
   <g id="patch_56">
    <path d="M 664.213906 323.119375 
L 1277.535781 323.119375 
L 1277.535781 21.789375 
L 664.213906 21.789375 
z
" style="fill: #ffffff"/>
   </g>
   <g id="matplotlib.axis_3">
    <g id="xtick_6">
     <g id="line2d_12">
      <path d="M 692.092173 323.119375 
L 692.092173 21.789375 
" clip-path="url(#pf70fa6ac03)" style="fill: none; stroke: #cccccc; stroke-linecap: round"/>
     </g>
    </g>
    <g id="xtick_7">
     <g id="line2d_13">
      <path d="M 821.793277 323.119375 
L 821.793277 21.789375 
" clip-path="url(#pf70fa6ac03)" style="fill: none; stroke: #cccccc; stroke-linecap: round"/>
     </g>
    </g>
    <g id="xtick_8">
     <g id="line2d_14">
      <path d="M 951.494381 323.119375 
L 951.494381 21.789375 
" clip-path="url(#pf70fa6ac03)" style="fill: none; stroke: #cccccc; stroke-linecap: round"/>
     </g>
    </g>
    <g id="xtick_9">
     <g id="line2d_15">
      <path d="M 1081.195485 323.119375 
L 1081.195485 21.789375 
" clip-path="url(#pf70fa6ac03)" style="fill: none; stroke: #cccccc; stroke-linecap: round"/>
     </g>
    </g>
    <g id="xtick_10">
     <g id="line2d_16">
      <path d="M 1210.896589 323.119375 
L 1210.896589 21.789375 
" clip-path="url(#pf70fa6ac03)" style="fill: none; stroke: #cccccc; stroke-linecap: round"/>
     </g>
    </g>
    <g id="text_10">
     <!-- LCC -->
     <g style="fill: #262626" transform="translate(958.872031 335.70875) scale(0.12 -0.12)">
      <use xlink:href="#ArialMT-4c"/>
      <use xlink:href="#ArialMT-43" transform="translate(55.615234 0)"/>
      <use xlink:href="#ArialMT-43" transform="translate(127.832031 0)"/>
     </g>
    </g>
   </g>
   <g id="matplotlib.axis_4">
    <g id="ytick_7">
     <g id="line2d_17">
      <path d="M 664.213906 323.119375 
L 1277.535781 323.119375 
" clip-path="url(#pf70fa6ac03)" style="fill: none; stroke: #cccccc; stroke-linecap: round"/>
     </g>
    </g>
    <g id="ytick_8">
     <g id="line2d_18">
      <path d="M 664.213906 269.796512 
L 1277.535781 269.796512 
" clip-path="url(#pf70fa6ac03)" style="fill: none; stroke: #cccccc; stroke-linecap: round"/>
     </g>
    </g>
    <g id="ytick_9">
     <g id="line2d_19">
      <path d="M 664.213906 216.473649 
L 1277.535781 216.473649 
" clip-path="url(#pf70fa6ac03)" style="fill: none; stroke: #cccccc; stroke-linecap: round"/>
     </g>
    </g>
    <g id="ytick_10">
     <g id="line2d_20">
      <path d="M 664.213906 163.150786 
L 1277.535781 163.150786 
" clip-path="url(#pf70fa6ac03)" style="fill: none; stroke: #cccccc; stroke-linecap: round"/>
     </g>
    </g>
    <g id="ytick_11">
     <g id="line2d_21">
      <path d="M 664.213906 109.827922 
L 1277.535781 109.827922 
" clip-path="url(#pf70fa6ac03)" style="fill: none; stroke: #cccccc; stroke-linecap: round"/>
     </g>
    </g>
    <g id="ytick_12">
     <g id="line2d_22">
      <path d="M 664.213906 56.505059 
L 1277.535781 56.505059 
" clip-path="url(#pf70fa6ac03)" style="fill: none; stroke: #cccccc; stroke-linecap: round"/>
     </g>
    </g>
   </g>
   <g id="patch_57">
    <path d="M 692.092173 323.119375 
L 703.471058 323.119375 
L 703.471058 293.558008 
L 692.092173 293.558008 
z
" clip-path="url(#pf70fa6ac03)" style="fill: #4c72b0; opacity: 0.7; stroke: #ffffff; stroke-linejoin: miter"/>
   </g>
   <g id="patch_58">
    <path d="M 703.471058 323.119375 
L 714.849942 323.119375 
L 714.849942 323.119375 
L 703.471058 323.119375 
z
" clip-path="url(#pf70fa6ac03)" style="fill: #4c72b0; opacity: 0.7; stroke: #ffffff; stroke-linejoin: miter"/>
   </g>
   <g id="patch_59">
    <path d="M 714.849942 323.119375 
L 726.228827 323.119375 
L 726.228827 323.119375 
L 714.849942 323.119375 
z
" clip-path="url(#pf70fa6ac03)" style="fill: #4c72b0; opacity: 0.7; stroke: #ffffff; stroke-linejoin: miter"/>
   </g>
   <g id="patch_60">
    <path d="M 726.228827 323.119375 
L 737.607711 323.119375 
L 737.607711 322.431901 
L 726.228827 322.431901 
z
" clip-path="url(#pf70fa6ac03)" style="fill: #4c72b0; opacity: 0.7; stroke: #ffffff; stroke-linejoin: miter"/>
   </g>
   <g id="patch_61">
    <path d="M 737.607711 323.119375 
L 748.986596 323.119375 
L 748.986596 322.775638 
L 737.607711 322.775638 
z
" clip-path="url(#pf70fa6ac03)" style="fill: #4c72b0; opacity: 0.7; stroke: #ffffff; stroke-linejoin: miter"/>
   </g>
   <g id="patch_62">
    <path d="M 748.986596 323.119375 
L 760.36548 323.119375 
L 760.36548 321.056954 
L 748.986596 321.056954 
z
" clip-path="url(#pf70fa6ac03)" style="fill: #4c72b0; opacity: 0.7; stroke: #ffffff; stroke-linejoin: miter"/>
   </g>
   <g id="patch_63">
    <path d="M 760.36548 323.119375 
L 771.744365 323.119375 
L 771.744365 320.197612 
L 760.36548 320.197612 
z
" clip-path="url(#pf70fa6ac03)" style="fill: #4c72b0; opacity: 0.7; stroke: #ffffff; stroke-linejoin: miter"/>
   </g>
   <g id="patch_64">
    <path d="M 771.744365 323.119375 
L 783.123249 323.119375 
L 783.123249 316.07277 
L 771.744365 316.07277 
z
" clip-path="url(#pf70fa6ac03)" style="fill: #4c72b0; opacity: 0.7; stroke: #ffffff; stroke-linejoin: miter"/>
   </g>
   <g id="patch_65">
    <path d="M 783.123249 323.119375 
L 794.502134 323.119375 
L 794.502134 306.448139 
L 783.123249 306.448139 
z
" clip-path="url(#pf70fa6ac03)" style="fill: #4c72b0; opacity: 0.7; stroke: #ffffff; stroke-linejoin: miter"/>
   </g>
   <g id="patch_66">
    <path d="M 794.502134 323.119375 
L 805.881018 323.119375 
L 805.881018 311.77606 
L 794.502134 311.77606 
z
" clip-path="url(#pf70fa6ac03)" style="fill: #4c72b0; opacity: 0.7; stroke: #ffffff; stroke-linejoin: miter"/>
   </g>
   <g id="patch_67">
    <path d="M 805.881018 323.119375 
L 817.259903 323.119375 
L 817.259903 286.511403 
L 805.881018 286.511403 
z
" clip-path="url(#pf70fa6ac03)" style="fill: #4c72b0; opacity: 0.7; stroke: #ffffff; stroke-linejoin: miter"/>
   </g>
   <g id="patch_68">
    <path d="M 817.259903 323.119375 
L 828.638787 323.119375 
L 828.638787 285.308325 
L 817.259903 285.308325 
z
" clip-path="url(#pf70fa6ac03)" style="fill: #4c72b0; opacity: 0.7; stroke: #ffffff; stroke-linejoin: miter"/>
   </g>
   <g id="patch_69">
    <path d="M 828.638787 323.119375 
L 840.017672 323.119375 
L 840.017672 273.277536 
L 828.638787 273.277536 
z
" clip-path="url(#pf70fa6ac03)" style="fill: #4c72b0; opacity: 0.7; stroke: #ffffff; stroke-linejoin: miter"/>
   </g>
   <g id="patch_70">
    <path d="M 840.017672 323.119375 
L 851.396556 323.119375 
L 851.396556 253.3408 
L 840.017672 253.3408 
z
" clip-path="url(#pf70fa6ac03)" style="fill: #4c72b0; opacity: 0.7; stroke: #ffffff; stroke-linejoin: miter"/>
   </g>
   <g id="patch_71">
    <path d="M 851.396556 323.119375 
L 862.775441 323.119375 
L 862.775441 269.152694 
L 851.396556 269.152694 
z
" clip-path="url(#pf70fa6ac03)" style="fill: #4c72b0; opacity: 0.7; stroke: #ffffff; stroke-linejoin: miter"/>
   </g>
   <g id="patch_72">
    <path d="M 862.775441 323.119375 
L 874.154325 323.119375 
L 874.154325 274.99622 
L 862.775441 274.99622 
z
" clip-path="url(#pf70fa6ac03)" style="fill: #4c72b0; opacity: 0.7; stroke: #ffffff; stroke-linejoin: miter"/>
   </g>
   <g id="patch_73">
    <path d="M 874.154325 323.119375 
L 885.53321 323.119375 
L 885.53321 283.417772 
L 874.154325 283.417772 
z
" clip-path="url(#pf70fa6ac03)" style="fill: #4c72b0; opacity: 0.7; stroke: #ffffff; stroke-linejoin: miter"/>
   </g>
   <g id="patch_74">
    <path d="M 885.53321 323.119375 
L 896.912094 323.119375 
L 896.912094 237.872643 
L 885.53321 237.872643 
z
" clip-path="url(#pf70fa6ac03)" style="fill: #4c72b0; opacity: 0.7; stroke: #ffffff; stroke-linejoin: miter"/>
   </g>
   <g id="patch_75">
    <path d="M 896.912094 323.119375 
L 908.290979 323.119375 
L 908.290979 240.966275 
L 896.912094 240.966275 
z
" clip-path="url(#pf70fa6ac03)" style="fill: #4c72b0; opacity: 0.7; stroke: #ffffff; stroke-linejoin: miter"/>
   </g>
   <g id="patch_76">
    <path d="M 908.290979 323.119375 
L 919.669863 323.119375 
L 919.669863 216.56096 
L 908.290979 216.56096 
z
" clip-path="url(#pf70fa6ac03)" style="fill: #4c72b0; opacity: 0.7; stroke: #ffffff; stroke-linejoin: miter"/>
   </g>
   <g id="patch_77">
    <path d="M 919.669863 323.119375 
L 931.048748 323.119375 
L 931.048748 172.906384 
L 919.669863 172.906384 
z
" clip-path="url(#pf70fa6ac03)" style="fill: #4c72b0; opacity: 0.7; stroke: #ffffff; stroke-linejoin: miter"/>
   </g>
   <g id="patch_78">
    <path d="M 931.048748 323.119375 
L 942.427632 323.119375 
L 942.427632 157.09449 
L 931.048748 157.09449 
z
" clip-path="url(#pf70fa6ac03)" style="fill: #4c72b0; opacity: 0.7; stroke: #ffffff; stroke-linejoin: miter"/>
   </g>
   <g id="patch_79">
    <path d="M 942.427632 323.119375 
L 953.806517 323.119375 
L 953.806517 100.206046 
L 942.427632 100.206046 
z
" clip-path="url(#pf70fa6ac03)" style="fill: #4c72b0; opacity: 0.7; stroke: #ffffff; stroke-linejoin: miter"/>
   </g>
   <g id="patch_80">
    <path d="M 953.806517 323.119375 
L 965.185401 323.119375 
L 965.185401 154.688332 
L 953.806517 154.688332 
z
" clip-path="url(#pf70fa6ac03)" style="fill: #4c72b0; opacity: 0.7; stroke: #ffffff; stroke-linejoin: miter"/>
   </g>
   <g id="patch_81">
    <path d="M 965.185401 323.119375 
L 976.564286 323.119375 
L 976.564286 84.050415 
L 965.185401 84.050415 
z
" clip-path="url(#pf70fa6ac03)" style="fill: #4c72b0; opacity: 0.7; stroke: #ffffff; stroke-linejoin: miter"/>
   </g>
   <g id="patch_82">
    <path d="M 976.564286 323.119375 
L 987.943171 323.119375 
L 987.943171 156.06328 
L 976.564286 156.06328 
z
" clip-path="url(#pf70fa6ac03)" style="fill: #4c72b0; opacity: 0.7; stroke: #ffffff; stroke-linejoin: miter"/>
   </g>
   <g id="patch_83">
    <path d="M 987.943171 323.119375 
L 999.322055 323.119375 
L 999.322055 113.78365 
L 987.943171 113.78365 
z
" clip-path="url(#pf70fa6ac03)" style="fill: #4c72b0; opacity: 0.7; stroke: #ffffff; stroke-linejoin: miter"/>
   </g>
   <g id="patch_84">
    <path d="M 999.322055 323.119375 
L 1010.70094 323.119375 
L 1010.70094 187.858936 
L 999.322055 187.858936 
z
" clip-path="url(#pf70fa6ac03)" style="fill: #4c72b0; opacity: 0.7; stroke: #ffffff; stroke-linejoin: miter"/>
   </g>
   <g id="patch_85">
    <path d="M 1010.70094 323.119375 
L 1022.079824 323.119375 
L 1022.079824 154.516464 
L 1010.70094 154.516464 
z
" clip-path="url(#pf70fa6ac03)" style="fill: #4c72b0; opacity: 0.7; stroke: #ffffff; stroke-linejoin: miter"/>
   </g>
   <g id="patch_86">
    <path d="M 1022.079824 323.119375 
L 1033.458709 323.119375 
L 1033.458709 191.640041 
L 1022.079824 191.640041 
z
" clip-path="url(#pf70fa6ac03)" style="fill: #4c72b0; opacity: 0.7; stroke: #ffffff; stroke-linejoin: miter"/>
   </g>
   <g id="patch_87">
    <path d="M 1033.458709 323.119375 
L 1044.837593 323.119375 
L 1044.837593 190.093225 
L 1033.458709 190.093225 
z
" clip-path="url(#pf70fa6ac03)" style="fill: #4c72b0; opacity: 0.7; stroke: #ffffff; stroke-linejoin: miter"/>
   </g>
   <g id="patch_88">
    <path d="M 1044.837593 323.119375 
L 1056.216478 323.119375 
L 1056.216478 227.38867 
L 1044.837593 227.38867 
z
" clip-path="url(#pf70fa6ac03)" style="fill: #4c72b0; opacity: 0.7; stroke: #ffffff; stroke-linejoin: miter"/>
   </g>
   <g id="patch_89">
    <path d="M 1056.216478 323.119375 
L 1067.595362 323.119375 
L 1067.595362 209.342487 
L 1056.216478 209.342487 
z
" clip-path="url(#pf70fa6ac03)" style="fill: #4c72b0; opacity: 0.7; stroke: #ffffff; stroke-linejoin: miter"/>
   </g>
   <g id="patch_90">
    <path d="M 1067.595362 323.119375 
L 1078.974247 323.119375 
L 1078.974247 239.419459 
L 1067.595362 239.419459 
z
" clip-path="url(#pf70fa6ac03)" style="fill: #4c72b0; opacity: 0.7; stroke: #ffffff; stroke-linejoin: miter"/>
   </g>
   <g id="patch_91">
    <path d="M 1078.974247 323.119375 
L 1090.353131 323.119375 
L 1090.353131 263.996642 
L 1078.974247 263.996642 
z
" clip-path="url(#pf70fa6ac03)" style="fill: #4c72b0; opacity: 0.7; stroke: #ffffff; stroke-linejoin: miter"/>
   </g>
   <g id="patch_92">
    <path d="M 1090.353131 323.119375 
L 1101.732016 323.119375 
L 1101.732016 275.855562 
L 1090.353131 275.855562 
z
" clip-path="url(#pf70fa6ac03)" style="fill: #4c72b0; opacity: 0.7; stroke: #ffffff; stroke-linejoin: miter"/>
   </g>
   <g id="patch_93">
    <path d="M 1101.732016 323.119375 
L 1113.1109 323.119375 
L 1113.1109 293.558008 
L 1101.732016 293.558008 
z
" clip-path="url(#pf70fa6ac03)" style="fill: #4c72b0; opacity: 0.7; stroke: #ffffff; stroke-linejoin: miter"/>
   </g>
   <g id="patch_94">
    <path d="M 1113.1109 323.119375 
L 1124.489785 323.119375 
L 1124.489785 304.041981 
L 1113.1109 304.041981 
z
" clip-path="url(#pf70fa6ac03)" style="fill: #4c72b0; opacity: 0.7; stroke: #ffffff; stroke-linejoin: miter"/>
   </g>
   <g id="patch_95">
    <path d="M 1124.489785 323.119375 
L 1135.868669 323.119375 
L 1135.868669 318.135191 
L 1124.489785 318.135191 
z
" clip-path="url(#pf70fa6ac03)" style="fill: #4c72b0; opacity: 0.7; stroke: #ffffff; stroke-linejoin: miter"/>
   </g>
   <g id="patch_96">
    <path d="M 1135.868669 323.119375 
L 1147.247554 323.119375 
L 1147.247554 315.04156 
L 1135.868669 315.04156 
z
" clip-path="url(#pf70fa6ac03)" style="fill: #4c72b0; opacity: 0.7; stroke: #ffffff; stroke-linejoin: miter"/>
   </g>
   <g id="patch_97">
    <path d="M 1147.247554 323.119375 
L 1158.626438 323.119375 
L 1158.626438 320.885086 
L 1147.247554 320.885086 
z
" clip-path="url(#pf70fa6ac03)" style="fill: #4c72b0; opacity: 0.7; stroke: #ffffff; stroke-linejoin: miter"/>
   </g>
   <g id="patch_98">
    <path d="M 1158.626438 323.119375 
L 1170.005323 323.119375 
L 1170.005323 321.744428 
L 1158.626438 321.744428 
z
" clip-path="url(#pf70fa6ac03)" style="fill: #4c72b0; opacity: 0.7; stroke: #ffffff; stroke-linejoin: miter"/>
   </g>
   <g id="patch_99">
    <path d="M 1170.005323 323.119375 
L 1181.384207 323.119375 
L 1181.384207 322.088165 
L 1170.005323 322.088165 
z
" clip-path="url(#pf70fa6ac03)" style="fill: #4c72b0; opacity: 0.7; stroke: #ffffff; stroke-linejoin: miter"/>
   </g>
   <g id="patch_100">
    <path d="M 1181.384207 323.119375 
L 1192.763092 323.119375 
L 1192.763092 322.60377 
L 1181.384207 322.60377 
z
" clip-path="url(#pf70fa6ac03)" style="fill: #4c72b0; opacity: 0.7; stroke: #ffffff; stroke-linejoin: miter"/>
   </g>
   <g id="patch_101">
    <path d="M 1192.763092 323.119375 
L 1204.141976 323.119375 
L 1204.141976 322.947507 
L 1192.763092 322.947507 
z
" clip-path="url(#pf70fa6ac03)" style="fill: #4c72b0; opacity: 0.7; stroke: #ffffff; stroke-linejoin: miter"/>
   </g>
   <g id="patch_102">
    <path d="M 1204.141976 323.119375 
L 1215.520861 323.119375 
L 1215.520861 322.947507 
L 1204.141976 322.947507 
z
" clip-path="url(#pf70fa6ac03)" style="fill: #4c72b0; opacity: 0.7; stroke: #ffffff; stroke-linejoin: miter"/>
   </g>
   <g id="patch_103">
    <path d="M 1215.520861 323.119375 
L 1226.899745 323.119375 
L 1226.899745 323.119375 
L 1215.520861 323.119375 
z
" clip-path="url(#pf70fa6ac03)" style="fill: #4c72b0; opacity: 0.7; stroke: #ffffff; stroke-linejoin: miter"/>
   </g>
   <g id="patch_104">
    <path d="M 1226.899745 323.119375 
L 1238.27863 323.119375 
L 1238.27863 322.947507 
L 1226.899745 322.947507 
z
" clip-path="url(#pf70fa6ac03)" style="fill: #4c72b0; opacity: 0.7; stroke: #ffffff; stroke-linejoin: miter"/>
   </g>
   <g id="patch_105">
    <path d="M 1238.27863 323.119375 
L 1249.657514 323.119375 
L 1249.657514 322.947507 
L 1238.27863 322.947507 
z
" clip-path="url(#pf70fa6ac03)" style="fill: #4c72b0; opacity: 0.7; stroke: #ffffff; stroke-linejoin: miter"/>
   </g>
   <g id="patch_106">
    <path d="M 664.213906 323.119375 
L 664.213906 21.789375 
" style="fill: none; stroke: #cccccc; stroke-width: 1.25; stroke-linejoin: miter; stroke-linecap: square"/>
   </g>
   <g id="patch_107">
    <path d="M 1277.535781 323.119375 
L 1277.535781 21.789375 
" style="fill: none; stroke: #cccccc; stroke-width: 1.25; stroke-linejoin: miter; stroke-linecap: square"/>
   </g>
   <g id="patch_108">
    <path d="M 664.213906 323.119375 
L 1277.535781 323.119375 
" style="fill: none; stroke: #cccccc; stroke-width: 1.25; stroke-linejoin: miter; stroke-linecap: square"/>
   </g>
   <g id="patch_109">
    <path d="M 664.213906 21.789375 
L 1277.535781 21.789375 
" style="fill: none; stroke: #cccccc; stroke-width: 1.25; stroke-linejoin: miter; stroke-linecap: square"/>
   </g>
   <g id="text_11">
    <!-- CVAE -->
    <g style="fill: #262626" transform="translate(954.977656 15.789375) scale(0.12 -0.12)">
     <defs>
      <path id="ArialMT-56" d="M 1803 0 
L 28 4581 
L 684 4581 
L 1875 1253 
Q 2019 853 2116 503 
Q 2222 878 2363 1253 
L 3600 4581 
L 4219 4581 
L 2425 0 
L 1803 0 
z
" transform="scale(0.015625)"/>
      <path id="ArialMT-41" d="M -9 0 
L 1750 4581 
L 2403 4581 
L 4278 0 
L 3588 0 
L 3053 1388 
L 1138 1388 
L 634 0 
L -9 0 
z
M 1313 1881 
L 2866 1881 
L 2388 3150 
Q 2169 3728 2063 4100 
Q 1975 3659 1816 3225 
L 1313 1881 
z
" transform="scale(0.015625)"/>
      <path id="ArialMT-45" d="M 506 0 
L 506 4581 
L 3819 4581 
L 3819 4041 
L 1113 4041 
L 1113 2638 
L 3647 2638 
L 3647 2100 
L 1113 2100 
L 1113 541 
L 3925 541 
L 3925 0 
L 506 0 
z
" transform="scale(0.015625)"/>
     </defs>
     <use xlink:href="#ArialMT-43"/>
     <use xlink:href="#ArialMT-56" transform="translate(72.216797 0)"/>
     <use xlink:href="#ArialMT-41" transform="translate(131.541016 0)"/>
     <use xlink:href="#ArialMT-45" transform="translate(198.240234 0)"/>
    </g>
   </g>
  </g>
  <g id="axes_3">
   <g id="patch_110">
    <path d="M 37.932031 666.849375 
L 651.253906 666.849375 
L 651.253906 365.519375 
L 37.932031 365.519375 
z
" style="fill: #ffffff"/>
   </g>
   <g id="matplotlib.axis_5">
    <g id="xtick_11">
     <g id="line2d_23">
      <path d="M 65.810298 666.849375 
L 65.810298 365.519375 
" clip-path="url(#p40eafb5ba8)" style="fill: none; stroke: #cccccc; stroke-linecap: round"/>
     </g>
     <g id="text_12">
      <!-- 0.0 -->
      <g style="fill: #262626" transform="translate(58.165298 684.222969) scale(0.11 -0.11)">
       <defs>
        <path id="ArialMT-2e" d="M 581 0 
L 581 641 
L 1222 641 
L 1222 0 
L 581 0 
z
" transform="scale(0.015625)"/>
       </defs>
       <use xlink:href="#ArialMT-30"/>
       <use xlink:href="#ArialMT-2e" transform="translate(55.615234 0)"/>
       <use xlink:href="#ArialMT-30" transform="translate(83.398438 0)"/>
      </g>
     </g>
    </g>
    <g id="xtick_12">
     <g id="line2d_24">
      <path d="M 195.511402 666.849375 
L 195.511402 365.519375 
" clip-path="url(#p40eafb5ba8)" style="fill: none; stroke: #cccccc; stroke-linecap: round"/>
     </g>
     <g id="text_13">
      <!-- 0.2 -->
      <g style="fill: #262626" transform="translate(187.866402 684.222969) scale(0.11 -0.11)">
       <use xlink:href="#ArialMT-30"/>
       <use xlink:href="#ArialMT-2e" transform="translate(55.615234 0)"/>
       <use xlink:href="#ArialMT-32" transform="translate(83.398438 0)"/>
      </g>
     </g>
    </g>
    <g id="xtick_13">
     <g id="line2d_25">
      <path d="M 325.212506 666.849375 
L 325.212506 365.519375 
" clip-path="url(#p40eafb5ba8)" style="fill: none; stroke: #cccccc; stroke-linecap: round"/>
     </g>
     <g id="text_14">
      <!-- 0.4 -->
      <g style="fill: #262626" transform="translate(317.567506 684.222969) scale(0.11 -0.11)">
       <use xlink:href="#ArialMT-30"/>
       <use xlink:href="#ArialMT-2e" transform="translate(55.615234 0)"/>
       <use xlink:href="#ArialMT-34" transform="translate(83.398438 0)"/>
      </g>
     </g>
    </g>
    <g id="xtick_14">
     <g id="line2d_26">
      <path d="M 454.91361 666.849375 
L 454.91361 365.519375 
" clip-path="url(#p40eafb5ba8)" style="fill: none; stroke: #cccccc; stroke-linecap: round"/>
     </g>
     <g id="text_15">
      <!-- 0.6 -->
      <g style="fill: #262626" transform="translate(447.26861 684.222969) scale(0.11 -0.11)">
       <defs>
        <path id="ArialMT-36" d="M 3184 3459 
L 2625 3416 
Q 2550 3747 2413 3897 
Q 2184 4138 1850 4138 
Q 1581 4138 1378 3988 
Q 1113 3794 959 3422 
Q 806 3050 800 2363 
Q 1003 2672 1297 2822 
Q 1591 2972 1913 2972 
Q 2475 2972 2870 2558 
Q 3266 2144 3266 1488 
Q 3266 1056 3080 686 
Q 2894 316 2569 119 
Q 2244 -78 1831 -78 
Q 1128 -78 684 439 
Q 241 956 241 2144 
Q 241 3472 731 4075 
Q 1159 4600 1884 4600 
Q 2425 4600 2770 4297 
Q 3116 3994 3184 3459 
z
M 888 1484 
Q 888 1194 1011 928 
Q 1134 663 1356 523 
Q 1578 384 1822 384 
Q 2178 384 2434 671 
Q 2691 959 2691 1453 
Q 2691 1928 2437 2201 
Q 2184 2475 1800 2475 
Q 1419 2475 1153 2201 
Q 888 1928 888 1484 
z
" transform="scale(0.015625)"/>
       </defs>
       <use xlink:href="#ArialMT-30"/>
       <use xlink:href="#ArialMT-2e" transform="translate(55.615234 0)"/>
       <use xlink:href="#ArialMT-36" transform="translate(83.398438 0)"/>
      </g>
     </g>
    </g>
    <g id="xtick_15">
     <g id="line2d_27">
      <path d="M 584.614714 666.849375 
L 584.614714 365.519375 
" clip-path="url(#p40eafb5ba8)" style="fill: none; stroke: #cccccc; stroke-linecap: round"/>
     </g>
     <g id="text_16">
      <!-- 0.8 -->
      <g style="fill: #262626" transform="translate(576.969714 684.222969) scale(0.11 -0.11)">
       <defs>
        <path id="ArialMT-38" d="M 1131 2484 
Q 781 2613 612 2850 
Q 444 3088 444 3419 
Q 444 3919 803 4259 
Q 1163 4600 1759 4600 
Q 2359 4600 2725 4251 
Q 3091 3903 3091 3403 
Q 3091 3084 2923 2848 
Q 2756 2613 2416 2484 
Q 2838 2347 3058 2040 
Q 3278 1734 3278 1309 
Q 3278 722 2862 322 
Q 2447 -78 1769 -78 
Q 1091 -78 675 323 
Q 259 725 259 1325 
Q 259 1772 486 2073 
Q 713 2375 1131 2484 
z
M 1019 3438 
Q 1019 3113 1228 2906 
Q 1438 2700 1772 2700 
Q 2097 2700 2305 2904 
Q 2513 3109 2513 3406 
Q 2513 3716 2298 3927 
Q 2084 4138 1766 4138 
Q 1444 4138 1231 3931 
Q 1019 3725 1019 3438 
z
M 838 1322 
Q 838 1081 952 856 
Q 1066 631 1291 507 
Q 1516 384 1775 384 
Q 2178 384 2440 643 
Q 2703 903 2703 1303 
Q 2703 1709 2433 1975 
Q 2163 2241 1756 2241 
Q 1359 2241 1098 1978 
Q 838 1716 838 1322 
z
" transform="scale(0.015625)"/>
       </defs>
       <use xlink:href="#ArialMT-30"/>
       <use xlink:href="#ArialMT-2e" transform="translate(55.615234 0)"/>
       <use xlink:href="#ArialMT-38" transform="translate(83.398438 0)"/>
      </g>
     </g>
    </g>
    <g id="text_17">
     <!-- LCC -->
     <g style="fill: #262626" transform="translate(332.590156 698.998594) scale(0.12 -0.12)">
      <use xlink:href="#ArialMT-4c"/>
      <use xlink:href="#ArialMT-43" transform="translate(55.615234 0)"/>
      <use xlink:href="#ArialMT-43" transform="translate(127.832031 0)"/>
     </g>
    </g>
   </g>
   <g id="matplotlib.axis_6">
    <g id="ytick_13">
     <g id="line2d_28">
      <path d="M 37.932031 666.849375 
L 651.253906 666.849375 
" clip-path="url(#p40eafb5ba8)" style="fill: none; stroke: #cccccc; stroke-linecap: round"/>
     </g>
     <g id="text_18">
      <!-- 0 -->
      <g style="fill: #262626" transform="translate(22.315 670.786172) scale(0.11 -0.11)">
       <use xlink:href="#ArialMT-30"/>
      </g>
     </g>
    </g>
    <g id="ytick_14">
     <g id="line2d_29">
      <path d="M 37.932031 613.526512 
L 651.253906 613.526512 
" clip-path="url(#p40eafb5ba8)" style="fill: none; stroke: #cccccc; stroke-linecap: round"/>
     </g>
     <g id="text_19">
      <!-- 1 -->
      <g style="fill: #262626" transform="translate(22.315 617.463309) scale(0.11 -0.11)">
       <use xlink:href="#ArialMT-31"/>
      </g>
     </g>
    </g>
    <g id="ytick_15">
     <g id="line2d_30">
      <path d="M 37.932031 560.203649 
L 651.253906 560.203649 
" clip-path="url(#p40eafb5ba8)" style="fill: none; stroke: #cccccc; stroke-linecap: round"/>
     </g>
     <g id="text_20">
      <!-- 2 -->
      <g style="fill: #262626" transform="translate(22.315 564.140446) scale(0.11 -0.11)">
       <use xlink:href="#ArialMT-32"/>
      </g>
     </g>
    </g>
    <g id="ytick_16">
     <g id="line2d_31">
      <path d="M 37.932031 506.880786 
L 651.253906 506.880786 
" clip-path="url(#p40eafb5ba8)" style="fill: none; stroke: #cccccc; stroke-linecap: round"/>
     </g>
     <g id="text_21">
      <!-- 3 -->
      <g style="fill: #262626" transform="translate(22.315 510.817582) scale(0.11 -0.11)">
       <use xlink:href="#ArialMT-33"/>
      </g>
     </g>
    </g>
    <g id="ytick_17">
     <g id="line2d_32">
      <path d="M 37.932031 453.557922 
L 651.253906 453.557922 
" clip-path="url(#p40eafb5ba8)" style="fill: none; stroke: #cccccc; stroke-linecap: round"/>
     </g>
     <g id="text_22">
      <!-- 4 -->
      <g style="fill: #262626" transform="translate(22.315 457.494719) scale(0.11 -0.11)">
       <use xlink:href="#ArialMT-34"/>
      </g>
     </g>
    </g>
    <g id="ytick_18">
     <g id="line2d_33">
      <path d="M 37.932031 400.235059 
L 651.253906 400.235059 
" clip-path="url(#p40eafb5ba8)" style="fill: none; stroke: #cccccc; stroke-linecap: round"/>
     </g>
     <g id="text_23">
      <!-- 5 -->
      <g style="fill: #262626" transform="translate(22.315 404.171856) scale(0.11 -0.11)">
       <use xlink:href="#ArialMT-35"/>
      </g>
     </g>
    </g>
   </g>
   <g id="patch_111">
    <path d="M 65.810298 666.849375 
L 77.189183 666.849375 
L 77.189183 613.6514 
L 65.810298 613.6514 
z
" clip-path="url(#p40eafb5ba8)" style="fill: #4c72b0; opacity: 0.7; stroke: #ffffff; stroke-linejoin: miter"/>
   </g>
   <g id="patch_112">
    <path d="M 77.189183 666.849375 
L 88.568067 666.849375 
L 88.568067 666.849375 
L 77.189183 666.849375 
z
" clip-path="url(#p40eafb5ba8)" style="fill: #4c72b0; opacity: 0.7; stroke: #ffffff; stroke-linejoin: miter"/>
   </g>
   <g id="patch_113">
    <path d="M 88.568067 666.849375 
L 99.946952 666.849375 
L 99.946952 666.849375 
L 88.568067 666.849375 
z
" clip-path="url(#p40eafb5ba8)" style="fill: #4c72b0; opacity: 0.7; stroke: #ffffff; stroke-linejoin: miter"/>
   </g>
   <g id="patch_114">
    <path d="M 99.946952 666.849375 
L 111.325836 666.849375 
L 111.325836 666.849375 
L 99.946952 666.849375 
z
" clip-path="url(#p40eafb5ba8)" style="fill: #4c72b0; opacity: 0.7; stroke: #ffffff; stroke-linejoin: miter"/>
   </g>
   <g id="patch_115">
    <path d="M 111.325836 666.849375 
L 122.704721 666.849375 
L 122.704721 666.677769 
L 111.325836 666.677769 
z
" clip-path="url(#p40eafb5ba8)" style="fill: #4c72b0; opacity: 0.7; stroke: #ffffff; stroke-linejoin: miter"/>
   </g>
   <g id="patch_116">
    <path d="M 122.704721 666.849375 
L 134.083605 666.849375 
L 134.083605 665.991343 
L 122.704721 665.991343 
z
" clip-path="url(#p40eafb5ba8)" style="fill: #4c72b0; opacity: 0.7; stroke: #ffffff; stroke-linejoin: miter"/>
   </g>
   <g id="patch_117">
    <path d="M 134.083605 666.849375 
L 145.46249 666.849375 
L 145.46249 663.932067 
L 134.083605 663.932067 
z
" clip-path="url(#p40eafb5ba8)" style="fill: #4c72b0; opacity: 0.7; stroke: #ffffff; stroke-linejoin: miter"/>
   </g>
   <g id="patch_118">
    <path d="M 145.46249 666.849375 
L 156.841374 666.849375 
L 156.841374 658.783876 
L 145.46249 658.783876 
z
" clip-path="url(#p40eafb5ba8)" style="fill: #4c72b0; opacity: 0.7; stroke: #ffffff; stroke-linejoin: miter"/>
   </g>
   <g id="patch_119">
    <path d="M 156.841374 666.849375 
L 168.220259 666.849375 
L 168.220259 649.345525 
L 156.841374 649.345525 
z
" clip-path="url(#p40eafb5ba8)" style="fill: #4c72b0; opacity: 0.7; stroke: #ffffff; stroke-linejoin: miter"/>
   </g>
   <g id="patch_120">
    <path d="M 168.220259 666.849375 
L 179.599143 666.849375 
L 179.599143 652.777652 
L 168.220259 652.777652 
z
" clip-path="url(#p40eafb5ba8)" style="fill: #4c72b0; opacity: 0.7; stroke: #ffffff; stroke-linejoin: miter"/>
   </g>
   <g id="patch_121">
    <path d="M 179.599143 666.849375 
L 190.978028 666.849375 
L 190.978028 626.178665 
L 179.599143 626.178665 
z
" clip-path="url(#p40eafb5ba8)" style="fill: #4c72b0; opacity: 0.7; stroke: #ffffff; stroke-linejoin: miter"/>
   </g>
   <g id="patch_122">
    <path d="M 190.978028 666.849375 
L 202.356912 666.849375 
L 202.356912 615.367463 
L 190.978028 615.367463 
z
" clip-path="url(#p40eafb5ba8)" style="fill: #4c72b0; opacity: 0.7; stroke: #ffffff; stroke-linejoin: miter"/>
   </g>
   <g id="patch_123">
    <path d="M 202.356912 666.849375 
L 213.735797 666.849375 
L 213.735797 603.69823 
L 202.356912 603.69823 
z
" clip-path="url(#p40eafb5ba8)" style="fill: #4c72b0; opacity: 0.7; stroke: #ffffff; stroke-linejoin: miter"/>
   </g>
   <g id="patch_124">
    <path d="M 213.735797 666.849375 
L 225.114681 666.849375 
L 225.114681 608.674815 
L 213.735797 608.674815 
z
" clip-path="url(#p40eafb5ba8)" style="fill: #4c72b0; opacity: 0.7; stroke: #ffffff; stroke-linejoin: miter"/>
   </g>
   <g id="patch_125">
    <path d="M 225.114681 666.849375 
L 236.493566 666.849375 
L 236.493566 594.774699 
L 225.114681 594.774699 
z
" clip-path="url(#p40eafb5ba8)" style="fill: #4c72b0; opacity: 0.7; stroke: #ffffff; stroke-linejoin: miter"/>
   </g>
   <g id="patch_126">
    <path d="M 236.493566 666.849375 
L 247.87245 666.849375 
L 247.87245 631.15525 
L 236.493566 631.15525 
z
" clip-path="url(#p40eafb5ba8)" style="fill: #4c72b0; opacity: 0.7; stroke: #ffffff; stroke-linejoin: miter"/>
   </g>
   <g id="patch_127">
    <path d="M 247.87245 666.849375 
L 259.251335 666.849375 
L 259.251335 621.030474 
L 247.87245 621.030474 
z
" clip-path="url(#p40eafb5ba8)" style="fill: #4c72b0; opacity: 0.7; stroke: #ffffff; stroke-linejoin: miter"/>
   </g>
   <g id="patch_128">
    <path d="M 259.251335 666.849375 
L 270.630219 666.849375 
L 270.630219 597.520401 
L 259.251335 597.520401 
z
" clip-path="url(#p40eafb5ba8)" style="fill: #4c72b0; opacity: 0.7; stroke: #ffffff; stroke-linejoin: miter"/>
   </g>
   <g id="patch_129">
    <path d="M 270.630219 666.849375 
L 282.009104 666.849375 
L 282.009104 587.395625 
L 270.630219 587.395625 
z
" clip-path="url(#p40eafb5ba8)" style="fill: #4c72b0; opacity: 0.7; stroke: #ffffff; stroke-linejoin: miter"/>
   </g>
   <g id="patch_130">
    <path d="M 282.009104 666.849375 
L 293.387988 666.849375 
L 293.387988 572.122658 
L 282.009104 572.122658 
z
" clip-path="url(#p40eafb5ba8)" style="fill: #4c72b0; opacity: 0.7; stroke: #ffffff; stroke-linejoin: miter"/>
   </g>
   <g id="patch_131">
    <path d="M 293.387988 666.849375 
L 304.766873 666.849375 
L 304.766873 524.759299 
L 293.387988 524.759299 
z
" clip-path="url(#p40eafb5ba8)" style="fill: #4c72b0; opacity: 0.7; stroke: #ffffff; stroke-linejoin: miter"/>
   </g>
   <g id="patch_132">
    <path d="M 304.766873 666.849375 
L 316.145757 666.849375 
L 316.145757 502.278864 
L 304.766873 502.278864 
z
" clip-path="url(#p40eafb5ba8)" style="fill: #4c72b0; opacity: 0.7; stroke: #ffffff; stroke-linejoin: miter"/>
   </g>
   <g id="patch_133">
    <path d="M 316.145757 666.849375 
L 327.524642 666.849375 
L 327.524642 476.881121 
L 316.145757 476.881121 
z
" clip-path="url(#p40eafb5ba8)" style="fill: #4c72b0; opacity: 0.7; stroke: #ffffff; stroke-linejoin: miter"/>
   </g>
   <g id="patch_134">
    <path d="M 327.524642 666.849375 
L 338.903526 666.849375 
L 338.903526 510.001151 
L 327.524642 510.001151 
z
" clip-path="url(#p40eafb5ba8)" style="fill: #4c72b0; opacity: 0.7; stroke: #ffffff; stroke-linejoin: miter"/>
   </g>
   <g id="patch_135">
    <path d="M 338.903526 666.849375 
L 350.282411 666.849375 
L 350.282411 464.010643 
L 338.903526 464.010643 
z
" clip-path="url(#p40eafb5ba8)" style="fill: #4c72b0; opacity: 0.7; stroke: #ffffff; stroke-linejoin: miter"/>
   </g>
   <g id="patch_136">
    <path d="M 350.282411 666.849375 
L 361.661296 666.849375 
L 361.661296 502.450471 
L 350.282411 502.450471 
z
" clip-path="url(#p40eafb5ba8)" style="fill: #4c72b0; opacity: 0.7; stroke: #ffffff; stroke-linejoin: miter"/>
   </g>
   <g id="patch_137">
    <path d="M 361.661296 666.849375 
L 373.04018 666.849375 
L 373.04018 480.313249 
L 361.661296 480.313249 
z
" clip-path="url(#p40eafb5ba8)" style="fill: #4c72b0; opacity: 0.7; stroke: #ffffff; stroke-linejoin: miter"/>
   </g>
   <g id="patch_138">
    <path d="M 373.04018 666.849375 
L 384.419065 666.849375 
L 384.419065 504.166534 
L 373.04018 504.166534 
z
" clip-path="url(#p40eafb5ba8)" style="fill: #4c72b0; opacity: 0.7; stroke: #ffffff; stroke-linejoin: miter"/>
   </g>
   <g id="patch_139">
    <path d="M 384.419065 666.849375 
L 395.797949 666.849375 
L 395.797949 487.692323 
L 384.419065 487.692323 
z
" clip-path="url(#p40eafb5ba8)" style="fill: #4c72b0; opacity: 0.7; stroke: #ffffff; stroke-linejoin: miter"/>
   </g>
   <g id="patch_140">
    <path d="M 395.797949 666.849375 
L 407.176834 666.849375 
L 407.176834 514.462917 
L 395.797949 514.462917 
z
" clip-path="url(#p40eafb5ba8)" style="fill: #4c72b0; opacity: 0.7; stroke: #ffffff; stroke-linejoin: miter"/>
   </g>
   <g id="patch_141">
    <path d="M 407.176834 666.849375 
L 418.555718 666.849375 
L 418.555718 533.168011 
L 407.176834 533.168011 
z
" clip-path="url(#p40eafb5ba8)" style="fill: #4c72b0; opacity: 0.7; stroke: #ffffff; stroke-linejoin: miter"/>
   </g>
   <g id="patch_142">
    <path d="M 418.555718 666.849375 
L 429.934603 666.849375 
L 429.934603 541.405117 
L 418.555718 541.405117 
z
" clip-path="url(#p40eafb5ba8)" style="fill: #4c72b0; opacity: 0.7; stroke: #ffffff; stroke-linejoin: miter"/>
   </g>
   <g id="patch_143">
    <path d="M 429.934603 666.849375 
L 441.313487 666.849375 
L 441.313487 547.582946 
L 429.934603 547.582946 
z
" clip-path="url(#p40eafb5ba8)" style="fill: #4c72b0; opacity: 0.7; stroke: #ffffff; stroke-linejoin: miter"/>
   </g>
   <g id="patch_144">
    <path d="M 441.313487 666.849375 
L 452.692372 666.849375 
L 452.692372 587.567231 
L 441.313487 587.567231 
z
" clip-path="url(#p40eafb5ba8)" style="fill: #4c72b0; opacity: 0.7; stroke: #ffffff; stroke-linejoin: miter"/>
   </g>
   <g id="patch_145">
    <path d="M 452.692372 666.849375 
L 464.071256 666.849375 
L 464.071256 608.674815 
L 452.692372 608.674815 
z
" clip-path="url(#p40eafb5ba8)" style="fill: #4c72b0; opacity: 0.7; stroke: #ffffff; stroke-linejoin: miter"/>
   </g>
   <g id="patch_146">
    <path d="M 464.071256 666.849375 
L 475.450141 666.849375 
L 475.450141 623.604569 
L 464.071256 623.604569 
z
" clip-path="url(#p40eafb5ba8)" style="fill: #4c72b0; opacity: 0.7; stroke: #ffffff; stroke-linejoin: miter"/>
   </g>
   <g id="patch_147">
    <path d="M 475.450141 666.849375 
L 486.829025 666.849375 
L 486.829025 638.362717 
L 475.450141 638.362717 
z
" clip-path="url(#p40eafb5ba8)" style="fill: #4c72b0; opacity: 0.7; stroke: #ffffff; stroke-linejoin: miter"/>
   </g>
   <g id="patch_148">
    <path d="M 486.829025 666.849375 
L 498.20791 666.849375 
L 498.20791 646.943036 
L 486.829025 646.943036 
z
" clip-path="url(#p40eafb5ba8)" style="fill: #4c72b0; opacity: 0.7; stroke: #ffffff; stroke-linejoin: miter"/>
   </g>
   <g id="patch_149">
    <path d="M 498.20791 666.849375 
L 509.586794 666.849375 
L 509.586794 657.411025 
L 498.20791 657.411025 
z
" clip-path="url(#p40eafb5ba8)" style="fill: #4c72b0; opacity: 0.7; stroke: #ffffff; stroke-linejoin: miter"/>
   </g>
   <g id="patch_150">
    <path d="M 509.586794 666.849375 
L 520.965679 666.849375 
L 520.965679 659.298695 
L 509.586794 659.298695 
z
" clip-path="url(#p40eafb5ba8)" style="fill: #4c72b0; opacity: 0.7; stroke: #ffffff; stroke-linejoin: miter"/>
   </g>
   <g id="patch_151">
    <path d="M 520.965679 666.849375 
L 532.344563 666.849375 
L 532.344563 662.902428 
L 520.965679 662.902428 
z
" clip-path="url(#p40eafb5ba8)" style="fill: #4c72b0; opacity: 0.7; stroke: #ffffff; stroke-linejoin: miter"/>
   </g>
   <g id="patch_152">
    <path d="M 532.344563 666.849375 
L 543.723448 666.849375 
L 543.723448 665.819737 
L 532.344563 665.819737 
z
" clip-path="url(#p40eafb5ba8)" style="fill: #4c72b0; opacity: 0.7; stroke: #ffffff; stroke-linejoin: miter"/>
   </g>
   <g id="patch_153">
    <path d="M 543.723448 666.849375 
L 555.102332 666.849375 
L 555.102332 666.334556 
L 543.723448 666.334556 
z
" clip-path="url(#p40eafb5ba8)" style="fill: #4c72b0; opacity: 0.7; stroke: #ffffff; stroke-linejoin: miter"/>
   </g>
   <g id="patch_154">
    <path d="M 555.102332 666.849375 
L 566.481217 666.849375 
L 566.481217 666.849375 
L 555.102332 666.849375 
z
" clip-path="url(#p40eafb5ba8)" style="fill: #4c72b0; opacity: 0.7; stroke: #ffffff; stroke-linejoin: miter"/>
   </g>
   <g id="patch_155">
    <path d="M 566.481217 666.849375 
L 577.860101 666.849375 
L 577.860101 666.677769 
L 566.481217 666.677769 
z
" clip-path="url(#p40eafb5ba8)" style="fill: #4c72b0; opacity: 0.7; stroke: #ffffff; stroke-linejoin: miter"/>
   </g>
   <g id="patch_156">
    <path d="M 577.860101 666.849375 
L 589.238986 666.849375 
L 589.238986 666.849375 
L 577.860101 666.849375 
z
" clip-path="url(#p40eafb5ba8)" style="fill: #4c72b0; opacity: 0.7; stroke: #ffffff; stroke-linejoin: miter"/>
   </g>
   <g id="patch_157">
    <path d="M 589.238986 666.849375 
L 600.61787 666.849375 
L 600.61787 666.849375 
L 589.238986 666.849375 
z
" clip-path="url(#p40eafb5ba8)" style="fill: #4c72b0; opacity: 0.7; stroke: #ffffff; stroke-linejoin: miter"/>
   </g>
   <g id="patch_158">
    <path d="M 600.61787 666.849375 
L 611.996755 666.849375 
L 611.996755 666.849375 
L 600.61787 666.849375 
z
" clip-path="url(#p40eafb5ba8)" style="fill: #4c72b0; opacity: 0.7; stroke: #ffffff; stroke-linejoin: miter"/>
   </g>
   <g id="patch_159">
    <path d="M 611.996755 666.849375 
L 623.375639 666.849375 
L 623.375639 666.849375 
L 611.996755 666.849375 
z
" clip-path="url(#p40eafb5ba8)" style="fill: #4c72b0; opacity: 0.7; stroke: #ffffff; stroke-linejoin: miter"/>
   </g>
   <g id="patch_160">
    <path d="M 37.932031 666.849375 
L 37.932031 365.519375 
" style="fill: none; stroke: #cccccc; stroke-width: 1.25; stroke-linejoin: miter; stroke-linecap: square"/>
   </g>
   <g id="patch_161">
    <path d="M 651.253906 666.849375 
L 651.253906 365.519375 
" style="fill: none; stroke: #cccccc; stroke-width: 1.25; stroke-linejoin: miter; stroke-linecap: square"/>
   </g>
   <g id="patch_162">
    <path d="M 37.932031 666.849375 
L 651.253906 666.849375 
" style="fill: none; stroke: #cccccc; stroke-width: 1.25; stroke-linejoin: miter; stroke-linecap: square"/>
   </g>
   <g id="patch_163">
    <path d="M 37.932031 365.519375 
L 651.253906 365.519375 
" style="fill: none; stroke: #cccccc; stroke-width: 1.25; stroke-linejoin: miter; stroke-linecap: square"/>
   </g>
   <g id="text_24">
    <!-- ProtGPT2 -->
    <g style="fill: #262626" transform="translate(317.919219 359.519375) scale(0.12 -0.12)">
     <defs>
      <path id="ArialMT-50" d="M 494 0 
L 494 4581 
L 2222 4581 
Q 2678 4581 2919 4538 
Q 3256 4481 3484 4323 
Q 3713 4166 3852 3881 
Q 3991 3597 3991 3256 
Q 3991 2672 3619 2267 
Q 3247 1863 2275 1863 
L 1100 1863 
L 1100 0 
L 494 0 
z
M 1100 2403 
L 2284 2403 
Q 2872 2403 3119 2622 
Q 3366 2841 3366 3238 
Q 3366 3525 3220 3729 
Q 3075 3934 2838 4000 
Q 2684 4041 2272 4041 
L 1100 4041 
L 1100 2403 
z
" transform="scale(0.015625)"/>
      <path id="ArialMT-6f" d="M 213 1659 
Q 213 2581 725 3025 
Q 1153 3394 1769 3394 
Q 2453 3394 2887 2945 
Q 3322 2497 3322 1706 
Q 3322 1066 3130 698 
Q 2938 331 2570 128 
Q 2203 -75 1769 -75 
Q 1072 -75 642 372 
Q 213 819 213 1659 
z
M 791 1659 
Q 791 1022 1069 705 
Q 1347 388 1769 388 
Q 2188 388 2466 706 
Q 2744 1025 2744 1678 
Q 2744 2294 2464 2611 
Q 2184 2928 1769 2928 
Q 1347 2928 1069 2612 
Q 791 2297 791 1659 
z
" transform="scale(0.015625)"/>
      <path id="ArialMT-47" d="M 2638 1797 
L 2638 2334 
L 4578 2338 
L 4578 638 
Q 4131 281 3656 101 
Q 3181 -78 2681 -78 
Q 2006 -78 1454 211 
Q 903 500 622 1047 
Q 341 1594 341 2269 
Q 341 2938 620 3517 
Q 900 4097 1425 4378 
Q 1950 4659 2634 4659 
Q 3131 4659 3532 4498 
Q 3934 4338 4162 4050 
Q 4391 3763 4509 3300 
L 3963 3150 
Q 3859 3500 3706 3700 
Q 3553 3900 3268 4020 
Q 2984 4141 2638 4141 
Q 2222 4141 1919 4014 
Q 1616 3888 1430 3681 
Q 1244 3475 1141 3228 
Q 966 2803 966 2306 
Q 966 1694 1177 1281 
Q 1388 869 1791 669 
Q 2194 469 2647 469 
Q 3041 469 3416 620 
Q 3791 772 3984 944 
L 3984 1797 
L 2638 1797 
z
" transform="scale(0.015625)"/>
      <path id="ArialMT-54" d="M 1659 0 
L 1659 4041 
L 150 4041 
L 150 4581 
L 3781 4581 
L 3781 4041 
L 2266 4041 
L 2266 0 
L 1659 0 
z
" transform="scale(0.015625)"/>
     </defs>
     <use xlink:href="#ArialMT-50"/>
     <use xlink:href="#ArialMT-72" transform="translate(66.699219 0)"/>
     <use xlink:href="#ArialMT-6f" transform="translate(100 0)"/>
     <use xlink:href="#ArialMT-74" transform="translate(155.615234 0)"/>
     <use xlink:href="#ArialMT-47" transform="translate(183.398438 0)"/>
     <use xlink:href="#ArialMT-50" transform="translate(261.181641 0)"/>
     <use xlink:href="#ArialMT-54" transform="translate(327.880859 0)"/>
     <use xlink:href="#ArialMT-32" transform="translate(388.964844 0)"/>
    </g>
   </g>
  </g>
  <g id="axes_4">
   <g id="patch_164">
    <path d="M 664.213906 666.849375 
L 1277.535781 666.849375 
L 1277.535781 365.519375 
L 664.213906 365.519375 
z
" style="fill: #ffffff"/>
   </g>
   <g id="matplotlib.axis_7">
    <g id="xtick_16">
     <g id="line2d_34">
      <path d="M 692.092173 666.849375 
L 692.092173 365.519375 
" clip-path="url(#p3820d73591)" style="fill: none; stroke: #cccccc; stroke-linecap: round"/>
     </g>
     <g id="text_25">
      <!-- 0.0 -->
      <g style="fill: #262626" transform="translate(684.447173 684.222969) scale(0.11 -0.11)">
       <use xlink:href="#ArialMT-30"/>
       <use xlink:href="#ArialMT-2e" transform="translate(55.615234 0)"/>
       <use xlink:href="#ArialMT-30" transform="translate(83.398438 0)"/>
      </g>
     </g>
    </g>
    <g id="xtick_17">
     <g id="line2d_35">
      <path d="M 821.793277 666.849375 
L 821.793277 365.519375 
" clip-path="url(#p3820d73591)" style="fill: none; stroke: #cccccc; stroke-linecap: round"/>
     </g>
     <g id="text_26">
      <!-- 0.2 -->
      <g style="fill: #262626" transform="translate(814.148277 684.222969) scale(0.11 -0.11)">
       <use xlink:href="#ArialMT-30"/>
       <use xlink:href="#ArialMT-2e" transform="translate(55.615234 0)"/>
       <use xlink:href="#ArialMT-32" transform="translate(83.398438 0)"/>
      </g>
     </g>
    </g>
    <g id="xtick_18">
     <g id="line2d_36">
      <path d="M 951.494381 666.849375 
L 951.494381 365.519375 
" clip-path="url(#p3820d73591)" style="fill: none; stroke: #cccccc; stroke-linecap: round"/>
     </g>
     <g id="text_27">
      <!-- 0.4 -->
      <g style="fill: #262626" transform="translate(943.849381 684.222969) scale(0.11 -0.11)">
       <use xlink:href="#ArialMT-30"/>
       <use xlink:href="#ArialMT-2e" transform="translate(55.615234 0)"/>
       <use xlink:href="#ArialMT-34" transform="translate(83.398438 0)"/>
      </g>
     </g>
    </g>
    <g id="xtick_19">
     <g id="line2d_37">
      <path d="M 1081.195485 666.849375 
L 1081.195485 365.519375 
" clip-path="url(#p3820d73591)" style="fill: none; stroke: #cccccc; stroke-linecap: round"/>
     </g>
     <g id="text_28">
      <!-- 0.6 -->
      <g style="fill: #262626" transform="translate(1073.550485 684.222969) scale(0.11 -0.11)">
       <use xlink:href="#ArialMT-30"/>
       <use xlink:href="#ArialMT-2e" transform="translate(55.615234 0)"/>
       <use xlink:href="#ArialMT-36" transform="translate(83.398438 0)"/>
      </g>
     </g>
    </g>
    <g id="xtick_20">
     <g id="line2d_38">
      <path d="M 1210.896589 666.849375 
L 1210.896589 365.519375 
" clip-path="url(#p3820d73591)" style="fill: none; stroke: #cccccc; stroke-linecap: round"/>
     </g>
     <g id="text_29">
      <!-- 0.8 -->
      <g style="fill: #262626" transform="translate(1203.251589 684.222969) scale(0.11 -0.11)">
       <use xlink:href="#ArialMT-30"/>
       <use xlink:href="#ArialMT-2e" transform="translate(55.615234 0)"/>
       <use xlink:href="#ArialMT-38" transform="translate(83.398438 0)"/>
      </g>
     </g>
    </g>
    <g id="text_30">
     <!-- LCC -->
     <g style="fill: #262626" transform="translate(958.872031 698.998594) scale(0.12 -0.12)">
      <use xlink:href="#ArialMT-4c"/>
      <use xlink:href="#ArialMT-43" transform="translate(55.615234 0)"/>
      <use xlink:href="#ArialMT-43" transform="translate(127.832031 0)"/>
     </g>
    </g>
   </g>
   <g id="matplotlib.axis_8">
    <g id="ytick_19">
     <g id="line2d_39">
      <path d="M 664.213906 666.849375 
L 1277.535781 666.849375 
" clip-path="url(#p3820d73591)" style="fill: none; stroke: #cccccc; stroke-linecap: round"/>
     </g>
    </g>
    <g id="ytick_20">
     <g id="line2d_40">
      <path d="M 664.213906 613.526512 
L 1277.535781 613.526512 
" clip-path="url(#p3820d73591)" style="fill: none; stroke: #cccccc; stroke-linecap: round"/>
     </g>
    </g>
    <g id="ytick_21">
     <g id="line2d_41">
      <path d="M 664.213906 560.203649 
L 1277.535781 560.203649 
" clip-path="url(#p3820d73591)" style="fill: none; stroke: #cccccc; stroke-linecap: round"/>
     </g>
    </g>
    <g id="ytick_22">
     <g id="line2d_42">
      <path d="M 664.213906 506.880786 
L 1277.535781 506.880786 
" clip-path="url(#p3820d73591)" style="fill: none; stroke: #cccccc; stroke-linecap: round"/>
     </g>
    </g>
    <g id="ytick_23">
     <g id="line2d_43">
      <path d="M 664.213906 453.557922 
L 1277.535781 453.557922 
" clip-path="url(#p3820d73591)" style="fill: none; stroke: #cccccc; stroke-linecap: round"/>
     </g>
    </g>
    <g id="ytick_24">
     <g id="line2d_44">
      <path d="M 664.213906 400.235059 
L 1277.535781 400.235059 
" clip-path="url(#p3820d73591)" style="fill: none; stroke: #cccccc; stroke-linecap: round"/>
     </g>
    </g>
   </g>
   <g id="patch_165">
    <path d="M 692.092173 666.849375 
L 703.471058 666.849375 
L 703.471058 613.6514 
L 692.092173 613.6514 
z
" clip-path="url(#p3820d73591)" style="fill: #4c72b0; opacity: 0.7; stroke: #ffffff; stroke-linejoin: miter"/>
   </g>
   <g id="patch_166">
    <path d="M 703.471058 666.849375 
L 714.849942 666.849375 
L 714.849942 666.849375 
L 703.471058 666.849375 
z
" clip-path="url(#p3820d73591)" style="fill: #4c72b0; opacity: 0.7; stroke: #ffffff; stroke-linejoin: miter"/>
   </g>
   <g id="patch_167">
    <path d="M 714.849942 666.849375 
L 726.228827 666.849375 
L 726.228827 666.849375 
L 714.849942 666.849375 
z
" clip-path="url(#p3820d73591)" style="fill: #4c72b0; opacity: 0.7; stroke: #ffffff; stroke-linejoin: miter"/>
   </g>
   <g id="patch_168">
    <path d="M 726.228827 666.849375 
L 737.607711 666.849375 
L 737.607711 666.849375 
L 726.228827 666.849375 
z
" clip-path="url(#p3820d73591)" style="fill: #4c72b0; opacity: 0.7; stroke: #ffffff; stroke-linejoin: miter"/>
   </g>
   <g id="patch_169">
    <path d="M 737.607711 666.849375 
L 748.986596 666.849375 
L 748.986596 666.677769 
L 737.607711 666.677769 
z
" clip-path="url(#p3820d73591)" style="fill: #4c72b0; opacity: 0.7; stroke: #ffffff; stroke-linejoin: miter"/>
   </g>
   <g id="patch_170">
    <path d="M 748.986596 666.849375 
L 760.36548 666.849375 
L 760.36548 665.991343 
L 748.986596 665.991343 
z
" clip-path="url(#p3820d73591)" style="fill: #4c72b0; opacity: 0.7; stroke: #ffffff; stroke-linejoin: miter"/>
   </g>
   <g id="patch_171">
    <path d="M 760.36548 666.849375 
L 771.744365 666.849375 
L 771.744365 663.932067 
L 760.36548 663.932067 
z
" clip-path="url(#p3820d73591)" style="fill: #4c72b0; opacity: 0.7; stroke: #ffffff; stroke-linejoin: miter"/>
   </g>
   <g id="patch_172">
    <path d="M 771.744365 666.849375 
L 783.123249 666.849375 
L 783.123249 658.783876 
L 771.744365 658.783876 
z
" clip-path="url(#p3820d73591)" style="fill: #4c72b0; opacity: 0.7; stroke: #ffffff; stroke-linejoin: miter"/>
   </g>
   <g id="patch_173">
    <path d="M 783.123249 666.849375 
L 794.502134 666.849375 
L 794.502134 649.345525 
L 783.123249 649.345525 
z
" clip-path="url(#p3820d73591)" style="fill: #4c72b0; opacity: 0.7; stroke: #ffffff; stroke-linejoin: miter"/>
   </g>
   <g id="patch_174">
    <path d="M 794.502134 666.849375 
L 805.881018 666.849375 
L 805.881018 652.777652 
L 794.502134 652.777652 
z
" clip-path="url(#p3820d73591)" style="fill: #4c72b0; opacity: 0.7; stroke: #ffffff; stroke-linejoin: miter"/>
   </g>
   <g id="patch_175">
    <path d="M 805.881018 666.849375 
L 817.259903 666.849375 
L 817.259903 626.178665 
L 805.881018 626.178665 
z
" clip-path="url(#p3820d73591)" style="fill: #4c72b0; opacity: 0.7; stroke: #ffffff; stroke-linejoin: miter"/>
   </g>
   <g id="patch_176">
    <path d="M 817.259903 666.849375 
L 828.638787 666.849375 
L 828.638787 615.367463 
L 817.259903 615.367463 
z
" clip-path="url(#p3820d73591)" style="fill: #4c72b0; opacity: 0.7; stroke: #ffffff; stroke-linejoin: miter"/>
   </g>
   <g id="patch_177">
    <path d="M 828.638787 666.849375 
L 840.017672 666.849375 
L 840.017672 603.69823 
L 828.638787 603.69823 
z
" clip-path="url(#p3820d73591)" style="fill: #4c72b0; opacity: 0.7; stroke: #ffffff; stroke-linejoin: miter"/>
   </g>
   <g id="patch_178">
    <path d="M 840.017672 666.849375 
L 851.396556 666.849375 
L 851.396556 608.674815 
L 840.017672 608.674815 
z
" clip-path="url(#p3820d73591)" style="fill: #4c72b0; opacity: 0.7; stroke: #ffffff; stroke-linejoin: miter"/>
   </g>
   <g id="patch_179">
    <path d="M 851.396556 666.849375 
L 862.775441 666.849375 
L 862.775441 594.774699 
L 851.396556 594.774699 
z
" clip-path="url(#p3820d73591)" style="fill: #4c72b0; opacity: 0.7; stroke: #ffffff; stroke-linejoin: miter"/>
   </g>
   <g id="patch_180">
    <path d="M 862.775441 666.849375 
L 874.154325 666.849375 
L 874.154325 631.15525 
L 862.775441 631.15525 
z
" clip-path="url(#p3820d73591)" style="fill: #4c72b0; opacity: 0.7; stroke: #ffffff; stroke-linejoin: miter"/>
   </g>
   <g id="patch_181">
    <path d="M 874.154325 666.849375 
L 885.53321 666.849375 
L 885.53321 621.030474 
L 874.154325 621.030474 
z
" clip-path="url(#p3820d73591)" style="fill: #4c72b0; opacity: 0.7; stroke: #ffffff; stroke-linejoin: miter"/>
   </g>
   <g id="patch_182">
    <path d="M 885.53321 666.849375 
L 896.912094 666.849375 
L 896.912094 597.520401 
L 885.53321 597.520401 
z
" clip-path="url(#p3820d73591)" style="fill: #4c72b0; opacity: 0.7; stroke: #ffffff; stroke-linejoin: miter"/>
   </g>
   <g id="patch_183">
    <path d="M 896.912094 666.849375 
L 908.290979 666.849375 
L 908.290979 587.395625 
L 896.912094 587.395625 
z
" clip-path="url(#p3820d73591)" style="fill: #4c72b0; opacity: 0.7; stroke: #ffffff; stroke-linejoin: miter"/>
   </g>
   <g id="patch_184">
    <path d="M 908.290979 666.849375 
L 919.669863 666.849375 
L 919.669863 572.122658 
L 908.290979 572.122658 
z
" clip-path="url(#p3820d73591)" style="fill: #4c72b0; opacity: 0.7; stroke: #ffffff; stroke-linejoin: miter"/>
   </g>
   <g id="patch_185">
    <path d="M 919.669863 666.849375 
L 931.048748 666.849375 
L 931.048748 524.759299 
L 919.669863 524.759299 
z
" clip-path="url(#p3820d73591)" style="fill: #4c72b0; opacity: 0.7; stroke: #ffffff; stroke-linejoin: miter"/>
   </g>
   <g id="patch_186">
    <path d="M 931.048748 666.849375 
L 942.427632 666.849375 
L 942.427632 502.278864 
L 931.048748 502.278864 
z
" clip-path="url(#p3820d73591)" style="fill: #4c72b0; opacity: 0.7; stroke: #ffffff; stroke-linejoin: miter"/>
   </g>
   <g id="patch_187">
    <path d="M 942.427632 666.849375 
L 953.806517 666.849375 
L 953.806517 476.881121 
L 942.427632 476.881121 
z
" clip-path="url(#p3820d73591)" style="fill: #4c72b0; opacity: 0.7; stroke: #ffffff; stroke-linejoin: miter"/>
   </g>
   <g id="patch_188">
    <path d="M 953.806517 666.849375 
L 965.185401 666.849375 
L 965.185401 510.001151 
L 953.806517 510.001151 
z
" clip-path="url(#p3820d73591)" style="fill: #4c72b0; opacity: 0.7; stroke: #ffffff; stroke-linejoin: miter"/>
   </g>
   <g id="patch_189">
    <path d="M 965.185401 666.849375 
L 976.564286 666.849375 
L 976.564286 464.010643 
L 965.185401 464.010643 
z
" clip-path="url(#p3820d73591)" style="fill: #4c72b0; opacity: 0.7; stroke: #ffffff; stroke-linejoin: miter"/>
   </g>
   <g id="patch_190">
    <path d="M 976.564286 666.849375 
L 987.943171 666.849375 
L 987.943171 502.450471 
L 976.564286 502.450471 
z
" clip-path="url(#p3820d73591)" style="fill: #4c72b0; opacity: 0.7; stroke: #ffffff; stroke-linejoin: miter"/>
   </g>
   <g id="patch_191">
    <path d="M 987.943171 666.849375 
L 999.322055 666.849375 
L 999.322055 480.313249 
L 987.943171 480.313249 
z
" clip-path="url(#p3820d73591)" style="fill: #4c72b0; opacity: 0.7; stroke: #ffffff; stroke-linejoin: miter"/>
   </g>
   <g id="patch_192">
    <path d="M 999.322055 666.849375 
L 1010.70094 666.849375 
L 1010.70094 504.166534 
L 999.322055 504.166534 
z
" clip-path="url(#p3820d73591)" style="fill: #4c72b0; opacity: 0.7; stroke: #ffffff; stroke-linejoin: miter"/>
   </g>
   <g id="patch_193">
    <path d="M 1010.70094 666.849375 
L 1022.079824 666.849375 
L 1022.079824 487.692323 
L 1010.70094 487.692323 
z
" clip-path="url(#p3820d73591)" style="fill: #4c72b0; opacity: 0.7; stroke: #ffffff; stroke-linejoin: miter"/>
   </g>
   <g id="patch_194">
    <path d="M 1022.079824 666.849375 
L 1033.458709 666.849375 
L 1033.458709 514.462917 
L 1022.079824 514.462917 
z
" clip-path="url(#p3820d73591)" style="fill: #4c72b0; opacity: 0.7; stroke: #ffffff; stroke-linejoin: miter"/>
   </g>
   <g id="patch_195">
    <path d="M 1033.458709 666.849375 
L 1044.837593 666.849375 
L 1044.837593 533.168011 
L 1033.458709 533.168011 
z
" clip-path="url(#p3820d73591)" style="fill: #4c72b0; opacity: 0.7; stroke: #ffffff; stroke-linejoin: miter"/>
   </g>
   <g id="patch_196">
    <path d="M 1044.837593 666.849375 
L 1056.216478 666.849375 
L 1056.216478 541.405117 
L 1044.837593 541.405117 
z
" clip-path="url(#p3820d73591)" style="fill: #4c72b0; opacity: 0.7; stroke: #ffffff; stroke-linejoin: miter"/>
   </g>
   <g id="patch_197">
    <path d="M 1056.216478 666.849375 
L 1067.595362 666.849375 
L 1067.595362 547.582946 
L 1056.216478 547.582946 
z
" clip-path="url(#p3820d73591)" style="fill: #4c72b0; opacity: 0.7; stroke: #ffffff; stroke-linejoin: miter"/>
   </g>
   <g id="patch_198">
    <path d="M 1067.595362 666.849375 
L 1078.974247 666.849375 
L 1078.974247 587.567231 
L 1067.595362 587.567231 
z
" clip-path="url(#p3820d73591)" style="fill: #4c72b0; opacity: 0.7; stroke: #ffffff; stroke-linejoin: miter"/>
   </g>
   <g id="patch_199">
    <path d="M 1078.974247 666.849375 
L 1090.353131 666.849375 
L 1090.353131 608.674815 
L 1078.974247 608.674815 
z
" clip-path="url(#p3820d73591)" style="fill: #4c72b0; opacity: 0.7; stroke: #ffffff; stroke-linejoin: miter"/>
   </g>
   <g id="patch_200">
    <path d="M 1090.353131 666.849375 
L 1101.732016 666.849375 
L 1101.732016 623.604569 
L 1090.353131 623.604569 
z
" clip-path="url(#p3820d73591)" style="fill: #4c72b0; opacity: 0.7; stroke: #ffffff; stroke-linejoin: miter"/>
   </g>
   <g id="patch_201">
    <path d="M 1101.732016 666.849375 
L 1113.1109 666.849375 
L 1113.1109 638.362717 
L 1101.732016 638.362717 
z
" clip-path="url(#p3820d73591)" style="fill: #4c72b0; opacity: 0.7; stroke: #ffffff; stroke-linejoin: miter"/>
   </g>
   <g id="patch_202">
    <path d="M 1113.1109 666.849375 
L 1124.489785 666.849375 
L 1124.489785 646.943036 
L 1113.1109 646.943036 
z
" clip-path="url(#p3820d73591)" style="fill: #4c72b0; opacity: 0.7; stroke: #ffffff; stroke-linejoin: miter"/>
   </g>
   <g id="patch_203">
    <path d="M 1124.489785 666.849375 
L 1135.868669 666.849375 
L 1135.868669 657.411025 
L 1124.489785 657.411025 
z
" clip-path="url(#p3820d73591)" style="fill: #4c72b0; opacity: 0.7; stroke: #ffffff; stroke-linejoin: miter"/>
   </g>
   <g id="patch_204">
    <path d="M 1135.868669 666.849375 
L 1147.247554 666.849375 
L 1147.247554 659.298695 
L 1135.868669 659.298695 
z
" clip-path="url(#p3820d73591)" style="fill: #4c72b0; opacity: 0.7; stroke: #ffffff; stroke-linejoin: miter"/>
   </g>
   <g id="patch_205">
    <path d="M 1147.247554 666.849375 
L 1158.626438 666.849375 
L 1158.626438 662.902428 
L 1147.247554 662.902428 
z
" clip-path="url(#p3820d73591)" style="fill: #4c72b0; opacity: 0.7; stroke: #ffffff; stroke-linejoin: miter"/>
   </g>
   <g id="patch_206">
    <path d="M 1158.626438 666.849375 
L 1170.005323 666.849375 
L 1170.005323 665.819737 
L 1158.626438 665.819737 
z
" clip-path="url(#p3820d73591)" style="fill: #4c72b0; opacity: 0.7; stroke: #ffffff; stroke-linejoin: miter"/>
   </g>
   <g id="patch_207">
    <path d="M 1170.005323 666.849375 
L 1181.384207 666.849375 
L 1181.384207 666.334556 
L 1170.005323 666.334556 
z
" clip-path="url(#p3820d73591)" style="fill: #4c72b0; opacity: 0.7; stroke: #ffffff; stroke-linejoin: miter"/>
   </g>
   <g id="patch_208">
    <path d="M 1181.384207 666.849375 
L 1192.763092 666.849375 
L 1192.763092 666.849375 
L 1181.384207 666.849375 
z
" clip-path="url(#p3820d73591)" style="fill: #4c72b0; opacity: 0.7; stroke: #ffffff; stroke-linejoin: miter"/>
   </g>
   <g id="patch_209">
    <path d="M 1192.763092 666.849375 
L 1204.141976 666.849375 
L 1204.141976 666.677769 
L 1192.763092 666.677769 
z
" clip-path="url(#p3820d73591)" style="fill: #4c72b0; opacity: 0.7; stroke: #ffffff; stroke-linejoin: miter"/>
   </g>
   <g id="patch_210">
    <path d="M 1204.141976 666.849375 
L 1215.520861 666.849375 
L 1215.520861 666.849375 
L 1204.141976 666.849375 
z
" clip-path="url(#p3820d73591)" style="fill: #4c72b0; opacity: 0.7; stroke: #ffffff; stroke-linejoin: miter"/>
   </g>
   <g id="patch_211">
    <path d="M 1215.520861 666.849375 
L 1226.899745 666.849375 
L 1226.899745 666.849375 
L 1215.520861 666.849375 
z
" clip-path="url(#p3820d73591)" style="fill: #4c72b0; opacity: 0.7; stroke: #ffffff; stroke-linejoin: miter"/>
   </g>
   <g id="patch_212">
    <path d="M 1226.899745 666.849375 
L 1238.27863 666.849375 
L 1238.27863 666.849375 
L 1226.899745 666.849375 
z
" clip-path="url(#p3820d73591)" style="fill: #4c72b0; opacity: 0.7; stroke: #ffffff; stroke-linejoin: miter"/>
   </g>
   <g id="patch_213">
    <path d="M 1238.27863 666.849375 
L 1249.657514 666.849375 
L 1249.657514 666.849375 
L 1238.27863 666.849375 
z
" clip-path="url(#p3820d73591)" style="fill: #4c72b0; opacity: 0.7; stroke: #ffffff; stroke-linejoin: miter"/>
   </g>
   <g id="patch_214">
    <path d="M 664.213906 666.849375 
L 664.213906 365.519375 
" style="fill: none; stroke: #cccccc; stroke-width: 1.25; stroke-linejoin: miter; stroke-linecap: square"/>
   </g>
   <g id="patch_215">
    <path d="M 1277.535781 666.849375 
L 1277.535781 365.519375 
" style="fill: none; stroke: #cccccc; stroke-width: 1.25; stroke-linejoin: miter; stroke-linecap: square"/>
   </g>
   <g id="patch_216">
    <path d="M 664.213906 666.849375 
L 1277.535781 666.849375 
" style="fill: none; stroke: #cccccc; stroke-width: 1.25; stroke-linejoin: miter; stroke-linecap: square"/>
   </g>
   <g id="patch_217">
    <path d="M 664.213906 365.519375 
L 1277.535781 365.519375 
" style="fill: none; stroke: #cccccc; stroke-width: 1.25; stroke-linejoin: miter; stroke-linecap: square"/>
   </g>
   <g id="text_31">
    <!-- Diffusion model -->
    <g style="fill: #262626" transform="translate(929.629531 359.519375) scale(0.12 -0.12)">
     <defs>
      <path id="ArialMT-75" d="M 2597 0 
L 2597 488 
Q 2209 -75 1544 -75 
Q 1250 -75 995 37 
Q 741 150 617 320 
Q 494 491 444 738 
Q 409 903 409 1263 
L 409 3319 
L 972 3319 
L 972 1478 
Q 972 1038 1006 884 
Q 1059 663 1231 536 
Q 1403 409 1656 409 
Q 1909 409 2131 539 
Q 2353 669 2445 892 
Q 2538 1116 2538 1541 
L 2538 3319 
L 3100 3319 
L 3100 0 
L 2597 0 
z
" transform="scale(0.015625)"/>
      <path id="ArialMT-20" transform="scale(0.015625)"/>
      <path id="ArialMT-6d" d="M 422 0 
L 422 3319 
L 925 3319 
L 925 2853 
Q 1081 3097 1340 3245 
Q 1600 3394 1931 3394 
Q 2300 3394 2536 3241 
Q 2772 3088 2869 2813 
Q 3263 3394 3894 3394 
Q 4388 3394 4653 3120 
Q 4919 2847 4919 2278 
L 4919 0 
L 4359 0 
L 4359 2091 
Q 4359 2428 4304 2576 
Q 4250 2725 4106 2815 
Q 3963 2906 3769 2906 
Q 3419 2906 3187 2673 
Q 2956 2441 2956 1928 
L 2956 0 
L 2394 0 
L 2394 2156 
Q 2394 2531 2256 2718 
Q 2119 2906 1806 2906 
Q 1569 2906 1367 2781 
Q 1166 2656 1075 2415 
Q 984 2175 984 1722 
L 984 0 
L 422 0 
z
" transform="scale(0.015625)"/>
      <path id="ArialMT-64" d="M 2575 0 
L 2575 419 
Q 2259 -75 1647 -75 
Q 1250 -75 917 144 
Q 584 363 401 755 
Q 219 1147 219 1656 
Q 219 2153 384 2558 
Q 550 2963 881 3178 
Q 1213 3394 1622 3394 
Q 1922 3394 2156 3267 
Q 2391 3141 2538 2938 
L 2538 4581 
L 3097 4581 
L 3097 0 
L 2575 0 
z
M 797 1656 
Q 797 1019 1065 703 
Q 1334 388 1700 388 
Q 2069 388 2326 689 
Q 2584 991 2584 1609 
Q 2584 2291 2321 2609 
Q 2059 2928 1675 2928 
Q 1300 2928 1048 2622 
Q 797 2316 797 1656 
z
" transform="scale(0.015625)"/>
      <path id="ArialMT-6c" d="M 409 0 
L 409 4581 
L 972 4581 
L 972 0 
L 409 0 
z
" transform="scale(0.015625)"/>
     </defs>
     <use xlink:href="#ArialMT-44"/>
     <use xlink:href="#ArialMT-69" transform="translate(72.216797 0)"/>
     <use xlink:href="#ArialMT-66" transform="translate(94.433594 0)"/>
     <use xlink:href="#ArialMT-66" transform="translate(120.466797 0)"/>
     <use xlink:href="#ArialMT-75" transform="translate(148.25 0)"/>
     <use xlink:href="#ArialMT-73" transform="translate(203.865234 0)"/>
     <use xlink:href="#ArialMT-69" transform="translate(253.865234 0)"/>
     <use xlink:href="#ArialMT-6f" transform="translate(276.082031 0)"/>
     <use xlink:href="#ArialMT-6e" transform="translate(331.697266 0)"/>
     <use xlink:href="#ArialMT-20" transform="translate(387.3125 0)"/>
     <use xlink:href="#ArialMT-6d" transform="translate(415.095703 0)"/>
     <use xlink:href="#ArialMT-6f" transform="translate(498.396484 0)"/>
     <use xlink:href="#ArialMT-64" transform="translate(554.011719 0)"/>
     <use xlink:href="#ArialMT-65" transform="translate(609.626953 0)"/>
     <use xlink:href="#ArialMT-6c" transform="translate(665.242188 0)"/>
    </g>
   </g>
  </g>
 </g>
 <defs>
  <clipPath id="pa7bfe15623">
   <rect x="37.932031" y="21.789375" width="613.321875" height="301.33"/>
  </clipPath>
  <clipPath id="pf70fa6ac03">
   <rect x="664.213906" y="21.789375" width="613.321875" height="301.33"/>
  </clipPath>
  <clipPath id="p40eafb5ba8">
   <rect x="37.932031" y="365.519375" width="613.321875" height="301.33"/>
  </clipPath>
  <clipPath id="p3820d73591">
   <rect x="664.213906" y="365.519375" width="613.321875" height="301.33"/>
  </clipPath>
 </defs>
</svg>
