<?xml version="1.0" encoding="utf-8" standalone="no"?>
<!DOCTYPE svg PUBLIC "-//W3C//DTD SVG 1.1//EN"
  "http://www.w3.org/Graphics/SVG/1.1/DTD/svg11.dtd">
<svg xmlns:xlink="http://www.w3.org/1999/xlink" width="1286.959737pt" height="351.034375pt" viewBox="0 0 1286.959737 351.034375" xmlns="http://www.w3.org/2000/svg" version="1.1">
 <metadata>
  <rdf:RDF xmlns:dc="http://purl.org/dc/elements/1.1/" xmlns:cc="http://creativecommons.org/ns#" xmlns:rdf="http://www.w3.org/1999/02/22-rdf-syntax-ns#">
   <cc:Work>
    <dc:type rdf:resource="http://purl.org/dc/dcmitype/StillImage"/>
    <dc:date>2026-05-12T10:34:50.807658</dc:date>
    <dc:format>image/svg+xml</dc:format>
    <dc:creator>
     <cc:Agent>
      <dc:title>Matplotlib v3.10.8, https://matplotlib.org/</dc:title>
     </cc:Agent>
    </dc:creator>
   </cc:Work>
  </rdf:RDF>
 </metadata>
 <defs>
  <style type="text/css">*{stroke-linejoin: round; stroke-linecap: butt}</style>
 </defs>
 <g id="figure_1">
  <g id="patch_1">
   <path d="M 0 351.034375 
L 1286.959737 351.034375 
L 1286.959737 0 
L 0 0 
z
" style="fill: #ffffff"/>
  </g>
  <g id="axes_1">
   <g id="patch_2">
    <path d="M 50.14375 313.478125 
L 447.698383 313.478125 
L 447.698383 22.318125 
L 50.14375 22.318125 
z
" style="fill: #ffffff"/>
   </g>
   <g id="patch_3">
    <path d="M 68.214415 313.478125 
L 75.590197 313.478125 
L 75.590197 229.478554 
L 68.214415 229.478554 
z
" clip-path="url(#pc3da87ff5a)" style="fill: #1f77b4; opacity: 0.7"/>
   </g>
   <g id="patch_4">
    <path d="M 75.590197 313.478125 
L 82.965979 313.478125 
L 82.965979 313.478125 
L 75.590197 313.478125 
z
" clip-path="url(#pc3da87ff5a)" style="fill: #1f77b4; opacity: 0.7"/>
   </g>
   <g id="patch_5">
    <path d="M 82.965979 313.478125 
L 90.34176 313.478125 
L 90.34176 313.478125 
L 82.965979 313.478125 
z
" clip-path="url(#pc3da87ff5a)" style="fill: #1f77b4; opacity: 0.7"/>
   </g>
   <g id="patch_6">
    <path d="M 90.34176 313.478125 
L 97.717542 313.478125 
L 97.717542 313.478125 
L 90.34176 313.478125 
z
" clip-path="url(#pc3da87ff5a)" style="fill: #1f77b4; opacity: 0.7"/>
   </g>
   <g id="patch_7">
    <path d="M 97.717542 313.478125 
L 105.093324 313.478125 
L 105.093324 313.478125 
L 97.717542 313.478125 
z
" clip-path="url(#pc3da87ff5a)" style="fill: #1f77b4; opacity: 0.7"/>
   </g>
   <g id="patch_8">
    <path d="M 105.093324 313.478125 
L 112.469105 313.478125 
L 112.469105 313.478125 
L 105.093324 313.478125 
z
" clip-path="url(#pc3da87ff5a)" style="fill: #1f77b4; opacity: 0.7"/>
   </g>
   <g id="patch_9">
    <path d="M 112.469105 313.478125 
L 119.844887 313.478125 
L 119.844887 310.513434 
L 112.469105 310.513434 
z
" clip-path="url(#pc3da87ff5a)" style="fill: #1f77b4; opacity: 0.7"/>
   </g>
   <g id="patch_10">
    <path d="M 119.844887 313.478125 
L 127.220669 313.478125 
L 127.220669 309.525204 
L 119.844887 309.525204 
z
" clip-path="url(#pc3da87ff5a)" style="fill: #1f77b4; opacity: 0.7"/>
   </g>
   <g id="patch_11">
    <path d="M 127.220669 313.478125 
L 134.59645 313.478125 
L 134.59645 311.501665 
L 127.220669 311.501665 
z
" clip-path="url(#pc3da87ff5a)" style="fill: #1f77b4; opacity: 0.7"/>
   </g>
   <g id="patch_12">
    <path d="M 134.59645 313.478125 
L 141.972232 313.478125 
L 141.972232 301.619362 
L 134.59645 301.619362 
z
" clip-path="url(#pc3da87ff5a)" style="fill: #1f77b4; opacity: 0.7"/>
   </g>
   <g id="patch_13">
    <path d="M 141.972232 313.478125 
L 149.348014 313.478125 
L 149.348014 303.595823 
L 141.972232 303.595823 
z
" clip-path="url(#pc3da87ff5a)" style="fill: #1f77b4; opacity: 0.7"/>
   </g>
   <g id="patch_14">
    <path d="M 149.348014 313.478125 
L 156.723795 313.478125 
L 156.723795 303.595823 
L 149.348014 303.595823 
z
" clip-path="url(#pc3da87ff5a)" style="fill: #1f77b4; opacity: 0.7"/>
   </g>
   <g id="patch_15">
    <path d="M 156.723795 313.478125 
L 164.099577 313.478125 
L 164.099577 292.72529 
L 156.723795 292.72529 
z
" clip-path="url(#pc3da87ff5a)" style="fill: #1f77b4; opacity: 0.7"/>
   </g>
   <g id="patch_16">
    <path d="M 164.099577 313.478125 
L 171.475359 313.478125 
L 171.475359 232.443245 
L 164.099577 232.443245 
z
" clip-path="url(#pc3da87ff5a)" style="fill: #1f77b4; opacity: 0.7"/>
   </g>
   <g id="patch_17">
    <path d="M 171.475359 313.478125 
L 178.851141 313.478125 
L 178.851141 302.607592 
L 171.475359 302.607592 
z
" clip-path="url(#pc3da87ff5a)" style="fill: #1f77b4; opacity: 0.7"/>
   </g>
   <g id="patch_18">
    <path d="M 178.851141 313.478125 
L 186.226922 313.478125 
L 186.226922 296.678211 
L 178.851141 296.678211 
z
" clip-path="url(#pc3da87ff5a)" style="fill: #1f77b4; opacity: 0.7"/>
   </g>
   <g id="patch_19">
    <path d="M 186.226922 313.478125 
L 193.602704 313.478125 
L 193.602704 273.948915 
L 186.226922 273.948915 
z
" clip-path="url(#pc3da87ff5a)" style="fill: #1f77b4; opacity: 0.7"/>
   </g>
   <g id="patch_20">
    <path d="M 193.602704 313.478125 
L 200.978486 313.478125 
L 200.978486 300.631132 
L 193.602704 300.631132 
z
" clip-path="url(#pc3da87ff5a)" style="fill: #1f77b4; opacity: 0.7"/>
   </g>
   <g id="patch_21">
    <path d="M 200.978486 313.478125 
L 208.354267 313.478125 
L 208.354267 304.584053 
L 200.978486 304.584053 
z
" clip-path="url(#pc3da87ff5a)" style="fill: #1f77b4; opacity: 0.7"/>
   </g>
   <g id="patch_22">
    <path d="M 208.354267 313.478125 
L 215.730049 313.478125 
L 215.730049 288.772369 
L 208.354267 288.772369 
z
" clip-path="url(#pc3da87ff5a)" style="fill: #1f77b4; opacity: 0.7"/>
   </g>
   <g id="patch_23">
    <path d="M 215.730049 313.478125 
L 223.105831 313.478125 
L 223.105831 295.689981 
L 215.730049 295.689981 
z
" clip-path="url(#pc3da87ff5a)" style="fill: #1f77b4; opacity: 0.7"/>
   </g>
   <g id="patch_24">
    <path d="M 223.105831 313.478125 
L 230.481612 313.478125 
L 230.481612 290.748829 
L 223.105831 290.748829 
z
" clip-path="url(#pc3da87ff5a)" style="fill: #1f77b4; opacity: 0.7"/>
   </g>
   <g id="patch_25">
    <path d="M 230.481612 313.478125 
L 237.857394 313.478125 
L 237.857394 270.984224 
L 230.481612 270.984224 
z
" clip-path="url(#pc3da87ff5a)" style="fill: #1f77b4; opacity: 0.7"/>
   </g>
   <g id="patch_26">
    <path d="M 237.857394 313.478125 
L 245.233176 313.478125 
L 245.233176 279.878297 
L 237.857394 279.878297 
z
" clip-path="url(#pc3da87ff5a)" style="fill: #1f77b4; opacity: 0.7"/>
   </g>
   <g id="patch_27">
    <path d="M 245.233176 313.478125 
L 252.608957 313.478125 
L 252.608957 274.937145 
L 245.233176 274.937145 
z
" clip-path="url(#pc3da87ff5a)" style="fill: #1f77b4; opacity: 0.7"/>
   </g>
   <g id="patch_28">
    <path d="M 252.608957 313.478125 
L 259.984739 313.478125 
L 259.984739 260.113692 
L 252.608957 260.113692 
z
" clip-path="url(#pc3da87ff5a)" style="fill: #1f77b4; opacity: 0.7"/>
   </g>
   <g id="patch_29">
    <path d="M 259.984739 313.478125 
L 267.360521 313.478125 
L 267.360521 285.807678 
L 259.984739 285.807678 
z
" clip-path="url(#pc3da87ff5a)" style="fill: #1f77b4; opacity: 0.7"/>
   </g>
   <g id="patch_30">
    <path d="M 267.360521 313.478125 
L 274.736303 313.478125 
L 274.736303 222.560942 
L 267.360521 222.560942 
z
" clip-path="url(#pc3da87ff5a)" style="fill: #1f77b4; opacity: 0.7"/>
   </g>
   <g id="patch_31">
    <path d="M 274.736303 313.478125 
L 282.112084 313.478125 
L 282.112084 285.807678 
L 274.736303 285.807678 
z
" clip-path="url(#pc3da87ff5a)" style="fill: #1f77b4; opacity: 0.7"/>
   </g>
   <g id="patch_32">
    <path d="M 282.112084 313.478125 
L 289.487866 313.478125 
L 289.487866 266.043073 
L 282.112084 266.043073 
z
" clip-path="url(#pc3da87ff5a)" style="fill: #1f77b4; opacity: 0.7"/>
   </g>
   <g id="patch_33">
    <path d="M 289.487866 313.478125 
L 296.863648 313.478125 
L 296.863648 270.984224 
L 289.487866 270.984224 
z
" clip-path="url(#pc3da87ff5a)" style="fill: #1f77b4; opacity: 0.7"/>
   </g>
   <g id="patch_34">
    <path d="M 296.863648 313.478125 
L 304.239429 313.478125 
L 304.239429 272.960685 
L 296.863648 272.960685 
z
" clip-path="url(#pc3da87ff5a)" style="fill: #1f77b4; opacity: 0.7"/>
   </g>
   <g id="patch_35">
    <path d="M 304.239429 313.478125 
L 311.615211 313.478125 
L 311.615211 281.854757 
L 304.239429 281.854757 
z
" clip-path="url(#pc3da87ff5a)" style="fill: #1f77b4; opacity: 0.7"/>
   </g>
   <g id="patch_36">
    <path d="M 311.615211 313.478125 
L 318.990993 313.478125 
L 318.990993 276.913606 
L 311.615211 276.913606 
z
" clip-path="url(#pc3da87ff5a)" style="fill: #1f77b4; opacity: 0.7"/>
   </g>
   <g id="patch_37">
    <path d="M 318.990993 313.478125 
L 326.366774 313.478125 
L 326.366774 295.689981 
L 318.990993 295.689981 
z
" clip-path="url(#pc3da87ff5a)" style="fill: #1f77b4; opacity: 0.7"/>
   </g>
   <g id="patch_38">
    <path d="M 326.366774 313.478125 
L 333.742556 313.478125 
L 333.742556 290.748829 
L 326.366774 290.748829 
z
" clip-path="url(#pc3da87ff5a)" style="fill: #1f77b4; opacity: 0.7"/>
   </g>
   <g id="patch_39">
    <path d="M 333.742556 313.478125 
L 341.118338 313.478125 
L 341.118338 304.584053 
L 333.742556 304.584053 
z
" clip-path="url(#pc3da87ff5a)" style="fill: #1f77b4; opacity: 0.7"/>
   </g>
   <g id="patch_40">
    <path d="M 341.118338 313.478125 
L 348.49412 313.478125 
L 348.49412 302.607592 
L 341.118338 302.607592 
z
" clip-path="url(#pc3da87ff5a)" style="fill: #1f77b4; opacity: 0.7"/>
   </g>
   <g id="patch_41">
    <path d="M 348.49412 313.478125 
L 355.869901 313.478125 
L 355.869901 305.572283 
L 348.49412 305.572283 
z
" clip-path="url(#pc3da87ff5a)" style="fill: #1f77b4; opacity: 0.7"/>
   </g>
   <g id="patch_42">
    <path d="M 355.869901 313.478125 
L 363.245683 313.478125 
L 363.245683 309.525204 
L 355.869901 309.525204 
z
" clip-path="url(#pc3da87ff5a)" style="fill: #1f77b4; opacity: 0.7"/>
   </g>
   <g id="patch_43">
    <path d="M 363.245683 313.478125 
L 370.621465 313.478125 
L 370.621465 299.642902 
L 363.245683 299.642902 
z
" clip-path="url(#pc3da87ff5a)" style="fill: #1f77b4; opacity: 0.7"/>
   </g>
   <g id="patch_44">
    <path d="M 370.621465 313.478125 
L 377.997246 313.478125 
L 377.997246 306.560513 
L 370.621465 306.560513 
z
" clip-path="url(#pc3da87ff5a)" style="fill: #1f77b4; opacity: 0.7"/>
   </g>
   <g id="patch_45">
    <path d="M 377.997246 313.478125 
L 385.373028 313.478125 
L 385.373028 313.478125 
L 377.997246 313.478125 
z
" clip-path="url(#pc3da87ff5a)" style="fill: #1f77b4; opacity: 0.7"/>
   </g>
   <g id="patch_46">
    <path d="M 385.373028 313.478125 
L 392.74881 313.478125 
L 392.74881 309.525204 
L 385.373028 309.525204 
z
" clip-path="url(#pc3da87ff5a)" style="fill: #1f77b4; opacity: 0.7"/>
   </g>
   <g id="patch_47">
    <path d="M 392.74881 313.478125 
L 400.124591 313.478125 
L 400.124591 311.501665 
L 392.74881 311.501665 
z
" clip-path="url(#pc3da87ff5a)" style="fill: #1f77b4; opacity: 0.7"/>
   </g>
   <g id="patch_48">
    <path d="M 400.124591 313.478125 
L 407.500373 313.478125 
L 407.500373 312.489895 
L 400.124591 312.489895 
z
" clip-path="url(#pc3da87ff5a)" style="fill: #1f77b4; opacity: 0.7"/>
   </g>
   <g id="patch_49">
    <path d="M 407.500373 313.478125 
L 414.876155 313.478125 
L 414.876155 312.489895 
L 407.500373 312.489895 
z
" clip-path="url(#pc3da87ff5a)" style="fill: #1f77b4; opacity: 0.7"/>
   </g>
   <g id="patch_50">
    <path d="M 414.876155 313.478125 
L 422.251936 313.478125 
L 422.251936 313.478125 
L 414.876155 313.478125 
z
" clip-path="url(#pc3da87ff5a)" style="fill: #1f77b4; opacity: 0.7"/>
   </g>
   <g id="patch_51">
    <path d="M 422.251936 313.478125 
L 429.627718 313.478125 
L 429.627718 313.478125 
L 422.251936 313.478125 
z
" clip-path="url(#pc3da87ff5a)" style="fill: #1f77b4; opacity: 0.7"/>
   </g>
   <g id="matplotlib.axis_1">
    <g id="xtick_1">
     <g id="line2d_1">
      <defs>
       <path id="m004a9cfce1" d="M 0 0 
L 0 3.5 
" style="stroke: #000000; stroke-width: 0.8"/>
      </defs>
      <g>
       <use xlink:href="#m004a9cfce1" x="68.214415" y="313.478125" style="stroke: #000000; stroke-width: 0.8"/>
      </g>
     </g>
     <g id="text_1">
      <!-- 0.0 -->
      <g transform="translate(60.262853 328.076563) scale(0.1 -0.1)">
       <defs>
        <path id="DejaVuSans-30" d="M 2034 4250 
Q 1547 4250 1301 3770 
Q 1056 3291 1056 2328 
Q 1056 1369 1301 889 
Q 1547 409 2034 409 
Q 2525 409 2770 889 
Q 3016 1369 3016 2328 
Q 3016 3291 2770 3770 
Q 2525 4250 2034 4250 
z
M 2034 4750 
Q 2819 4750 3233 4129 
Q 3647 3509 3647 2328 
Q 3647 1150 3233 529 
Q 2819 -91 2034 -91 
Q 1250 -91 836 529 
Q 422 1150 422 2328 
Q 422 3509 836 4129 
Q 1250 4750 2034 4750 
z
" transform="scale(0.015625)"/>
        <path id="DejaVuSans-2e" d="M 684 794 
L 1344 794 
L 1344 0 
L 684 0 
L 684 794 
z
" transform="scale(0.015625)"/>
       </defs>
       <use xlink:href="#DejaVuSans-30"/>
       <use xlink:href="#DejaVuSans-2e" transform="translate(63.623047 0)"/>
       <use xlink:href="#DejaVuSans-30" transform="translate(95.410156 0)"/>
      </g>
     </g>
    </g>
    <g id="xtick_2">
     <g id="line2d_2">
      <g>
       <use xlink:href="#m004a9cfce1" x="114.873635" y="313.478125" style="stroke: #000000; stroke-width: 0.8"/>
      </g>
     </g>
     <g id="text_2">
      <!-- 0.1 -->
      <g transform="translate(106.922073 328.076563) scale(0.1 -0.1)">
       <defs>
        <path id="DejaVuSans-31" d="M 794 531 
L 1825 531 
L 1825 4091 
L 703 3866 
L 703 4441 
L 1819 4666 
L 2450 4666 
L 2450 531 
L 3481 531 
L 3481 0 
L 794 0 
L 794 531 
z
" transform="scale(0.015625)"/>
       </defs>
       <use xlink:href="#DejaVuSans-30"/>
       <use xlink:href="#DejaVuSans-2e" transform="translate(63.623047 0)"/>
       <use xlink:href="#DejaVuSans-31" transform="translate(95.410156 0)"/>
      </g>
     </g>
    </g>
    <g id="xtick_3">
     <g id="line2d_3">
      <g>
       <use xlink:href="#m004a9cfce1" x="161.532855" y="313.478125" style="stroke: #000000; stroke-width: 0.8"/>
      </g>
     </g>
     <g id="text_3">
      <!-- 0.2 -->
      <g transform="translate(153.581292 328.076563) scale(0.1 -0.1)">
       <defs>
        <path id="DejaVuSans-32" d="M 1228 531 
L 3431 531 
L 3431 0 
L 469 0 
L 469 531 
Q 828 903 1448 1529 
Q 2069 2156 2228 2338 
Q 2531 2678 2651 2914 
Q 2772 3150 2772 3378 
Q 2772 3750 2511 3984 
Q 2250 4219 1831 4219 
Q 1534 4219 1204 4116 
Q 875 4013 500 3803 
L 500 4441 
Q 881 4594 1212 4672 
Q 1544 4750 1819 4750 
Q 2544 4750 2975 4387 
Q 3406 4025 3406 3419 
Q 3406 3131 3298 2873 
Q 3191 2616 2906 2266 
Q 2828 2175 2409 1742 
Q 1991 1309 1228 531 
z
" transform="scale(0.015625)"/>
       </defs>
       <use xlink:href="#DejaVuSans-30"/>
       <use xlink:href="#DejaVuSans-2e" transform="translate(63.623047 0)"/>
       <use xlink:href="#DejaVuSans-32" transform="translate(95.410156 0)"/>
      </g>
     </g>
    </g>
    <g id="xtick_4">
     <g id="line2d_4">
      <g>
       <use xlink:href="#m004a9cfce1" x="208.192075" y="313.478125" style="stroke: #000000; stroke-width: 0.8"/>
      </g>
     </g>
     <g id="text_4">
      <!-- 0.3 -->
      <g transform="translate(200.240512 328.076563) scale(0.1 -0.1)">
       <defs>
        <path id="DejaVuSans-33" d="M 2597 2516 
Q 3050 2419 3304 2112 
Q 3559 1806 3559 1356 
Q 3559 666 3084 287 
Q 2609 -91 1734 -91 
Q 1441 -91 1130 -33 
Q 819 25 488 141 
L 488 750 
Q 750 597 1062 519 
Q 1375 441 1716 441 
Q 2309 441 2620 675 
Q 2931 909 2931 1356 
Q 2931 1769 2642 2001 
Q 2353 2234 1838 2234 
L 1294 2234 
L 1294 2753 
L 1863 2753 
Q 2328 2753 2575 2939 
Q 2822 3125 2822 3475 
Q 2822 3834 2567 4026 
Q 2313 4219 1838 4219 
Q 1578 4219 1281 4162 
Q 984 4106 628 3988 
L 628 4550 
Q 988 4650 1302 4700 
Q 1616 4750 1894 4750 
Q 2613 4750 3031 4423 
Q 3450 4097 3450 3541 
Q 3450 3153 3228 2886 
Q 3006 2619 2597 2516 
z
" transform="scale(0.015625)"/>
       </defs>
       <use xlink:href="#DejaVuSans-30"/>
       <use xlink:href="#DejaVuSans-2e" transform="translate(63.623047 0)"/>
       <use xlink:href="#DejaVuSans-33" transform="translate(95.410156 0)"/>
      </g>
     </g>
    </g>
    <g id="xtick_5">
     <g id="line2d_5">
      <g>
       <use xlink:href="#m004a9cfce1" x="254.851295" y="313.478125" style="stroke: #000000; stroke-width: 0.8"/>
      </g>
     </g>
     <g id="text_5">
      <!-- 0.4 -->
      <g transform="translate(246.899732 328.076563) scale(0.1 -0.1)">
       <defs>
        <path id="DejaVuSans-34" d="M 2419 4116 
L 825 1625 
L 2419 1625 
L 2419 4116 
z
M 2253 4666 
L 3047 4666 
L 3047 1625 
L 3713 1625 
L 3713 1100 
L 3047 1100 
L 3047 0 
L 2419 0 
L 2419 1100 
L 313 1100 
L 313 1709 
L 2253 4666 
z
" transform="scale(0.015625)"/>
       </defs>
       <use xlink:href="#DejaVuSans-30"/>
       <use xlink:href="#DejaVuSans-2e" transform="translate(63.623047 0)"/>
       <use xlink:href="#DejaVuSans-34" transform="translate(95.410156 0)"/>
      </g>
     </g>
    </g>
    <g id="xtick_6">
     <g id="line2d_6">
      <g>
       <use xlink:href="#m004a9cfce1" x="301.510515" y="313.478125" style="stroke: #000000; stroke-width: 0.8"/>
      </g>
     </g>
     <g id="text_6">
      <!-- 0.5 -->
      <g transform="translate(293.558952 328.076563) scale(0.1 -0.1)">
       <defs>
        <path id="DejaVuSans-35" d="M 691 4666 
L 3169 4666 
L 3169 4134 
L 1269 4134 
L 1269 2991 
Q 1406 3038 1543 3061 
Q 1681 3084 1819 3084 
Q 2600 3084 3056 2656 
Q 3513 2228 3513 1497 
Q 3513 744 3044 326 
Q 2575 -91 1722 -91 
Q 1428 -91 1123 -41 
Q 819 9 494 109 
L 494 744 
Q 775 591 1075 516 
Q 1375 441 1709 441 
Q 2250 441 2565 725 
Q 2881 1009 2881 1497 
Q 2881 1984 2565 2268 
Q 2250 2553 1709 2553 
Q 1456 2553 1204 2497 
Q 953 2441 691 2322 
L 691 4666 
z
" transform="scale(0.015625)"/>
       </defs>
       <use xlink:href="#DejaVuSans-30"/>
       <use xlink:href="#DejaVuSans-2e" transform="translate(63.623047 0)"/>
       <use xlink:href="#DejaVuSans-35" transform="translate(95.410156 0)"/>
      </g>
     </g>
    </g>
    <g id="xtick_7">
     <g id="line2d_7">
      <g>
       <use xlink:href="#m004a9cfce1" x="348.169734" y="313.478125" style="stroke: #000000; stroke-width: 0.8"/>
      </g>
     </g>
     <g id="text_7">
      <!-- 0.6 -->
      <g transform="translate(340.218172 328.076563) scale(0.1 -0.1)">
       <defs>
        <path id="DejaVuSans-36" d="M 2113 2584 
Q 1688 2584 1439 2293 
Q 1191 2003 1191 1497 
Q 1191 994 1439 701 
Q 1688 409 2113 409 
Q 2538 409 2786 701 
Q 3034 994 3034 1497 
Q 3034 2003 2786 2293 
Q 2538 2584 2113 2584 
z
M 3366 4563 
L 3366 3988 
Q 3128 4100 2886 4159 
Q 2644 4219 2406 4219 
Q 1781 4219 1451 3797 
Q 1122 3375 1075 2522 
Q 1259 2794 1537 2939 
Q 1816 3084 2150 3084 
Q 2853 3084 3261 2657 
Q 3669 2231 3669 1497 
Q 3669 778 3244 343 
Q 2819 -91 2113 -91 
Q 1303 -91 875 529 
Q 447 1150 447 2328 
Q 447 3434 972 4092 
Q 1497 4750 2381 4750 
Q 2619 4750 2861 4703 
Q 3103 4656 3366 4563 
z
" transform="scale(0.015625)"/>
       </defs>
       <use xlink:href="#DejaVuSans-30"/>
       <use xlink:href="#DejaVuSans-2e" transform="translate(63.623047 0)"/>
       <use xlink:href="#DejaVuSans-36" transform="translate(95.410156 0)"/>
      </g>
     </g>
    </g>
    <g id="xtick_8">
     <g id="line2d_8">
      <g>
       <use xlink:href="#m004a9cfce1" x="394.828954" y="313.478125" style="stroke: #000000; stroke-width: 0.8"/>
      </g>
     </g>
     <g id="text_8">
      <!-- 0.7 -->
      <g transform="translate(386.877392 328.076563) scale(0.1 -0.1)">
       <defs>
        <path id="DejaVuSans-37" d="M 525 4666 
L 3525 4666 
L 3525 4397 
L 1831 0 
L 1172 0 
L 2766 4134 
L 525 4134 
L 525 4666 
z
" transform="scale(0.015625)"/>
       </defs>
       <use xlink:href="#DejaVuSans-30"/>
       <use xlink:href="#DejaVuSans-2e" transform="translate(63.623047 0)"/>
       <use xlink:href="#DejaVuSans-37" transform="translate(95.410156 0)"/>
      </g>
     </g>
    </g>
    <g id="xtick_9">
     <g id="line2d_9">
      <g>
       <use xlink:href="#m004a9cfce1" x="441.488174" y="313.478125" style="stroke: #000000; stroke-width: 0.8"/>
      </g>
     </g>
     <g id="text_9">
      <!-- 0.8 -->
      <g transform="translate(433.536612 328.076563) scale(0.1 -0.1)">
       <defs>
        <path id="DejaVuSans-38" d="M 2034 2216 
Q 1584 2216 1326 1975 
Q 1069 1734 1069 1313 
Q 1069 891 1326 650 
Q 1584 409 2034 409 
Q 2484 409 2743 651 
Q 3003 894 3003 1313 
Q 3003 1734 2745 1975 
Q 2488 2216 2034 2216 
z
M 1403 2484 
Q 997 2584 770 2862 
Q 544 3141 544 3541 
Q 544 4100 942 4425 
Q 1341 4750 2034 4750 
Q 2731 4750 3128 4425 
Q 3525 4100 3525 3541 
Q 3525 3141 3298 2862 
Q 3072 2584 2669 2484 
Q 3125 2378 3379 2068 
Q 3634 1759 3634 1313 
Q 3634 634 3220 271 
Q 2806 -91 2034 -91 
Q 1263 -91 848 271 
Q 434 634 434 1313 
Q 434 1759 690 2068 
Q 947 2378 1403 2484 
z
M 1172 3481 
Q 1172 3119 1398 2916 
Q 1625 2713 2034 2713 
Q 2441 2713 2670 2916 
Q 2900 3119 2900 3481 
Q 2900 3844 2670 4047 
Q 2441 4250 2034 4250 
Q 1625 4250 1398 4047 
Q 1172 3844 1172 3481 
z
" transform="scale(0.015625)"/>
       </defs>
       <use xlink:href="#DejaVuSans-30"/>
       <use xlink:href="#DejaVuSans-2e" transform="translate(63.623047 0)"/>
       <use xlink:href="#DejaVuSans-38" transform="translate(95.410156 0)"/>
      </g>
     </g>
    </g>
    <g id="text_10">
     <!-- LCC -->
     <g transform="translate(239.152317 341.754687) scale(0.1 -0.1)">
      <defs>
       <path id="DejaVuSans-4c" d="M 628 4666 
L 1259 4666 
L 1259 531 
L 3531 531 
L 3531 0 
L 628 0 
L 628 4666 
z
" transform="scale(0.015625)"/>
       <path id="DejaVuSans-43" d="M 4122 4306 
L 4122 3641 
Q 3803 3938 3442 4084 
Q 3081 4231 2675 4231 
Q 1875 4231 1450 3742 
Q 1025 3253 1025 2328 
Q 1025 1406 1450 917 
Q 1875 428 2675 428 
Q 3081 428 3442 575 
Q 3803 722 4122 1019 
L 4122 359 
Q 3791 134 3420 21 
Q 3050 -91 2638 -91 
Q 1578 -91 968 557 
Q 359 1206 359 2328 
Q 359 3453 968 4101 
Q 1578 4750 2638 4750 
Q 3056 4750 3426 4639 
Q 3797 4528 4122 4306 
z
" transform="scale(0.015625)"/>
      </defs>
      <use xlink:href="#DejaVuSans-4c"/>
      <use xlink:href="#DejaVuSans-43" transform="translate(55.712891 0)"/>
      <use xlink:href="#DejaVuSans-43" transform="translate(125.537109 0)"/>
     </g>
    </g>
   </g>
   <g id="matplotlib.axis_2">
    <g id="ytick_1">
     <g id="line2d_10">
      <defs>
       <path id="m20c7013f6e" d="M 0 0 
L -3.5 0 
" style="stroke: #000000; stroke-width: 0.8"/>
      </defs>
      <g>
       <use xlink:href="#m20c7013f6e" x="50.14375" y="313.478125" style="stroke: #000000; stroke-width: 0.8"/>
      </g>
     </g>
     <g id="text_11">
      <!-- 0.0 -->
      <g transform="translate(27.240625 317.277344) scale(0.1 -0.1)">
       <use xlink:href="#DejaVuSans-30"/>
       <use xlink:href="#DejaVuSans-2e" transform="translate(63.623047 0)"/>
       <use xlink:href="#DejaVuSans-30" transform="translate(95.410156 0)"/>
      </g>
     </g>
    </g>
    <g id="ytick_2">
     <g id="line2d_11">
      <g>
       <use xlink:href="#m20c7013f6e" x="50.14375" y="274.189511" style="stroke: #000000; stroke-width: 0.8"/>
      </g>
     </g>
     <g id="text_12">
      <!-- 2.5 -->
      <g transform="translate(27.240625 277.988729) scale(0.1 -0.1)">
       <use xlink:href="#DejaVuSans-32"/>
       <use xlink:href="#DejaVuSans-2e" transform="translate(63.623047 0)"/>
       <use xlink:href="#DejaVuSans-35" transform="translate(95.410156 0)"/>
      </g>
     </g>
    </g>
    <g id="ytick_3">
     <g id="line2d_12">
      <g>
       <use xlink:href="#m20c7013f6e" x="50.14375" y="234.900896" style="stroke: #000000; stroke-width: 0.8"/>
      </g>
     </g>
     <g id="text_13">
      <!-- 5.0 -->
      <g transform="translate(27.240625 238.700115) scale(0.1 -0.1)">
       <use xlink:href="#DejaVuSans-35"/>
       <use xlink:href="#DejaVuSans-2e" transform="translate(63.623047 0)"/>
       <use xlink:href="#DejaVuSans-30" transform="translate(95.410156 0)"/>
      </g>
     </g>
    </g>
    <g id="ytick_4">
     <g id="line2d_13">
      <g>
       <use xlink:href="#m20c7013f6e" x="50.14375" y="195.612282" style="stroke: #000000; stroke-width: 0.8"/>
      </g>
     </g>
     <g id="text_14">
      <!-- 7.5 -->
      <g transform="translate(27.240625 199.4115) scale(0.1 -0.1)">
       <use xlink:href="#DejaVuSans-37"/>
       <use xlink:href="#DejaVuSans-2e" transform="translate(63.623047 0)"/>
       <use xlink:href="#DejaVuSans-35" transform="translate(95.410156 0)"/>
      </g>
     </g>
    </g>
    <g id="ytick_5">
     <g id="line2d_14">
      <g>
       <use xlink:href="#m20c7013f6e" x="50.14375" y="156.323667" style="stroke: #000000; stroke-width: 0.8"/>
      </g>
     </g>
     <g id="text_15">
      <!-- 10.0 -->
      <g transform="translate(20.878125 160.122886) scale(0.1 -0.1)">
       <use xlink:href="#DejaVuSans-31"/>
       <use xlink:href="#DejaVuSans-30" transform="translate(63.623047 0)"/>
       <use xlink:href="#DejaVuSans-2e" transform="translate(127.246094 0)"/>
       <use xlink:href="#DejaVuSans-30" transform="translate(159.033203 0)"/>
      </g>
     </g>
    </g>
    <g id="ytick_6">
     <g id="line2d_15">
      <g>
       <use xlink:href="#m20c7013f6e" x="50.14375" y="117.035053" style="stroke: #000000; stroke-width: 0.8"/>
      </g>
     </g>
     <g id="text_16">
      <!-- 12.5 -->
      <g transform="translate(20.878125 120.834272) scale(0.1 -0.1)">
       <use xlink:href="#DejaVuSans-31"/>
       <use xlink:href="#DejaVuSans-32" transform="translate(63.623047 0)"/>
       <use xlink:href="#DejaVuSans-2e" transform="translate(127.246094 0)"/>
       <use xlink:href="#DejaVuSans-35" transform="translate(159.033203 0)"/>
      </g>
     </g>
    </g>
    <g id="ytick_7">
     <g id="line2d_16">
      <g>
       <use xlink:href="#m20c7013f6e" x="50.14375" y="77.746438" style="stroke: #000000; stroke-width: 0.8"/>
      </g>
     </g>
     <g id="text_17">
      <!-- 15.0 -->
      <g transform="translate(20.878125 81.545657) scale(0.1 -0.1)">
       <use xlink:href="#DejaVuSans-31"/>
       <use xlink:href="#DejaVuSans-35" transform="translate(63.623047 0)"/>
       <use xlink:href="#DejaVuSans-2e" transform="translate(127.246094 0)"/>
       <use xlink:href="#DejaVuSans-30" transform="translate(159.033203 0)"/>
      </g>
     </g>
    </g>
    <g id="ytick_8">
     <g id="line2d_17">
      <g>
       <use xlink:href="#m20c7013f6e" x="50.14375" y="38.457824" style="stroke: #000000; stroke-width: 0.8"/>
      </g>
     </g>
     <g id="text_18">
      <!-- 17.5 -->
      <g transform="translate(20.878125 42.257043) scale(0.1 -0.1)">
       <use xlink:href="#DejaVuSans-31"/>
       <use xlink:href="#DejaVuSans-37" transform="translate(63.623047 0)"/>
       <use xlink:href="#DejaVuSans-2e" transform="translate(127.246094 0)"/>
       <use xlink:href="#DejaVuSans-35" transform="translate(159.033203 0)"/>
      </g>
     </g>
    </g>
    <g id="text_19">
     <!-- Density -->
     <g transform="translate(14.798438 186.906719) rotate(-90) scale(0.1 -0.1)">
      <defs>
       <path id="DejaVuSans-44" d="M 1259 4147 
L 1259 519 
L 2022 519 
Q 2988 519 3436 956 
Q 3884 1394 3884 2338 
Q 3884 3275 3436 3711 
Q 2988 4147 2022 4147 
L 1259 4147 
z
M 628 4666 
L 1925 4666 
Q 3281 4666 3915 4102 
Q 4550 3538 4550 2338 
Q 4550 1131 3912 565 
Q 3275 0 1925 0 
L 628 0 
L 628 4666 
z
" transform="scale(0.015625)"/>
       <path id="DejaVuSans-65" d="M 3597 1894 
L 3597 1613 
L 953 1613 
Q 991 1019 1311 708 
Q 1631 397 2203 397 
Q 2534 397 2845 478 
Q 3156 559 3463 722 
L 3463 178 
Q 3153 47 2828 -22 
Q 2503 -91 2169 -91 
Q 1331 -91 842 396 
Q 353 884 353 1716 
Q 353 2575 817 3079 
Q 1281 3584 2069 3584 
Q 2775 3584 3186 3129 
Q 3597 2675 3597 1894 
z
M 3022 2063 
Q 3016 2534 2758 2815 
Q 2500 3097 2075 3097 
Q 1594 3097 1305 2825 
Q 1016 2553 972 2059 
L 3022 2063 
z
" transform="scale(0.015625)"/>
       <path id="DejaVuSans-6e" d="M 3513 2113 
L 3513 0 
L 2938 0 
L 2938 2094 
Q 2938 2591 2744 2837 
Q 2550 3084 2163 3084 
Q 1697 3084 1428 2787 
Q 1159 2491 1159 1978 
L 1159 0 
L 581 0 
L 581 3500 
L 1159 3500 
L 1159 2956 
Q 1366 3272 1645 3428 
Q 1925 3584 2291 3584 
Q 2894 3584 3203 3211 
Q 3513 2838 3513 2113 
z
" transform="scale(0.015625)"/>
       <path id="DejaVuSans-73" d="M 2834 3397 
L 2834 2853 
Q 2591 2978 2328 3040 
Q 2066 3103 1784 3103 
Q 1356 3103 1142 2972 
Q 928 2841 928 2578 
Q 928 2378 1081 2264 
Q 1234 2150 1697 2047 
L 1894 2003 
Q 2506 1872 2764 1633 
Q 3022 1394 3022 966 
Q 3022 478 2636 193 
Q 2250 -91 1575 -91 
Q 1294 -91 989 -36 
Q 684 19 347 128 
L 347 722 
Q 666 556 975 473 
Q 1284 391 1588 391 
Q 1994 391 2212 530 
Q 2431 669 2431 922 
Q 2431 1156 2273 1281 
Q 2116 1406 1581 1522 
L 1381 1569 
Q 847 1681 609 1914 
Q 372 2147 372 2553 
Q 372 3047 722 3315 
Q 1072 3584 1716 3584 
Q 2034 3584 2315 3537 
Q 2597 3491 2834 3397 
z
" transform="scale(0.015625)"/>
       <path id="DejaVuSans-69" d="M 603 3500 
L 1178 3500 
L 1178 0 
L 603 0 
L 603 3500 
z
M 603 4863 
L 1178 4863 
L 1178 4134 
L 603 4134 
L 603 4863 
z
" transform="scale(0.015625)"/>
       <path id="DejaVuSans-74" d="M 1172 4494 
L 1172 3500 
L 2356 3500 
L 2356 3053 
L 1172 3053 
L 1172 1153 
Q 1172 725 1289 603 
Q 1406 481 1766 481 
L 2356 481 
L 2356 0 
L 1766 0 
Q 1100 0 847 248 
Q 594 497 594 1153 
L 594 3053 
L 172 3053 
L 172 3500 
L 594 3500 
L 594 4494 
L 1172 4494 
z
" transform="scale(0.015625)"/>
       <path id="DejaVuSans-79" d="M 2059 -325 
Q 1816 -950 1584 -1140 
Q 1353 -1331 966 -1331 
L 506 -1331 
L 506 -850 
L 844 -850 
Q 1081 -850 1212 -737 
Q 1344 -625 1503 -206 
L 1606 56 
L 191 3500 
L 800 3500 
L 1894 763 
L 2988 3500 
L 3597 3500 
L 2059 -325 
z
" transform="scale(0.015625)"/>
      </defs>
      <use xlink:href="#DejaVuSans-44"/>
      <use xlink:href="#DejaVuSans-65" transform="translate(77.001953 0)"/>
      <use xlink:href="#DejaVuSans-6e" transform="translate(138.525391 0)"/>
      <use xlink:href="#DejaVuSans-73" transform="translate(201.904297 0)"/>
      <use xlink:href="#DejaVuSans-69" transform="translate(254.003906 0)"/>
      <use xlink:href="#DejaVuSans-74" transform="translate(281.787109 0)"/>
      <use xlink:href="#DejaVuSans-79" transform="translate(320.996094 0)"/>
     </g>
    </g>
   </g>
   <g id="patch_52">
    <path d="M 50.14375 313.478125 
L 50.14375 22.318125 
" style="fill: none; stroke: #000000; stroke-width: 0.8; stroke-linejoin: miter; stroke-linecap: square"/>
   </g>
   <g id="patch_53">
    <path d="M 447.698383 313.478125 
L 447.698383 22.318125 
" style="fill: none; stroke: #000000; stroke-width: 0.8; stroke-linejoin: miter; stroke-linecap: square"/>
   </g>
   <g id="patch_54">
    <path d="M 50.14375 313.478125 
L 447.698383 313.478125 
" style="fill: none; stroke: #000000; stroke-width: 0.8; stroke-linejoin: miter; stroke-linecap: square"/>
   </g>
   <g id="patch_55">
    <path d="M 50.14375 22.318125 
L 447.698383 22.318125 
" style="fill: none; stroke: #000000; stroke-width: 0.8; stroke-linejoin: miter; stroke-linecap: square"/>
   </g>
   <g id="text_20">
    <!-- Reference -->
    <g transform="translate(218.709192 16.318125) scale(0.12 -0.12)">
     <defs>
      <path id="DejaVuSans-52" d="M 2841 2188 
Q 3044 2119 3236 1894 
Q 3428 1669 3622 1275 
L 4263 0 
L 3584 0 
L 2988 1197 
Q 2756 1666 2539 1819 
Q 2322 1972 1947 1972 
L 1259 1972 
L 1259 0 
L 628 0 
L 628 4666 
L 2053 4666 
Q 2853 4666 3247 4331 
Q 3641 3997 3641 3322 
Q 3641 2881 3436 2590 
Q 3231 2300 2841 2188 
z
M 1259 4147 
L 1259 2491 
L 2053 2491 
Q 2509 2491 2742 2702 
Q 2975 2913 2975 3322 
Q 2975 3731 2742 3939 
Q 2509 4147 2053 4147 
L 1259 4147 
z
" transform="scale(0.015625)"/>
      <path id="DejaVuSans-66" d="M 2375 4863 
L 2375 4384 
L 1825 4384 
Q 1516 4384 1395 4259 
Q 1275 4134 1275 3809 
L 1275 3500 
L 2222 3500 
L 2222 3053 
L 1275 3053 
L 1275 0 
L 697 0 
L 697 3053 
L 147 3053 
L 147 3500 
L 697 3500 
L 697 3744 
Q 697 4328 969 4595 
Q 1241 4863 1831 4863 
L 2375 4863 
z
" transform="scale(0.015625)"/>
      <path id="DejaVuSans-72" d="M 2631 2963 
Q 2534 3019 2420 3045 
Q 2306 3072 2169 3072 
Q 1681 3072 1420 2755 
Q 1159 2438 1159 1844 
L 1159 0 
L 581 0 
L 581 3500 
L 1159 3500 
L 1159 2956 
Q 1341 3275 1631 3429 
Q 1922 3584 2338 3584 
Q 2397 3584 2469 3576 
Q 2541 3569 2628 3553 
L 2631 2963 
z
" transform="scale(0.015625)"/>
      <path id="DejaVuSans-63" d="M 3122 3366 
L 3122 2828 
Q 2878 2963 2633 3030 
Q 2388 3097 2138 3097 
Q 1578 3097 1268 2742 
Q 959 2388 959 1747 
Q 959 1106 1268 751 
Q 1578 397 2138 397 
Q 2388 397 2633 464 
Q 2878 531 3122 666 
L 3122 134 
Q 2881 22 2623 -34 
Q 2366 -91 2075 -91 
Q 1284 -91 818 406 
Q 353 903 353 1747 
Q 353 2603 823 3093 
Q 1294 3584 2113 3584 
Q 2378 3584 2631 3529 
Q 2884 3475 3122 3366 
z
" transform="scale(0.015625)"/>
     </defs>
     <use xlink:href="#DejaVuSans-52"/>
     <use xlink:href="#DejaVuSans-65" transform="translate(64.982422 0)"/>
     <use xlink:href="#DejaVuSans-66" transform="translate(126.505859 0)"/>
     <use xlink:href="#DejaVuSans-65" transform="translate(161.710938 0)"/>
     <use xlink:href="#DejaVuSans-72" transform="translate(223.234375 0)"/>
     <use xlink:href="#DejaVuSans-65" transform="translate(262.097656 0)"/>
     <use xlink:href="#DejaVuSans-6e" transform="translate(323.621094 0)"/>
     <use xlink:href="#DejaVuSans-63" transform="translate(387 0)"/>
     <use xlink:href="#DejaVuSans-65" transform="translate(441.980469 0)"/>
    </g>
   </g>
  </g>
  <g id="axes_2">
   <g id="patch_56">
    <path d="M 465.30375 313.478125 
L 862.858383 313.478125 
L 862.858383 22.318125 
L 465.30375 22.318125 
z
" style="fill: #ffffff"/>
   </g>
   <g id="patch_57">
    <path d="M 483.374415 313.478125 
L 490.750197 313.478125 
L 490.750197 313.478125 
L 483.374415 313.478125 
z
" clip-path="url(#p5baeb02971)" style="fill: #1f77b4; opacity: 0.7"/>
   </g>
   <g id="patch_58">
    <path d="M 490.750197 313.478125 
L 498.125979 313.478125 
L 498.125979 313.478125 
L 490.750197 313.478125 
z
" clip-path="url(#p5baeb02971)" style="fill: #1f77b4; opacity: 0.7"/>
   </g>
   <g id="patch_59">
    <path d="M 498.125979 313.478125 
L 505.50176 313.478125 
L 505.50176 313.478125 
L 498.125979 313.478125 
z
" clip-path="url(#p5baeb02971)" style="fill: #1f77b4; opacity: 0.7"/>
   </g>
   <g id="patch_60">
    <path d="M 505.50176 313.478125 
L 512.877542 313.478125 
L 512.877542 313.478125 
L 505.50176 313.478125 
z
" clip-path="url(#p5baeb02971)" style="fill: #1f77b4; opacity: 0.7"/>
   </g>
   <g id="patch_61">
    <path d="M 512.877542 313.478125 
L 520.253324 313.478125 
L 520.253324 313.259868 
L 512.877542 313.259868 
z
" clip-path="url(#p5baeb02971)" style="fill: #1f77b4; opacity: 0.7"/>
   </g>
   <g id="patch_62">
    <path d="M 520.253324 313.478125 
L 527.629105 313.478125 
L 527.629105 313.041611 
L 520.253324 313.041611 
z
" clip-path="url(#p5baeb02971)" style="fill: #1f77b4; opacity: 0.7"/>
   </g>
   <g id="patch_63">
    <path d="M 527.629105 313.478125 
L 535.004887 313.478125 
L 535.004887 312.823355 
L 527.629105 312.823355 
z
" clip-path="url(#p5baeb02971)" style="fill: #1f77b4; opacity: 0.7"/>
   </g>
   <g id="patch_64">
    <path d="M 535.004887 313.478125 
L 542.380669 313.478125 
L 542.380669 310.968172 
L 535.004887 310.968172 
z
" clip-path="url(#p5baeb02971)" style="fill: #1f77b4; opacity: 0.7"/>
   </g>
   <g id="patch_65">
    <path d="M 542.380669 313.478125 
L 549.75645 313.478125 
L 549.75645 312.168584 
L 542.380669 312.168584 
z
" clip-path="url(#p5baeb02971)" style="fill: #1f77b4; opacity: 0.7"/>
   </g>
   <g id="patch_66">
    <path d="M 549.75645 313.478125 
L 557.132232 313.478125 
L 557.132232 305.620881 
L 549.75645 305.620881 
z
" clip-path="url(#p5baeb02971)" style="fill: #1f77b4; opacity: 0.7"/>
   </g>
   <g id="patch_67">
    <path d="M 557.132232 313.478125 
L 564.508014 313.478125 
L 564.508014 306.930422 
L 557.132232 306.930422 
z
" clip-path="url(#p5baeb02971)" style="fill: #1f77b4; opacity: 0.7"/>
   </g>
   <g id="patch_68">
    <path d="M 564.508014 313.478125 
L 571.883795 313.478125 
L 571.883795 262.406039 
L 564.508014 262.406039 
z
" clip-path="url(#p5baeb02971)" style="fill: #1f77b4; opacity: 0.7"/>
   </g>
   <g id="patch_69">
    <path d="M 571.883795 313.478125 
L 579.259577 313.478125 
L 579.259577 239.598205 
L 571.883795 239.598205 
z
" clip-path="url(#p5baeb02971)" style="fill: #1f77b4; opacity: 0.7"/>
   </g>
   <g id="patch_70">
    <path d="M 579.259577 313.478125 
L 586.635359 313.478125 
L 586.635359 147.384716 
L 579.259577 147.384716 
z
" clip-path="url(#p5baeb02971)" style="fill: #1f77b4; opacity: 0.7"/>
   </g>
   <g id="patch_71">
    <path d="M 586.635359 313.478125 
L 594.011141 313.478125 
L 594.011141 36.182887 
L 586.635359 36.182887 
z
" clip-path="url(#p5baeb02971)" style="fill: #1f77b4; opacity: 0.7"/>
   </g>
   <g id="patch_72">
    <path d="M 594.011141 313.478125 
L 601.386922 313.478125 
L 601.386922 281.066993 
L 594.011141 281.066993 
z
" clip-path="url(#p5baeb02971)" style="fill: #1f77b4; opacity: 0.7"/>
   </g>
   <g id="patch_73">
    <path d="M 601.386922 313.478125 
L 608.762704 313.478125 
L 608.762704 208.933128 
L 601.386922 208.933128 
z
" clip-path="url(#p5baeb02971)" style="fill: #1f77b4; opacity: 0.7"/>
   </g>
   <g id="patch_74">
    <path d="M 608.762704 313.478125 
L 616.138486 313.478125 
L 616.138486 312.714226 
L 608.762704 312.714226 
z
" clip-path="url(#p5baeb02971)" style="fill: #1f77b4; opacity: 0.7"/>
   </g>
   <g id="patch_75">
    <path d="M 616.138486 313.478125 
L 623.514267 313.478125 
L 623.514267 310.640787 
L 616.138486 310.640787 
z
" clip-path="url(#p5baeb02971)" style="fill: #1f77b4; opacity: 0.7"/>
   </g>
   <g id="patch_76">
    <path d="M 623.514267 313.478125 
L 630.890049 313.478125 
L 630.890049 309.876888 
L 623.514267 309.876888 
z
" clip-path="url(#p5baeb02971)" style="fill: #1f77b4; opacity: 0.7"/>
   </g>
   <g id="patch_77">
    <path d="M 630.890049 313.478125 
L 638.265831 313.478125 
L 638.265831 312.168584 
L 630.890049 312.168584 
z
" clip-path="url(#p5baeb02971)" style="fill: #1f77b4; opacity: 0.7"/>
   </g>
   <g id="patch_78">
    <path d="M 638.265831 313.478125 
L 645.641612 313.478125 
L 645.641612 307.69432 
L 638.265831 307.69432 
z
" clip-path="url(#p5baeb02971)" style="fill: #1f77b4; opacity: 0.7"/>
   </g>
   <g id="patch_79">
    <path d="M 645.641612 313.478125 
L 653.017394 313.478125 
L 653.017394 301.692259 
L 645.641612 301.692259 
z
" clip-path="url(#p5baeb02971)" style="fill: #1f77b4; opacity: 0.7"/>
   </g>
   <g id="patch_80">
    <path d="M 653.017394 313.478125 
L 660.393176 313.478125 
L 660.393176 291.43419 
L 653.017394 291.43419 
z
" clip-path="url(#p5baeb02971)" style="fill: #1f77b4; opacity: 0.7"/>
   </g>
   <g id="patch_81">
    <path d="M 660.393176 313.478125 
L 667.768957 313.478125 
L 667.768957 309.112989 
L 660.393176 309.112989 
z
" clip-path="url(#p5baeb02971)" style="fill: #1f77b4; opacity: 0.7"/>
   </g>
   <g id="patch_82">
    <path d="M 667.768957 313.478125 
L 675.144739 313.478125 
L 675.144739 275.283189 
L 667.768957 275.283189 
z
" clip-path="url(#p5baeb02971)" style="fill: #1f77b4; opacity: 0.7"/>
   </g>
   <g id="patch_83">
    <path d="M 675.144739 313.478125 
L 682.520521 313.478125 
L 682.520521 300.819232 
L 675.144739 300.819232 
z
" clip-path="url(#p5baeb02971)" style="fill: #1f77b4; opacity: 0.7"/>
   </g>
   <g id="patch_84">
    <path d="M 682.520521 313.478125 
L 689.896303 313.478125 
L 689.896303 257.931775 
L 682.520521 257.931775 
z
" clip-path="url(#p5baeb02971)" style="fill: #1f77b4; opacity: 0.7"/>
   </g>
   <g id="patch_85">
    <path d="M 689.896303 313.478125 
L 697.272084 313.478125 
L 697.272084 310.42253 
L 689.896303 310.42253 
z
" clip-path="url(#p5baeb02971)" style="fill: #1f77b4; opacity: 0.7"/>
   </g>
   <g id="patch_86">
    <path d="M 697.272084 313.478125 
L 704.647866 313.478125 
L 704.647866 247.018936 
L 697.272084 247.018936 
z
" clip-path="url(#p5baeb02971)" style="fill: #1f77b4; opacity: 0.7"/>
   </g>
   <g id="patch_87">
    <path d="M 704.647866 313.478125 
L 712.023648 313.478125 
L 712.023648 303.110928 
L 704.647866 303.110928 
z
" clip-path="url(#p5baeb02971)" style="fill: #1f77b4; opacity: 0.7"/>
   </g>
   <g id="patch_88">
    <path d="M 712.023648 313.478125 
L 719.399429 313.478125 
L 719.399429 305.620881 
L 712.023648 305.620881 
z
" clip-path="url(#p5baeb02971)" style="fill: #1f77b4; opacity: 0.7"/>
   </g>
   <g id="patch_89">
    <path d="M 719.399429 313.478125 
L 726.775211 313.478125 
L 726.775211 310.749915 
L 719.399429 310.749915 
z
" clip-path="url(#p5baeb02971)" style="fill: #1f77b4; opacity: 0.7"/>
   </g>
   <g id="patch_90">
    <path d="M 726.775211 313.478125 
L 734.150993 313.478125 
L 734.150993 311.295557 
L 726.775211 311.295557 
z
" clip-path="url(#p5baeb02971)" style="fill: #1f77b4; opacity: 0.7"/>
   </g>
   <g id="patch_91">
    <path d="M 734.150993 313.478125 
L 741.526774 313.478125 
L 741.526774 312.168584 
L 734.150993 312.168584 
z
" clip-path="url(#p5baeb02971)" style="fill: #1f77b4; opacity: 0.7"/>
   </g>
   <g id="patch_92">
    <path d="M 741.526774 313.478125 
L 748.902556 313.478125 
L 748.902556 308.785604 
L 741.526774 308.785604 
z
" clip-path="url(#p5baeb02971)" style="fill: #1f77b4; opacity: 0.7"/>
   </g>
   <g id="patch_93">
    <path d="M 748.902556 313.478125 
L 756.278338 313.478125 
L 756.278338 312.932483 
L 748.902556 312.932483 
z
" clip-path="url(#p5baeb02971)" style="fill: #1f77b4; opacity: 0.7"/>
   </g>
   <g id="patch_94">
    <path d="M 756.278338 313.478125 
L 763.65412 313.478125 
L 763.65412 311.513814 
L 756.278338 311.513814 
z
" clip-path="url(#p5baeb02971)" style="fill: #1f77b4; opacity: 0.7"/>
   </g>
   <g id="patch_95">
    <path d="M 763.65412 313.478125 
L 771.029901 313.478125 
L 771.029901 310.313402 
L 763.65412 310.313402 
z
" clip-path="url(#p5baeb02971)" style="fill: #1f77b4; opacity: 0.7"/>
   </g>
   <g id="patch_96">
    <path d="M 771.029901 313.478125 
L 778.405683 313.478125 
L 778.405683 311.950328 
L 771.029901 311.950328 
z
" clip-path="url(#p5baeb02971)" style="fill: #1f77b4; opacity: 0.7"/>
   </g>
   <g id="patch_97">
    <path d="M 778.405683 313.478125 
L 785.781465 313.478125 
L 785.781465 311.186429 
L 778.405683 311.186429 
z
" clip-path="url(#p5baeb02971)" style="fill: #1f77b4; opacity: 0.7"/>
   </g>
   <g id="patch_98">
    <path d="M 785.781465 313.478125 
L 793.157246 313.478125 
L 793.157246 313.15074 
L 785.781465 313.15074 
z
" clip-path="url(#p5baeb02971)" style="fill: #1f77b4; opacity: 0.7"/>
   </g>
   <g id="patch_99">
    <path d="M 793.157246 313.478125 
L 800.533028 313.478125 
L 800.533028 313.368997 
L 793.157246 313.368997 
z
" clip-path="url(#p5baeb02971)" style="fill: #1f77b4; opacity: 0.7"/>
   </g>
   <g id="patch_100">
    <path d="M 800.533028 313.478125 
L 807.90881 313.478125 
L 807.90881 313.259868 
L 800.533028 313.259868 
z
" clip-path="url(#p5baeb02971)" style="fill: #1f77b4; opacity: 0.7"/>
   </g>
   <g id="patch_101">
    <path d="M 807.90881 313.478125 
L 815.284591 313.478125 
L 815.284591 311.950328 
L 807.90881 311.950328 
z
" clip-path="url(#p5baeb02971)" style="fill: #1f77b4; opacity: 0.7"/>
   </g>
   <g id="patch_102">
    <path d="M 815.284591 313.478125 
L 822.660373 313.478125 
L 822.660373 313.478125 
L 815.284591 313.478125 
z
" clip-path="url(#p5baeb02971)" style="fill: #1f77b4; opacity: 0.7"/>
   </g>
   <g id="patch_103">
    <path d="M 822.660373 313.478125 
L 830.036155 313.478125 
L 830.036155 313.368997 
L 822.660373 313.368997 
z
" clip-path="url(#p5baeb02971)" style="fill: #1f77b4; opacity: 0.7"/>
   </g>
   <g id="patch_104">
    <path d="M 830.036155 313.478125 
L 837.411936 313.478125 
L 837.411936 313.478125 
L 830.036155 313.478125 
z
" clip-path="url(#p5baeb02971)" style="fill: #1f77b4; opacity: 0.7"/>
   </g>
   <g id="patch_105">
    <path d="M 837.411936 313.478125 
L 844.787718 313.478125 
L 844.787718 313.478125 
L 837.411936 313.478125 
z
" clip-path="url(#p5baeb02971)" style="fill: #1f77b4; opacity: 0.7"/>
   </g>
   <g id="matplotlib.axis_3">
    <g id="xtick_10">
     <g id="line2d_18">
      <g>
       <use xlink:href="#m004a9cfce1" x="483.374415" y="313.478125" style="stroke: #000000; stroke-width: 0.8"/>
      </g>
     </g>
     <g id="text_21">
      <!-- 0.0 -->
      <g transform="translate(475.422853 328.076563) scale(0.1 -0.1)">
       <use xlink:href="#DejaVuSans-30"/>
       <use xlink:href="#DejaVuSans-2e" transform="translate(63.623047 0)"/>
       <use xlink:href="#DejaVuSans-30" transform="translate(95.410156 0)"/>
      </g>
     </g>
    </g>
    <g id="xtick_11">
     <g id="line2d_19">
      <g>
       <use xlink:href="#m004a9cfce1" x="530.033635" y="313.478125" style="stroke: #000000; stroke-width: 0.8"/>
      </g>
     </g>
     <g id="text_22">
      <!-- 0.1 -->
      <g transform="translate(522.082073 328.076563) scale(0.1 -0.1)">
       <use xlink:href="#DejaVuSans-30"/>
       <use xlink:href="#DejaVuSans-2e" transform="translate(63.623047 0)"/>
       <use xlink:href="#DejaVuSans-31" transform="translate(95.410156 0)"/>
      </g>
     </g>
    </g>
    <g id="xtick_12">
     <g id="line2d_20">
      <g>
       <use xlink:href="#m004a9cfce1" x="576.692855" y="313.478125" style="stroke: #000000; stroke-width: 0.8"/>
      </g>
     </g>
     <g id="text_23">
      <!-- 0.2 -->
      <g transform="translate(568.741292 328.076563) scale(0.1 -0.1)">
       <use xlink:href="#DejaVuSans-30"/>
       <use xlink:href="#DejaVuSans-2e" transform="translate(63.623047 0)"/>
       <use xlink:href="#DejaVuSans-32" transform="translate(95.410156 0)"/>
      </g>
     </g>
    </g>
    <g id="xtick_13">
     <g id="line2d_21">
      <g>
       <use xlink:href="#m004a9cfce1" x="623.352075" y="313.478125" style="stroke: #000000; stroke-width: 0.8"/>
      </g>
     </g>
     <g id="text_24">
      <!-- 0.3 -->
      <g transform="translate(615.400512 328.076563) scale(0.1 -0.1)">
       <use xlink:href="#DejaVuSans-30"/>
       <use xlink:href="#DejaVuSans-2e" transform="translate(63.623047 0)"/>
       <use xlink:href="#DejaVuSans-33" transform="translate(95.410156 0)"/>
      </g>
     </g>
    </g>
    <g id="xtick_14">
     <g id="line2d_22">
      <g>
       <use xlink:href="#m004a9cfce1" x="670.011295" y="313.478125" style="stroke: #000000; stroke-width: 0.8"/>
      </g>
     </g>
     <g id="text_25">
      <!-- 0.4 -->
      <g transform="translate(662.059732 328.076563) scale(0.1 -0.1)">
       <use xlink:href="#DejaVuSans-30"/>
       <use xlink:href="#DejaVuSans-2e" transform="translate(63.623047 0)"/>
       <use xlink:href="#DejaVuSans-34" transform="translate(95.410156 0)"/>
      </g>
     </g>
    </g>
    <g id="xtick_15">
     <g id="line2d_23">
      <g>
       <use xlink:href="#m004a9cfce1" x="716.670515" y="313.478125" style="stroke: #000000; stroke-width: 0.8"/>
      </g>
     </g>
     <g id="text_26">
      <!-- 0.5 -->
      <g transform="translate(708.718952 328.076563) scale(0.1 -0.1)">
       <use xlink:href="#DejaVuSans-30"/>
       <use xlink:href="#DejaVuSans-2e" transform="translate(63.623047 0)"/>
       <use xlink:href="#DejaVuSans-35" transform="translate(95.410156 0)"/>
      </g>
     </g>
    </g>
    <g id="xtick_16">
     <g id="line2d_24">
      <g>
       <use xlink:href="#m004a9cfce1" x="763.329734" y="313.478125" style="stroke: #000000; stroke-width: 0.8"/>
      </g>
     </g>
     <g id="text_27">
      <!-- 0.6 -->
      <g transform="translate(755.378172 328.076563) scale(0.1 -0.1)">
       <use xlink:href="#DejaVuSans-30"/>
       <use xlink:href="#DejaVuSans-2e" transform="translate(63.623047 0)"/>
       <use xlink:href="#DejaVuSans-36" transform="translate(95.410156 0)"/>
      </g>
     </g>
    </g>
    <g id="xtick_17">
     <g id="line2d_25">
      <g>
       <use xlink:href="#m004a9cfce1" x="809.988954" y="313.478125" style="stroke: #000000; stroke-width: 0.8"/>
      </g>
     </g>
     <g id="text_28">
      <!-- 0.7 -->
      <g transform="translate(802.037392 328.076563) scale(0.1 -0.1)">
       <use xlink:href="#DejaVuSans-30"/>
       <use xlink:href="#DejaVuSans-2e" transform="translate(63.623047 0)"/>
       <use xlink:href="#DejaVuSans-37" transform="translate(95.410156 0)"/>
      </g>
     </g>
    </g>
    <g id="xtick_18">
     <g id="line2d_26">
      <g>
       <use xlink:href="#m004a9cfce1" x="856.648174" y="313.478125" style="stroke: #000000; stroke-width: 0.8"/>
      </g>
     </g>
     <g id="text_29">
      <!-- 0.8 -->
      <g transform="translate(848.696612 328.076563) scale(0.1 -0.1)">
       <use xlink:href="#DejaVuSans-30"/>
       <use xlink:href="#DejaVuSans-2e" transform="translate(63.623047 0)"/>
       <use xlink:href="#DejaVuSans-38" transform="translate(95.410156 0)"/>
      </g>
     </g>
    </g>
    <g id="text_30">
     <!-- LCC -->
     <g transform="translate(654.312317 341.754687) scale(0.1 -0.1)">
      <use xlink:href="#DejaVuSans-4c"/>
      <use xlink:href="#DejaVuSans-43" transform="translate(55.712891 0)"/>
      <use xlink:href="#DejaVuSans-43" transform="translate(125.537109 0)"/>
     </g>
    </g>
   </g>
   <g id="matplotlib.axis_4">
    <g id="ytick_9">
     <g id="line2d_27">
      <g>
       <use xlink:href="#m20c7013f6e" x="465.30375" y="313.478125" style="stroke: #000000; stroke-width: 0.8"/>
      </g>
     </g>
    </g>
    <g id="ytick_10">
     <g id="line2d_28">
      <g>
       <use xlink:href="#m20c7013f6e" x="465.30375" y="274.189511" style="stroke: #000000; stroke-width: 0.8"/>
      </g>
     </g>
    </g>
    <g id="ytick_11">
     <g id="line2d_29">
      <g>
       <use xlink:href="#m20c7013f6e" x="465.30375" y="234.900896" style="stroke: #000000; stroke-width: 0.8"/>
      </g>
     </g>
    </g>
    <g id="ytick_12">
     <g id="line2d_30">
      <g>
       <use xlink:href="#m20c7013f6e" x="465.30375" y="195.612282" style="stroke: #000000; stroke-width: 0.8"/>
      </g>
     </g>
    </g>
    <g id="ytick_13">
     <g id="line2d_31">
      <g>
       <use xlink:href="#m20c7013f6e" x="465.30375" y="156.323667" style="stroke: #000000; stroke-width: 0.8"/>
      </g>
     </g>
    </g>
    <g id="ytick_14">
     <g id="line2d_32">
      <g>
       <use xlink:href="#m20c7013f6e" x="465.30375" y="117.035053" style="stroke: #000000; stroke-width: 0.8"/>
      </g>
     </g>
    </g>
    <g id="ytick_15">
     <g id="line2d_33">
      <g>
       <use xlink:href="#m20c7013f6e" x="465.30375" y="77.746438" style="stroke: #000000; stroke-width: 0.8"/>
      </g>
     </g>
    </g>
    <g id="ytick_16">
     <g id="line2d_34">
      <g>
       <use xlink:href="#m20c7013f6e" x="465.30375" y="38.457824" style="stroke: #000000; stroke-width: 0.8"/>
      </g>
     </g>
    </g>
   </g>
   <g id="patch_106">
    <path d="M 465.30375 313.478125 
L 465.30375 22.318125 
" style="fill: none; stroke: #000000; stroke-width: 0.8; stroke-linejoin: miter; stroke-linecap: square"/>
   </g>
   <g id="patch_107">
    <path d="M 862.858383 313.478125 
L 862.858383 22.318125 
" style="fill: none; stroke: #000000; stroke-width: 0.8; stroke-linejoin: miter; stroke-linecap: square"/>
   </g>
   <g id="patch_108">
    <path d="M 465.30375 313.478125 
L 862.858383 313.478125 
" style="fill: none; stroke: #000000; stroke-width: 0.8; stroke-linejoin: miter; stroke-linecap: square"/>
   </g>
   <g id="patch_109">
    <path d="M 465.30375 22.318125 
L 862.858383 22.318125 
" style="fill: none; stroke: #000000; stroke-width: 0.8; stroke-linejoin: miter; stroke-linecap: square"/>
   </g>
   <g id="text_31">
    <!-- CVAE -->
    <g transform="translate(648.273879 16.318125) scale(0.12 -0.12)">
     <defs>
      <path id="DejaVuSans-56" d="M 1831 0 
L 50 4666 
L 709 4666 
L 2188 738 
L 3669 4666 
L 4325 4666 
L 2547 0 
L 1831 0 
z
" transform="scale(0.015625)"/>
      <path id="DejaVuSans-41" d="M 2188 4044 
L 1331 1722 
L 3047 1722 
L 2188 4044 
z
M 1831 4666 
L 2547 4666 
L 4325 0 
L 3669 0 
L 3244 1197 
L 1141 1197 
L 716 0 
L 50 0 
L 1831 4666 
z
" transform="scale(0.015625)"/>
      <path id="DejaVuSans-45" d="M 628 4666 
L 3578 4666 
L 3578 4134 
L 1259 4134 
L 1259 2753 
L 3481 2753 
L 3481 2222 
L 1259 2222 
L 1259 531 
L 3634 531 
L 3634 0 
L 628 0 
L 628 4666 
z
" transform="scale(0.015625)"/>
     </defs>
     <use xlink:href="#DejaVuSans-43"/>
     <use xlink:href="#DejaVuSans-56" transform="translate(69.824219 0)"/>
     <use xlink:href="#DejaVuSans-41" transform="translate(131.857422 0)"/>
     <use xlink:href="#DejaVuSans-45" transform="translate(200.265625 0)"/>
    </g>
   </g>
  </g>
  <g id="axes_3">
   <g id="patch_110">
    <path d="M 880.46375 313.478125 
L 1278.018383 313.478125 
L 1278.018383 22.318125 
L 880.46375 22.318125 
z
" style="fill: #ffffff"/>
   </g>
   <g id="patch_111">
    <path d="M 898.534415 313.478125 
L 905.910197 313.478125 
L 905.910197 313.478125 
L 898.534415 313.478125 
z
" clip-path="url(#pfc6629253f)" style="fill: #1f77b4; opacity: 0.7"/>
   </g>
   <g id="patch_112">
    <path d="M 905.910197 313.478125 
L 913.285979 313.478125 
L 913.285979 313.478125 
L 905.910197 313.478125 
z
" clip-path="url(#pfc6629253f)" style="fill: #1f77b4; opacity: 0.7"/>
   </g>
   <g id="patch_113">
    <path d="M 913.285979 313.478125 
L 920.66176 313.478125 
L 920.66176 313.478125 
L 913.285979 313.478125 
z
" clip-path="url(#pfc6629253f)" style="fill: #1f77b4; opacity: 0.7"/>
   </g>
   <g id="patch_114">
    <path d="M 920.66176 313.478125 
L 928.037542 313.478125 
L 928.037542 313.478125 
L 920.66176 313.478125 
z
" clip-path="url(#pfc6629253f)" style="fill: #1f77b4; opacity: 0.7"/>
   </g>
   <g id="patch_115">
    <path d="M 928.037542 313.478125 
L 935.413324 313.478125 
L 935.413324 313.478125 
L 928.037542 313.478125 
z
" clip-path="url(#pfc6629253f)" style="fill: #1f77b4; opacity: 0.7"/>
   </g>
   <g id="patch_116">
    <path d="M 935.413324 313.478125 
L 942.789105 313.478125 
L 942.789105 313.363847 
L 935.413324 313.363847 
z
" clip-path="url(#pfc6629253f)" style="fill: #1f77b4; opacity: 0.7"/>
   </g>
   <g id="patch_117">
    <path d="M 942.789105 313.478125 
L 950.164887 313.478125 
L 950.164887 313.192431 
L 942.789105 313.192431 
z
" clip-path="url(#pfc6629253f)" style="fill: #1f77b4; opacity: 0.7"/>
   </g>
   <g id="patch_118">
    <path d="M 950.164887 313.478125 
L 957.540669 313.478125 
L 957.540669 311.992514 
L 950.164887 311.992514 
z
" clip-path="url(#pfc6629253f)" style="fill: #1f77b4; opacity: 0.7"/>
   </g>
   <g id="patch_119">
    <path d="M 957.540669 313.478125 
L 964.91645 313.478125 
L 964.91645 311.306847 
L 957.540669 311.306847 
z
" clip-path="url(#pfc6629253f)" style="fill: #1f77b4; opacity: 0.7"/>
   </g>
   <g id="patch_120">
    <path d="M 964.91645 313.478125 
L 972.292232 313.478125 
L 972.292232 307.707097 
L 964.91645 307.707097 
z
" clip-path="url(#pfc6629253f)" style="fill: #1f77b4; opacity: 0.7"/>
   </g>
   <g id="patch_121">
    <path d="M 972.292232 313.478125 
L 979.668014 313.478125 
L 979.668014 308.792736 
L 972.292232 308.792736 
z
" clip-path="url(#pfc6629253f)" style="fill: #1f77b4; opacity: 0.7"/>
   </g>
   <g id="patch_122">
    <path d="M 979.668014 313.478125 
L 987.043795 313.478125 
L 987.043795 300.107624 
L 979.668014 300.107624 
z
" clip-path="url(#pfc6629253f)" style="fill: #1f77b4; opacity: 0.7"/>
   </g>
   <g id="patch_123">
    <path d="M 987.043795 313.478125 
L 994.419577 313.478125 
L 994.419577 299.136262 
L 987.043795 299.136262 
z
" clip-path="url(#pfc6629253f)" style="fill: #1f77b4; opacity: 0.7"/>
   </g>
   <g id="patch_124">
    <path d="M 994.419577 313.478125 
L 1001.795359 313.478125 
L 1001.795359 297.079262 
L 994.419577 297.079262 
z
" clip-path="url(#pfc6629253f)" style="fill: #1f77b4; opacity: 0.7"/>
   </g>
   <g id="patch_125">
    <path d="M 1001.795359 313.478125 
L 1009.171141 313.478125 
L 1009.171141 293.993762 
L 1001.795359 293.993762 
z
" clip-path="url(#pfc6629253f)" style="fill: #1f77b4; opacity: 0.7"/>
   </g>
   <g id="patch_126">
    <path d="M 1009.171141 313.478125 
L 1016.546922 313.478125 
L 1016.546922 293.479512 
L 1009.171141 293.479512 
z
" clip-path="url(#pfc6629253f)" style="fill: #1f77b4; opacity: 0.7"/>
   </g>
   <g id="patch_127">
    <path d="M 1016.546922 313.478125 
L 1023.922704 313.478125 
L 1023.922704 295.879345 
L 1016.546922 295.879345 
z
" clip-path="url(#pfc6629253f)" style="fill: #1f77b4; opacity: 0.7"/>
   </g>
   <g id="patch_128">
    <path d="M 1023.922704 313.478125 
L 1031.298486 313.478125 
L 1031.298486 303.650235 
L 1023.922704 303.650235 
z
" clip-path="url(#pfc6629253f)" style="fill: #1f77b4; opacity: 0.7"/>
   </g>
   <g id="patch_129">
    <path d="M 1031.298486 313.478125 
L 1038.674267 313.478125 
L 1038.674267 298.622012 
L 1031.298486 298.622012 
z
" clip-path="url(#pfc6629253f)" style="fill: #1f77b4; opacity: 0.7"/>
   </g>
   <g id="patch_130">
    <path d="M 1038.674267 313.478125 
L 1046.050049 313.478125 
L 1046.050049 293.993762 
L 1038.674267 293.993762 
z
" clip-path="url(#pfc6629253f)" style="fill: #1f77b4; opacity: 0.7"/>
   </g>
   <g id="patch_131">
    <path d="M 1046.050049 313.478125 
L 1053.425831 313.478125 
L 1053.425831 293.250956 
L 1046.050049 293.250956 
z
" clip-path="url(#pfc6629253f)" style="fill: #1f77b4; opacity: 0.7"/>
   </g>
   <g id="patch_132">
    <path d="M 1053.425831 313.478125 
L 1060.801612 313.478125 
L 1060.801612 285.994317 
L 1053.425831 285.994317 
z
" clip-path="url(#pfc6629253f)" style="fill: #1f77b4; opacity: 0.7"/>
   </g>
   <g id="patch_133">
    <path d="M 1060.801612 313.478125 
L 1068.177394 313.478125 
L 1068.177394 266.68137 
L 1060.801612 266.68137 
z
" clip-path="url(#pfc6629253f)" style="fill: #1f77b4; opacity: 0.7"/>
   </g>
   <g id="patch_134">
    <path d="M 1068.177394 313.478125 
L 1075.553176 313.478125 
L 1075.553176 273.995149 
L 1068.177394 273.995149 
z
" clip-path="url(#pfc6629253f)" style="fill: #1f77b4; opacity: 0.7"/>
   </g>
   <g id="patch_135">
    <path d="M 1075.553176 313.478125 
L 1082.928957 313.478125 
L 1082.928957 257.996258 
L 1075.553176 257.996258 
z
" clip-path="url(#pfc6629253f)" style="fill: #1f77b4; opacity: 0.7"/>
   </g>
   <g id="patch_136">
    <path d="M 1082.928957 313.478125 
L 1090.304739 313.478125 
L 1090.304739 263.138759 
L 1082.928957 263.138759 
z
" clip-path="url(#pfc6629253f)" style="fill: #1f77b4; opacity: 0.7"/>
   </g>
   <g id="patch_137">
    <path d="M 1090.304739 313.478125 
L 1097.680521 313.478125 
L 1097.680521 256.910619 
L 1090.304739 256.910619 
z
" clip-path="url(#pfc6629253f)" style="fill: #1f77b4; opacity: 0.7"/>
   </g>
   <g id="patch_138">
    <path d="M 1097.680521 313.478125 
L 1105.056303 313.478125 
L 1105.056303 255.653564 
L 1097.680521 255.653564 
z
" clip-path="url(#pfc6629253f)" style="fill: #1f77b4; opacity: 0.7"/>
   </g>
   <g id="patch_139">
    <path d="M 1105.056303 313.478125 
L 1112.432084 313.478125 
L 1112.432084 265.767148 
L 1105.056303 265.767148 
z
" clip-path="url(#pfc6629253f)" style="fill: #1f77b4; opacity: 0.7"/>
   </g>
   <g id="patch_140">
    <path d="M 1112.432084 313.478125 
L 1119.807866 313.478125 
L 1119.807866 255.425008 
L 1112.432084 255.425008 
z
" clip-path="url(#pfc6629253f)" style="fill: #1f77b4; opacity: 0.7"/>
   </g>
   <g id="patch_141">
    <path d="M 1119.807866 313.478125 
L 1127.183648 313.478125 
L 1127.183648 262.967342 
L 1119.807866 262.967342 
z
" clip-path="url(#pfc6629253f)" style="fill: #1f77b4; opacity: 0.7"/>
   </g>
   <g id="patch_142">
    <path d="M 1127.183648 313.478125 
L 1134.559429 313.478125 
L 1134.559429 259.424731 
L 1127.183648 259.424731 
z
" clip-path="url(#pfc6629253f)" style="fill: #1f77b4; opacity: 0.7"/>
   </g>
   <g id="patch_143">
    <path d="M 1134.559429 313.478125 
L 1141.935211 313.478125 
L 1141.935211 268.338398 
L 1134.559429 268.338398 
z
" clip-path="url(#pfc6629253f)" style="fill: #1f77b4; opacity: 0.7"/>
   </g>
   <g id="patch_144">
    <path d="M 1141.935211 313.478125 
L 1149.310993 313.478125 
L 1149.310993 272.852371 
L 1141.935211 272.852371 
z
" clip-path="url(#pfc6629253f)" style="fill: #1f77b4; opacity: 0.7"/>
   </g>
   <g id="patch_145">
    <path d="M 1149.310993 313.478125 
L 1156.686774 313.478125 
L 1156.686774 268.909787 
L 1149.310993 268.909787 
z
" clip-path="url(#pfc6629253f)" style="fill: #1f77b4; opacity: 0.7"/>
   </g>
   <g id="patch_146">
    <path d="M 1156.686774 313.478125 
L 1164.062556 313.478125 
L 1164.062556 279.309066 
L 1156.686774 279.309066 
z
" clip-path="url(#pfc6629253f)" style="fill: #1f77b4; opacity: 0.7"/>
   </g>
   <g id="patch_147">
    <path d="M 1164.062556 313.478125 
L 1171.438338 313.478125 
L 1171.438338 284.622983 
L 1164.062556 284.622983 
z
" clip-path="url(#pfc6629253f)" style="fill: #1f77b4; opacity: 0.7"/>
   </g>
   <g id="patch_148">
    <path d="M 1171.438338 313.478125 
L 1178.81412 313.478125 
L 1178.81412 292.108178 
L 1171.438338 292.108178 
z
" clip-path="url(#pfc6629253f)" style="fill: #1f77b4; opacity: 0.7"/>
   </g>
   <g id="patch_149">
    <path d="M 1178.81412 313.478125 
L 1186.189901 313.478125 
L 1186.189901 293.765206 
L 1178.81412 293.765206 
z
" clip-path="url(#pfc6629253f)" style="fill: #1f77b4; opacity: 0.7"/>
   </g>
   <g id="patch_150">
    <path d="M 1186.189901 313.478125 
L 1193.565683 313.478125 
L 1193.565683 301.250402 
L 1186.189901 301.250402 
z
" clip-path="url(#pfc6629253f)" style="fill: #1f77b4; opacity: 0.7"/>
   </g>
   <g id="patch_151">
    <path d="M 1193.565683 313.478125 
L 1200.941465 313.478125 
L 1200.941465 305.250124 
L 1193.565683 305.250124 
z
" clip-path="url(#pfc6629253f)" style="fill: #1f77b4; opacity: 0.7"/>
   </g>
   <g id="patch_152">
    <path d="M 1200.941465 313.478125 
L 1208.317246 313.478125 
L 1208.317246 306.392902 
L 1200.941465 306.392902 
z
" clip-path="url(#pfc6629253f)" style="fill: #1f77b4; opacity: 0.7"/>
   </g>
   <g id="patch_153">
    <path d="M 1208.317246 313.478125 
L 1215.693028 313.478125 
L 1215.693028 310.735458 
L 1208.317246 310.735458 
z
" clip-path="url(#pfc6629253f)" style="fill: #1f77b4; opacity: 0.7"/>
   </g>
   <g id="patch_154">
    <path d="M 1215.693028 313.478125 
L 1223.06881 313.478125 
L 1223.06881 311.306847 
L 1215.693028 311.306847 
z
" clip-path="url(#pfc6629253f)" style="fill: #1f77b4; opacity: 0.7"/>
   </g>
   <g id="patch_155">
    <path d="M 1223.06881 313.478125 
L 1230.444591 313.478125 
L 1230.444591 311.821097 
L 1223.06881 311.821097 
z
" clip-path="url(#pfc6629253f)" style="fill: #1f77b4; opacity: 0.7"/>
   </g>
   <g id="patch_156">
    <path d="M 1230.444591 313.478125 
L 1237.820373 313.478125 
L 1237.820373 312.735319 
L 1230.444591 312.735319 
z
" clip-path="url(#pfc6629253f)" style="fill: #1f77b4; opacity: 0.7"/>
   </g>
   <g id="patch_157">
    <path d="M 1237.820373 313.478125 
L 1245.196155 313.478125 
L 1245.196155 313.192431 
L 1237.820373 313.192431 
z
" clip-path="url(#pfc6629253f)" style="fill: #1f77b4; opacity: 0.7"/>
   </g>
   <g id="patch_158">
    <path d="M 1245.196155 313.478125 
L 1252.571936 313.478125 
L 1252.571936 313.363847 
L 1245.196155 313.363847 
z
" clip-path="url(#pfc6629253f)" style="fill: #1f77b4; opacity: 0.7"/>
   </g>
   <g id="patch_159">
    <path d="M 1252.571936 313.478125 
L 1259.947718 313.478125 
L 1259.947718 313.420986 
L 1252.571936 313.420986 
z
" clip-path="url(#pfc6629253f)" style="fill: #1f77b4; opacity: 0.7"/>
   </g>
   <g id="matplotlib.axis_5">
    <g id="xtick_19">
     <g id="line2d_35">
      <g>
       <use xlink:href="#m004a9cfce1" x="898.534415" y="313.478125" style="stroke: #000000; stroke-width: 0.8"/>
      </g>
     </g>
     <g id="text_32">
      <!-- 0.0 -->
      <g transform="translate(890.582853 328.076563) scale(0.1 -0.1)">
       <use xlink:href="#DejaVuSans-30"/>
       <use xlink:href="#DejaVuSans-2e" transform="translate(63.623047 0)"/>
       <use xlink:href="#DejaVuSans-30" transform="translate(95.410156 0)"/>
      </g>
     </g>
    </g>
    <g id="xtick_20">
     <g id="line2d_36">
      <g>
       <use xlink:href="#m004a9cfce1" x="945.193635" y="313.478125" style="stroke: #000000; stroke-width: 0.8"/>
      </g>
     </g>
     <g id="text_33">
      <!-- 0.1 -->
      <g transform="translate(937.242073 328.076563) scale(0.1 -0.1)">
       <use xlink:href="#DejaVuSans-30"/>
       <use xlink:href="#DejaVuSans-2e" transform="translate(63.623047 0)"/>
       <use xlink:href="#DejaVuSans-31" transform="translate(95.410156 0)"/>
      </g>
     </g>
    </g>
    <g id="xtick_21">
     <g id="line2d_37">
      <g>
       <use xlink:href="#m004a9cfce1" x="991.852855" y="313.478125" style="stroke: #000000; stroke-width: 0.8"/>
      </g>
     </g>
     <g id="text_34">
      <!-- 0.2 -->
      <g transform="translate(983.901292 328.076563) scale(0.1 -0.1)">
       <use xlink:href="#DejaVuSans-30"/>
       <use xlink:href="#DejaVuSans-2e" transform="translate(63.623047 0)"/>
       <use xlink:href="#DejaVuSans-32" transform="translate(95.410156 0)"/>
      </g>
     </g>
    </g>
    <g id="xtick_22">
     <g id="line2d_38">
      <g>
       <use xlink:href="#m004a9cfce1" x="1038.512075" y="313.478125" style="stroke: #000000; stroke-width: 0.8"/>
      </g>
     </g>
     <g id="text_35">
      <!-- 0.3 -->
      <g transform="translate(1030.560512 328.076563) scale(0.1 -0.1)">
       <use xlink:href="#DejaVuSans-30"/>
       <use xlink:href="#DejaVuSans-2e" transform="translate(63.623047 0)"/>
       <use xlink:href="#DejaVuSans-33" transform="translate(95.410156 0)"/>
      </g>
     </g>
    </g>
    <g id="xtick_23">
     <g id="line2d_39">
      <g>
       <use xlink:href="#m004a9cfce1" x="1085.171295" y="313.478125" style="stroke: #000000; stroke-width: 0.8"/>
      </g>
     </g>
     <g id="text_36">
      <!-- 0.4 -->
      <g transform="translate(1077.219732 328.076563) scale(0.1 -0.1)">
       <use xlink:href="#DejaVuSans-30"/>
       <use xlink:href="#DejaVuSans-2e" transform="translate(63.623047 0)"/>
       <use xlink:href="#DejaVuSans-34" transform="translate(95.410156 0)"/>
      </g>
     </g>
    </g>
    <g id="xtick_24">
     <g id="line2d_40">
      <g>
       <use xlink:href="#m004a9cfce1" x="1131.830515" y="313.478125" style="stroke: #000000; stroke-width: 0.8"/>
      </g>
     </g>
     <g id="text_37">
      <!-- 0.5 -->
      <g transform="translate(1123.878952 328.076563) scale(0.1 -0.1)">
       <use xlink:href="#DejaVuSans-30"/>
       <use xlink:href="#DejaVuSans-2e" transform="translate(63.623047 0)"/>
       <use xlink:href="#DejaVuSans-35" transform="translate(95.410156 0)"/>
      </g>
     </g>
    </g>
    <g id="xtick_25">
     <g id="line2d_41">
      <g>
       <use xlink:href="#m004a9cfce1" x="1178.489734" y="313.478125" style="stroke: #000000; stroke-width: 0.8"/>
      </g>
     </g>
     <g id="text_38">
      <!-- 0.6 -->
      <g transform="translate(1170.538172 328.076563) scale(0.1 -0.1)">
       <use xlink:href="#DejaVuSans-30"/>
       <use xlink:href="#DejaVuSans-2e" transform="translate(63.623047 0)"/>
       <use xlink:href="#DejaVuSans-36" transform="translate(95.410156 0)"/>
      </g>
     </g>
    </g>
    <g id="xtick_26">
     <g id="line2d_42">
      <g>
       <use xlink:href="#m004a9cfce1" x="1225.148954" y="313.478125" style="stroke: #000000; stroke-width: 0.8"/>
      </g>
     </g>
     <g id="text_39">
      <!-- 0.7 -->
      <g transform="translate(1217.197392 328.076563) scale(0.1 -0.1)">
       <use xlink:href="#DejaVuSans-30"/>
       <use xlink:href="#DejaVuSans-2e" transform="translate(63.623047 0)"/>
       <use xlink:href="#DejaVuSans-37" transform="translate(95.410156 0)"/>
      </g>
     </g>
    </g>
    <g id="xtick_27">
     <g id="line2d_43">
      <g>
       <use xlink:href="#m004a9cfce1" x="1271.808174" y="313.478125" style="stroke: #000000; stroke-width: 0.8"/>
      </g>
     </g>
     <g id="text_40">
      <!-- 0.8 -->
      <g transform="translate(1263.856612 328.076563) scale(0.1 -0.1)">
       <use xlink:href="#DejaVuSans-30"/>
       <use xlink:href="#DejaVuSans-2e" transform="translate(63.623047 0)"/>
       <use xlink:href="#DejaVuSans-38" transform="translate(95.410156 0)"/>
      </g>
     </g>
    </g>
    <g id="text_41">
     <!-- LCC -->
     <g transform="translate(1069.472317 341.754687) scale(0.1 -0.1)">
      <use xlink:href="#DejaVuSans-4c"/>
      <use xlink:href="#DejaVuSans-43" transform="translate(55.712891 0)"/>
      <use xlink:href="#DejaVuSans-43" transform="translate(125.537109 0)"/>
     </g>
    </g>
   </g>
   <g id="matplotlib.axis_6">
    <g id="ytick_17">
     <g id="line2d_44">
      <g>
       <use xlink:href="#m20c7013f6e" x="880.46375" y="313.478125" style="stroke: #000000; stroke-width: 0.8"/>
      </g>
     </g>
    </g>
    <g id="ytick_18">
     <g id="line2d_45">
      <g>
       <use xlink:href="#m20c7013f6e" x="880.46375" y="274.189511" style="stroke: #000000; stroke-width: 0.8"/>
      </g>
     </g>
    </g>
    <g id="ytick_19">
     <g id="line2d_46">
      <g>
       <use xlink:href="#m20c7013f6e" x="880.46375" y="234.900896" style="stroke: #000000; stroke-width: 0.8"/>
      </g>
     </g>
    </g>
    <g id="ytick_20">
     <g id="line2d_47">
      <g>
       <use xlink:href="#m20c7013f6e" x="880.46375" y="195.612282" style="stroke: #000000; stroke-width: 0.8"/>
      </g>
     </g>
    </g>
    <g id="ytick_21">
     <g id="line2d_48">
      <g>
       <use xlink:href="#m20c7013f6e" x="880.46375" y="156.323667" style="stroke: #000000; stroke-width: 0.8"/>
      </g>
     </g>
    </g>
    <g id="ytick_22">
     <g id="line2d_49">
      <g>
       <use xlink:href="#m20c7013f6e" x="880.46375" y="117.035053" style="stroke: #000000; stroke-width: 0.8"/>
      </g>
     </g>
    </g>
    <g id="ytick_23">
     <g id="line2d_50">
      <g>
       <use xlink:href="#m20c7013f6e" x="880.46375" y="77.746438" style="stroke: #000000; stroke-width: 0.8"/>
      </g>
     </g>
    </g>
    <g id="ytick_24">
     <g id="line2d_51">
      <g>
       <use xlink:href="#m20c7013f6e" x="880.46375" y="38.457824" style="stroke: #000000; stroke-width: 0.8"/>
      </g>
     </g>
    </g>
   </g>
   <g id="patch_160">
    <path d="M 880.46375 313.478125 
L 880.46375 22.318125 
" style="fill: none; stroke: #000000; stroke-width: 0.8; stroke-linejoin: miter; stroke-linecap: square"/>
   </g>
   <g id="patch_161">
    <path d="M 1278.018383 313.478125 
L 1278.018383 22.318125 
" style="fill: none; stroke: #000000; stroke-width: 0.8; stroke-linejoin: miter; stroke-linecap: square"/>
   </g>
   <g id="patch_162">
    <path d="M 880.46375 313.478125 
L 1278.018383 313.478125 
" style="fill: none; stroke: #000000; stroke-width: 0.8; stroke-linejoin: miter; stroke-linecap: square"/>
   </g>
   <g id="patch_163">
    <path d="M 880.46375 22.318125 
L 1278.018383 22.318125 
" style="fill: none; stroke: #000000; stroke-width: 0.8; stroke-linejoin: miter; stroke-linecap: square"/>
   </g>
   <g id="text_42">
    <!-- ProtGPT2 -->
    <g transform="translate(1051.624192 16.318125) scale(0.12 -0.12)">
     <defs>
      <path id="DejaVuSans-50" d="M 1259 4147 
L 1259 2394 
L 2053 2394 
Q 2494 2394 2734 2622 
Q 2975 2850 2975 3272 
Q 2975 3691 2734 3919 
Q 2494 4147 2053 4147 
L 1259 4147 
z
M 628 4666 
L 2053 4666 
Q 2838 4666 3239 4311 
Q 3641 3956 3641 3272 
Q 3641 2581 3239 2228 
Q 2838 1875 2053 1875 
L 1259 1875 
L 1259 0 
L 628 0 
L 628 4666 
z
" transform="scale(0.015625)"/>
      <path id="DejaVuSans-6f" d="M 1959 3097 
Q 1497 3097 1228 2736 
Q 959 2375 959 1747 
Q 959 1119 1226 758 
Q 1494 397 1959 397 
Q 2419 397 2687 759 
Q 2956 1122 2956 1747 
Q 2956 2369 2687 2733 
Q 2419 3097 1959 3097 
z
M 1959 3584 
Q 2709 3584 3137 3096 
Q 3566 2609 3566 1747 
Q 3566 888 3137 398 
Q 2709 -91 1959 -91 
Q 1206 -91 779 398 
Q 353 888 353 1747 
Q 353 2609 779 3096 
Q 1206 3584 1959 3584 
z
" transform="scale(0.015625)"/>
      <path id="DejaVuSans-47" d="M 3809 666 
L 3809 1919 
L 2778 1919 
L 2778 2438 
L 4434 2438 
L 4434 434 
Q 4069 175 3628 42 
Q 3188 -91 2688 -91 
Q 1594 -91 976 548 
Q 359 1188 359 2328 
Q 359 3472 976 4111 
Q 1594 4750 2688 4750 
Q 3144 4750 3555 4637 
Q 3966 4525 4313 4306 
L 4313 3634 
Q 3963 3931 3569 4081 
Q 3175 4231 2741 4231 
Q 1884 4231 1454 3753 
Q 1025 3275 1025 2328 
Q 1025 1384 1454 906 
Q 1884 428 2741 428 
Q 3075 428 3337 486 
Q 3600 544 3809 666 
z
" transform="scale(0.015625)"/>
      <path id="DejaVuSans-54" d="M -19 4666 
L 3928 4666 
L 3928 4134 
L 2272 4134 
L 2272 0 
L 1638 0 
L 1638 4134 
L -19 4134 
L -19 4666 
z
" transform="scale(0.015625)"/>
     </defs>
     <use xlink:href="#DejaVuSans-50"/>
     <use xlink:href="#DejaVuSans-72" transform="translate(58.552734 0)"/>
     <use xlink:href="#DejaVuSans-6f" transform="translate(97.416016 0)"/>
     <use xlink:href="#DejaVuSans-74" transform="translate(158.597656 0)"/>
     <use xlink:href="#DejaVuSans-47" transform="translate(197.806641 0)"/>
     <use xlink:href="#DejaVuSans-50" transform="translate(275.296875 0)"/>
     <use xlink:href="#DejaVuSans-54" transform="translate(335.599609 0)"/>
     <use xlink:href="#DejaVuSans-32" transform="translate(396.683594 0)"/>
    </g>
   </g>
  </g>
 </g>
 <defs>
  <clipPath id="pc3da87ff5a">
   <rect x="50.14375" y="22.318125" width="397.554633" height="291.16"/>
  </clipPath>
  <clipPath id="p5baeb02971">
   <rect x="465.30375" y="22.318125" width="397.554633" height="291.16"/>
  </clipPath>
  <clipPath id="pfc6629253f">
   <rect x="880.46375" y="22.318125" width="397.554633" height="291.16"/>
  </clipPath>
 </defs>
</svg>
