<?xml version="1.0" encoding="utf-8" standalone="no"?>
<!DOCTYPE svg PUBLIC "-//W3C//DTD SVG 1.1//EN"
  "http://www.w3.org/Graphics/SVG/1.1/DTD/svg11.dtd">
<svg xmlns:xlink="http://www.w3.org/1999/xlink" width="411.685625pt" height="326.866375pt" viewBox="0 0 411.685625 326.866375" xmlns="http://www.w3.org/2000/svg" version="1.1">
 <metadata>
  <rdf:RDF xmlns:dc="http://purl.org/dc/elements/1.1/" xmlns:cc="http://creativecommons.org/ns#" xmlns:rdf="http://www.w3.org/1999/02/22-rdf-syntax-ns#">
   <cc:Work>
    <dc:type rdf:resource="http://purl.org/dc/dcmitype/StillImage"/>
    <dc:date>2026-05-02T16:26:44.203294</dc:date>
    <dc:format>image/svg+xml</dc:format>
    <dc:creator>
     <cc:Agent>
      <dc:title>Matplotlib v3.10.8, https://matplotlib.org/</dc:title>
     </cc:Agent>
    </dc:creator>
   </cc:Work>
  </rdf:RDF>
 </metadata>
 <defs>
  <style type="text/css">*{stroke-linejoin: round; stroke-linecap: butt}</style>
 </defs>
 <g id="figure_1">
  <g id="patch_1">
   <path d="M 0 326.866375 
L 411.685625 326.866375 
L 411.685625 0 
L 0 0 
z
" style="fill: #ffffff"/>
  </g>
  <g id="axes_1">
   <g id="patch_2">
    <path d="M 47.365625 288.910125 
L 404.485625 288.910125 
L 404.485625 22.798125 
L 47.365625 22.798125 
z
" style="fill: #ffffff"/>
   </g>
   <g id="patch_3">
    <path d="M 63.598352 288.910125 
L 74.42017 288.910125 
L 74.42017 83.490336 
L 63.598352 83.490336 
z
" clip-path="url(#pf42eb2c862)" style="fill: #1f77b4; opacity: 0.6"/>
   </g>
   <g id="patch_4">
    <path d="M 74.42017 288.910125 
L 85.241989 288.910125 
L 85.241989 256.896651 
L 74.42017 256.896651 
z
" clip-path="url(#pf42eb2c862)" style="fill: #1f77b4; opacity: 0.6"/>
   </g>
   <g id="patch_5">
    <path d="M 85.241989 288.910125 
L 96.063807 288.910125 
L 96.063807 262.23223 
L 85.241989 262.23223 
z
" clip-path="url(#pf42eb2c862)" style="fill: #1f77b4; opacity: 0.6"/>
   </g>
   <g id="patch_6">
    <path d="M 96.063807 288.910125 
L 106.885625 288.910125 
L 106.885625 261.342967 
L 96.063807 261.342967 
z
" clip-path="url(#pf42eb2c862)" style="fill: #1f77b4; opacity: 0.6"/>
   </g>
   <g id="patch_7">
    <path d="M 106.885625 288.910125 
L 117.707443 288.910125 
L 117.707443 255.118125 
L 106.885625 255.118125 
z
" clip-path="url(#pf42eb2c862)" style="fill: #1f77b4; opacity: 0.6"/>
   </g>
   <g id="patch_8">
    <path d="M 117.707443 288.910125 
L 128.529261 288.910125 
L 128.529261 279.12823 
L 117.707443 279.12823 
z
" clip-path="url(#pf42eb2c862)" style="fill: #1f77b4; opacity: 0.6"/>
   </g>
   <g id="patch_9">
    <path d="M 128.529261 288.910125 
L 139.35108 288.910125 
L 139.35108 268.457072 
L 128.529261 268.457072 
z
" clip-path="url(#pf42eb2c862)" style="fill: #1f77b4; opacity: 0.6"/>
   </g>
   <g id="patch_10">
    <path d="M 139.35108 288.910125 
L 150.172898 288.910125 
L 150.172898 276.460441 
L 139.35108 276.460441 
z
" clip-path="url(#pf42eb2c862)" style="fill: #1f77b4; opacity: 0.6"/>
   </g>
   <g id="patch_11">
    <path d="M 150.172898 288.910125 
L 160.994716 288.910125 
L 160.994716 239.111388 
L 150.172898 239.111388 
z
" clip-path="url(#pf42eb2c862)" style="fill: #1f77b4; opacity: 0.6"/>
   </g>
   <g id="patch_12">
    <path d="M 160.994716 288.910125 
L 171.816534 288.910125 
L 171.816534 250.671809 
L 160.994716 250.671809 
z
" clip-path="url(#pf42eb2c862)" style="fill: #1f77b4; opacity: 0.6"/>
   </g>
   <g id="patch_13">
    <path d="M 171.816534 288.910125 
L 182.638352 288.910125 
L 182.638352 35.470125 
L 171.816534 35.470125 
z
" clip-path="url(#pf42eb2c862)" style="fill: #1f77b4; opacity: 0.6"/>
   </g>
   <g id="patch_14">
    <path d="M 182.638352 288.910125 
L 193.46017 288.910125 
L 193.46017 249.782546 
L 182.638352 249.782546 
z
" clip-path="url(#pf42eb2c862)" style="fill: #1f77b4; opacity: 0.6"/>
   </g>
   <g id="patch_15">
    <path d="M 193.46017 288.910125 
L 204.281989 288.910125 
L 204.281989 232.886546 
L 193.46017 232.886546 
z
" clip-path="url(#pf42eb2c862)" style="fill: #1f77b4; opacity: 0.6"/>
   </g>
   <g id="patch_16">
    <path d="M 204.281989 288.910125 
L 215.103807 288.910125 
L 215.103807 271.124862 
L 204.281989 271.124862 
z
" clip-path="url(#pf42eb2c862)" style="fill: #1f77b4; opacity: 0.6"/>
   </g>
   <g id="patch_17">
    <path d="M 215.103807 288.910125 
L 225.925625 288.910125 
L 225.925625 271.124862 
L 215.103807 271.124862 
z
" clip-path="url(#pf42eb2c862)" style="fill: #1f77b4; opacity: 0.6"/>
   </g>
   <g id="patch_18">
    <path d="M 225.925625 288.910125 
L 236.747443 288.910125 
L 236.747443 262.23223 
L 225.925625 262.23223 
z
" clip-path="url(#pf42eb2c862)" style="fill: #1f77b4; opacity: 0.6"/>
   </g>
   <g id="patch_19">
    <path d="M 236.747443 288.910125 
L 247.569261 288.910125 
L 247.569261 277.349704 
L 236.747443 277.349704 
z
" clip-path="url(#pf42eb2c862)" style="fill: #1f77b4; opacity: 0.6"/>
   </g>
   <g id="patch_20">
    <path d="M 247.569261 288.910125 
L 258.39108 288.910125 
L 258.39108 282.685283 
L 247.569261 282.685283 
z
" clip-path="url(#pf42eb2c862)" style="fill: #1f77b4; opacity: 0.6"/>
   </g>
   <g id="patch_21">
    <path d="M 258.39108 288.910125 
L 269.212898 288.910125 
L 269.212898 287.131599 
L 258.39108 287.131599 
z
" clip-path="url(#pf42eb2c862)" style="fill: #1f77b4; opacity: 0.6"/>
   </g>
   <g id="patch_22">
    <path d="M 269.212898 288.910125 
L 280.034716 288.910125 
L 280.034716 280.906757 
L 269.212898 280.906757 
z
" clip-path="url(#pf42eb2c862)" style="fill: #1f77b4; opacity: 0.6"/>
   </g>
   <g id="patch_23">
    <path d="M 280.034716 288.910125 
L 290.856534 288.910125 
L 290.856534 288.910125 
L 280.034716 288.910125 
z
" clip-path="url(#pf42eb2c862)" style="fill: #1f77b4; opacity: 0.6"/>
   </g>
   <g id="patch_24">
    <path d="M 290.856534 288.910125 
L 301.678352 288.910125 
L 301.678352 284.463809 
L 290.856534 284.463809 
z
" clip-path="url(#pf42eb2c862)" style="fill: #1f77b4; opacity: 0.6"/>
   </g>
   <g id="patch_25">
    <path d="M 301.678352 288.910125 
L 312.50017 288.910125 
L 312.50017 285.353072 
L 301.678352 285.353072 
z
" clip-path="url(#pf42eb2c862)" style="fill: #1f77b4; opacity: 0.6"/>
   </g>
   <g id="patch_26">
    <path d="M 312.50017 288.910125 
L 323.321989 288.910125 
L 323.321989 285.353072 
L 312.50017 285.353072 
z
" clip-path="url(#pf42eb2c862)" style="fill: #1f77b4; opacity: 0.6"/>
   </g>
   <g id="patch_27">
    <path d="M 323.321989 288.910125 
L 334.143807 288.910125 
L 334.143807 287.131599 
L 323.321989 287.131599 
z
" clip-path="url(#pf42eb2c862)" style="fill: #1f77b4; opacity: 0.6"/>
   </g>
   <g id="patch_28">
    <path d="M 334.143807 288.910125 
L 344.965625 288.910125 
L 344.965625 284.463809 
L 334.143807 284.463809 
z
" clip-path="url(#pf42eb2c862)" style="fill: #1f77b4; opacity: 0.6"/>
   </g>
   <g id="patch_29">
    <path d="M 344.965625 288.910125 
L 355.787443 288.910125 
L 355.787443 288.020862 
L 344.965625 288.020862 
z
" clip-path="url(#pf42eb2c862)" style="fill: #1f77b4; opacity: 0.6"/>
   </g>
   <g id="patch_30">
    <path d="M 355.787443 288.910125 
L 366.609261 288.910125 
L 366.609261 287.131599 
L 355.787443 287.131599 
z
" clip-path="url(#pf42eb2c862)" style="fill: #1f77b4; opacity: 0.6"/>
   </g>
   <g id="patch_31">
    <path d="M 366.609261 288.910125 
L 377.43108 288.910125 
L 377.43108 288.910125 
L 366.609261 288.910125 
z
" clip-path="url(#pf42eb2c862)" style="fill: #1f77b4; opacity: 0.6"/>
   </g>
   <g id="patch_32">
    <path d="M 377.43108 288.910125 
L 388.252898 288.910125 
L 388.252898 284.463809 
L 377.43108 284.463809 
z
" clip-path="url(#pf42eb2c862)" style="fill: #1f77b4; opacity: 0.6"/>
   </g>
   <g id="patch_33">
    <path d="M 63.598352 288.910125 
L 74.42017 288.910125 
L 74.42017 86.158125 
L 63.598352 86.158125 
z
" clip-path="url(#pf42eb2c862)" style="fill: #ff7f0e; opacity: 0.6"/>
   </g>
   <g id="patch_34">
    <path d="M 74.42017 288.910125 
L 85.241989 288.910125 
L 85.241989 256.896651 
L 74.42017 256.896651 
z
" clip-path="url(#pf42eb2c862)" style="fill: #ff7f0e; opacity: 0.6"/>
   </g>
   <g id="patch_35">
    <path d="M 85.241989 288.910125 
L 96.063807 288.910125 
L 96.063807 262.23223 
L 85.241989 262.23223 
z
" clip-path="url(#pf42eb2c862)" style="fill: #ff7f0e; opacity: 0.6"/>
   </g>
   <g id="patch_36">
    <path d="M 96.063807 288.910125 
L 106.885625 288.910125 
L 106.885625 261.342967 
L 96.063807 261.342967 
z
" clip-path="url(#pf42eb2c862)" style="fill: #ff7f0e; opacity: 0.6"/>
   </g>
   <g id="patch_37">
    <path d="M 106.885625 288.910125 
L 117.707443 288.910125 
L 117.707443 255.118125 
L 106.885625 255.118125 
z
" clip-path="url(#pf42eb2c862)" style="fill: #ff7f0e; opacity: 0.6"/>
   </g>
   <g id="patch_38">
    <path d="M 117.707443 288.910125 
L 128.529261 288.910125 
L 128.529261 279.12823 
L 117.707443 279.12823 
z
" clip-path="url(#pf42eb2c862)" style="fill: #ff7f0e; opacity: 0.6"/>
   </g>
   <g id="patch_39">
    <path d="M 128.529261 288.910125 
L 139.35108 288.910125 
L 139.35108 268.457072 
L 128.529261 268.457072 
z
" clip-path="url(#pf42eb2c862)" style="fill: #ff7f0e; opacity: 0.6"/>
   </g>
   <g id="patch_40">
    <path d="M 139.35108 288.910125 
L 150.172898 288.910125 
L 150.172898 276.460441 
L 139.35108 276.460441 
z
" clip-path="url(#pf42eb2c862)" style="fill: #ff7f0e; opacity: 0.6"/>
   </g>
   <g id="patch_41">
    <path d="M 150.172898 288.910125 
L 160.994716 288.910125 
L 160.994716 239.111388 
L 150.172898 239.111388 
z
" clip-path="url(#pf42eb2c862)" style="fill: #ff7f0e; opacity: 0.6"/>
   </g>
   <g id="patch_42">
    <path d="M 160.994716 288.910125 
L 171.816534 288.910125 
L 171.816534 250.671809 
L 160.994716 250.671809 
z
" clip-path="url(#pf42eb2c862)" style="fill: #ff7f0e; opacity: 0.6"/>
   </g>
   <g id="patch_43">
    <path d="M 171.816534 288.910125 
L 182.638352 288.910125 
L 182.638352 124.396441 
L 171.816534 124.396441 
z
" clip-path="url(#pf42eb2c862)" style="fill: #ff7f0e; opacity: 0.6"/>
   </g>
   <g id="patch_44">
    <path d="M 182.638352 288.910125 
L 193.46017 288.910125 
L 193.46017 249.782546 
L 182.638352 249.782546 
z
" clip-path="url(#pf42eb2c862)" style="fill: #ff7f0e; opacity: 0.6"/>
   </g>
   <g id="patch_45">
    <path d="M 193.46017 288.910125 
L 204.281989 288.910125 
L 204.281989 232.886546 
L 193.46017 232.886546 
z
" clip-path="url(#pf42eb2c862)" style="fill: #ff7f0e; opacity: 0.6"/>
   </g>
   <g id="patch_46">
    <path d="M 204.281989 288.910125 
L 215.103807 288.910125 
L 215.103807 271.124862 
L 204.281989 271.124862 
z
" clip-path="url(#pf42eb2c862)" style="fill: #ff7f0e; opacity: 0.6"/>
   </g>
   <g id="patch_47">
    <path d="M 215.103807 288.910125 
L 225.925625 288.910125 
L 225.925625 271.124862 
L 215.103807 271.124862 
z
" clip-path="url(#pf42eb2c862)" style="fill: #ff7f0e; opacity: 0.6"/>
   </g>
   <g id="patch_48">
    <path d="M 225.925625 288.910125 
L 236.747443 288.910125 
L 236.747443 262.23223 
L 225.925625 262.23223 
z
" clip-path="url(#pf42eb2c862)" style="fill: #ff7f0e; opacity: 0.6"/>
   </g>
   <g id="patch_49">
    <path d="M 236.747443 288.910125 
L 247.569261 288.910125 
L 247.569261 277.349704 
L 236.747443 277.349704 
z
" clip-path="url(#pf42eb2c862)" style="fill: #ff7f0e; opacity: 0.6"/>
   </g>
   <g id="patch_50">
    <path d="M 247.569261 288.910125 
L 258.39108 288.910125 
L 258.39108 282.685283 
L 247.569261 282.685283 
z
" clip-path="url(#pf42eb2c862)" style="fill: #ff7f0e; opacity: 0.6"/>
   </g>
   <g id="patch_51">
    <path d="M 258.39108 288.910125 
L 269.212898 288.910125 
L 269.212898 287.131599 
L 258.39108 287.131599 
z
" clip-path="url(#pf42eb2c862)" style="fill: #ff7f0e; opacity: 0.6"/>
   </g>
   <g id="patch_52">
    <path d="M 269.212898 288.910125 
L 280.034716 288.910125 
L 280.034716 280.906757 
L 269.212898 280.906757 
z
" clip-path="url(#pf42eb2c862)" style="fill: #ff7f0e; opacity: 0.6"/>
   </g>
   <g id="patch_53">
    <path d="M 280.034716 288.910125 
L 290.856534 288.910125 
L 290.856534 288.910125 
L 280.034716 288.910125 
z
" clip-path="url(#pf42eb2c862)" style="fill: #ff7f0e; opacity: 0.6"/>
   </g>
   <g id="patch_54">
    <path d="M 290.856534 288.910125 
L 301.678352 288.910125 
L 301.678352 284.463809 
L 290.856534 284.463809 
z
" clip-path="url(#pf42eb2c862)" style="fill: #ff7f0e; opacity: 0.6"/>
   </g>
   <g id="patch_55">
    <path d="M 301.678352 288.910125 
L 312.50017 288.910125 
L 312.50017 285.353072 
L 301.678352 285.353072 
z
" clip-path="url(#pf42eb2c862)" style="fill: #ff7f0e; opacity: 0.6"/>
   </g>
   <g id="patch_56">
    <path d="M 312.50017 288.910125 
L 323.321989 288.910125 
L 323.321989 285.353072 
L 312.50017 285.353072 
z
" clip-path="url(#pf42eb2c862)" style="fill: #ff7f0e; opacity: 0.6"/>
   </g>
   <g id="patch_57">
    <path d="M 323.321989 288.910125 
L 334.143807 288.910125 
L 334.143807 287.131599 
L 323.321989 287.131599 
z
" clip-path="url(#pf42eb2c862)" style="fill: #ff7f0e; opacity: 0.6"/>
   </g>
   <g id="patch_58">
    <path d="M 334.143807 288.910125 
L 344.965625 288.910125 
L 344.965625 284.463809 
L 334.143807 284.463809 
z
" clip-path="url(#pf42eb2c862)" style="fill: #ff7f0e; opacity: 0.6"/>
   </g>
   <g id="patch_59">
    <path d="M 344.965625 288.910125 
L 355.787443 288.910125 
L 355.787443 288.020862 
L 344.965625 288.020862 
z
" clip-path="url(#pf42eb2c862)" style="fill: #ff7f0e; opacity: 0.6"/>
   </g>
   <g id="patch_60">
    <path d="M 355.787443 288.910125 
L 366.609261 288.910125 
L 366.609261 287.131599 
L 355.787443 287.131599 
z
" clip-path="url(#pf42eb2c862)" style="fill: #ff7f0e; opacity: 0.6"/>
   </g>
   <g id="patch_61">
    <path d="M 366.609261 288.910125 
L 377.43108 288.910125 
L 377.43108 288.910125 
L 366.609261 288.910125 
z
" clip-path="url(#pf42eb2c862)" style="fill: #ff7f0e; opacity: 0.6"/>
   </g>
   <g id="patch_62">
    <path d="M 377.43108 288.910125 
L 388.252898 288.910125 
L 388.252898 284.463809 
L 377.43108 284.463809 
z
" clip-path="url(#pf42eb2c862)" style="fill: #ff7f0e; opacity: 0.6"/>
   </g>
   <g id="matplotlib.axis_1">
    <g id="xtick_1">
     <g id="line2d_1">
      <defs>
       <path id="md8a3efa459" d="M 0 0 
L 0 3.5 
" style="stroke: #000000; stroke-width: 0.8"/>
      </defs>
      <g>
       <use xlink:href="#md8a3efa459" x="100.490914" y="288.910125" style="stroke: #000000; stroke-width: 0.8"/>
      </g>
     </g>
     <g id="text_1">
      <!-- 10 -->
      <g transform="translate(94.128414 303.508562) scale(0.1 -0.1)">
       <defs>
        <path id="DejaVuSans-31" d="M 794 531 
L 1825 531 
L 1825 4091 
L 703 3866 
L 703 4441 
L 1819 4666 
L 2450 4666 
L 2450 531 
L 3481 531 
L 3481 0 
L 794 0 
L 794 531 
z
" transform="scale(0.015625)"/>
        <path id="DejaVuSans-30" d="M 2034 4250 
Q 1547 4250 1301 3770 
Q 1056 3291 1056 2328 
Q 1056 1369 1301 889 
Q 1547 409 2034 409 
Q 2525 409 2770 889 
Q 3016 1369 3016 2328 
Q 3016 3291 2770 3770 
Q 2525 4250 2034 4250 
z
M 2034 4750 
Q 2819 4750 3233 4129 
Q 3647 3509 3647 2328 
Q 3647 1150 3233 529 
Q 2819 -91 2034 -91 
Q 1250 -91 836 529 
Q 422 1150 422 2328 
Q 422 3509 836 4129 
Q 1250 4750 2034 4750 
z
" transform="scale(0.015625)"/>
       </defs>
       <use xlink:href="#DejaVuSans-31"/>
       <use xlink:href="#DejaVuSans-30" transform="translate(63.623047 0)"/>
      </g>
     </g>
    </g>
    <g id="xtick_2">
     <g id="line2d_2">
      <g>
       <use xlink:href="#md8a3efa459" x="174.276038" y="288.910125" style="stroke: #000000; stroke-width: 0.8"/>
      </g>
     </g>
     <g id="text_2">
      <!-- 20 -->
      <g transform="translate(167.913538 303.508562) scale(0.1 -0.1)">
       <defs>
        <path id="DejaVuSans-32" d="M 1228 531 
L 3431 531 
L 3431 0 
L 469 0 
L 469 531 
Q 828 903 1448 1529 
Q 2069 2156 2228 2338 
Q 2531 2678 2651 2914 
Q 2772 3150 2772 3378 
Q 2772 3750 2511 3984 
Q 2250 4219 1831 4219 
Q 1534 4219 1204 4116 
Q 875 4013 500 3803 
L 500 4441 
Q 881 4594 1212 4672 
Q 1544 4750 1819 4750 
Q 2544 4750 2975 4387 
Q 3406 4025 3406 3419 
Q 3406 3131 3298 2873 
Q 3191 2616 2906 2266 
Q 2828 2175 2409 1742 
Q 1991 1309 1228 531 
z
" transform="scale(0.015625)"/>
       </defs>
       <use xlink:href="#DejaVuSans-32"/>
       <use xlink:href="#DejaVuSans-30" transform="translate(63.623047 0)"/>
      </g>
     </g>
    </g>
    <g id="xtick_3">
     <g id="line2d_3">
      <g>
       <use xlink:href="#md8a3efa459" x="248.061162" y="288.910125" style="stroke: #000000; stroke-width: 0.8"/>
      </g>
     </g>
     <g id="text_3">
      <!-- 30 -->
      <g transform="translate(241.698662 303.508562) scale(0.1 -0.1)">
       <defs>
        <path id="DejaVuSans-33" d="M 2597 2516 
Q 3050 2419 3304 2112 
Q 3559 1806 3559 1356 
Q 3559 666 3084 287 
Q 2609 -91 1734 -91 
Q 1441 -91 1130 -33 
Q 819 25 488 141 
L 488 750 
Q 750 597 1062 519 
Q 1375 441 1716 441 
Q 2309 441 2620 675 
Q 2931 909 2931 1356 
Q 2931 1769 2642 2001 
Q 2353 2234 1838 2234 
L 1294 2234 
L 1294 2753 
L 1863 2753 
Q 2328 2753 2575 2939 
Q 2822 3125 2822 3475 
Q 2822 3834 2567 4026 
Q 2313 4219 1838 4219 
Q 1578 4219 1281 4162 
Q 984 4106 628 3988 
L 628 4550 
Q 988 4650 1302 4700 
Q 1616 4750 1894 4750 
Q 2613 4750 3031 4423 
Q 3450 4097 3450 3541 
Q 3450 3153 3228 2886 
Q 3006 2619 2597 2516 
z
" transform="scale(0.015625)"/>
       </defs>
       <use xlink:href="#DejaVuSans-33"/>
       <use xlink:href="#DejaVuSans-30" transform="translate(63.623047 0)"/>
      </g>
     </g>
    </g>
    <g id="xtick_4">
     <g id="line2d_4">
      <g>
       <use xlink:href="#md8a3efa459" x="321.846286" y="288.910125" style="stroke: #000000; stroke-width: 0.8"/>
      </g>
     </g>
     <g id="text_4">
      <!-- 40 -->
      <g transform="translate(315.483786 303.508562) scale(0.1 -0.1)">
       <defs>
        <path id="DejaVuSans-34" d="M 2419 4116 
L 825 1625 
L 2419 1625 
L 2419 4116 
z
M 2253 4666 
L 3047 4666 
L 3047 1625 
L 3713 1625 
L 3713 1100 
L 3047 1100 
L 3047 0 
L 2419 0 
L 2419 1100 
L 313 1100 
L 313 1709 
L 2253 4666 
z
" transform="scale(0.015625)"/>
       </defs>
       <use xlink:href="#DejaVuSans-34"/>
       <use xlink:href="#DejaVuSans-30" transform="translate(63.623047 0)"/>
      </g>
     </g>
    </g>
    <g id="xtick_5">
     <g id="line2d_5">
      <g>
       <use xlink:href="#md8a3efa459" x="395.63141" y="288.910125" style="stroke: #000000; stroke-width: 0.8"/>
      </g>
     </g>
     <g id="text_5">
      <!-- 50 -->
      <g transform="translate(389.26891 303.508562) scale(0.1 -0.1)">
       <defs>
        <path id="DejaVuSans-35" d="M 691 4666 
L 3169 4666 
L 3169 4134 
L 1269 4134 
L 1269 2991 
Q 1406 3038 1543 3061 
Q 1681 3084 1819 3084 
Q 2600 3084 3056 2656 
Q 3513 2228 3513 1497 
Q 3513 744 3044 326 
Q 2575 -91 1722 -91 
Q 1428 -91 1123 -41 
Q 819 9 494 109 
L 494 744 
Q 775 591 1075 516 
Q 1375 441 1709 441 
Q 2250 441 2565 725 
Q 2881 1009 2881 1497 
Q 2881 1984 2565 2268 
Q 2250 2553 1709 2553 
Q 1456 2553 1204 2497 
Q 953 2441 691 2322 
L 691 4666 
z
" transform="scale(0.015625)"/>
       </defs>
       <use xlink:href="#DejaVuSans-35"/>
       <use xlink:href="#DejaVuSans-30" transform="translate(63.623047 0)"/>
      </g>
     </g>
    </g>
    <g id="text_6">
     <!-- Długość sekwencji -->
     <g transform="translate(179.870938 317.586687) scale(0.1 -0.1)">
      <defs>
       <path id="DejaVuSans-44" d="M 1259 4147 
L 1259 519 
L 2022 519 
Q 2988 519 3436 956 
Q 3884 1394 3884 2338 
Q 3884 3275 3436 3711 
Q 2988 4147 2022 4147 
L 1259 4147 
z
M 628 4666 
L 1925 4666 
Q 3281 4666 3915 4102 
Q 4550 3538 4550 2338 
Q 4550 1131 3912 565 
Q 3275 0 1925 0 
L 628 0 
L 628 4666 
z
" transform="scale(0.015625)"/>
       <path id="DejaVuSans-142" d="M 622 4863 
L 1197 4863 
L 1197 2981 
L 1588 3263 
L 1825 2931 
L 1197 2491 
L 1197 0 
L 622 0 
L 622 2081 
L 238 1806 
L 6 2138 
L 622 2578 
L 622 4863 
z
" transform="scale(0.015625)"/>
       <path id="DejaVuSans-75" d="M 544 1381 
L 544 3500 
L 1119 3500 
L 1119 1403 
Q 1119 906 1312 657 
Q 1506 409 1894 409 
Q 2359 409 2629 706 
Q 2900 1003 2900 1516 
L 2900 3500 
L 3475 3500 
L 3475 0 
L 2900 0 
L 2900 538 
Q 2691 219 2414 64 
Q 2138 -91 1772 -91 
Q 1169 -91 856 284 
Q 544 659 544 1381 
z
M 1991 3584 
L 1991 3584 
z
" transform="scale(0.015625)"/>
       <path id="DejaVuSans-67" d="M 2906 1791 
Q 2906 2416 2648 2759 
Q 2391 3103 1925 3103 
Q 1463 3103 1205 2759 
Q 947 2416 947 1791 
Q 947 1169 1205 825 
Q 1463 481 1925 481 
Q 2391 481 2648 825 
Q 2906 1169 2906 1791 
z
M 3481 434 
Q 3481 -459 3084 -895 
Q 2688 -1331 1869 -1331 
Q 1566 -1331 1297 -1286 
Q 1028 -1241 775 -1147 
L 775 -588 
Q 1028 -725 1275 -790 
Q 1522 -856 1778 -856 
Q 2344 -856 2625 -561 
Q 2906 -266 2906 331 
L 2906 616 
Q 2728 306 2450 153 
Q 2172 0 1784 0 
Q 1141 0 747 490 
Q 353 981 353 1791 
Q 353 2603 747 3093 
Q 1141 3584 1784 3584 
Q 2172 3584 2450 3431 
Q 2728 3278 2906 2969 
L 2906 3500 
L 3481 3500 
L 3481 434 
z
" transform="scale(0.015625)"/>
       <path id="DejaVuSans-6f" d="M 1959 3097 
Q 1497 3097 1228 2736 
Q 959 2375 959 1747 
Q 959 1119 1226 758 
Q 1494 397 1959 397 
Q 2419 397 2687 759 
Q 2956 1122 2956 1747 
Q 2956 2369 2687 2733 
Q 2419 3097 1959 3097 
z
M 1959 3584 
Q 2709 3584 3137 3096 
Q 3566 2609 3566 1747 
Q 3566 888 3137 398 
Q 2709 -91 1959 -91 
Q 1206 -91 779 398 
Q 353 888 353 1747 
Q 353 2609 779 3096 
Q 1206 3584 1959 3584 
z
" transform="scale(0.015625)"/>
       <path id="DejaVuSans-15b" d="M 2242 5119 
L 2864 5119 
L 1846 3944 
L 1367 3944 
L 2242 5119 
z
M 2834 3397 
L 2834 2853 
Q 2591 2978 2328 3040 
Q 2066 3103 1784 3103 
Q 1356 3103 1142 2972 
Q 928 2841 928 2578 
Q 928 2378 1081 2264 
Q 1234 2150 1697 2047 
L 1894 2003 
Q 2506 1872 2764 1633 
Q 3022 1394 3022 966 
Q 3022 478 2636 193 
Q 2250 -91 1575 -91 
Q 1294 -91 989 -36 
Q 684 19 347 128 
L 347 722 
Q 666 556 975 473 
Q 1284 391 1588 391 
Q 1994 391 2212 530 
Q 2431 669 2431 922 
Q 2431 1156 2273 1281 
Q 2116 1406 1581 1522 
L 1381 1569 
Q 847 1681 609 1914 
Q 372 2147 372 2553 
Q 372 3047 722 3315 
Q 1072 3584 1716 3584 
Q 2034 3584 2315 3537 
Q 2597 3491 2834 3397 
z
" transform="scale(0.015625)"/>
       <path id="DejaVuSans-107" d="M 3122 3366 
L 3122 2828 
Q 2878 2963 2633 3030 
Q 2388 3097 2138 3097 
Q 1578 3097 1268 2742 
Q 959 2388 959 1747 
Q 959 1106 1268 751 
Q 1578 397 2138 397 
Q 2388 397 2633 464 
Q 2878 531 3122 666 
L 3122 134 
Q 2881 22 2623 -34 
Q 2366 -91 2075 -91 
Q 1284 -91 818 406 
Q 353 903 353 1747 
Q 353 2603 823 3093 
Q 1294 3584 2113 3584 
Q 2378 3584 2631 3529 
Q 2884 3475 3122 3366 
z
M 2466 5119 
L 3088 5119 
L 2070 3944 
L 1591 3944 
L 2466 5119 
z
" transform="scale(0.015625)"/>
       <path id="DejaVuSans-20" transform="scale(0.015625)"/>
       <path id="DejaVuSans-73" d="M 2834 3397 
L 2834 2853 
Q 2591 2978 2328 3040 
Q 2066 3103 1784 3103 
Q 1356 3103 1142 2972 
Q 928 2841 928 2578 
Q 928 2378 1081 2264 
Q 1234 2150 1697 2047 
L 1894 2003 
Q 2506 1872 2764 1633 
Q 3022 1394 3022 966 
Q 3022 478 2636 193 
Q 2250 -91 1575 -91 
Q 1294 -91 989 -36 
Q 684 19 347 128 
L 347 722 
Q 666 556 975 473 
Q 1284 391 1588 391 
Q 1994 391 2212 530 
Q 2431 669 2431 922 
Q 2431 1156 2273 1281 
Q 2116 1406 1581 1522 
L 1381 1569 
Q 847 1681 609 1914 
Q 372 2147 372 2553 
Q 372 3047 722 3315 
Q 1072 3584 1716 3584 
Q 2034 3584 2315 3537 
Q 2597 3491 2834 3397 
z
" transform="scale(0.015625)"/>
       <path id="DejaVuSans-65" d="M 3597 1894 
L 3597 1613 
L 953 1613 
Q 991 1019 1311 708 
Q 1631 397 2203 397 
Q 2534 397 2845 478 
Q 3156 559 3463 722 
L 3463 178 
Q 3153 47 2828 -22 
Q 2503 -91 2169 -91 
Q 1331 -91 842 396 
Q 353 884 353 1716 
Q 353 2575 817 3079 
Q 1281 3584 2069 3584 
Q 2775 3584 3186 3129 
Q 3597 2675 3597 1894 
z
M 3022 2063 
Q 3016 2534 2758 2815 
Q 2500 3097 2075 3097 
Q 1594 3097 1305 2825 
Q 1016 2553 972 2059 
L 3022 2063 
z
" transform="scale(0.015625)"/>
       <path id="DejaVuSans-6b" d="M 581 4863 
L 1159 4863 
L 1159 1991 
L 2875 3500 
L 3609 3500 
L 1753 1863 
L 3688 0 
L 2938 0 
L 1159 1709 
L 1159 0 
L 581 0 
L 581 4863 
z
" transform="scale(0.015625)"/>
       <path id="DejaVuSans-77" d="M 269 3500 
L 844 3500 
L 1563 769 
L 2278 3500 
L 2956 3500 
L 3675 769 
L 4391 3500 
L 4966 3500 
L 4050 0 
L 3372 0 
L 2619 2869 
L 1863 0 
L 1184 0 
L 269 3500 
z
" transform="scale(0.015625)"/>
       <path id="DejaVuSans-6e" d="M 3513 2113 
L 3513 0 
L 2938 0 
L 2938 2094 
Q 2938 2591 2744 2837 
Q 2550 3084 2163 3084 
Q 1697 3084 1428 2787 
Q 1159 2491 1159 1978 
L 1159 0 
L 581 0 
L 581 3500 
L 1159 3500 
L 1159 2956 
Q 1366 3272 1645 3428 
Q 1925 3584 2291 3584 
Q 2894 3584 3203 3211 
Q 3513 2838 3513 2113 
z
" transform="scale(0.015625)"/>
       <path id="DejaVuSans-63" d="M 3122 3366 
L 3122 2828 
Q 2878 2963 2633 3030 
Q 2388 3097 2138 3097 
Q 1578 3097 1268 2742 
Q 959 2388 959 1747 
Q 959 1106 1268 751 
Q 1578 397 2138 397 
Q 2388 397 2633 464 
Q 2878 531 3122 666 
L 3122 134 
Q 2881 22 2623 -34 
Q 2366 -91 2075 -91 
Q 1284 -91 818 406 
Q 353 903 353 1747 
Q 353 2603 823 3093 
Q 1294 3584 2113 3584 
Q 2378 3584 2631 3529 
Q 2884 3475 3122 3366 
z
" transform="scale(0.015625)"/>
       <path id="DejaVuSans-6a" d="M 603 3500 
L 1178 3500 
L 1178 -63 
Q 1178 -731 923 -1031 
Q 669 -1331 103 -1331 
L -116 -1331 
L -116 -844 
L 38 -844 
Q 366 -844 484 -692 
Q 603 -541 603 -63 
L 603 3500 
z
M 603 4863 
L 1178 4863 
L 1178 4134 
L 603 4134 
L 603 4863 
z
" transform="scale(0.015625)"/>
       <path id="DejaVuSans-69" d="M 603 3500 
L 1178 3500 
L 1178 0 
L 603 0 
L 603 3500 
z
M 603 4863 
L 1178 4863 
L 1178 4134 
L 603 4134 
L 603 4863 
z
" transform="scale(0.015625)"/>
      </defs>
      <use xlink:href="#DejaVuSans-44"/>
      <use xlink:href="#DejaVuSans-142" transform="translate(77.001953 0)"/>
      <use xlink:href="#DejaVuSans-75" transform="translate(105.419922 0)"/>
      <use xlink:href="#DejaVuSans-67" transform="translate(168.798828 0)"/>
      <use xlink:href="#DejaVuSans-6f" transform="translate(232.275391 0)"/>
      <use xlink:href="#DejaVuSans-15b" transform="translate(293.457031 0)"/>
      <use xlink:href="#DejaVuSans-107" transform="translate(345.556641 0)"/>
      <use xlink:href="#DejaVuSans-20" transform="translate(400.537109 0)"/>
      <use xlink:href="#DejaVuSans-73" transform="translate(432.324219 0)"/>
      <use xlink:href="#DejaVuSans-65" transform="translate(484.423828 0)"/>
      <use xlink:href="#DejaVuSans-6b" transform="translate(545.947266 0)"/>
      <use xlink:href="#DejaVuSans-77" transform="translate(603.857422 0)"/>
      <use xlink:href="#DejaVuSans-65" transform="translate(685.644531 0)"/>
      <use xlink:href="#DejaVuSans-6e" transform="translate(747.167969 0)"/>
      <use xlink:href="#DejaVuSans-63" transform="translate(810.546875 0)"/>
      <use xlink:href="#DejaVuSans-6a" transform="translate(865.527344 0)"/>
      <use xlink:href="#DejaVuSans-69" transform="translate(893.310547 0)"/>
     </g>
    </g>
   </g>
   <g id="matplotlib.axis_2">
    <g id="ytick_1">
     <g id="line2d_6">
      <defs>
       <path id="m58fc544153" d="M 0 0 
L -3.5 0 
" style="stroke: #000000; stroke-width: 0.8"/>
      </defs>
      <g>
       <use xlink:href="#m58fc544153" x="47.365625" y="288.910125" style="stroke: #000000; stroke-width: 0.8"/>
      </g>
     </g>
     <g id="text_7">
      <!-- 0 -->
      <g transform="translate(34.003125 292.709344) scale(0.1 -0.1)">
       <use xlink:href="#DejaVuSans-30"/>
      </g>
     </g>
    </g>
    <g id="ytick_2">
     <g id="line2d_7">
      <g>
       <use xlink:href="#m58fc544153" x="47.365625" y="244.446967" style="stroke: #000000; stroke-width: 0.8"/>
      </g>
     </g>
     <g id="text_8">
      <!-- 50 -->
      <g transform="translate(27.640625 248.246186) scale(0.1 -0.1)">
       <use xlink:href="#DejaVuSans-35"/>
       <use xlink:href="#DejaVuSans-30" transform="translate(63.623047 0)"/>
      </g>
     </g>
    </g>
    <g id="ytick_3">
     <g id="line2d_8">
      <g>
       <use xlink:href="#m58fc544153" x="47.365625" y="199.983809" style="stroke: #000000; stroke-width: 0.8"/>
      </g>
     </g>
     <g id="text_9">
      <!-- 100 -->
      <g transform="translate(21.278125 203.783028) scale(0.1 -0.1)">
       <use xlink:href="#DejaVuSans-31"/>
       <use xlink:href="#DejaVuSans-30" transform="translate(63.623047 0)"/>
       <use xlink:href="#DejaVuSans-30" transform="translate(127.246094 0)"/>
      </g>
     </g>
    </g>
    <g id="ytick_4">
     <g id="line2d_9">
      <g>
       <use xlink:href="#m58fc544153" x="47.365625" y="155.520651" style="stroke: #000000; stroke-width: 0.8"/>
      </g>
     </g>
     <g id="text_10">
      <!-- 150 -->
      <g transform="translate(21.278125 159.31987) scale(0.1 -0.1)">
       <use xlink:href="#DejaVuSans-31"/>
       <use xlink:href="#DejaVuSans-35" transform="translate(63.623047 0)"/>
       <use xlink:href="#DejaVuSans-30" transform="translate(127.246094 0)"/>
      </g>
     </g>
    </g>
    <g id="ytick_5">
     <g id="line2d_10">
      <g>
       <use xlink:href="#m58fc544153" x="47.365625" y="111.057493" style="stroke: #000000; stroke-width: 0.8"/>
      </g>
     </g>
     <g id="text_11">
      <!-- 200 -->
      <g transform="translate(21.278125 114.856712) scale(0.1 -0.1)">
       <use xlink:href="#DejaVuSans-32"/>
       <use xlink:href="#DejaVuSans-30" transform="translate(63.623047 0)"/>
       <use xlink:href="#DejaVuSans-30" transform="translate(127.246094 0)"/>
      </g>
     </g>
    </g>
    <g id="ytick_6">
     <g id="line2d_11">
      <g>
       <use xlink:href="#m58fc544153" x="47.365625" y="66.594336" style="stroke: #000000; stroke-width: 0.8"/>
      </g>
     </g>
     <g id="text_12">
      <!-- 250 -->
      <g transform="translate(21.278125 70.393554) scale(0.1 -0.1)">
       <use xlink:href="#DejaVuSans-32"/>
       <use xlink:href="#DejaVuSans-35" transform="translate(63.623047 0)"/>
       <use xlink:href="#DejaVuSans-30" transform="translate(127.246094 0)"/>
      </g>
     </g>
    </g>
    <g id="text_13">
     <!-- Liczba wystąpień -->
     <g transform="translate(15.198438 198.715844) rotate(-90) scale(0.1 -0.1)">
      <defs>
       <path id="DejaVuSans-4c" d="M 628 4666 
L 1259 4666 
L 1259 531 
L 3531 531 
L 3531 0 
L 628 0 
L 628 4666 
z
" transform="scale(0.015625)"/>
       <path id="DejaVuSans-7a" d="M 353 3500 
L 3084 3500 
L 3084 2975 
L 922 459 
L 3084 459 
L 3084 0 
L 275 0 
L 275 525 
L 2438 3041 
L 353 3041 
L 353 3500 
z
" transform="scale(0.015625)"/>
       <path id="DejaVuSans-62" d="M 3116 1747 
Q 3116 2381 2855 2742 
Q 2594 3103 2138 3103 
Q 1681 3103 1420 2742 
Q 1159 2381 1159 1747 
Q 1159 1113 1420 752 
Q 1681 391 2138 391 
Q 2594 391 2855 752 
Q 3116 1113 3116 1747 
z
M 1159 2969 
Q 1341 3281 1617 3432 
Q 1894 3584 2278 3584 
Q 2916 3584 3314 3078 
Q 3713 2572 3713 1747 
Q 3713 922 3314 415 
Q 2916 -91 2278 -91 
Q 1894 -91 1617 61 
Q 1341 213 1159 525 
L 1159 0 
L 581 0 
L 581 4863 
L 1159 4863 
L 1159 2969 
z
" transform="scale(0.015625)"/>
       <path id="DejaVuSans-61" d="M 2194 1759 
Q 1497 1759 1228 1600 
Q 959 1441 959 1056 
Q 959 750 1161 570 
Q 1363 391 1709 391 
Q 2188 391 2477 730 
Q 2766 1069 2766 1631 
L 2766 1759 
L 2194 1759 
z
M 3341 1997 
L 3341 0 
L 2766 0 
L 2766 531 
Q 2569 213 2275 61 
Q 1981 -91 1556 -91 
Q 1019 -91 701 211 
Q 384 513 384 1019 
Q 384 1609 779 1909 
Q 1175 2209 1959 2209 
L 2766 2209 
L 2766 2266 
Q 2766 2663 2505 2880 
Q 2244 3097 1772 3097 
Q 1472 3097 1187 3025 
Q 903 2953 641 2809 
L 641 3341 
Q 956 3463 1253 3523 
Q 1550 3584 1831 3584 
Q 2591 3584 2966 3190 
Q 3341 2797 3341 1997 
z
" transform="scale(0.015625)"/>
       <path id="DejaVuSans-79" d="M 2059 -325 
Q 1816 -950 1584 -1140 
Q 1353 -1331 966 -1331 
L 506 -1331 
L 506 -850 
L 844 -850 
Q 1081 -850 1212 -737 
Q 1344 -625 1503 -206 
L 1606 56 
L 191 3500 
L 800 3500 
L 1894 763 
L 2988 3500 
L 3597 3500 
L 2059 -325 
z
" transform="scale(0.015625)"/>
       <path id="DejaVuSans-74" d="M 1172 4494 
L 1172 3500 
L 2356 3500 
L 2356 3053 
L 1172 3053 
L 1172 1153 
Q 1172 725 1289 603 
Q 1406 481 1766 481 
L 2356 481 
L 2356 0 
L 1766 0 
Q 1100 0 847 248 
Q 594 497 594 1153 
L 594 3053 
L 172 3053 
L 172 3500 
L 594 3500 
L 594 4494 
L 1172 4494 
z
" transform="scale(0.015625)"/>
       <path id="DejaVuSans-105" d="M 2194 1759 
Q 1497 1759 1228 1600 
Q 959 1441 959 1056 
Q 959 750 1161 570 
Q 1363 391 1709 391 
Q 2188 391 2477 730 
Q 2766 1069 2766 1631 
L 2766 1759 
L 2194 1759 
z
M 3341 1997 
L 3341 0 
L 2766 0 
L 2766 531 
Q 2569 213 2275 61 
Q 1981 -91 1556 -91 
Q 1019 -91 701 211 
Q 384 513 384 1019 
Q 384 1609 779 1909 
Q 1175 2209 1959 2209 
L 2766 2209 
L 2766 2266 
Q 2766 2663 2505 2880 
Q 2244 3097 1772 3097 
Q 1472 3097 1187 3025 
Q 903 2953 641 2809 
L 641 3341 
Q 956 3463 1253 3523 
Q 1550 3584 1831 3584 
Q 2591 3584 2966 3190 
Q 3341 2797 3341 1997 
z
M 2775 0 
L 3147 0 
Q 3006 -191 2939 -328 
Q 2872 -466 2872 -563 
Q 2872 -706 2958 -778 
Q 3044 -850 3213 -850 
Q 3313 -850 3409 -826 
Q 3506 -803 3603 -756 
L 3603 -1172 
Q 3484 -1203 3378 -1218 
Q 3272 -1234 3178 -1234 
Q 2797 -1234 2617 -1098 
Q 2438 -963 2438 -672 
Q 2438 -522 2520 -358 
Q 2603 -194 2775 0 
z
" transform="scale(0.015625)"/>
       <path id="DejaVuSans-70" d="M 1159 525 
L 1159 -1331 
L 581 -1331 
L 581 3500 
L 1159 3500 
L 1159 2969 
Q 1341 3281 1617 3432 
Q 1894 3584 2278 3584 
Q 2916 3584 3314 3078 
Q 3713 2572 3713 1747 
Q 3713 922 3314 415 
Q 2916 -91 2278 -91 
Q 1894 -91 1617 61 
Q 1341 213 1159 525 
z
M 3116 1747 
Q 3116 2381 2855 2742 
Q 2594 3103 2138 3103 
Q 1681 3103 1420 2742 
Q 1159 2381 1159 1747 
Q 1159 1113 1420 752 
Q 1681 391 2138 391 
Q 2594 391 2855 752 
Q 3116 1113 3116 1747 
z
" transform="scale(0.015625)"/>
       <path id="DejaVuSans-144" d="M 2242 5119 
L 2864 5119 
L 1846 3944 
L 1367 3944 
L 2242 5119 
z
M 3513 2113 
L 3513 0 
L 2938 0 
L 2938 2094 
Q 2938 2591 2744 2837 
Q 2550 3084 2163 3084 
Q 1697 3084 1428 2787 
Q 1159 2491 1159 1978 
L 1159 0 
L 581 0 
L 581 3500 
L 1159 3500 
L 1159 2956 
Q 1366 3272 1645 3428 
Q 1925 3584 2291 3584 
Q 2894 3584 3203 3211 
Q 3513 2838 3513 2113 
z
" transform="scale(0.015625)"/>
      </defs>
      <use xlink:href="#DejaVuSans-4c"/>
      <use xlink:href="#DejaVuSans-69" transform="translate(55.712891 0)"/>
      <use xlink:href="#DejaVuSans-63" transform="translate(83.496094 0)"/>
      <use xlink:href="#DejaVuSans-7a" transform="translate(138.476562 0)"/>
      <use xlink:href="#DejaVuSans-62" transform="translate(190.966797 0)"/>
      <use xlink:href="#DejaVuSans-61" transform="translate(254.443359 0)"/>
      <use xlink:href="#DejaVuSans-20" transform="translate(315.722656 0)"/>
      <use xlink:href="#DejaVuSans-77" transform="translate(347.509766 0)"/>
      <use xlink:href="#DejaVuSans-79" transform="translate(429.296875 0)"/>
      <use xlink:href="#DejaVuSans-73" transform="translate(488.476562 0)"/>
      <use xlink:href="#DejaVuSans-74" transform="translate(540.576172 0)"/>
      <use xlink:href="#DejaVuSans-105" transform="translate(579.785156 0)"/>
      <use xlink:href="#DejaVuSans-70" transform="translate(641.064453 0)"/>
      <use xlink:href="#DejaVuSans-69" transform="translate(704.541016 0)"/>
      <use xlink:href="#DejaVuSans-65" transform="translate(732.324219 0)"/>
      <use xlink:href="#DejaVuSans-144" transform="translate(793.847656 0)"/>
     </g>
    </g>
   </g>
   <g id="patch_63">
    <path d="M 47.365625 288.910125 
L 47.365625 22.798125 
" style="fill: none; stroke: #000000; stroke-width: 0.8; stroke-linejoin: miter; stroke-linecap: square"/>
   </g>
   <g id="patch_64">
    <path d="M 404.485625 288.910125 
L 404.485625 22.798125 
" style="fill: none; stroke: #000000; stroke-width: 0.8; stroke-linejoin: miter; stroke-linecap: square"/>
   </g>
   <g id="patch_65">
    <path d="M 47.365625 288.910125 
L 404.485625 288.910125 
" style="fill: none; stroke: #000000; stroke-width: 0.8; stroke-linejoin: miter; stroke-linecap: square"/>
   </g>
   <g id="patch_66">
    <path d="M 47.365625 22.798125 
L 404.485625 22.798125 
" style="fill: none; stroke: #000000; stroke-width: 0.8; stroke-linejoin: miter; stroke-linecap: square"/>
   </g>
   <g id="text_14">
    <!-- Rozkład długości sekwencji po dopasowaniu -->
    <g transform="translate(93.599375 16.798125) scale(0.12 -0.12)">
     <defs>
      <path id="DejaVuSans-52" d="M 2841 2188 
Q 3044 2119 3236 1894 
Q 3428 1669 3622 1275 
L 4263 0 
L 3584 0 
L 2988 1197 
Q 2756 1666 2539 1819 
Q 2322 1972 1947 1972 
L 1259 1972 
L 1259 0 
L 628 0 
L 628 4666 
L 2053 4666 
Q 2853 4666 3247 4331 
Q 3641 3997 3641 3322 
Q 3641 2881 3436 2590 
Q 3231 2300 2841 2188 
z
M 1259 4147 
L 1259 2491 
L 2053 2491 
Q 2509 2491 2742 2702 
Q 2975 2913 2975 3322 
Q 2975 3731 2742 3939 
Q 2509 4147 2053 4147 
L 1259 4147 
z
" transform="scale(0.015625)"/>
      <path id="DejaVuSans-64" d="M 2906 2969 
L 2906 4863 
L 3481 4863 
L 3481 0 
L 2906 0 
L 2906 525 
Q 2725 213 2448 61 
Q 2172 -91 1784 -91 
Q 1150 -91 751 415 
Q 353 922 353 1747 
Q 353 2572 751 3078 
Q 1150 3584 1784 3584 
Q 2172 3584 2448 3432 
Q 2725 3281 2906 2969 
z
M 947 1747 
Q 947 1113 1208 752 
Q 1469 391 1925 391 
Q 2381 391 2643 752 
Q 2906 1113 2906 1747 
Q 2906 2381 2643 2742 
Q 2381 3103 1925 3103 
Q 1469 3103 1208 2742 
Q 947 2381 947 1747 
z
" transform="scale(0.015625)"/>
     </defs>
     <use xlink:href="#DejaVuSans-52"/>
     <use xlink:href="#DejaVuSans-6f" transform="translate(64.982422 0)"/>
     <use xlink:href="#DejaVuSans-7a" transform="translate(126.164062 0)"/>
     <use xlink:href="#DejaVuSans-6b" transform="translate(178.654297 0)"/>
     <use xlink:href="#DejaVuSans-142" transform="translate(236.564453 0)"/>
     <use xlink:href="#DejaVuSans-61" transform="translate(264.982422 0)"/>
     <use xlink:href="#DejaVuSans-64" transform="translate(326.261719 0)"/>
     <use xlink:href="#DejaVuSans-20" transform="translate(389.738281 0)"/>
     <use xlink:href="#DejaVuSans-64" transform="translate(421.525391 0)"/>
     <use xlink:href="#DejaVuSans-142" transform="translate(485.001953 0)"/>
     <use xlink:href="#DejaVuSans-75" transform="translate(513.419922 0)"/>
     <use xlink:href="#DejaVuSans-67" transform="translate(576.798828 0)"/>
     <use xlink:href="#DejaVuSans-6f" transform="translate(640.275391 0)"/>
     <use xlink:href="#DejaVuSans-15b" transform="translate(701.457031 0)"/>
     <use xlink:href="#DejaVuSans-63" transform="translate(753.556641 0)"/>
     <use xlink:href="#DejaVuSans-69" transform="translate(808.537109 0)"/>
     <use xlink:href="#DejaVuSans-20" transform="translate(836.320312 0)"/>
     <use xlink:href="#DejaVuSans-73" transform="translate(868.107422 0)"/>
     <use xlink:href="#DejaVuSans-65" transform="translate(920.207031 0)"/>
     <use xlink:href="#DejaVuSans-6b" transform="translate(981.730469 0)"/>
     <use xlink:href="#DejaVuSans-77" transform="translate(1039.640625 0)"/>
     <use xlink:href="#DejaVuSans-65" transform="translate(1121.427734 0)"/>
     <use xlink:href="#DejaVuSans-6e" transform="translate(1182.951172 0)"/>
     <use xlink:href="#DejaVuSans-63" transform="translate(1246.330078 0)"/>
     <use xlink:href="#DejaVuSans-6a" transform="translate(1301.310547 0)"/>
     <use xlink:href="#DejaVuSans-69" transform="translate(1329.09375 0)"/>
     <use xlink:href="#DejaVuSans-20" transform="translate(1356.876953 0)"/>
     <use xlink:href="#DejaVuSans-70" transform="translate(1388.664062 0)"/>
     <use xlink:href="#DejaVuSans-6f" transform="translate(1452.140625 0)"/>
     <use xlink:href="#DejaVuSans-20" transform="translate(1513.322266 0)"/>
     <use xlink:href="#DejaVuSans-64" transform="translate(1545.109375 0)"/>
     <use xlink:href="#DejaVuSans-6f" transform="translate(1608.585938 0)"/>
     <use xlink:href="#DejaVuSans-70" transform="translate(1669.767578 0)"/>
     <use xlink:href="#DejaVuSans-61" transform="translate(1733.244141 0)"/>
     <use xlink:href="#DejaVuSans-73" transform="translate(1794.523438 0)"/>
     <use xlink:href="#DejaVuSans-6f" transform="translate(1846.623047 0)"/>
     <use xlink:href="#DejaVuSans-77" transform="translate(1907.804688 0)"/>
     <use xlink:href="#DejaVuSans-61" transform="translate(1989.591797 0)"/>
     <use xlink:href="#DejaVuSans-6e" transform="translate(2050.871094 0)"/>
     <use xlink:href="#DejaVuSans-69" transform="translate(2114.25 0)"/>
     <use xlink:href="#DejaVuSans-75" transform="translate(2142.033203 0)"/>
    </g>
   </g>
   <g id="legend_1">
    <g id="patch_67">
     <path d="M 303.343437 60.154375 
L 397.485625 60.154375 
Q 399.485625 60.154375 399.485625 58.154375 
L 399.485625 29.798125 
Q 399.485625 27.798125 397.485625 27.798125 
L 303.343437 27.798125 
Q 301.343437 27.798125 301.343437 29.798125 
L 301.343437 58.154375 
Q 301.343437 60.154375 303.343437 60.154375 
z
" style="fill: #ffffff; opacity: 0.8; stroke: #cccccc; stroke-linejoin: miter"/>
    </g>
    <g id="patch_68">
     <path d="M 305.343437 39.396562 
L 325.343437 39.396562 
L 325.343437 32.396562 
L 305.343437 32.396562 
z
" style="fill: #1f77b4; opacity: 0.6"/>
    </g>
    <g id="text_15">
     <!-- Amyloidy -->
     <g transform="translate(333.343437 39.396562) scale(0.1 -0.1)">
      <defs>
       <path id="DejaVuSans-41" d="M 2188 4044 
L 1331 1722 
L 3047 1722 
L 2188 4044 
z
M 1831 4666 
L 2547 4666 
L 4325 0 
L 3669 0 
L 3244 1197 
L 1141 1197 
L 716 0 
L 50 0 
L 1831 4666 
z
" transform="scale(0.015625)"/>
       <path id="DejaVuSans-6d" d="M 3328 2828 
Q 3544 3216 3844 3400 
Q 4144 3584 4550 3584 
Q 5097 3584 5394 3201 
Q 5691 2819 5691 2113 
L 5691 0 
L 5113 0 
L 5113 2094 
Q 5113 2597 4934 2840 
Q 4756 3084 4391 3084 
Q 3944 3084 3684 2787 
Q 3425 2491 3425 1978 
L 3425 0 
L 2847 0 
L 2847 2094 
Q 2847 2600 2669 2842 
Q 2491 3084 2119 3084 
Q 1678 3084 1418 2786 
Q 1159 2488 1159 1978 
L 1159 0 
L 581 0 
L 581 3500 
L 1159 3500 
L 1159 2956 
Q 1356 3278 1631 3431 
Q 1906 3584 2284 3584 
Q 2666 3584 2933 3390 
Q 3200 3197 3328 2828 
z
" transform="scale(0.015625)"/>
       <path id="DejaVuSans-6c" d="M 603 4863 
L 1178 4863 
L 1178 0 
L 603 0 
L 603 4863 
z
" transform="scale(0.015625)"/>
      </defs>
      <use xlink:href="#DejaVuSans-41"/>
      <use xlink:href="#DejaVuSans-6d" transform="translate(68.408203 0)"/>
      <use xlink:href="#DejaVuSans-79" transform="translate(165.820312 0)"/>
      <use xlink:href="#DejaVuSans-6c" transform="translate(225 0)"/>
      <use xlink:href="#DejaVuSans-6f" transform="translate(252.783203 0)"/>
      <use xlink:href="#DejaVuSans-69" transform="translate(313.964844 0)"/>
      <use xlink:href="#DejaVuSans-64" transform="translate(341.748047 0)"/>
      <use xlink:href="#DejaVuSans-79" transform="translate(405.224609 0)"/>
     </g>
    </g>
    <g id="patch_69">
     <path d="M 305.343437 54.074687 
L 325.343437 54.074687 
L 325.343437 47.074687 
L 305.343437 47.074687 
z
" style="fill: #ff7f0e; opacity: 0.6"/>
    </g>
    <g id="text_16">
     <!-- Nieamyloidy -->
     <g transform="translate(333.343437 54.074687) scale(0.1 -0.1)">
      <defs>
       <path id="DejaVuSans-4e" d="M 628 4666 
L 1478 4666 
L 3547 763 
L 3547 4666 
L 4159 4666 
L 4159 0 
L 3309 0 
L 1241 3903 
L 1241 0 
L 628 0 
L 628 4666 
z
" transform="scale(0.015625)"/>
      </defs>
      <use xlink:href="#DejaVuSans-4e"/>
      <use xlink:href="#DejaVuSans-69" transform="translate(74.804688 0)"/>
      <use xlink:href="#DejaVuSans-65" transform="translate(102.587891 0)"/>
      <use xlink:href="#DejaVuSans-61" transform="translate(164.111328 0)"/>
      <use xlink:href="#DejaVuSans-6d" transform="translate(225.390625 0)"/>
      <use xlink:href="#DejaVuSans-79" transform="translate(322.802734 0)"/>
      <use xlink:href="#DejaVuSans-6c" transform="translate(381.982422 0)"/>
      <use xlink:href="#DejaVuSans-6f" transform="translate(409.765625 0)"/>
      <use xlink:href="#DejaVuSans-69" transform="translate(470.947266 0)"/>
      <use xlink:href="#DejaVuSans-64" transform="translate(498.730469 0)"/>
      <use xlink:href="#DejaVuSans-79" transform="translate(562.207031 0)"/>
     </g>
    </g>
   </g>
  </g>
 </g>
 <defs>
  <clipPath id="pf42eb2c862">
   <rect x="47.365625" y="22.798125" width="357.12" height="266.112"/>
  </clipPath>
 </defs>
</svg>
