<?xml version="1.0" encoding="utf-8" standalone="no"?>
<!DOCTYPE svg PUBLIC "-//W3C//DTD SVG 1.1//EN"
  "http://www.w3.org/Graphics/SVG/1.1/DTD/svg11.dtd">
<svg xmlns:xlink="http://www.w3.org/1999/xlink" width="708.596719pt" height="420.920156pt" viewBox="0 0 708.596719 420.920156" xmlns="http://www.w3.org/2000/svg" version="1.1">
 <metadata>
  <rdf:RDF xmlns:dc="http://purl.org/dc/elements/1.1/" xmlns:cc="http://creativecommons.org/ns#" xmlns:rdf="http://www.w3.org/1999/02/22-rdf-syntax-ns#">
   <cc:Work>
    <dc:type rdf:resource="http://purl.org/dc/dcmitype/StillImage"/>
    <dc:date>2026-06-08T22:36:13.152376</dc:date>
    <dc:format>image/svg+xml</dc:format>
    <dc:creator>
     <cc:Agent>
      <dc:title>Matplotlib v3.10.9, https://matplotlib.org/</dc:title>
     </cc:Agent>
    </dc:creator>
   </cc:Work>
  </rdf:RDF>
 </metadata>
 <defs>
  <style type="text/css">*{stroke-linejoin: round; stroke-linecap: butt}</style>
 </defs>
 <g id="figure_1">
  <g id="patch_1">
   <path d="M 0 420.920156 
L 708.596719 420.920156 
L 708.596719 0 
L 0 0 
z
" style="fill: #ffffff"/>
  </g>
  <g id="axes_1">
   <g id="patch_2">
    <path d="M 56.212969 372.899062 
L 701.396719 372.899062 
L 701.396719 32.391562 
L 56.212969 32.391562 
z
" style="fill: #ffffff"/>
   </g>
   <g id="matplotlib.axis_1">
    <g id="xtick_1">
     <g id="line2d_1">
      <path d="M 150.709579 372.899062 
L 150.709579 32.391562 
" clip-path="url(#p7327f28a29)" style="fill: none; stroke: #cccccc; stroke-linecap: round"/>
     </g>
     <g id="text_1">
      <!-- 10 -->
      <g style="fill: #262626" transform="translate(144.592547 390.272656) scale(0.11 -0.11)">
       <defs>
        <path id="ArialMT-31" d="M 2384 0 
L 1822 0 
L 1822 3584 
Q 1619 3391 1289 3197 
Q 959 3003 697 2906 
L 697 3450 
Q 1169 3672 1522 3987 
Q 1875 4303 2022 4600 
L 2384 4600 
L 2384 0 
z
" transform="scale(0.015625)"/>
        <path id="ArialMT-30" d="M 266 2259 
Q 266 3072 433 3567 
Q 600 4063 929 4331 
Q 1259 4600 1759 4600 
Q 2128 4600 2406 4451 
Q 2684 4303 2865 4023 
Q 3047 3744 3150 3342 
Q 3253 2941 3253 2259 
Q 3253 1453 3087 958 
Q 2922 463 2592 192 
Q 2263 -78 1759 -78 
Q 1097 -78 719 397 
Q 266 969 266 2259 
z
M 844 2259 
Q 844 1131 1108 757 
Q 1372 384 1759 384 
Q 2147 384 2411 759 
Q 2675 1134 2675 2259 
Q 2675 3391 2411 3762 
Q 2147 4134 1753 4134 
Q 1366 4134 1134 3806 
Q 844 3388 844 2259 
z
" transform="scale(0.015625)"/>
       </defs>
       <use xlink:href="#ArialMT-31"/>
       <use xlink:href="#ArialMT-30" transform="translate(55.615234 0)"/>
      </g>
     </g>
    </g>
    <g id="xtick_2">
     <g id="line2d_2">
      <path d="M 281.04973 372.899062 
L 281.04973 32.391562 
" clip-path="url(#p7327f28a29)" style="fill: none; stroke: #cccccc; stroke-linecap: round"/>
     </g>
     <g id="text_2">
      <!-- 20 -->
      <g style="fill: #262626" transform="translate(274.932699 390.272656) scale(0.11 -0.11)">
       <defs>
        <path id="ArialMT-32" d="M 3222 541 
L 3222 0 
L 194 0 
Q 188 203 259 391 
Q 375 700 629 1000 
Q 884 1300 1366 1694 
Q 2113 2306 2375 2664 
Q 2638 3022 2638 3341 
Q 2638 3675 2398 3904 
Q 2159 4134 1775 4134 
Q 1369 4134 1125 3890 
Q 881 3647 878 3216 
L 300 3275 
Q 359 3922 746 4261 
Q 1134 4600 1788 4600 
Q 2447 4600 2831 4234 
Q 3216 3869 3216 3328 
Q 3216 3053 3103 2787 
Q 2991 2522 2730 2228 
Q 2469 1934 1863 1422 
Q 1356 997 1212 845 
Q 1069 694 975 541 
L 3222 541 
z
" transform="scale(0.015625)"/>
       </defs>
       <use xlink:href="#ArialMT-32"/>
       <use xlink:href="#ArialMT-30" transform="translate(55.615234 0)"/>
      </g>
     </g>
    </g>
    <g id="xtick_3">
     <g id="line2d_3">
      <path d="M 411.389882 372.899062 
L 411.389882 32.391562 
" clip-path="url(#p7327f28a29)" style="fill: none; stroke: #cccccc; stroke-linecap: round"/>
     </g>
     <g id="text_3">
      <!-- 30 -->
      <g style="fill: #262626" transform="translate(405.27285 390.272656) scale(0.11 -0.11)">
       <defs>
        <path id="ArialMT-33" d="M 269 1209 
L 831 1284 
Q 928 806 1161 595 
Q 1394 384 1728 384 
Q 2125 384 2398 659 
Q 2672 934 2672 1341 
Q 2672 1728 2419 1979 
Q 2166 2231 1775 2231 
Q 1616 2231 1378 2169 
L 1441 2663 
Q 1497 2656 1531 2656 
Q 1891 2656 2178 2843 
Q 2466 3031 2466 3422 
Q 2466 3731 2256 3934 
Q 2047 4138 1716 4138 
Q 1388 4138 1169 3931 
Q 950 3725 888 3313 
L 325 3413 
Q 428 3978 793 4289 
Q 1159 4600 1703 4600 
Q 2078 4600 2393 4439 
Q 2709 4278 2876 4000 
Q 3044 3722 3044 3409 
Q 3044 3113 2884 2869 
Q 2725 2625 2413 2481 
Q 2819 2388 3044 2092 
Q 3269 1797 3269 1353 
Q 3269 753 2831 336 
Q 2394 -81 1725 -81 
Q 1122 -81 723 278 
Q 325 638 269 1209 
z
" transform="scale(0.015625)"/>
       </defs>
       <use xlink:href="#ArialMT-33"/>
       <use xlink:href="#ArialMT-30" transform="translate(55.615234 0)"/>
      </g>
     </g>
    </g>
    <g id="xtick_4">
     <g id="line2d_4">
      <path d="M 541.730033 372.899062 
L 541.730033 32.391562 
" clip-path="url(#p7327f28a29)" style="fill: none; stroke: #cccccc; stroke-linecap: round"/>
     </g>
     <g id="text_4">
      <!-- 40 -->
      <g style="fill: #262626" transform="translate(535.613002 390.272656) scale(0.11 -0.11)">
       <defs>
        <path id="ArialMT-34" d="M 2069 0 
L 2069 1097 
L 81 1097 
L 81 1613 
L 2172 4581 
L 2631 4581 
L 2631 1613 
L 3250 1613 
L 3250 1097 
L 2631 1097 
L 2631 0 
L 2069 0 
z
M 2069 1613 
L 2069 3678 
L 634 1613 
L 2069 1613 
z
" transform="scale(0.015625)"/>
       </defs>
       <use xlink:href="#ArialMT-34"/>
       <use xlink:href="#ArialMT-30" transform="translate(55.615234 0)"/>
      </g>
     </g>
    </g>
    <g id="xtick_5">
     <g id="line2d_5">
      <path d="M 672.070185 372.899062 
L 672.070185 32.391562 
" clip-path="url(#p7327f28a29)" style="fill: none; stroke: #cccccc; stroke-linecap: round"/>
     </g>
     <g id="text_5">
      <!-- 50 -->
      <g style="fill: #262626" transform="translate(665.953153 390.272656) scale(0.11 -0.11)">
       <defs>
        <path id="ArialMT-35" d="M 266 1200 
L 856 1250 
Q 922 819 1161 601 
Q 1400 384 1738 384 
Q 2144 384 2425 690 
Q 2706 997 2706 1503 
Q 2706 1984 2436 2262 
Q 2166 2541 1728 2541 
Q 1456 2541 1237 2417 
Q 1019 2294 894 2097 
L 366 2166 
L 809 4519 
L 3088 4519 
L 3088 3981 
L 1259 3981 
L 1013 2750 
Q 1425 3038 1878 3038 
Q 2478 3038 2890 2622 
Q 3303 2206 3303 1553 
Q 3303 931 2941 478 
Q 2500 -78 1738 -78 
Q 1113 -78 717 272 
Q 322 622 266 1200 
z
" transform="scale(0.015625)"/>
       </defs>
       <use xlink:href="#ArialMT-35"/>
       <use xlink:href="#ArialMT-30" transform="translate(55.615234 0)"/>
      </g>
     </g>
    </g>
    <g id="text_6">
     <!-- Długość sekwencji (liczba aminokwasów) -->
     <g style="fill: #262626" transform="translate(269.104219 411.194531) scale(0.12 -0.12)">
      <defs>
       <path id="ArialMT-44" d="M 494 0 
L 494 4581 
L 2072 4581 
Q 2606 4581 2888 4516 
Q 3281 4425 3559 4188 
Q 3922 3881 4101 3404 
Q 4281 2928 4281 2316 
Q 4281 1794 4159 1391 
Q 4038 988 3847 723 
Q 3656 459 3429 307 
Q 3203 156 2883 78 
Q 2563 0 2147 0 
L 494 0 
z
M 1100 541 
L 2078 541 
Q 2531 541 2789 625 
Q 3047 709 3200 863 
Q 3416 1078 3536 1442 
Q 3656 1806 3656 2325 
Q 3656 3044 3420 3430 
Q 3184 3816 2847 3947 
Q 2603 4041 2063 4041 
L 1100 4041 
L 1100 541 
z
" transform="scale(0.015625)"/>
       <path id="ArialMT-142" d="M 416 1794 
L 9 1450 
L 9 1944 
L 416 2288 
L 416 4581 
L 975 4581 
L 975 2763 
L 1397 3122 
L 1397 2631 
L 975 2272 
L 975 0 
L 416 0 
L 416 1794 
z
" transform="scale(0.015625)"/>
       <path id="ArialMT-75" d="M 2597 0 
L 2597 488 
Q 2209 -75 1544 -75 
Q 1250 -75 995 37 
Q 741 150 617 320 
Q 494 491 444 738 
Q 409 903 409 1263 
L 409 3319 
L 972 3319 
L 972 1478 
Q 972 1038 1006 884 
Q 1059 663 1231 536 
Q 1403 409 1656 409 
Q 1909 409 2131 539 
Q 2353 669 2445 892 
Q 2538 1116 2538 1541 
L 2538 3319 
L 3100 3319 
L 3100 0 
L 2597 0 
z
" transform="scale(0.015625)"/>
       <path id="ArialMT-67" d="M 319 -275 
L 866 -356 
Q 900 -609 1056 -725 
Q 1266 -881 1628 -881 
Q 2019 -881 2231 -725 
Q 2444 -569 2519 -288 
Q 2563 -116 2559 434 
Q 2191 0 1641 0 
Q 956 0 581 494 
Q 206 988 206 1678 
Q 206 2153 378 2554 
Q 550 2956 876 3175 
Q 1203 3394 1644 3394 
Q 2231 3394 2613 2919 
L 2613 3319 
L 3131 3319 
L 3131 450 
Q 3131 -325 2973 -648 
Q 2816 -972 2473 -1159 
Q 2131 -1347 1631 -1347 
Q 1038 -1347 672 -1080 
Q 306 -813 319 -275 
z
M 784 1719 
Q 784 1066 1043 766 
Q 1303 466 1694 466 
Q 2081 466 2343 764 
Q 2606 1063 2606 1700 
Q 2606 2309 2336 2618 
Q 2066 2928 1684 2928 
Q 1309 2928 1046 2623 
Q 784 2319 784 1719 
z
" transform="scale(0.015625)"/>
       <path id="ArialMT-6f" d="M 213 1659 
Q 213 2581 725 3025 
Q 1153 3394 1769 3394 
Q 2453 3394 2887 2945 
Q 3322 2497 3322 1706 
Q 3322 1066 3130 698 
Q 2938 331 2570 128 
Q 2203 -75 1769 -75 
Q 1072 -75 642 372 
Q 213 819 213 1659 
z
M 791 1659 
Q 791 1022 1069 705 
Q 1347 388 1769 388 
Q 2188 388 2466 706 
Q 2744 1025 2744 1678 
Q 2744 2294 2464 2611 
Q 2184 2928 1769 2928 
Q 1347 2928 1069 2612 
Q 791 2297 791 1659 
z
" transform="scale(0.015625)"/>
       <path id="ArialMT-15b" d="M 197 991 
L 753 1078 
Q 800 744 1014 566 
Q 1228 388 1613 388 
Q 2000 388 2187 545 
Q 2375 703 2375 916 
Q 2375 1106 2209 1216 
Q 2094 1291 1634 1406 
Q 1016 1563 777 1677 
Q 538 1791 414 1992 
Q 291 2194 291 2438 
Q 291 2659 392 2848 
Q 494 3038 669 3163 
Q 800 3259 1026 3326 
Q 1253 3394 1513 3394 
Q 1903 3394 2198 3281 
Q 2494 3169 2634 2976 
Q 2775 2784 2828 2463 
L 2278 2388 
Q 2241 2644 2061 2787 
Q 1881 2931 1553 2931 
Q 1166 2931 1000 2803 
Q 834 2675 834 2503 
Q 834 2394 903 2306 
Q 972 2216 1119 2156 
Q 1203 2125 1616 2013 
Q 2213 1853 2448 1751 
Q 2684 1650 2818 1456 
Q 2953 1263 2953 975 
Q 2953 694 2789 445 
Q 2625 197 2315 61 
Q 2006 -75 1616 -75 
Q 969 -75 630 194 
Q 291 463 197 991 
z
M 1231 3731 
L 1647 4606 
L 2384 4606 
L 1697 3731 
L 1231 3731 
z
" transform="scale(0.015625)"/>
       <path id="ArialMT-107" d="M 2588 1216 
L 3141 1144 
Q 3050 572 2676 248 
Q 2303 -75 1759 -75 
Q 1078 -75 664 370 
Q 250 816 250 1647 
Q 250 2184 428 2587 
Q 606 2991 970 3192 
Q 1334 3394 1763 3394 
Q 2303 3394 2647 3120 
Q 2991 2847 3088 2344 
L 2541 2259 
Q 2463 2594 2264 2762 
Q 2066 2931 1784 2931 
Q 1359 2931 1093 2626 
Q 828 2322 828 1663 
Q 828 994 1084 691 
Q 1341 388 1753 388 
Q 2084 388 2306 591 
Q 2528 794 2588 1216 
z
M 1325 3731 
L 1741 4606 
L 2478 4606 
L 1791 3731 
L 1325 3731 
z
" transform="scale(0.015625)"/>
       <path id="ArialMT-20" transform="scale(0.015625)"/>
       <path id="ArialMT-73" d="M 197 991 
L 753 1078 
Q 800 744 1014 566 
Q 1228 388 1613 388 
Q 2000 388 2187 545 
Q 2375 703 2375 916 
Q 2375 1106 2209 1216 
Q 2094 1291 1634 1406 
Q 1016 1563 777 1677 
Q 538 1791 414 1992 
Q 291 2194 291 2438 
Q 291 2659 392 2848 
Q 494 3038 669 3163 
Q 800 3259 1026 3326 
Q 1253 3394 1513 3394 
Q 1903 3394 2198 3281 
Q 2494 3169 2634 2976 
Q 2775 2784 2828 2463 
L 2278 2388 
Q 2241 2644 2061 2787 
Q 1881 2931 1553 2931 
Q 1166 2931 1000 2803 
Q 834 2675 834 2503 
Q 834 2394 903 2306 
Q 972 2216 1119 2156 
Q 1203 2125 1616 2013 
Q 2213 1853 2448 1751 
Q 2684 1650 2818 1456 
Q 2953 1263 2953 975 
Q 2953 694 2789 445 
Q 2625 197 2315 61 
Q 2006 -75 1616 -75 
Q 969 -75 630 194 
Q 291 463 197 991 
z
" transform="scale(0.015625)"/>
       <path id="ArialMT-65" d="M 2694 1069 
L 3275 997 
Q 3138 488 2766 206 
Q 2394 -75 1816 -75 
Q 1088 -75 661 373 
Q 234 822 234 1631 
Q 234 2469 665 2931 
Q 1097 3394 1784 3394 
Q 2450 3394 2872 2941 
Q 3294 2488 3294 1666 
Q 3294 1616 3291 1516 
L 816 1516 
Q 847 969 1125 678 
Q 1403 388 1819 388 
Q 2128 388 2347 550 
Q 2566 713 2694 1069 
z
M 847 1978 
L 2700 1978 
Q 2663 2397 2488 2606 
Q 2219 2931 1791 2931 
Q 1403 2931 1139 2672 
Q 875 2413 847 1978 
z
" transform="scale(0.015625)"/>
       <path id="ArialMT-6b" d="M 425 0 
L 425 4581 
L 988 4581 
L 988 1969 
L 2319 3319 
L 3047 3319 
L 1778 2088 
L 3175 0 
L 2481 0 
L 1384 1697 
L 988 1316 
L 988 0 
L 425 0 
z
" transform="scale(0.015625)"/>
       <path id="ArialMT-77" d="M 1034 0 
L 19 3319 
L 600 3319 
L 1128 1403 
L 1325 691 
Q 1338 744 1497 1375 
L 2025 3319 
L 2603 3319 
L 3100 1394 
L 3266 759 
L 3456 1400 
L 4025 3319 
L 4572 3319 
L 3534 0 
L 2950 0 
L 2422 1988 
L 2294 2553 
L 1622 0 
L 1034 0 
z
" transform="scale(0.015625)"/>
       <path id="ArialMT-6e" d="M 422 0 
L 422 3319 
L 928 3319 
L 928 2847 
Q 1294 3394 1984 3394 
Q 2284 3394 2536 3286 
Q 2788 3178 2913 3003 
Q 3038 2828 3088 2588 
Q 3119 2431 3119 2041 
L 3119 0 
L 2556 0 
L 2556 2019 
Q 2556 2363 2490 2533 
Q 2425 2703 2258 2804 
Q 2091 2906 1866 2906 
Q 1506 2906 1245 2678 
Q 984 2450 984 1813 
L 984 0 
L 422 0 
z
" transform="scale(0.015625)"/>
       <path id="ArialMT-63" d="M 2588 1216 
L 3141 1144 
Q 3050 572 2676 248 
Q 2303 -75 1759 -75 
Q 1078 -75 664 370 
Q 250 816 250 1647 
Q 250 2184 428 2587 
Q 606 2991 970 3192 
Q 1334 3394 1763 3394 
Q 2303 3394 2647 3120 
Q 2991 2847 3088 2344 
L 2541 2259 
Q 2463 2594 2264 2762 
Q 2066 2931 1784 2931 
Q 1359 2931 1093 2626 
Q 828 2322 828 1663 
Q 828 994 1084 691 
Q 1341 388 1753 388 
Q 2084 388 2306 591 
Q 2528 794 2588 1216 
z
" transform="scale(0.015625)"/>
       <path id="ArialMT-6a" d="M 419 3928 
L 419 4581 
L 981 4581 
L 981 3928 
L 419 3928 
z
M -294 -1288 
L -188 -809 
Q -19 -853 78 -853 
Q 250 -853 334 -739 
Q 419 -625 419 -169 
L 419 3319 
L 981 3319 
L 981 -181 
Q 981 -794 822 -1034 
Q 619 -1347 147 -1347 
Q -81 -1347 -294 -1288 
z
" transform="scale(0.015625)"/>
       <path id="ArialMT-69" d="M 425 3934 
L 425 4581 
L 988 4581 
L 988 3934 
L 425 3934 
z
M 425 0 
L 425 3319 
L 988 3319 
L 988 0 
L 425 0 
z
" transform="scale(0.015625)"/>
       <path id="ArialMT-28" d="M 1497 -1347 
Q 1031 -759 709 28 
Q 388 816 388 1659 
Q 388 2403 628 3084 
Q 909 3875 1497 4659 
L 1900 4659 
Q 1522 4009 1400 3731 
Q 1209 3300 1100 2831 
Q 966 2247 966 1656 
Q 966 153 1900 -1347 
L 1497 -1347 
z
" transform="scale(0.015625)"/>
       <path id="ArialMT-6c" d="M 409 0 
L 409 4581 
L 972 4581 
L 972 0 
L 409 0 
z
" transform="scale(0.015625)"/>
       <path id="ArialMT-7a" d="M 125 0 
L 125 456 
L 2238 2881 
Q 1878 2863 1603 2863 
L 250 2863 
L 250 3319 
L 2963 3319 
L 2963 2947 
L 1166 841 
L 819 456 
Q 1197 484 1528 484 
L 3063 484 
L 3063 0 
L 125 0 
z
" transform="scale(0.015625)"/>
       <path id="ArialMT-62" d="M 941 0 
L 419 0 
L 419 4581 
L 981 4581 
L 981 2947 
Q 1338 3394 1891 3394 
Q 2197 3394 2470 3270 
Q 2744 3147 2920 2923 
Q 3097 2700 3197 2384 
Q 3297 2069 3297 1709 
Q 3297 856 2875 390 
Q 2453 -75 1863 -75 
Q 1275 -75 941 416 
L 941 0 
z
M 934 1684 
Q 934 1088 1097 822 
Q 1363 388 1816 388 
Q 2184 388 2453 708 
Q 2722 1028 2722 1663 
Q 2722 2313 2464 2622 
Q 2206 2931 1841 2931 
Q 1472 2931 1203 2611 
Q 934 2291 934 1684 
z
" transform="scale(0.015625)"/>
       <path id="ArialMT-61" d="M 2588 409 
Q 2275 144 1986 34 
Q 1697 -75 1366 -75 
Q 819 -75 525 192 
Q 231 459 231 875 
Q 231 1119 342 1320 
Q 453 1522 633 1644 
Q 813 1766 1038 1828 
Q 1203 1872 1538 1913 
Q 2219 1994 2541 2106 
Q 2544 2222 2544 2253 
Q 2544 2597 2384 2738 
Q 2169 2928 1744 2928 
Q 1347 2928 1158 2789 
Q 969 2650 878 2297 
L 328 2372 
Q 403 2725 575 2942 
Q 747 3159 1072 3276 
Q 1397 3394 1825 3394 
Q 2250 3394 2515 3294 
Q 2781 3194 2906 3042 
Q 3031 2891 3081 2659 
Q 3109 2516 3109 2141 
L 3109 1391 
Q 3109 606 3145 398 
Q 3181 191 3288 0 
L 2700 0 
Q 2613 175 2588 409 
z
M 2541 1666 
Q 2234 1541 1622 1453 
Q 1275 1403 1131 1340 
Q 988 1278 909 1158 
Q 831 1038 831 891 
Q 831 666 1001 516 
Q 1172 366 1500 366 
Q 1825 366 2078 508 
Q 2331 650 2450 897 
Q 2541 1088 2541 1459 
L 2541 1666 
z
" transform="scale(0.015625)"/>
       <path id="ArialMT-6d" d="M 422 0 
L 422 3319 
L 925 3319 
L 925 2853 
Q 1081 3097 1340 3245 
Q 1600 3394 1931 3394 
Q 2300 3394 2536 3241 
Q 2772 3088 2869 2813 
Q 3263 3394 3894 3394 
Q 4388 3394 4653 3120 
Q 4919 2847 4919 2278 
L 4919 0 
L 4359 0 
L 4359 2091 
Q 4359 2428 4304 2576 
Q 4250 2725 4106 2815 
Q 3963 2906 3769 2906 
Q 3419 2906 3187 2673 
Q 2956 2441 2956 1928 
L 2956 0 
L 2394 0 
L 2394 2156 
Q 2394 2531 2256 2718 
Q 2119 2906 1806 2906 
Q 1569 2906 1367 2781 
Q 1166 2656 1075 2415 
Q 984 2175 984 1722 
L 984 0 
L 422 0 
z
" transform="scale(0.015625)"/>
       <path id="ArialMT-f3" d="M 213 1659 
Q 213 2581 725 3025 
Q 1153 3394 1769 3394 
Q 2453 3394 2887 2945 
Q 3322 2497 3322 1706 
Q 3322 1066 3130 698 
Q 2938 331 2570 128 
Q 2203 -75 1769 -75 
Q 1072 -75 642 372 
Q 213 819 213 1659 
z
M 791 1659 
Q 791 1022 1069 705 
Q 1347 388 1769 388 
Q 2188 388 2466 706 
Q 2744 1025 2744 1678 
Q 2744 2294 2464 2611 
Q 2184 2928 1769 2928 
Q 1347 2928 1069 2612 
Q 791 2297 791 1659 
z
M 1456 3731 
L 1872 4606 
L 2609 4606 
L 1922 3731 
L 1456 3731 
z
" transform="scale(0.015625)"/>
       <path id="ArialMT-29" d="M 791 -1347 
L 388 -1347 
Q 1322 153 1322 1656 
Q 1322 2244 1188 2822 
Q 1081 3291 891 3722 
Q 769 4003 388 4659 
L 791 4659 
Q 1378 3875 1659 3084 
Q 1900 2403 1900 1659 
Q 1900 816 1576 28 
Q 1253 -759 791 -1347 
z
" transform="scale(0.015625)"/>
      </defs>
      <use xlink:href="#ArialMT-44"/>
      <use xlink:href="#ArialMT-142" transform="translate(72.216797 0)"/>
      <use xlink:href="#ArialMT-75" transform="translate(94.433594 0)"/>
      <use xlink:href="#ArialMT-67" transform="translate(150.048828 0)"/>
      <use xlink:href="#ArialMT-6f" transform="translate(205.664062 0)"/>
      <use xlink:href="#ArialMT-15b" transform="translate(261.279297 0)"/>
      <use xlink:href="#ArialMT-107" transform="translate(311.279297 0)"/>
      <use xlink:href="#ArialMT-20" transform="translate(361.279297 0)"/>
      <use xlink:href="#ArialMT-73" transform="translate(389.0625 0)"/>
      <use xlink:href="#ArialMT-65" transform="translate(439.0625 0)"/>
      <use xlink:href="#ArialMT-6b" transform="translate(494.677734 0)"/>
      <use xlink:href="#ArialMT-77" transform="translate(544.677734 0)"/>
      <use xlink:href="#ArialMT-65" transform="translate(616.894531 0)"/>
      <use xlink:href="#ArialMT-6e" transform="translate(672.509766 0)"/>
      <use xlink:href="#ArialMT-63" transform="translate(728.125 0)"/>
      <use xlink:href="#ArialMT-6a" transform="translate(778.125 0)"/>
      <use xlink:href="#ArialMT-69" transform="translate(800.341797 0)"/>
      <use xlink:href="#ArialMT-20" transform="translate(822.558594 0)"/>
      <use xlink:href="#ArialMT-28" transform="translate(850.341797 0)"/>
      <use xlink:href="#ArialMT-6c" transform="translate(883.642578 0)"/>
      <use xlink:href="#ArialMT-69" transform="translate(905.859375 0)"/>
      <use xlink:href="#ArialMT-63" transform="translate(928.076172 0)"/>
      <use xlink:href="#ArialMT-7a" transform="translate(978.076172 0)"/>
      <use xlink:href="#ArialMT-62" transform="translate(1028.076172 0)"/>
      <use xlink:href="#ArialMT-61" transform="translate(1083.691406 0)"/>
      <use xlink:href="#ArialMT-20" transform="translate(1139.306641 0)"/>
      <use xlink:href="#ArialMT-61" transform="translate(1167.089844 0)"/>
      <use xlink:href="#ArialMT-6d" transform="translate(1222.705078 0)"/>
      <use xlink:href="#ArialMT-69" transform="translate(1306.005859 0)"/>
      <use xlink:href="#ArialMT-6e" transform="translate(1328.222656 0)"/>
      <use xlink:href="#ArialMT-6f" transform="translate(1383.837891 0)"/>
      <use xlink:href="#ArialMT-6b" transform="translate(1439.453125 0)"/>
      <use xlink:href="#ArialMT-77" transform="translate(1489.453125 0)"/>
      <use xlink:href="#ArialMT-61" transform="translate(1561.669922 0)"/>
      <use xlink:href="#ArialMT-73" transform="translate(1617.285156 0)"/>
      <use xlink:href="#ArialMT-f3" transform="translate(1667.285156 0)"/>
      <use xlink:href="#ArialMT-77" transform="translate(1722.900391 0)"/>
      <use xlink:href="#ArialMT-29" transform="translate(1795.117188 0)"/>
     </g>
    </g>
   </g>
   <g id="matplotlib.axis_2">
    <g id="ytick_1">
     <g id="line2d_6">
      <path d="M 56.212969 372.899062 
L 701.396719 372.899062 
" clip-path="url(#p7327f28a29)" style="fill: none; stroke: #cccccc; stroke-linecap: round"/>
     </g>
     <g id="text_7">
      <!-- 0 -->
      <g style="fill: #262626" transform="translate(40.595938 376.835859) scale(0.11 -0.11)">
       <use xlink:href="#ArialMT-30"/>
      </g>
     </g>
    </g>
    <g id="ytick_2">
     <g id="line2d_7">
      <path d="M 56.212969 316.005579 
L 701.396719 316.005579 
" clip-path="url(#p7327f28a29)" style="fill: none; stroke: #cccccc; stroke-linecap: round"/>
     </g>
     <g id="text_8">
      <!-- 50 -->
      <g style="fill: #262626" transform="translate(34.478906 319.942376) scale(0.11 -0.11)">
       <use xlink:href="#ArialMT-35"/>
       <use xlink:href="#ArialMT-30" transform="translate(55.615234 0)"/>
      </g>
     </g>
    </g>
    <g id="ytick_3">
     <g id="line2d_8">
      <path d="M 56.212969 259.112095 
L 701.396719 259.112095 
" clip-path="url(#p7327f28a29)" style="fill: none; stroke: #cccccc; stroke-linecap: round"/>
     </g>
     <g id="text_9">
      <!-- 100 -->
      <g style="fill: #262626" transform="translate(28.361875 263.048892) scale(0.11 -0.11)">
       <use xlink:href="#ArialMT-31"/>
       <use xlink:href="#ArialMT-30" transform="translate(55.615234 0)"/>
       <use xlink:href="#ArialMT-30" transform="translate(111.230469 0)"/>
      </g>
     </g>
    </g>
    <g id="ytick_4">
     <g id="line2d_9">
      <path d="M 56.212969 202.218611 
L 701.396719 202.218611 
" clip-path="url(#p7327f28a29)" style="fill: none; stroke: #cccccc; stroke-linecap: round"/>
     </g>
     <g id="text_10">
      <!-- 150 -->
      <g style="fill: #262626" transform="translate(28.361875 206.155408) scale(0.11 -0.11)">
       <use xlink:href="#ArialMT-31"/>
       <use xlink:href="#ArialMT-35" transform="translate(55.615234 0)"/>
       <use xlink:href="#ArialMT-30" transform="translate(111.230469 0)"/>
      </g>
     </g>
    </g>
    <g id="ytick_5">
     <g id="line2d_10">
      <path d="M 56.212969 145.325128 
L 701.396719 145.325128 
" clip-path="url(#p7327f28a29)" style="fill: none; stroke: #cccccc; stroke-linecap: round"/>
     </g>
     <g id="text_11">
      <!-- 200 -->
      <g style="fill: #262626" transform="translate(28.361875 149.261925) scale(0.11 -0.11)">
       <use xlink:href="#ArialMT-32"/>
       <use xlink:href="#ArialMT-30" transform="translate(55.615234 0)"/>
       <use xlink:href="#ArialMT-30" transform="translate(111.230469 0)"/>
      </g>
     </g>
    </g>
    <g id="ytick_6">
     <g id="line2d_11">
      <path d="M 56.212969 88.431644 
L 701.396719 88.431644 
" clip-path="url(#p7327f28a29)" style="fill: none; stroke: #cccccc; stroke-linecap: round"/>
     </g>
     <g id="text_12">
      <!-- 250 -->
      <g style="fill: #262626" transform="translate(28.361875 92.368441) scale(0.11 -0.11)">
       <use xlink:href="#ArialMT-32"/>
       <use xlink:href="#ArialMT-35" transform="translate(55.615234 0)"/>
       <use xlink:href="#ArialMT-30" transform="translate(111.230469 0)"/>
      </g>
     </g>
    </g>
    <g id="text_13">
     <!-- Liczba wystąpień -->
     <g style="fill: #262626" transform="translate(15.83625 248.334375) rotate(-90) scale(0.12 -0.12)">
      <defs>
       <path id="ArialMT-4c" d="M 469 0 
L 469 4581 
L 1075 4581 
L 1075 541 
L 3331 541 
L 3331 0 
L 469 0 
z
" transform="scale(0.015625)"/>
       <path id="ArialMT-79" d="M 397 -1278 
L 334 -750 
Q 519 -800 656 -800 
Q 844 -800 956 -737 
Q 1069 -675 1141 -563 
Q 1194 -478 1313 -144 
Q 1328 -97 1363 -6 
L 103 3319 
L 709 3319 
L 1400 1397 
Q 1534 1031 1641 628 
Q 1738 1016 1872 1384 
L 2581 3319 
L 3144 3319 
L 1881 -56 
Q 1678 -603 1566 -809 
Q 1416 -1088 1222 -1217 
Q 1028 -1347 759 -1347 
Q 597 -1347 397 -1278 
z
" transform="scale(0.015625)"/>
       <path id="ArialMT-74" d="M 1650 503 
L 1731 6 
Q 1494 -44 1306 -44 
Q 1000 -44 831 53 
Q 663 150 594 308 
Q 525 466 525 972 
L 525 2881 
L 113 2881 
L 113 3319 
L 525 3319 
L 525 4141 
L 1084 4478 
L 1084 3319 
L 1650 3319 
L 1650 2881 
L 1084 2881 
L 1084 941 
Q 1084 700 1114 631 
Q 1144 563 1211 522 
Q 1278 481 1403 481 
Q 1497 481 1650 503 
z
" transform="scale(0.015625)"/>
       <path id="ArialMT-105" d="M 2588 409 
Q 2275 144 1986 34 
Q 1697 -75 1366 -75 
Q 819 -75 525 192 
Q 231 459 231 875 
Q 231 1119 342 1320 
Q 453 1522 633 1644 
Q 813 1766 1038 1828 
Q 1203 1872 1538 1913 
Q 2219 1994 2541 2106 
Q 2544 2222 2544 2253 
Q 2544 2597 2384 2738 
Q 2169 2928 1744 2928 
Q 1347 2928 1158 2789 
Q 969 2650 878 2297 
L 328 2372 
Q 403 2725 575 2942 
Q 747 3159 1072 3276 
Q 1397 3394 1825 3394 
Q 2250 3394 2515 3294 
Q 2781 3194 2906 3042 
Q 3031 2891 3081 2659 
Q 3109 2516 3109 2141 
L 3109 1391 
Q 3109 606 3145 398 
Q 3181 191 3288 0 
L 2700 0 
Q 2613 175 2588 409 
z
M 2541 1666 
Q 2234 1541 1622 1453 
Q 1275 1403 1131 1340 
Q 988 1278 909 1158 
Q 831 1038 831 891 
Q 831 666 1001 516 
Q 1172 366 1500 366 
Q 1825 366 2078 508 
Q 2331 650 2450 897 
Q 2541 1088 2541 1459 
L 2541 1666 
z
M 3172 0 
Q 2994 -109 2895 -270 
Q 2797 -431 2797 -597 
Q 2797 -728 2869 -818 
Q 2941 -909 3103 -909 
Q 3175 -909 3250 -889 
Q 3325 -869 3388 -834 
L 3388 -1234 
Q 3159 -1344 2963 -1344 
Q 2803 -1344 2684 -1298 
Q 2566 -1253 2486 -1173 
Q 2406 -1094 2367 -991 
Q 2328 -888 2328 -769 
Q 2328 -569 2440 -367 
Q 2553 -166 2759 0 
L 3172 0 
z
" transform="scale(0.015625)"/>
       <path id="ArialMT-70" d="M 422 -1272 
L 422 3319 
L 934 3319 
L 934 2888 
Q 1116 3141 1344 3267 
Q 1572 3394 1897 3394 
Q 2322 3394 2647 3175 
Q 2972 2956 3137 2557 
Q 3303 2159 3303 1684 
Q 3303 1175 3120 767 
Q 2938 359 2589 142 
Q 2241 -75 1856 -75 
Q 1575 -75 1351 44 
Q 1128 163 984 344 
L 984 -1272 
L 422 -1272 
z
M 931 1641 
Q 931 1000 1190 694 
Q 1450 388 1819 388 
Q 2194 388 2461 705 
Q 2728 1022 2728 1688 
Q 2728 2322 2467 2637 
Q 2206 2953 1844 2953 
Q 1484 2953 1207 2617 
Q 931 2281 931 1641 
z
" transform="scale(0.015625)"/>
       <path id="ArialMT-144" d="M 422 0 
L 422 3319 
L 928 3319 
L 928 2847 
Q 1294 3394 1984 3394 
Q 2284 3394 2536 3286 
Q 2788 3178 2913 3003 
Q 3038 2828 3088 2588 
Q 3119 2431 3119 2041 
L 3119 0 
L 2556 0 
L 2556 2019 
Q 2556 2363 2490 2533 
Q 2425 2703 2258 2804 
Q 2091 2906 1866 2906 
Q 1506 2906 1245 2678 
Q 984 2450 984 1813 
L 984 0 
L 422 0 
z
M 1400 3731 
L 1816 4606 
L 2553 4606 
L 1866 3731 
L 1400 3731 
z
" transform="scale(0.015625)"/>
      </defs>
      <use xlink:href="#ArialMT-4c"/>
      <use xlink:href="#ArialMT-69" transform="translate(55.615234 0)"/>
      <use xlink:href="#ArialMT-63" transform="translate(77.832031 0)"/>
      <use xlink:href="#ArialMT-7a" transform="translate(127.832031 0)"/>
      <use xlink:href="#ArialMT-62" transform="translate(177.832031 0)"/>
      <use xlink:href="#ArialMT-61" transform="translate(233.447266 0)"/>
      <use xlink:href="#ArialMT-20" transform="translate(289.0625 0)"/>
      <use xlink:href="#ArialMT-77" transform="translate(316.845703 0)"/>
      <use xlink:href="#ArialMT-79" transform="translate(389.0625 0)"/>
      <use xlink:href="#ArialMT-73" transform="translate(439.0625 0)"/>
      <use xlink:href="#ArialMT-74" transform="translate(489.0625 0)"/>
      <use xlink:href="#ArialMT-105" transform="translate(516.845703 0)"/>
      <use xlink:href="#ArialMT-70" transform="translate(572.460938 0)"/>
      <use xlink:href="#ArialMT-69" transform="translate(628.076172 0)"/>
      <use xlink:href="#ArialMT-65" transform="translate(650.292969 0)"/>
      <use xlink:href="#ArialMT-144" transform="translate(705.908203 0)"/>
     </g>
    </g>
   </g>
   <g id="FillBetweenPolyCollection_1">
    <defs>
     <path id="m7c88a5eae5" d="M 85.539503 -310.868988 
L 85.539503 -48.021094 
L 105.090526 -48.021094 
L 105.090526 -48.021094 
L 124.641548 -48.021094 
L 124.641548 -48.021094 
L 144.192571 -48.021094 
L 144.192571 -48.021094 
L 163.743594 -48.021094 
L 163.743594 -48.021094 
L 183.294616 -48.021094 
L 183.294616 -48.021094 
L 202.845639 -48.021094 
L 202.845639 -48.021094 
L 222.396662 -48.021094 
L 222.396662 -48.021094 
L 241.947685 -48.021094 
L 241.947685 -48.021094 
L 261.498707 -48.021094 
L 261.498707 -48.021094 
L 281.04973 -48.021094 
L 281.04973 -48.021094 
L 300.600753 -48.021094 
L 300.600753 -48.021094 
L 320.151776 -48.021094 
L 320.151776 -48.021094 
L 339.702798 -48.021094 
L 339.702798 -48.021094 
L 359.253821 -48.021094 
L 359.253821 -48.021094 
L 378.804844 -48.021094 
L 378.804844 -48.021094 
L 398.355866 -48.021094 
L 398.355866 -48.021094 
L 417.906889 -48.021094 
L 417.906889 -48.021094 
L 437.457912 -48.021094 
L 437.457912 -48.021094 
L 457.008935 -48.021094 
L 457.008935 -48.021094 
L 476.559957 -48.021094 
L 476.559957 -48.021094 
L 496.11098 -48.021094 
L 496.11098 -48.021094 
L 515.662003 -48.021094 
L 515.662003 -48.021094 
L 535.213026 -48.021094 
L 535.213026 -48.021094 
L 554.764048 -48.021094 
L 554.764048 -48.021094 
L 574.315071 -48.021094 
L 574.315071 -48.021094 
L 593.866094 -48.021094 
L 593.866094 -48.021094 
L 613.417116 -48.021094 
L 613.417116 -48.021094 
L 632.968139 -48.021094 
L 632.968139 -48.021094 
L 652.519162 -48.021094 
L 652.519162 -48.021094 
L 672.070185 -48.021094 
L 672.070185 -48.021094 
L 672.070185 -54.848312 
L 672.070185 -54.848312 
L 672.070185 -54.848312 
L 652.519162 -54.848312 
L 652.519162 -57.124051 
L 632.968139 -57.124051 
L 632.968139 -49.158963 
L 613.417116 -49.158963 
L 613.417116 -52.572572 
L 593.866094 -52.572572 
L 593.866094 -50.296833 
L 574.315071 -50.296833 
L 574.315071 -55.986181 
L 554.764048 -55.986181 
L 554.764048 -51.434703 
L 535.213026 -51.434703 
L 535.213026 -53.710442 
L 515.662003 -53.710442 
L 515.662003 -52.572572 
L 496.11098 -52.572572 
L 496.11098 -51.434703 
L 476.559957 -51.434703 
L 476.559957 -55.986181 
L 457.008935 -55.986181 
L 457.008935 -55.986181 
L 437.457912 -55.986181 
L 437.457912 -52.572572 
L 417.906889 -52.572572 
L 417.906889 -66.227009 
L 398.355866 -66.227009 
L 398.355866 -68.502748 
L 378.804844 -68.502748 
L 378.804844 -84.432923 
L 359.253821 -84.432923 
L 359.253821 -71.916357 
L 339.702798 -71.916357 
L 339.702798 -120.844753 
L 320.151776 -120.844753 
L 320.151776 -98.087359 
L 300.600753 -98.087359 
L 300.600753 -372.313951 
L 281.04973 -372.313951 
L 281.04973 -96.94949 
L 261.498707 -96.94949 
L 261.498707 -111.741796 
L 241.947685 -111.741796 
L 241.947685 -63.951269 
L 222.396662 -63.951269 
L 222.396662 -74.192096 
L 202.845639 -74.192096 
L 202.845639 -60.53766 
L 183.294616 -60.53766 
L 183.294616 -91.260141 
L 163.743594 -91.260141 
L 163.743594 -83.295054 
L 144.192571 -83.295054 
L 144.192571 -82.157184 
L 124.641548 -82.157184 
L 124.641548 -88.984402 
L 105.090526 -88.984402 
L 105.090526 -310.868988 
L 85.539503 -310.868988 
z
" style="stroke: #e63946"/>
    </defs>
    <g clip-path="url(#p7327f28a29)">
     <use xlink:href="#m7c88a5eae5" x="0" y="420.920156" style="fill: #e63946; fill-opacity: 0.4; stroke: #e63946"/>
    </g>
   </g>
   <g id="FillBetweenPolyCollection_2">
    <defs>
     <path id="m7560114a7d" d="M 85.539503 -307.455379 
L 85.539503 -48.021094 
L 104.656058 -48.021094 
L 104.656058 -48.021094 
L 123.772614 -48.021094 
L 123.772614 -48.021094 
L 142.88917 -48.021094 
L 142.88917 -48.021094 
L 162.005725 -48.021094 
L 162.005725 -48.021094 
L 181.122281 -48.021094 
L 181.122281 -48.021094 
L 200.238836 -48.021094 
L 200.238836 -48.021094 
L 219.355392 -48.021094 
L 219.355392 -48.021094 
L 238.471947 -48.021094 
L 238.471947 -48.021094 
L 257.588503 -48.021094 
L 257.588503 -48.021094 
L 276.705058 -48.021094 
L 276.705058 -48.021094 
L 295.821614 -48.021094 
L 295.821614 -48.021094 
L 314.93817 -48.021094 
L 314.93817 -48.021094 
L 334.054725 -48.021094 
L 334.054725 -48.021094 
L 353.171281 -48.021094 
L 353.171281 -48.021094 
L 372.287836 -48.021094 
L 372.287836 -48.021094 
L 391.404392 -48.021094 
L 391.404392 -48.021094 
L 410.520947 -48.021094 
L 410.520947 -48.021094 
L 429.637503 -48.021094 
L 429.637503 -48.021094 
L 448.754058 -48.021094 
L 448.754058 -48.021094 
L 467.870614 -48.021094 
L 467.870614 -48.021094 
L 486.98717 -48.021094 
L 486.98717 -48.021094 
L 506.103725 -48.021094 
L 506.103725 -48.021094 
L 525.220281 -48.021094 
L 525.220281 -48.021094 
L 544.336836 -48.021094 
L 544.336836 -48.021094 
L 563.453392 -48.021094 
L 563.453392 -48.021094 
L 582.569947 -48.021094 
L 582.569947 -48.021094 
L 601.686503 -48.021094 
L 601.686503 -48.021094 
L 620.803058 -48.021094 
L 620.803058 -48.021094 
L 639.919614 -48.021094 
L 639.919614 -48.021094 
L 659.03617 -48.021094 
L 659.03617 -48.021094 
L 659.03617 -61.67553 
L 659.03617 -61.67553 
L 659.03617 -61.67553 
L 639.919614 -61.67553 
L 639.919614 -48.021094 
L 620.803058 -48.021094 
L 620.803058 -51.434703 
L 601.686503 -51.434703 
L 601.686503 -50.296833 
L 582.569947 -50.296833 
L 582.569947 -55.986181 
L 563.453392 -55.986181 
L 563.453392 -50.296833 
L 544.336836 -50.296833 
L 544.336836 -52.572572 
L 525.220281 -52.572572 
L 525.220281 -52.572572 
L 506.103725 -52.572572 
L 506.103725 -54.848312 
L 486.98717 -54.848312 
L 486.98717 -49.158963 
L 467.870614 -49.158963 
L 467.870614 -58.261921 
L 448.754058 -58.261921 
L 448.754058 -53.710442 
L 429.637503 -53.710442 
L 429.637503 -55.986181 
L 410.520947 -55.986181 
L 410.520947 -62.8134 
L 391.404392 -62.8134 
L 391.404392 -82.157184 
L 372.287836 -82.157184 
L 372.287836 -70.778487 
L 353.171281 -70.778487 
L 353.171281 -71.916357 
L 334.054725 -71.916357 
L 334.054725 -120.844753 
L 314.93817 -120.844753 
L 314.93817 -98.087359 
L 295.821614 -98.087359 
L 295.821614 -258.526983 
L 276.705058 -258.526983 
L 276.705058 -96.94949 
L 257.588503 -96.94949 
L 257.588503 -111.741796 
L 238.471947 -111.741796 
L 238.471947 -63.951269 
L 219.355392 -63.951269 
L 219.355392 -74.192096 
L 200.238836 -74.192096 
L 200.238836 -60.53766 
L 181.122281 -60.53766 
L 181.122281 -91.260141 
L 162.005725 -91.260141 
L 162.005725 -83.295054 
L 142.88917 -83.295054 
L 142.88917 -82.157184 
L 123.772614 -82.157184 
L 123.772614 -88.984402 
L 104.656058 -88.984402 
L 104.656058 -307.455379 
L 85.539503 -307.455379 
z
" style="stroke: #1d3557"/>
    </defs>
    <g clip-path="url(#p7327f28a29)">
     <use xlink:href="#m7560114a7d" x="0" y="420.920156" style="fill: #1d3557; fill-opacity: 0.4; stroke: #1d3557"/>
    </g>
   </g>
   <g id="line2d_12">
    <path d="M 85.539503 298.648197 
L 88.486893 294.930755 
L 91.434284 291.735003 
L 94.381674 289.126253 
L 97.329064 287.153709 
L 100.276455 285.848375 
L 103.223845 285.221848 
L 106.171235 285.26607 
L 109.118626 285.954041 
L 112.066016 287.241458 
L 115.013406 289.069141 
L 117.960797 291.366093 
L 120.908187 294.052984 
L 123.855578 297.045824 
L 129.750358 303.611754 
L 138.592529 313.766595 
L 144.48731 320.049035 
L 147.4347 322.928978 
L 150.382091 325.608033 
L 153.329481 328.077495 
L 156.276872 330.336016 
L 159.224262 332.387971 
L 162.171652 334.241804 
L 165.119043 335.908416 
L 168.066433 337.399725 
L 171.013823 338.727421 
L 173.961214 339.901964 
L 176.908604 340.931847 
L 179.855994 341.823099 
L 182.803385 342.579017 
L 185.750775 343.200095 
L 188.698165 343.684097 
L 191.645556 344.026253 
L 194.592946 344.219521 
L 197.540337 344.254886 
L 200.487727 344.121671 
L 203.435117 343.807833 
L 206.382508 343.300244 
L 209.329898 342.584948 
L 212.277288 341.647397 
L 215.224679 340.472704 
L 218.172069 339.045912 
L 221.119459 337.352319 
L 224.06685 335.377882 
L 227.01424 333.109738 
L 229.961631 330.536843 
L 232.909021 327.650765 
L 235.856411 324.44661 
L 238.803802 320.924079 
L 241.751192 317.088609 
L 244.698582 312.952554 
L 247.645973 308.536326 
L 250.593363 303.869409 
L 256.488144 293.951235 
L 268.277705 273.518061 
L 271.225096 268.750163 
L 274.172486 264.300628 
L 277.119876 260.262511 
L 280.067267 256.724853 
L 283.014657 253.769245 
L 285.962047 251.466474 
L 288.909438 249.873495 
L 291.856828 249.030879 
L 294.804218 248.960934 
L 297.751609 249.666606 
L 300.698999 251.131254 
L 303.64639 253.319302 
L 306.59378 256.177745 
L 309.54117 259.63842 
L 312.488561 263.620875 
L 315.435951 268.035702 
L 318.383341 272.788093 
L 324.278122 282.920836 
L 333.120293 298.352888 
L 339.015074 307.952809 
L 341.962464 312.395868 
L 344.909855 316.561915 
L 347.857245 320.435679 
L 350.804635 324.011869 
L 353.752026 327.293821 
L 356.699416 330.291994 
L 359.646806 333.02241 
L 362.594197 335.505127 
L 365.541587 337.762802 
L 368.488977 339.819386 
L 371.436368 341.699007 
L 374.383758 343.42503 
L 380.278539 346.501689 
L 386.17332 349.197642 
L 392.0681 351.620314 
L 397.962881 353.83586 
L 403.857662 355.875189 
L 409.752443 357.74379 
L 415.647223 359.432917 
L 421.542004 360.930031 
L 427.436785 362.226893 
L 433.331565 363.324369 
L 439.226346 364.233752 
L 445.121127 364.975165 
L 453.963298 365.828562 
L 462.805469 366.449556 
L 474.59503 367.03695 
L 489.331982 367.523361 
L 507.016324 367.878333 
L 530.595447 368.12273 
L 571.858912 368.447593 
L 604.280206 368.914881 
L 616.069768 368.810858 
L 645.543671 368.317623 
L 654.385842 368.467754 
L 663.228014 368.853986 
L 672.070185 369.440893 
L 672.070185 369.440893 
" clip-path="url(#p7327f28a29)" style="fill: none; stroke: #e63946; stroke-width: 1.5; stroke-linecap: round"/>
   </g>
   <g id="line2d_13">
    <path d="M 85.539503 303.30588 
L 88.421396 300.10182 
L 91.303288 297.317958 
L 94.185181 295.002904 
L 97.067074 293.194124 
L 99.948967 291.916584 
L 102.83086 291.181908 
L 105.712752 290.988119 
L 108.594645 291.319957 
L 111.476538 292.149754 
L 114.358431 293.438816 
L 117.240324 295.139219 
L 120.122216 297.195917 
L 123.004109 299.549032 
L 125.886002 302.136209 
L 131.649788 307.76449 
L 140.295466 316.49718 
L 146.059252 321.988919 
L 148.941144 324.542899 
L 151.823037 326.944149 
L 154.70493 329.181918 
L 157.586823 331.250749 
L 160.468716 333.149498 
L 163.350608 334.880307 
L 166.232501 336.447589 
L 169.114394 337.857082 
L 171.996287 339.115002 
L 174.87818 340.227342 
L 177.760072 341.19931 
L 180.641965 342.034926 
L 183.523858 342.736767 
L 186.405751 343.305853 
L 189.287644 343.74164 
L 192.169536 344.042121 
L 195.051429 344.203993 
L 197.933322 344.222885 
L 200.815215 344.093611 
L 203.697108 343.810446 
L 206.579 343.367403 
L 209.460893 342.758513 
L 212.342786 341.978086 
L 215.224679 341.02098 
L 218.106572 339.882845 
L 220.988464 338.560381 
L 223.870357 337.051588 
L 226.75225 335.356032 
L 229.634143 333.475116 
L 232.516036 331.412369 
L 235.397928 329.173743 
L 238.279821 326.767911 
L 244.043607 321.504684 
L 249.807392 315.756972 
L 267.098749 297.812538 
L 269.980642 295.100674 
L 272.862535 292.578287 
L 275.744427 290.286756 
L 278.62632 288.26538 
L 281.508213 286.550187 
L 284.390106 285.172782 
L 287.271999 284.159282 
L 290.153891 283.529391 
L 293.035784 283.295675 
L 295.917677 283.463071 
L 298.79957 284.02866 
L 301.681463 284.981731 
L 304.563355 286.304116 
L 307.445248 287.970806 
L 310.327141 289.9508 
L 313.209034 292.208149 
L 316.090927 294.703158 
L 318.972819 297.393661 
L 324.736605 303.187994 
L 339.146069 318.216762 
L 344.909855 323.782189 
L 350.67364 328.862295 
L 356.437426 333.404098 
L 362.201211 337.413483 
L 367.964997 340.937594 
L 373.728783 344.046352 
L 379.492568 346.81591 
L 385.256354 349.315877 
L 391.020139 351.601138 
L 396.783925 353.7083 
L 405.429603 356.572171 
L 411.193389 358.286395 
L 416.957175 359.83726 
L 422.72096 361.217078 
L 428.484746 362.421845 
L 434.248531 363.453872 
L 440.012317 364.322482 
L 448.657995 365.353729 
L 457.303674 366.118549 
L 468.831245 366.838895 
L 480.358816 367.329994 
L 494.76828 367.738932 
L 514.94153 368.075259 
L 543.760458 368.295542 
L 569.697493 368.535869 
L 607.162099 368.999415 
L 627.335349 368.872503 
L 641.744813 368.86583 
L 653.272384 369.127815 
L 659.03617 369.370038 
L 659.03617 369.370038 
" clip-path="url(#p7327f28a29)" style="fill: none; stroke: #1d3557; stroke-width: 1.5; stroke-linecap: round"/>
   </g>
   <g id="patch_3">
    <path d="M 56.212969 372.899062 
L 56.212969 32.391562 
" style="fill: none; stroke: #cccccc; stroke-width: 1.25; stroke-linejoin: miter; stroke-linecap: square"/>
   </g>
   <g id="patch_4">
    <path d="M 56.212969 372.899062 
L 701.396719 372.899062 
" style="fill: none; stroke: #cccccc; stroke-width: 1.25; stroke-linejoin: miter; stroke-linecap: square"/>
   </g>
   <g id="text_14">
    <!-- Rozkład długości sekwencji po dopasowaniu -->
    <g style="fill: #2f3e46" transform="translate(229.069375 17.391562) scale(0.14 -0.14)">
     <defs>
      <path id="Arial-BoldMT-52" d="M 469 0 
L 469 4581 
L 2416 4581 
Q 3150 4581 3483 4457 
Q 3816 4334 4016 4018 
Q 4216 3703 4216 3297 
Q 4216 2781 3912 2445 
Q 3609 2109 3006 2022 
Q 3306 1847 3501 1637 
Q 3697 1428 4028 894 
L 4588 0 
L 3481 0 
L 2813 997 
Q 2456 1531 2325 1670 
Q 2194 1809 2047 1861 
Q 1900 1913 1581 1913 
L 1394 1913 
L 1394 0 
L 469 0 
z
M 1394 2644 
L 2078 2644 
Q 2744 2644 2909 2700 
Q 3075 2756 3169 2893 
Q 3263 3031 3263 3238 
Q 3263 3469 3139 3611 
Q 3016 3753 2791 3791 
Q 2678 3806 2116 3806 
L 1394 3806 
L 1394 2644 
z
" transform="scale(0.015625)"/>
      <path id="Arial-BoldMT-6f" d="M 256 1706 
Q 256 2144 472 2553 
Q 688 2963 1083 3178 
Q 1478 3394 1966 3394 
Q 2719 3394 3200 2905 
Q 3681 2416 3681 1669 
Q 3681 916 3195 420 
Q 2709 -75 1972 -75 
Q 1516 -75 1102 131 
Q 688 338 472 736 
Q 256 1134 256 1706 
z
M 1156 1659 
Q 1156 1166 1390 903 
Q 1625 641 1969 641 
Q 2313 641 2545 903 
Q 2778 1166 2778 1666 
Q 2778 2153 2545 2415 
Q 2313 2678 1969 2678 
Q 1625 2678 1390 2415 
Q 1156 2153 1156 1659 
z
" transform="scale(0.015625)"/>
      <path id="Arial-BoldMT-7a" d="M 106 0 
L 106 684 
L 1350 2113 
Q 1656 2463 1803 2609 
Q 1650 2600 1400 2597 
L 228 2591 
L 228 3319 
L 2972 3319 
L 2972 2697 
L 1703 1234 
L 1256 750 
Q 1622 772 1709 772 
L 3069 772 
L 3069 0 
L 106 0 
z
" transform="scale(0.015625)"/>
      <path id="Arial-BoldMT-6b" d="M 428 0 
L 428 4581 
L 1306 4581 
L 1306 2150 
L 2334 3319 
L 3416 3319 
L 2281 2106 
L 3497 0 
L 2550 0 
L 1716 1491 
L 1306 1063 
L 1306 0 
L 428 0 
z
" transform="scale(0.015625)"/>
      <path id="Arial-BoldMT-142" d="M 459 2250 
L 459 4581 
L 1338 4581 
L 1338 2997 
L 1766 3359 
L 1766 2766 
L 1338 2403 
L 1338 0 
L 459 0 
L 459 1656 
L 31 1294 
L 31 1888 
L 459 2250 
z
" transform="scale(0.015625)"/>
      <path id="Arial-BoldMT-61" d="M 1116 2306 
L 319 2450 
Q 453 2931 781 3162 
Q 1109 3394 1756 3394 
Q 2344 3394 2631 3255 
Q 2919 3116 3036 2902 
Q 3153 2688 3153 2116 
L 3144 1091 
Q 3144 653 3186 445 
Q 3228 238 3344 0 
L 2475 0 
Q 2441 88 2391 259 
Q 2369 338 2359 363 
Q 2134 144 1878 34 
Q 1622 -75 1331 -75 
Q 819 -75 523 203 
Q 228 481 228 906 
Q 228 1188 362 1408 
Q 497 1628 739 1745 
Q 981 1863 1438 1950 
Q 2053 2066 2291 2166 
L 2291 2253 
Q 2291 2506 2166 2614 
Q 2041 2722 1694 2722 
Q 1459 2722 1328 2630 
Q 1197 2538 1116 2306 
z
M 2291 1594 
Q 2122 1538 1756 1459 
Q 1391 1381 1278 1306 
Q 1106 1184 1106 997 
Q 1106 813 1243 678 
Q 1381 544 1594 544 
Q 1831 544 2047 700 
Q 2206 819 2256 991 
Q 2291 1103 2291 1419 
L 2291 1594 
z
" transform="scale(0.015625)"/>
      <path id="Arial-BoldMT-64" d="M 3503 0 
L 2688 0 
L 2688 488 
Q 2484 203 2207 64 
Q 1931 -75 1650 -75 
Q 1078 -75 670 386 
Q 263 847 263 1672 
Q 263 2516 659 2955 
Q 1056 3394 1663 3394 
Q 2219 3394 2625 2931 
L 2625 4581 
L 3503 4581 
L 3503 0 
z
M 1159 1731 
Q 1159 1200 1306 963 
Q 1519 619 1900 619 
Q 2203 619 2415 876 
Q 2628 1134 2628 1647 
Q 2628 2219 2422 2470 
Q 2216 2722 1894 2722 
Q 1581 2722 1370 2473 
Q 1159 2225 1159 1731 
z
" transform="scale(0.015625)"/>
      <path id="Arial-BoldMT-20" transform="scale(0.015625)"/>
      <path id="Arial-BoldMT-75" d="M 2644 0 
L 2644 497 
Q 2463 231 2167 78 
Q 1872 -75 1544 -75 
Q 1209 -75 943 72 
Q 678 219 559 484 
Q 441 750 441 1219 
L 441 3319 
L 1319 3319 
L 1319 1794 
Q 1319 1094 1367 936 
Q 1416 778 1544 686 
Q 1672 594 1869 594 
Q 2094 594 2272 717 
Q 2450 841 2515 1023 
Q 2581 1206 2581 1919 
L 2581 3319 
L 3459 3319 
L 3459 0 
L 2644 0 
z
" transform="scale(0.015625)"/>
      <path id="Arial-BoldMT-67" d="M 378 -219 
L 1381 -341 
Q 1406 -516 1497 -581 
Q 1622 -675 1891 -675 
Q 2234 -675 2406 -572 
Q 2522 -503 2581 -350 
Q 2622 -241 2622 53 
L 2622 538 
Q 2228 0 1628 0 
Q 959 0 569 566 
Q 263 1013 263 1678 
Q 263 2513 664 2953 
Q 1066 3394 1663 3394 
Q 2278 3394 2678 2853 
L 2678 3319 
L 3500 3319 
L 3500 341 
Q 3500 -247 3403 -537 
Q 3306 -828 3131 -993 
Q 2956 -1159 2664 -1253 
Q 2372 -1347 1925 -1347 
Q 1081 -1347 728 -1058 
Q 375 -769 375 -325 
Q 375 -281 378 -219 
z
M 1163 1728 
Q 1163 1200 1367 954 
Q 1572 709 1872 709 
Q 2194 709 2416 961 
Q 2638 1213 2638 1706 
Q 2638 2222 2425 2472 
Q 2213 2722 1888 2722 
Q 1572 2722 1367 2476 
Q 1163 2231 1163 1728 
z
" transform="scale(0.015625)"/>
      <path id="Arial-BoldMT-15b" d="M 150 947 
L 1031 1081 
Q 1088 825 1259 692 
Q 1431 559 1741 559 
Q 2081 559 2253 684 
Q 2369 772 2369 919 
Q 2369 1019 2306 1084 
Q 2241 1147 2013 1200 
Q 950 1434 666 1628 
Q 272 1897 272 2375 
Q 272 2806 612 3100 
Q 953 3394 1669 3394 
Q 2350 3394 2681 3172 
Q 3013 2950 3138 2516 
L 2309 2363 
Q 2256 2556 2107 2659 
Q 1959 2763 1684 2763 
Q 1338 2763 1188 2666 
Q 1088 2597 1088 2488 
Q 1088 2394 1175 2328 
Q 1294 2241 1995 2081 
Q 2697 1922 2975 1691 
Q 3250 1456 3250 1038 
Q 3250 581 2869 253 
Q 2488 -75 1741 -75 
Q 1063 -75 667 200 
Q 272 475 150 947 
z
M 1419 3725 
L 1850 4659 
L 2834 4659 
L 1975 3725 
L 1419 3725 
z
" transform="scale(0.015625)"/>
      <path id="Arial-BoldMT-63" d="M 3353 2338 
L 2488 2181 
Q 2444 2441 2289 2572 
Q 2134 2703 1888 2703 
Q 1559 2703 1364 2476 
Q 1169 2250 1169 1719 
Q 1169 1128 1367 884 
Q 1566 641 1900 641 
Q 2150 641 2309 783 
Q 2469 925 2534 1272 
L 3397 1125 
Q 3263 531 2881 228 
Q 2500 -75 1859 -75 
Q 1131 -75 698 384 
Q 266 844 266 1656 
Q 266 2478 700 2936 
Q 1134 3394 1875 3394 
Q 2481 3394 2839 3133 
Q 3197 2872 3353 2338 
z
" transform="scale(0.015625)"/>
      <path id="Arial-BoldMT-69" d="M 459 3769 
L 459 4581 
L 1338 4581 
L 1338 3769 
L 459 3769 
z
M 459 0 
L 459 3319 
L 1338 3319 
L 1338 0 
L 459 0 
z
" transform="scale(0.015625)"/>
      <path id="Arial-BoldMT-73" d="M 150 947 
L 1031 1081 
Q 1088 825 1259 692 
Q 1431 559 1741 559 
Q 2081 559 2253 684 
Q 2369 772 2369 919 
Q 2369 1019 2306 1084 
Q 2241 1147 2013 1200 
Q 950 1434 666 1628 
Q 272 1897 272 2375 
Q 272 2806 612 3100 
Q 953 3394 1669 3394 
Q 2350 3394 2681 3172 
Q 3013 2950 3138 2516 
L 2309 2363 
Q 2256 2556 2107 2659 
Q 1959 2763 1684 2763 
Q 1338 2763 1188 2666 
Q 1088 2597 1088 2488 
Q 1088 2394 1175 2328 
Q 1294 2241 1995 2081 
Q 2697 1922 2975 1691 
Q 3250 1456 3250 1038 
Q 3250 581 2869 253 
Q 2488 -75 1741 -75 
Q 1063 -75 667 200 
Q 272 475 150 947 
z
" transform="scale(0.015625)"/>
      <path id="Arial-BoldMT-65" d="M 2381 1056 
L 3256 909 
Q 3088 428 2723 176 
Q 2359 -75 1813 -75 
Q 947 -75 531 491 
Q 203 944 203 1634 
Q 203 2459 634 2926 
Q 1066 3394 1725 3394 
Q 2466 3394 2894 2905 
Q 3322 2416 3303 1406 
L 1103 1406 
Q 1113 1016 1316 798 
Q 1519 581 1822 581 
Q 2028 581 2168 693 
Q 2309 806 2381 1056 
z
M 2431 1944 
Q 2422 2325 2234 2523 
Q 2047 2722 1778 2722 
Q 1491 2722 1303 2513 
Q 1116 2303 1119 1944 
L 2431 1944 
z
" transform="scale(0.015625)"/>
      <path id="Arial-BoldMT-77" d="M 1078 0 
L 28 3319 
L 881 3319 
L 1503 1144 
L 2075 3319 
L 2922 3319 
L 3475 1144 
L 4109 3319 
L 4975 3319 
L 3909 0 
L 3066 0 
L 2494 2134 
L 1931 0 
L 1078 0 
z
" transform="scale(0.015625)"/>
      <path id="Arial-BoldMT-6e" d="M 3478 0 
L 2600 0 
L 2600 1694 
Q 2600 2231 2544 2389 
Q 2488 2547 2361 2634 
Q 2234 2722 2056 2722 
Q 1828 2722 1647 2597 
Q 1466 2472 1398 2265 
Q 1331 2059 1331 1503 
L 1331 0 
L 453 0 
L 453 3319 
L 1269 3319 
L 1269 2831 
Q 1703 3394 2363 3394 
Q 2653 3394 2893 3289 
Q 3134 3184 3257 3021 
Q 3381 2859 3429 2653 
Q 3478 2447 3478 2063 
L 3478 0 
z
" transform="scale(0.015625)"/>
      <path id="Arial-BoldMT-6a" d="M 441 3769 
L 441 4581 
L 1319 4581 
L 1319 3769 
L 441 3769 
z
M 1319 3319 
L 1319 103 
Q 1319 -531 1236 -792 
Q 1153 -1053 917 -1200 
Q 681 -1347 316 -1347 
Q 184 -1347 32 -1323 
Q -119 -1300 -294 -1253 
L -141 -503 
Q -78 -516 -23 -523 
Q 31 -531 78 -531 
Q 213 -531 298 -473 
Q 384 -416 412 -334 
Q 441 -253 441 153 
L 441 3319 
L 1319 3319 
z
" transform="scale(0.015625)"/>
      <path id="Arial-BoldMT-70" d="M 434 3319 
L 1253 3319 
L 1253 2831 
Q 1413 3081 1684 3237 
Q 1956 3394 2288 3394 
Q 2866 3394 3269 2941 
Q 3672 2488 3672 1678 
Q 3672 847 3265 386 
Q 2859 -75 2281 -75 
Q 2006 -75 1782 34 
Q 1559 144 1313 409 
L 1313 -1263 
L 434 -1263 
L 434 3319 
z
M 1303 1716 
Q 1303 1156 1525 889 
Q 1747 622 2066 622 
Q 2372 622 2575 867 
Q 2778 1113 2778 1672 
Q 2778 2194 2568 2447 
Q 2359 2700 2050 2700 
Q 1728 2700 1515 2451 
Q 1303 2203 1303 1716 
z
" transform="scale(0.015625)"/>
     </defs>
     <use xlink:href="#Arial-BoldMT-52"/>
     <use xlink:href="#Arial-BoldMT-6f" transform="translate(72.216797 0)"/>
     <use xlink:href="#Arial-BoldMT-7a" transform="translate(133.300781 0)"/>
     <use xlink:href="#Arial-BoldMT-6b" transform="translate(183.300781 0)"/>
     <use xlink:href="#Arial-BoldMT-142" transform="translate(238.916016 0)"/>
     <use xlink:href="#Arial-BoldMT-61" transform="translate(266.699219 0)"/>
     <use xlink:href="#Arial-BoldMT-64" transform="translate(322.314453 0)"/>
     <use xlink:href="#Arial-BoldMT-20" transform="translate(383.398438 0)"/>
     <use xlink:href="#Arial-BoldMT-64" transform="translate(411.181641 0)"/>
     <use xlink:href="#Arial-BoldMT-142" transform="translate(472.265625 0)"/>
     <use xlink:href="#Arial-BoldMT-75" transform="translate(500.048828 0)"/>
     <use xlink:href="#Arial-BoldMT-67" transform="translate(561.132812 0)"/>
     <use xlink:href="#Arial-BoldMT-6f" transform="translate(622.216797 0)"/>
     <use xlink:href="#Arial-BoldMT-15b" transform="translate(683.300781 0)"/>
     <use xlink:href="#Arial-BoldMT-63" transform="translate(738.916016 0)"/>
     <use xlink:href="#Arial-BoldMT-69" transform="translate(794.53125 0)"/>
     <use xlink:href="#Arial-BoldMT-20" transform="translate(822.314453 0)"/>
     <use xlink:href="#Arial-BoldMT-73" transform="translate(850.097656 0)"/>
     <use xlink:href="#Arial-BoldMT-65" transform="translate(905.712891 0)"/>
     <use xlink:href="#Arial-BoldMT-6b" transform="translate(961.328125 0)"/>
     <use xlink:href="#Arial-BoldMT-77" transform="translate(1016.943359 0)"/>
     <use xlink:href="#Arial-BoldMT-65" transform="translate(1094.726562 0)"/>
     <use xlink:href="#Arial-BoldMT-6e" transform="translate(1150.341797 0)"/>
     <use xlink:href="#Arial-BoldMT-63" transform="translate(1211.425781 0)"/>
     <use xlink:href="#Arial-BoldMT-6a" transform="translate(1267.041016 0)"/>
     <use xlink:href="#Arial-BoldMT-69" transform="translate(1294.824219 0)"/>
     <use xlink:href="#Arial-BoldMT-20" transform="translate(1322.607422 0)"/>
     <use xlink:href="#Arial-BoldMT-70" transform="translate(1350.390625 0)"/>
     <use xlink:href="#Arial-BoldMT-6f" transform="translate(1411.474609 0)"/>
     <use xlink:href="#Arial-BoldMT-20" transform="translate(1472.558594 0)"/>
     <use xlink:href="#Arial-BoldMT-64" transform="translate(1500.341797 0)"/>
     <use xlink:href="#Arial-BoldMT-6f" transform="translate(1561.425781 0)"/>
     <use xlink:href="#Arial-BoldMT-70" transform="translate(1622.509766 0)"/>
     <use xlink:href="#Arial-BoldMT-61" transform="translate(1683.59375 0)"/>
     <use xlink:href="#Arial-BoldMT-73" transform="translate(1739.208984 0)"/>
     <use xlink:href="#Arial-BoldMT-6f" transform="translate(1794.824219 0)"/>
     <use xlink:href="#Arial-BoldMT-77" transform="translate(1855.908203 0)"/>
     <use xlink:href="#Arial-BoldMT-61" transform="translate(1933.691406 0)"/>
     <use xlink:href="#Arial-BoldMT-6e" transform="translate(1989.306641 0)"/>
     <use xlink:href="#Arial-BoldMT-69" transform="translate(2050.390625 0)"/>
     <use xlink:href="#Arial-BoldMT-75" transform="translate(2078.173828 0)"/>
    </g>
   </g>
   <g id="legend_1">
    <g id="patch_5">
     <path d="M 594.927031 72.569062 
L 693.696719 72.569062 
Q 695.896719 72.569062 695.896719 70.369062 
L 695.896719 40.091562 
Q 695.896719 37.891562 693.696719 37.891562 
L 594.927031 37.891562 
Q 592.727031 37.891562 592.727031 40.091562 
L 592.727031 70.369062 
Q 592.727031 72.569062 594.927031 72.569062 
z
" style="fill: #ffffff; opacity: 0.8"/>
    </g>
    <g id="patch_6">
     <path d="M 597.127031 50.165156 
L 619.127031 50.165156 
L 619.127031 42.465156 
L 597.127031 42.465156 
z
" style="fill: #e63946; fill-opacity: 0.4; stroke: #e63946; stroke-linejoin: miter"/>
    </g>
    <g id="text_15">
     <!-- Amyloidy -->
     <g style="fill: #262626" transform="translate(627.927031 50.165156) scale(0.11 -0.11)">
      <defs>
       <path id="ArialMT-41" d="M -9 0 
L 1750 4581 
L 2403 4581 
L 4278 0 
L 3588 0 
L 3053 1388 
L 1138 1388 
L 634 0 
L -9 0 
z
M 1313 1881 
L 2866 1881 
L 2388 3150 
Q 2169 3728 2063 4100 
Q 1975 3659 1816 3225 
L 1313 1881 
z
" transform="scale(0.015625)"/>
       <path id="ArialMT-64" d="M 2575 0 
L 2575 419 
Q 2259 -75 1647 -75 
Q 1250 -75 917 144 
Q 584 363 401 755 
Q 219 1147 219 1656 
Q 219 2153 384 2558 
Q 550 2963 881 3178 
Q 1213 3394 1622 3394 
Q 1922 3394 2156 3267 
Q 2391 3141 2538 2938 
L 2538 4581 
L 3097 4581 
L 3097 0 
L 2575 0 
z
M 797 1656 
Q 797 1019 1065 703 
Q 1334 388 1700 388 
Q 2069 388 2326 689 
Q 2584 991 2584 1609 
Q 2584 2291 2321 2609 
Q 2059 2928 1675 2928 
Q 1300 2928 1048 2622 
Q 797 2316 797 1656 
z
" transform="scale(0.015625)"/>
      </defs>
      <use xlink:href="#ArialMT-41"/>
      <use xlink:href="#ArialMT-6d" transform="translate(66.699219 0)"/>
      <use xlink:href="#ArialMT-79" transform="translate(150 0)"/>
      <use xlink:href="#ArialMT-6c" transform="translate(200 0)"/>
      <use xlink:href="#ArialMT-6f" transform="translate(222.216797 0)"/>
      <use xlink:href="#ArialMT-69" transform="translate(277.832031 0)"/>
      <use xlink:href="#ArialMT-64" transform="translate(300.048828 0)"/>
      <use xlink:href="#ArialMT-79" transform="translate(355.664062 0)"/>
     </g>
    </g>
    <g id="patch_7">
     <path d="M 597.127031 65.853906 
L 619.127031 65.853906 
L 619.127031 58.153906 
L 597.127031 58.153906 
z
" style="fill: #1d3557; fill-opacity: 0.4; stroke: #1d3557; stroke-linejoin: miter"/>
    </g>
    <g id="text_16">
     <!-- Nie-amyloidy -->
     <g style="fill: #262626" transform="translate(627.927031 65.853906) scale(0.11 -0.11)">
      <defs>
       <path id="ArialMT-4e" d="M 488 0 
L 488 4581 
L 1109 4581 
L 3516 984 
L 3516 4581 
L 4097 4581 
L 4097 0 
L 3475 0 
L 1069 3600 
L 1069 0 
L 488 0 
z
" transform="scale(0.015625)"/>
       <path id="ArialMT-2d" d="M 203 1375 
L 203 1941 
L 1931 1941 
L 1931 1375 
L 203 1375 
z
" transform="scale(0.015625)"/>
      </defs>
      <use xlink:href="#ArialMT-4e"/>
      <use xlink:href="#ArialMT-69" transform="translate(72.216797 0)"/>
      <use xlink:href="#ArialMT-65" transform="translate(94.433594 0)"/>
      <use xlink:href="#ArialMT-2d" transform="translate(150.048828 0)"/>
      <use xlink:href="#ArialMT-61" transform="translate(183.349609 0)"/>
      <use xlink:href="#ArialMT-6d" transform="translate(238.964844 0)"/>
      <use xlink:href="#ArialMT-79" transform="translate(322.265625 0)"/>
      <use xlink:href="#ArialMT-6c" transform="translate(372.265625 0)"/>
      <use xlink:href="#ArialMT-6f" transform="translate(394.482422 0)"/>
      <use xlink:href="#ArialMT-69" transform="translate(450.097656 0)"/>
      <use xlink:href="#ArialMT-64" transform="translate(472.314453 0)"/>
      <use xlink:href="#ArialMT-79" transform="translate(527.929688 0)"/>
     </g>
    </g>
   </g>
  </g>
 </g>
 <defs>
  <clipPath id="p7327f28a29">
   <rect x="56.212969" y="32.391562" width="645.18375" height="340.5075"/>
  </clipPath>
 </defs>
</svg>
